<svg width="297" height="198" viewBox="0 0 297 198" fill="none" xmlns="http://www.w3.org/2000/svg">
<path d="M267.278 185.975H33.4148C30.4914 185.975 28.1216 183.606 28.1216 180.682V5.53093C28.1216 2.60853 30.4914 0.237946 33.4148 0.237946H267.278C270.201 0.237946 272.571 2.60853 272.571 5.53093V180.682C272.571 183.606 270.201 185.975 267.278 185.975Z" fill="white"/>
<path d="M33.4149 0.47731C30.6275 0.47731 28.3599 2.74405 28.3599 5.5312V180.682C28.3599 183.47 30.6275 185.737 33.4149 185.737H267.278C270.065 185.737 272.332 183.47 272.332 180.682V5.5312C272.332 2.74405 270.065 0.47731 267.278 0.47731H33.4149ZM267.278 186.215H33.4149C30.3647 186.215 27.8831 183.732 27.8831 180.682V5.5312C27.8831 2.48112 30.3647 0.000183105 33.4149 0.000183105H267.278C270.328 0.000183105 272.809 2.48112 272.809 5.5312V180.682C272.809 183.732 270.328 186.215 267.278 186.215Z" fill="black"/>
<path d="M41.9172 10.572C41.9172 12.7003 40.1906 14.4249 38.0607 14.4249C35.9308 14.4249 34.2041 12.7003 34.2041 10.572C34.2041 8.44381 35.9308 6.71916 38.0607 6.71916C40.1906 6.71916 41.9172 8.44381 41.9172 10.572Z" fill="white"/>
<path d="M38.061 6.95707C36.0659 6.95707 34.4429 8.57894 34.4429 10.5719C34.4429 12.5649 36.0659 14.1868 38.061 14.1868C40.0559 14.1868 41.679 12.5649 41.679 10.5719C41.679 8.57894 40.0559 6.95707 38.061 6.95707ZM38.061 14.6628C35.8029 14.6628 33.9661 12.8278 33.9661 10.5719C33.9661 8.31602 35.8029 6.481 38.061 6.481C40.319 6.481 42.1558 8.31602 42.1558 10.5719C42.1558 12.8278 40.319 14.6628 38.061 14.6628Z" fill="black"/>
<path d="M53.1717 10.572C53.1717 12.7003 51.4452 14.4249 49.3152 14.4249C47.1853 14.4249 45.4587 12.7003 45.4587 10.572C45.4587 8.44381 47.1853 6.71916 49.3152 6.71916C51.4452 6.71916 53.1717 8.44381 53.1717 10.572Z" fill="white"/>
<path d="M49.3154 6.95707C47.3203 6.95707 45.6972 8.57894 45.6972 10.5719C45.6972 12.5649 47.3203 14.1868 49.3154 14.1868C51.3103 14.1868 52.9335 12.5649 52.9335 10.5719C52.9335 8.57894 51.3103 6.95707 49.3154 6.95707ZM49.3154 14.6628C47.0573 14.6628 45.2205 12.8278 45.2205 10.5719C45.2205 8.31602 47.0573 6.481 49.3154 6.481C51.5733 6.481 53.4102 8.31602 53.4102 10.5719C53.4102 12.8278 51.5733 14.6628 49.3154 14.6628Z" fill="black"/>
<path d="M64.4262 10.572C64.4262 12.7003 62.6995 14.4249 60.5697 14.4249C58.4398 14.4249 56.7131 12.7003 56.7131 10.572C56.7131 8.44381 58.4398 6.71916 60.5697 6.71916C62.6995 6.71916 64.4262 8.44381 64.4262 10.572Z" fill="white"/>
<path d="M60.5699 6.95707C58.575 6.95707 56.9518 8.57894 56.9518 10.5719C56.9518 12.5649 58.575 14.1868 60.5699 14.1868C62.5648 14.1868 64.188 12.5649 64.188 10.5719C64.188 8.57894 62.5648 6.95707 60.5699 6.95707ZM60.5699 14.6628C58.3119 14.6628 56.4751 12.8278 56.4751 10.5719C56.4751 8.31602 58.3119 6.481 60.5699 6.481C62.828 6.481 64.6648 8.31602 64.6648 10.5719C64.6648 12.8278 62.828 14.6628 60.5699 14.6628Z" fill="black"/>
<path d="M235.116 12.6634H103.407C102.06 12.6634 100.969 11.5717 100.969 10.2246C100.969 8.87758 102.06 7.78479 103.407 7.78479H235.116C236.463 7.78479 237.555 8.87758 237.555 10.2246C237.555 11.5717 236.463 12.6634 235.116 12.6634Z" fill="white"/>
<path d="M103.408 8.02387C102.193 8.02387 101.207 9.01062 101.207 10.2246C101.207 11.4375 102.193 12.4253 103.408 12.4253H235.116C236.329 12.4253 237.317 11.4375 237.317 10.2246C237.317 9.01062 236.329 8.02387 235.116 8.02387H103.408ZM235.116 12.9025H103.408C101.931 12.9025 100.729 11.7004 100.729 10.2246C100.729 8.74771 101.931 7.54672 103.408 7.54672H235.116C236.592 7.54672 237.793 8.74771 237.793 10.2246C237.793 11.7004 236.592 12.9025 235.116 12.9025Z" fill="black"/>
<path d="M32.5318 179.825H268.161V20.6787H32.5318V179.825ZM268.399 180.303H32.2934C32.1616 180.303 32.0549 180.195 32.0549 180.065V20.4407C32.0549 20.3087 32.1616 20.2026 32.2934 20.2026H268.399C268.531 20.2026 268.637 20.3087 268.637 20.4407V180.065C268.637 180.195 268.531 180.303 268.399 180.303Z" fill="black"/>
<path d="M81.8265 87.8548L8.59468 100.498L0.238525 52.1812L73.47 39.5395L81.8265 87.8548Z" fill="white"/>
<path d="M0.514004 52.3759L8.789 100.222L81.5505 87.661L73.2752 39.8153L0.514004 52.3759ZM8.59446 100.736C8.48063 100.736 8.37978 100.653 8.35977 100.538L0.00350263 52.2222C-0.00731762 52.1595 0.00718099 52.0956 0.043537 52.0448C0.0801095 51.9928 0.135509 51.9571 0.197942 51.9463L73.4288 39.3046C73.5587 39.283 73.682 39.3695 73.7048 39.4994L82.0612 87.8147C82.0721 87.8763 82.0569 87.9402 82.0212 87.9921C81.9844 88.044 81.9292 88.0787 81.8665 88.0895L8.63514 100.732C8.6214 100.734 8.60787 100.736 8.59446 100.736Z" fill="black"/>
<path d="M77.9539 65.4678L4.72287 78.1095L0.238525 52.1812L73.47 39.5395L77.9539 65.4678Z" fill="white"/>
<path d="M0.514004 52.376L4.9172 77.8347L77.678 65.273L73.2752 39.8154L0.514004 52.376ZM4.72254 78.3486C4.60871 78.3486 4.50786 78.2664 4.48795 78.1506L0.00350263 52.2223C-0.00731762 52.1596 0.00718099 52.0957 0.043537 52.0449C0.0801095 51.993 0.135509 51.9573 0.197942 51.9464L73.4288 39.3047C73.5587 39.2831 73.682 39.3696 73.7048 39.4995L78.1887 65.4278C78.1995 65.4894 78.1854 65.5533 78.1486 65.6052C78.1129 65.6571 78.0567 65.6918 77.995 65.7026L4.76333 78.3443C4.74959 78.3465 4.73606 78.3486 4.72254 78.3486Z" fill="black"/>
<path d="M0.514004 52.3759L8.789 100.222L45.2668 93.9245L36.9918 46.0788L0.514004 52.3759ZM8.59446 100.736C8.48063 100.736 8.37978 100.653 8.35977 100.538L0.00350263 52.2222C-0.00731762 52.1595 0.00718099 52.0956 0.043537 52.0448C0.0801095 51.9928 0.135509 51.9571 0.197942 51.9463L37.1456 45.5681C37.2754 45.5465 37.3987 45.633 37.4211 45.7629L45.7773 94.0782C45.7881 94.1398 45.7736 94.2048 45.7372 94.2556C45.7007 94.3076 45.6454 94.3433 45.5829 94.3541L8.63514 100.732C8.6214 100.734 8.60787 100.736 8.59446 100.736Z" fill="black"/>
<path d="M74.2328 43.9506L1.00135 56.5923L0.238525 52.1811L73.47 39.5394L74.2328 43.9506Z" fill="white"/>
<path d="M0.514004 52.376L1.19557 56.3176L73.9569 43.756L73.2752 39.8155L0.514004 52.376ZM1.00113 56.8305C0.8873 56.8305 0.786456 56.7494 0.766439 56.6336L0.00350263 52.2224C-0.00731762 52.1596 0.00718099 52.0958 0.043537 52.045C0.0801095 51.993 0.135509 51.9573 0.197942 51.9465L73.4288 39.3048C73.5587 39.2831 73.682 39.3697 73.7048 39.4984L74.4676 43.9096C74.4784 43.9724 74.4644 44.0362 74.4276 44.0882C74.3908 44.1401 74.3356 44.1747 74.2728 44.1855L1.04192 56.8273C1.02829 56.8294 1.01455 56.8305 1.00113 56.8305Z" fill="black"/>
<path d="M211.264 62.7067H170.389V32.3175H211.264V62.7067Z" fill="#F29D00"/>
<path d="M150.42 91.436C150.288 91.436 150.182 91.3289 150.182 91.1979V68.8466C150.182 68.7146 150.288 68.6086 150.42 68.6086H231.234C231.366 68.6086 231.472 68.7146 231.472 68.8466V90.0099C231.472 90.1419 231.366 90.2491 231.234 90.2491C231.102 90.2491 230.996 90.1419 230.996 90.0099V69.0847H150.658V91.1979C150.658 91.3289 150.552 91.436 150.42 91.436Z" fill="black"/>
<path d="M190.581 68.8813C190.449 68.8813 190.343 68.7742 190.343 68.6422V62.7065C190.343 62.5756 190.449 62.4685 190.581 62.4685C190.713 62.4685 190.819 62.5756 190.819 62.7065V68.6422C190.819 68.7742 190.713 68.8813 190.581 68.8813Z" fill="black"/>
<path d="M171.146 105.704H130.271V75.3137H171.146V105.704Z" fill="white"/>
<path d="M130.509 105.465H170.908V75.5516H130.509V105.465ZM171.146 105.942H130.271C130.139 105.942 130.033 105.835 130.033 105.703V75.3136C130.033 75.1816 130.139 75.0755 130.271 75.0755H171.146C171.278 75.0755 171.384 75.1816 171.384 75.3136V105.703C171.384 105.835 171.278 105.942 171.146 105.942Z" fill="black"/>
<path d="M251.383 105.704H210.509V75.3137H251.383V105.704Z" fill="#337AB7"/>
<path d="M103.736 135.162C103.604 135.162 103.498 135.055 103.498 134.923V112.572C103.498 112.44 103.604 112.334 103.736 112.334H166.314C166.445 112.334 166.552 112.44 166.552 112.572V133.736C166.552 133.868 166.445 133.974 166.314 133.974C166.182 133.974 166.075 133.868 166.075 133.736V112.81H103.975V134.923C103.975 135.055 103.868 135.162 103.736 135.162Z" fill="black"/>
<path d="M154.109 112.606C153.977 112.606 153.871 112.5 153.871 112.368V106.432C153.871 106.3 153.977 106.194 154.109 106.194C154.241 106.194 154.348 106.3 154.348 106.432V112.368C154.348 112.5 154.241 112.606 154.109 112.606Z" fill="black"/>
<path d="M124.461 149.429H83.5869V119.039H124.461V149.429Z" fill="#337AB7"/>
<path d="M186.464 149.429H145.589V119.039H186.464V149.429Z" fill="white"/>
<path d="M145.827 149.191H186.225V119.277H145.827V149.191ZM186.464 149.668H145.589C145.457 149.668 145.351 149.561 145.351 149.429V119.039C145.351 118.907 145.457 118.8 145.589 118.8H186.464C186.595 118.8 186.702 118.907 186.702 119.039V149.429C186.702 149.561 186.595 149.668 186.464 149.668Z" fill="black"/>
<path d="M275.728 135.162C275.596 135.162 275.49 135.055 275.49 134.923V112.81H217.036V133.736C217.036 133.868 216.93 133.974 216.798 133.974C216.666 133.974 216.56 133.868 216.56 133.736V112.572C216.56 112.44 216.666 112.334 216.798 112.334H275.728C275.86 112.334 275.966 112.44 275.966 112.572V134.923C275.966 135.055 275.86 135.162 275.728 135.162Z" fill="black"/>
<path d="M229.004 112.606C228.872 112.606 228.764 112.5 228.764 112.368V106.432C228.764 106.3 228.872 106.194 229.004 106.194C229.134 106.194 229.242 106.3 229.242 106.432V112.368C229.242 112.5 229.134 112.606 229.004 112.606Z" fill="black"/>
<path d="M255.733 149.429H296.607V119.039H255.733V149.429Z" fill="white"/>
<path d="M255.971 149.191H296.369V119.277H255.971V149.191ZM296.607 149.668H255.733C255.601 149.668 255.495 149.561 255.495 149.429V119.039C255.495 118.907 255.601 118.8 255.733 118.8H296.607C296.74 118.8 296.846 118.907 296.846 119.039V149.429C296.846 149.561 296.74 149.668 296.607 149.668Z" fill="black"/>
<path d="M196.649 149.429H237.523V119.039H196.649V149.429Z" fill="white"/>
<path d="M196.887 149.191H237.285V119.277H196.887V149.191ZM237.524 149.668H196.649C196.517 149.668 196.411 149.561 196.411 149.429V119.039C196.411 118.907 196.517 118.8 196.649 118.8H237.524C237.656 118.8 237.762 118.907 237.762 119.039V149.429C237.762 149.561 237.656 149.668 237.524 149.668Z" fill="black"/>
<path d="M146.868 123.985L85.396 82.2611L112.975 41.7036L174.447 83.4275L146.868 123.985Z" fill="white"/>
<path d="M85.7272 82.1972L146.804 123.654L174.116 83.4912L113.039 42.0345L85.7272 82.1972ZM146.868 124.223C146.822 124.223 146.775 124.21 146.734 124.182L85.2619 82.4579C85.21 82.4222 85.1732 82.3681 85.1613 82.3054C85.1494 82.2437 85.1624 82.1788 85.1981 82.1268L112.778 41.5692C112.851 41.4611 113.001 41.4329 113.109 41.5065L174.581 83.2304C174.633 83.2662 174.67 83.3202 174.682 83.383C174.693 83.4447 174.68 83.5096 174.645 83.5615L147.065 124.119C147.018 124.186 146.944 124.223 146.868 124.223Z" fill="black"/>
<path d="M116.066 103.078L85.396 82.2611L112.975 41.7035L143.645 62.5205L116.066 103.078Z" fill="white"/>
<path d="M85.7272 82.1971L116.002 102.747L143.314 62.5842L113.039 42.0344L85.7272 82.1971ZM116.065 103.316C116.02 103.316 115.973 103.303 115.932 103.275L85.2619 82.4578C85.21 82.4221 85.1732 82.368 85.1613 82.3053C85.1494 82.2436 85.1624 82.1787 85.1981 82.1268L112.778 41.5692C112.851 41.461 113.001 41.4328 113.109 41.5064L143.779 62.3235C143.831 62.3592 143.868 62.4133 143.88 62.4761C143.891 62.5377 143.877 62.6026 143.843 62.6546L116.263 103.212C116.216 103.279 116.142 103.316 116.065 103.316Z" fill="black"/>
<path d="M105.865 96.1544L85.396 82.2609L94.9925 68.1477L115.462 82.0412L105.865 96.1544Z" fill="white"/>
<path d="M85.7272 82.1972L105.802 95.8235L115.13 82.1052L95.0553 68.4789L85.7272 82.1972ZM105.865 96.3926C105.818 96.3926 105.772 96.3797 105.731 96.3515L85.2619 82.458C85.21 82.4223 85.1732 82.3682 85.1613 82.3054C85.1494 82.2437 85.1624 82.1788 85.1981 82.1269L94.7956 68.0137C94.8692 67.9055 95.0174 67.8763 95.1267 67.9509L115.595 81.8445C115.648 81.8802 115.684 81.9343 115.696 81.997C115.708 82.0587 115.695 82.1236 115.659 82.1756L106.062 96.2888C106.016 96.3559 105.942 96.3926 105.865 96.3926Z" fill="black"/>
<path d="M126.358 110.064L105.889 96.1707L115.486 82.0575L135.955 95.9511L126.358 110.064Z" fill="white"/>
<path d="M106.221 96.1071L126.296 109.733L135.624 96.0141L115.549 82.3888L106.221 96.1071ZM126.358 110.303C126.312 110.303 126.265 110.29 126.224 110.261L105.756 96.3679C105.703 96.3322 105.667 96.277 105.655 96.2153C105.643 96.1525 105.656 96.0887 105.692 96.0368L115.288 81.9236C115.363 81.8154 115.511 81.7873 115.619 81.8608L136.089 95.7544C136.141 95.789 136.178 95.8442 136.19 95.9069C136.202 95.9686 136.188 96.0324 136.153 96.0855L126.555 110.199C126.51 110.266 126.434 110.303 126.358 110.303Z" fill="black"/>
<path d="M146.852 123.974L126.382 110.081L135.98 95.9674L156.448 109.861L146.852 123.974Z" fill="white"/>
<path d="M126.713 110.017L146.788 123.642L156.117 109.924L136.042 96.2984L126.713 110.017ZM146.851 124.212C146.805 124.212 146.759 124.199 146.718 124.171L126.249 110.277C126.196 110.242 126.16 110.187 126.148 110.125C126.136 110.063 126.149 109.998 126.185 109.946L135.782 95.8331C135.856 95.7249 136.005 95.6968 136.113 95.7704L156.582 109.664C156.634 109.699 156.671 109.754 156.682 109.817C156.694 109.878 156.681 109.942 156.645 109.995L147.049 124.107C147.002 124.175 146.928 124.212 146.851 124.212Z" fill="black"/>
<path d="M171.929 87.1299L110.457 45.4059L112.975 41.7034L174.447 83.4274L171.929 87.1299Z" fill="white"/>
<path d="M110.788 45.3432L171.866 86.7988L174.116 83.4912L113.038 42.0345L110.788 45.3432ZM171.929 87.369C171.883 87.369 171.836 87.355 171.796 87.3279L110.324 45.6029C110.271 45.5683 110.235 45.5131 110.223 45.4514C110.211 45.3886 110.224 45.3248 110.26 45.2718L112.778 41.5693C112.851 41.4611 113.001 41.433 113.109 41.5065L174.581 83.2305C174.633 83.2662 174.67 83.3203 174.681 83.383C174.693 83.4447 174.68 83.5096 174.645 83.5616L172.127 87.2641C172.08 87.3322 172.006 87.369 171.929 87.369Z" fill="black"/>
<path d="M156.51 109.805L95.0381 68.0806L99.4787 61.5509L160.951 103.275L156.51 109.805Z" fill="white"/>
<path d="M95.3692 68.0181L156.447 109.474L160.62 103.339L99.5415 61.8822L95.3692 68.0181ZM156.51 110.043C156.464 110.043 156.417 110.03 156.377 110.002L94.9039 68.2777C94.852 68.2431 94.8162 68.1879 94.8043 68.1252C94.7924 68.0635 94.8054 67.9997 94.8411 67.9466L99.2807 61.417C99.3553 61.3088 99.5036 61.2795 99.6118 61.3542L161.085 103.078C161.137 103.114 161.173 103.168 161.184 103.231C161.196 103.292 161.183 103.357 161.148 103.409L156.708 109.939C156.662 110.007 156.587 110.043 156.51 110.043Z" fill="black"/>
<path d="M66.927 131.79L76.1826 197.126H44.9601L41.2321 184.788L37.9702 197.126H5.73804C5.73804 197.126 12.9367 164.07 20.9924 147.775C29.0482 131.48 39.332 126.514 39.332 126.514L66.927 131.79Z" fill="white"/>
<path d="M5.73804 197.126C5.73804 197.126 12.9367 164.07 20.9924 147.775C29.0482 131.48 39.332 126.514 39.332 126.514L66.927 131.79L76.1826 197.126H5.73804Z" fill="white"/>
<path d="M5.73827 197.364C5.7215 197.364 5.70451 197.362 5.6873 197.359C5.55876 197.331 5.47707 197.204 5.50498 197.075C5.57715 196.744 12.8024 163.804 20.7786 147.669C28.7779 131.488 39.1248 126.349 39.2283 126.299C39.2741 126.277 39.3268 126.27 39.3767 126.28L66.9717 131.555C67.0719 131.575 67.1487 131.656 67.1631 131.757L76.4184 197.092C76.4368 197.222 76.3459 197.343 76.2161 197.362C76.0841 197.378 75.965 197.289 75.9466 197.16L66.7149 131.993L39.3673 126.763C38.4594 127.235 28.7862 132.548 21.206 147.88C13.2554 163.964 6.04275 196.846 5.97101 197.177C5.94666 197.288 5.84788 197.364 5.73827 197.364Z" fill="black"/>
<path d="M44.9602 197.126L41.2322 184.788L37.9702 197.126H44.9602Z" fill="white"/>
<path d="M44.96 197.364C44.8575 197.364 44.7631 197.298 44.7319 197.194L41.2475 185.662L38.2005 197.187C38.1668 197.314 38.0362 197.39 37.909 197.356C37.7819 197.322 37.7057 197.192 37.7394 197.064L41.0016 184.727C41.0288 184.624 41.1213 184.551 41.2279 184.549C41.3403 184.556 41.4293 184.617 41.4602 184.719L45.1882 197.057C45.2264 197.182 45.1551 197.315 45.0289 197.354C45.0059 197.361 44.9828 197.364 44.96 197.364Z" fill="black"/>
<path d="M41.232 184.788L36.805 166.164C36.805 166.164 33.5429 159.879 33.3098 158.483L41.232 184.788Z" fill="white"/>
<path d="M41.2321 185.026C41.1243 185.026 41.0265 184.953 41.0004 184.844L36.58 166.249C36.3193 165.746 33.306 159.907 33.0748 158.522C33.0532 158.393 33.141 158.269 33.2707 158.248C33.4027 158.225 33.5234 158.314 33.5452 158.444C33.7694 159.787 36.9844 165.992 37.0168 166.055C37.0259 166.072 37.0326 166.091 37.0371 166.11L41.4642 184.733C41.4946 184.861 41.4155 184.99 41.2875 185.02C41.2688 185.024 41.2505 185.026 41.2321 185.026Z" fill="black"/>
<path d="M33.0771 102.381C33.5674 100.795 37.5242 95.8007 38.5139 94.4666C40.792 91.3949 49.869 92.6706 53.6717 92.2475C58.4493 91.7163 68.1829 90.0435 74.4742 93.8456C80.6309 97.5665 82.9237 105.195 85.8679 109.252C88.7645 107.231 91.0952 105.446 94.1238 103.196L104.259 114.332C103.716 114.99 93.1922 130.471 83.639 129.385C78.0774 128.752 76.4154 125.66 72.8425 121.936C72.8425 121.936 72.7657 137.454 67.7945 135.903C47.2958 129.503 36.1106 140.116 27.1011 137.013C24.9181 136.261 31.6829 106.891 33.0771 102.381Z" fill="#2D9BCC"/>
<path d="M72.7657 122.019C72.6845 122.019 72.6066 121.978 72.5612 121.904C71.0943 119.485 68.3886 114.378 66.9478 110.219C66.9047 110.095 66.9706 109.959 67.0951 109.916C67.2197 109.873 67.3553 109.939 67.3984 110.063C68.8269 114.187 71.5124 119.256 72.9691 121.657C73.0373 121.769 73.0016 121.916 72.889 121.984C72.8501 122.007 72.8079 122.019 72.7657 122.019Z" fill="black"/>
<path d="M104.078 114.426C105.774 110.824 112.456 103.151 115.627 101.778C120.955 99.4708 117.316 98.5414 117.316 98.5414C117.316 98.5414 119.703 97.837 119.42 96.5235C119.087 94.9774 114.533 96.8167 113.054 97.2701C112.654 97.4021 112.403 97.4789 112.403 97.4789C112.403 97.4789 112.655 97.3913 113.054 97.2701C114.681 96.728 118.938 95.131 119.039 94.0123C119.165 92.6176 117.247 92.7897 117.247 92.7897C117.247 92.7897 118.389 92.1664 117.552 91.1234C116.797 90.1843 107.026 91.0585 100.23 97.1262C99.2644 97.9885 94.5056 102.933 93.7493 103.675L104.078 114.426Z" fill="white"/>
<path d="M104.078 114.664C104.044 114.664 104.01 114.657 103.976 114.641C103.857 114.586 103.807 114.443 103.863 114.324C105.622 110.587 112.305 102.957 115.531 101.559C118.077 100.456 118.308 99.7715 118.289 99.528C118.257 99.1201 117.514 98.8388 117.256 98.7728C117.152 98.7458 117.079 98.6538 117.078 98.5456C117.075 98.4385 117.145 98.3433 117.247 98.313C117.269 98.3065 119.416 97.6389 119.186 96.5743C119.159 96.4466 119.091 96.3546 118.971 96.2875C118.119 95.805 115.419 96.7236 113.969 97.217C113.635 97.3306 113.345 97.4301 113.123 97.4972C112.726 97.6292 112.474 97.7071 112.474 97.7071C112.35 97.745 112.218 97.6768 112.177 97.5534C112.136 97.4301 112.202 97.297 112.324 97.2537C112.324 97.2537 112.58 97.165 112.983 97.0417C115.751 96.1209 118.734 94.7371 118.801 93.9905C118.826 93.7233 118.763 93.5199 118.611 93.3673C118.268 93.0222 117.526 93.0049 117.267 93.0265C117.151 93.0373 117.051 92.9659 117.018 92.8577C116.986 92.7495 117.033 92.6337 117.133 92.5796C117.136 92.5775 117.536 92.3513 117.609 91.9835C117.651 91.766 117.569 91.5269 117.365 91.2726C117.36 91.2661 117.237 91.1222 116.533 91.0638C113.609 90.8225 105.879 92.4022 100.388 97.3035C99.7576 97.8672 97.4572 100.226 95.7769 101.948C94.882 102.866 94.1755 103.591 93.9158 103.845C93.8216 103.937 93.6702 103.936 93.5782 103.842C93.4862 103.748 93.4873 103.596 93.5814 103.504C93.8379 103.253 94.578 102.495 95.4349 101.615C97.1207 99.8883 99.4276 97.5221 100.07 96.9486C105.998 91.6567 113.885 90.3627 116.573 90.5888C117.189 90.6397 117.57 90.7663 117.738 90.974C118.034 91.344 118.149 91.7162 118.075 92.0798C118.037 92.2724 117.95 92.4357 117.849 92.5688C118.21 92.6132 118.651 92.7322 118.948 93.0297C119.203 93.2851 119.314 93.6227 119.276 94.0338C119.225 94.5964 118.4 95.2077 117.35 95.765C118.138 95.6329 118.792 95.6384 119.206 95.8731C119.443 96.0062 119.597 96.214 119.653 96.4736C119.881 97.5307 118.732 98.2178 117.984 98.5456C118.343 98.7306 118.728 99.0336 118.764 99.4902C118.826 100.264 117.831 101.083 115.721 101.996C112.656 103.324 105.998 110.908 104.293 114.527C104.253 114.614 104.168 114.664 104.078 114.664Z" fill="black"/>
<path d="M113.192 100.259C113.109 100.259 113.027 100.214 112.983 100.135C112.92 100.021 112.962 99.8755 113.078 99.8117C113.185 99.7522 115.686 98.3824 117.001 98.3824C117.019 98.3824 117.037 98.3824 117.055 98.3824C117.186 98.3867 117.29 98.4971 117.286 98.628C117.282 98.76 117.174 98.8606 117.04 98.8596C115.868 98.8325 113.333 100.215 113.307 100.229C113.271 100.249 113.231 100.259 113.192 100.259Z" fill="black"/>
<path d="M110.733 95.1612C110.646 95.1612 110.563 95.1136 110.521 95.0303C110.461 94.9134 110.508 94.7695 110.624 94.71C112.183 93.918 114.43 93.1866 116.789 92.7051C116.916 92.6781 117.043 92.7614 117.069 92.8901C117.096 93.0189 117.013 93.1455 116.884 93.1714C114.565 93.6454 112.362 94.3616 110.841 95.1352C110.806 95.1525 110.769 95.1612 110.733 95.1612Z" fill="black"/>
<path d="M68.3572 67.8589C68.3572 67.8589 74.9783 77.7568 71.0329 82.512C67.0871 87.2662 57.9224 82.3963 57.9224 82.3963C57.9224 82.3963 62.6285 65.5792 68.3572 67.8589Z" fill="white"/>
<path d="M58.2063 82.2728C59.472 82.8992 67.3645 86.5595 70.8495 82.3593C74.4784 77.9871 68.7465 68.8975 68.1998 68.0546C67.4649 67.782 66.7336 67.835 65.9659 68.2148C61.8786 70.238 58.6591 80.7331 58.2063 82.2728ZM65.9617 84.8489C62.097 84.8489 58.0629 82.7402 57.8102 82.606C57.7115 82.553 57.6624 82.4394 57.6927 82.3312C57.8326 81.8313 61.1739 70.0541 65.7541 67.7874C66.6619 67.3384 67.5669 67.2886 68.4455 67.6381C68.4901 67.6554 68.5286 67.6868 68.5554 67.7268C68.8299 68.1369 75.2293 77.8281 71.2163 82.6644C69.8579 84.3015 67.9316 84.8489 65.9617 84.8489Z" fill="black"/>
<path d="M37.1977 120.714C39.6225 122.321 42.509 123.181 45.4073 123.303C48.8117 123.446 52.2176 122.578 55.2471 121.052C57.6731 119.829 59.9105 118.104 61.4329 115.832C62.1616 114.744 62.703 113.521 62.9584 112.235C63.2748 110.641 63.1203 109.009 62.7654 107.436C62.3951 105.794 61.792 104.222 61.3535 102.6C60.962 101.152 60.6899 99.5768 61.0712 98.0977C61.79 95.3095 64.7108 93.9538 65.9646 91.4717C67.2757 88.8761 66.6339 85.8087 65.6844 83.2087C65.1555 81.7621 64.3944 80.3772 64.0501 78.869C63.7357 77.4905 63.9798 76.1359 64.9124 75.0583C65.6725 74.1797 66.6907 73.563 67.6654 72.9528C68.6562 72.3317 69.6647 71.7085 70.4901 70.87C72.4831 68.8467 72.6724 65.7133 71.8022 63.1317C71.358 61.8139 70.575 60.6075 69.2764 60.0103C68.1189 59.4768 66.7974 59.5028 65.5682 59.7322C64.1839 59.9908 62.88 60.5155 61.5795 61.037C60.3864 61.5164 59.198 62.0065 58.0101 62.4988C57.7179 62.4533 57.4249 62.4122 57.13 62.3819C55.5545 62.2185 53.9477 62.2759 52.4232 62.7336C50.9378 63.1783 49.6222 64.0298 48.5305 65.1215C46.3815 67.2703 44.9091 70.157 43.9314 73.0058C43.4299 74.4675 43.0666 75.9747 42.8409 77.5035C42.6166 79.0237 42.5695 80.5568 42.5219 82.0911C42.4738 83.6404 42.4183 85.2028 42.0966 86.7251C41.7849 88.1977 41.1954 89.5523 40.3066 90.7685C39.4228 91.9781 38.3312 93.02 37.2693 94.0695C36.2214 95.1061 35.2111 96.1675 34.3402 97.3587C32.622 99.7098 31.4019 102.455 30.9168 105.331C29.9338 111.156 32.1873 117.396 37.1977 120.714Z" fill="black"/>
<path d="M273.746 58.5811C268.585 60.1651 263.115 57.2698 261.531 52.1153C259.946 46.9608 262.847 41.4979 268.008 39.9139C273.17 38.3299 278.639 41.2253 280.223 46.3798C281.809 51.5353 278.908 56.9971 273.746 58.5811ZM289.999 37.8809C289.792 37.9447 289.594 38.0226 289.401 38.1092C288.279 36.245 286.898 34.5896 285.32 33.1765C285.44 33.0023 285.555 32.8238 285.656 32.6323C287.018 30.0669 286.04 26.8849 283.472 25.5248C280.903 24.1648 277.716 25.1429 276.354 27.7082C276.252 27.8997 276.168 28.0945 276.092 28.2914C274.034 27.7797 271.887 27.5687 269.713 27.6877C269.676 27.4799 269.629 27.2722 269.567 27.0655C268.713 24.2892 265.769 22.7301 262.989 23.5827C260.209 24.4364 258.648 27.3772 259.5 30.1535C259.564 30.3601 259.643 30.5581 259.729 30.7507C257.862 31.8706 256.204 33.2501 254.789 34.8276C254.615 34.7075 254.435 34.5928 254.244 34.4922C251.675 33.1321 248.489 34.1102 247.127 36.6756C245.765 39.2409 246.743 42.4241 249.312 43.783C249.504 43.8847 249.698 43.9691 249.896 44.0449C249.382 46.0995 249.17 48.244 249.289 50.4155C249.082 50.4534 248.874 50.4988 248.666 50.5626C245.886 51.4152 244.325 54.3571 245.179 57.1324C246.031 59.9076 248.977 61.4667 251.756 60.6141C251.963 60.5503 252.161 60.4724 252.354 60.3858C253.476 62.2501 254.856 63.9066 256.436 65.3185C256.315 65.4927 256.2 65.6713 256.099 65.8628C254.736 68.4281 255.714 71.6102 258.283 72.9702C260.852 74.3303 264.038 73.3522 265.401 70.7868C265.502 70.5953 265.587 70.4005 265.663 70.2036C267.721 70.7154 269.867 70.9264 272.042 70.8074C272.079 71.0151 272.126 71.2228 272.188 71.4295C273.042 74.2058 275.987 75.7649 278.766 74.9113C281.546 74.0587 283.107 71.1179 282.254 68.3416C282.19 68.1349 282.112 67.9369 282.026 67.7443C283.893 66.6234 285.551 65.245 286.965 63.6675C287.14 63.7876 287.319 63.9022 287.511 64.0029C290.08 65.3629 293.266 64.3848 294.627 61.8195C295.99 59.2541 295.011 56.0709 292.443 54.712C292.251 54.6103 292.056 54.5259 291.858 54.4502C292.372 52.3955 292.584 50.251 292.465 48.0795C292.673 48.0417 292.882 47.9962 293.089 47.9324C295.868 47.0798 297.43 44.1379 296.577 41.3627C295.723 38.5864 292.778 37.0283 289.999 37.8809Z" fill="#2D9BCC"/>
<path d="M140.584 185.24C136.681 186.437 132.546 184.248 131.348 180.351C130.15 176.454 132.343 172.323 136.245 171.126C140.148 169.929 144.282 172.117 145.481 176.015C146.679 179.912 144.485 184.042 140.584 185.24ZM152.871 169.589C152.714 169.638 152.565 169.696 152.419 169.761C151.571 168.352 150.528 167.1 149.333 166.032C149.424 165.902 149.51 165.765 149.587 165.621C150.617 163.681 149.878 161.275 147.936 160.247C145.994 159.219 143.584 159.958 142.555 161.898C142.478 162.043 142.415 162.19 142.357 162.34C140.801 161.952 139.177 161.792 137.533 161.882C137.505 161.725 137.471 161.568 137.423 161.411C136.778 159.313 134.551 158.134 132.45 158.779C130.349 159.424 129.167 161.648 129.813 163.746C129.861 163.903 129.92 164.052 129.985 164.199C128.574 165.046 127.32 166.088 126.25 167.281C126.119 167.19 125.984 167.104 125.839 167.027C123.897 165.999 121.487 166.738 120.458 168.678C119.428 170.618 120.167 173.024 122.109 174.052C122.254 174.128 122.402 174.192 122.552 174.249C122.163 175.803 122.002 177.425 122.093 179.066C121.935 179.094 121.778 179.129 121.621 179.177C119.52 179.822 118.339 182.046 118.984 184.145C119.629 186.243 121.856 187.421 123.957 186.777C124.114 186.728 124.264 186.669 124.41 186.604C125.258 188.014 126.301 189.266 127.496 190.333C127.405 190.464 127.318 190.6 127.241 190.745C126.211 192.685 126.95 195.091 128.892 196.119C130.835 197.147 133.244 196.408 134.273 194.468C134.35 194.323 134.414 194.176 134.471 194.026C136.027 194.414 137.651 194.574 139.295 194.483C139.323 194.641 139.358 194.798 139.405 194.953C140.05 197.052 142.277 198.231 144.378 197.586C146.48 196.941 147.66 194.718 147.015 192.619C146.968 192.463 146.908 192.313 146.843 192.167C148.254 191.32 149.508 190.277 150.578 189.085C150.709 189.176 150.845 189.262 150.99 189.339C152.932 190.367 155.34 189.628 156.37 187.688C157.401 185.748 156.66 183.342 154.719 182.314C154.574 182.237 154.426 182.173 154.277 182.117C154.665 180.563 154.825 178.941 154.736 177.3C154.893 177.272 155.05 177.236 155.207 177.189C157.309 176.544 158.489 174.32 157.844 172.221C157.199 170.122 154.972 168.944 152.871 169.589Z" fill="white"/>
<path d="M138.412 171.039C137.717 171.039 137.012 171.14 136.315 171.354C134.489 171.914 132.99 173.152 132.094 174.837C131.199 176.524 131.015 178.457 131.576 180.281C132.734 184.046 136.741 186.169 140.513 185.011C142.34 184.451 143.838 183.214 144.734 181.527C145.629 179.842 145.813 177.909 145.253 176.085C144.309 173.015 141.471 171.039 138.412 171.039ZM138.416 185.804C135.153 185.804 132.127 183.694 131.12 180.42C130.522 178.475 130.719 176.413 131.673 174.615C132.628 172.815 134.227 171.496 136.176 170.898C140.197 169.665 144.474 171.928 145.708 175.944C146.307 177.891 146.11 179.953 145.155 181.751C144.2 183.549 142.602 184.869 140.653 185.468C139.91 185.695 139.156 185.804 138.416 185.804ZM139.295 194.245C139.41 194.245 139.509 194.327 139.529 194.441C139.56 194.612 139.593 194.752 139.634 194.884C140.239 196.853 142.337 197.963 144.309 197.359C145.265 197.065 146.048 196.418 146.516 195.537C146.985 194.654 147.081 193.643 146.788 192.689C146.747 192.558 146.694 192.418 146.626 192.265C146.576 192.154 146.617 192.025 146.721 191.963C148.094 191.138 149.333 190.116 150.401 188.926C150.481 188.836 150.616 188.82 150.714 188.889C150.852 188.985 150.979 189.063 151.101 189.128C152.925 190.093 155.193 189.396 156.161 187.577C156.628 186.695 156.724 185.684 156.432 184.73C156.139 183.776 155.491 182.992 154.608 182.525C154.486 182.46 154.354 182.402 154.191 182.339C154.08 182.295 154.017 182.175 154.046 182.059C154.434 180.508 154.585 178.911 154.497 177.313C154.491 177.193 154.575 177.086 154.694 177.065C154.864 177.035 155.005 177.001 155.137 176.96C156.092 176.667 156.877 176.02 157.345 175.138C157.813 174.256 157.909 173.246 157.616 172.292C157.011 170.322 154.914 169.211 152.94 169.817C152.809 169.857 152.674 169.909 152.515 169.979C152.406 170.028 152.277 169.987 152.214 169.884C151.389 168.512 150.366 167.276 149.174 166.21C149.084 166.129 149.068 165.995 149.137 165.895C149.234 165.757 149.312 165.63 149.377 165.51C149.845 164.628 149.941 163.616 149.649 162.663C149.356 161.709 148.708 160.926 147.825 160.458C146.001 159.493 143.731 160.189 142.765 162.01C142.7 162.132 142.64 162.268 142.579 162.425C142.536 162.537 142.414 162.598 142.299 162.57C140.747 162.184 139.149 162.033 137.546 162.12C137.427 162.131 137.32 162.043 137.299 161.924C137.268 161.754 137.236 161.614 137.195 161.482C136.59 159.512 134.493 158.401 132.519 159.007C131.564 159.3 130.781 159.947 130.312 160.829C129.844 161.711 129.747 162.723 130.04 163.676C130.082 163.808 130.132 163.943 130.204 164.101C130.253 164.211 130.211 164.341 130.109 164.403C128.733 165.227 127.496 166.25 126.428 167.44C126.347 167.53 126.213 167.545 126.115 167.477C125.975 167.381 125.849 167.302 125.727 167.238C123.904 166.274 121.635 166.969 120.668 168.789C120.201 169.671 120.104 170.682 120.396 171.636C120.69 172.59 121.338 173.374 122.221 173.841C122.343 173.906 122.479 173.966 122.636 174.026C122.75 174.069 122.811 174.189 122.782 174.306C122.395 175.858 122.243 177.454 122.33 179.053C122.337 179.173 122.253 179.279 122.134 179.301C121.964 179.331 121.824 179.364 121.692 179.404C120.736 179.698 119.952 180.345 119.483 181.226C119.016 182.109 118.919 183.12 119.213 184.074C119.817 186.044 121.916 187.155 123.887 186.549C124.02 186.508 124.155 186.457 124.313 186.386C124.423 186.338 124.552 186.378 124.614 186.482C125.44 187.854 126.463 189.09 127.655 190.156C127.744 190.236 127.76 190.371 127.691 190.47C127.594 190.608 127.516 190.735 127.451 190.857C126.984 191.738 126.887 192.748 127.18 193.703C127.473 194.657 128.121 195.44 129.004 195.908C130.827 196.873 133.097 196.176 134.063 194.355C134.128 194.234 134.187 194.102 134.25 193.941C134.293 193.828 134.413 193.765 134.529 193.795C136.082 194.182 137.681 194.333 139.282 194.245C139.286 194.245 139.291 194.245 139.295 194.245ZM143.212 198C141.408 198 139.734 196.834 139.178 195.024C139.149 194.931 139.124 194.835 139.101 194.732C137.592 194.793 136.084 194.653 134.615 194.306C134.572 194.405 134.529 194.495 134.484 194.579C133.395 196.632 130.836 197.417 128.781 196.329C127.785 195.802 127.054 194.919 126.724 193.842C126.394 192.767 126.502 191.627 127.03 190.633C127.076 190.548 127.127 190.461 127.183 190.372C126.073 189.353 125.107 188.188 124.313 186.904C124.214 186.943 124.12 186.976 124.028 187.004C121.803 187.688 119.439 186.435 118.756 184.214C118.426 183.138 118.534 181.998 119.062 181.004C119.59 180.009 120.474 179.279 121.552 178.949C121.643 178.921 121.74 178.896 121.844 178.872C121.78 177.364 121.924 175.859 122.271 174.393C122.174 174.351 122.083 174.307 121.998 174.262C121.002 173.735 120.272 172.852 119.941 171.775C119.611 170.7 119.719 169.561 120.247 168.566C121.337 166.514 123.896 165.728 125.95 166.816C126.036 166.861 126.122 166.912 126.212 166.969C127.233 165.858 128.4 164.895 129.686 164.102C129.647 164.003 129.613 163.909 129.585 163.817C129.255 162.741 129.363 161.601 129.891 160.606C130.419 159.612 131.303 158.882 132.38 158.552C134.602 157.869 136.968 159.121 137.65 161.342C137.68 161.434 137.704 161.53 137.727 161.634C139.238 161.571 140.745 161.713 142.213 162.059C142.255 161.962 142.299 161.872 142.344 161.787C143.434 159.733 145.992 158.949 148.048 160.036C149.043 160.564 149.773 161.447 150.104 162.524C150.434 163.599 150.326 164.738 149.798 165.733C149.753 165.817 149.703 165.904 149.646 165.993C150.757 167.013 151.721 168.178 152.515 169.462C152.615 169.422 152.709 169.39 152.801 169.361C155.024 168.679 157.39 169.931 158.072 172.151C158.402 173.227 158.294 174.368 157.766 175.362C157.238 176.357 156.354 177.086 155.277 177.417C155.185 177.445 155.088 177.47 154.984 177.494C155.048 179.002 154.904 180.506 154.558 181.973C154.655 182.015 154.744 182.057 154.831 182.103C155.826 182.631 156.557 183.514 156.888 184.59C157.218 185.666 157.109 186.805 156.581 187.799C155.492 189.853 152.933 190.637 150.878 189.549C150.793 189.505 150.706 189.454 150.616 189.396C149.596 190.507 148.428 191.471 147.143 192.264C147.182 192.363 147.215 192.457 147.244 192.549C147.575 193.625 147.465 194.765 146.937 195.759C146.409 196.754 145.525 197.484 144.449 197.814C144.038 197.941 143.621 198 143.212 198Z" fill="black"/>
<path d="M181.58 164.393C181.58 162.335 179.914 160.668 177.859 160.668C175.804 160.668 174.137 162.335 174.137 164.393C174.137 166.45 175.804 168.118 177.859 168.118C179.914 168.118 181.58 166.45 181.58 164.393Z" fill="#337AB7"/>
<path d="M192.441 164.393C192.441 162.335 190.774 160.668 188.72 160.668C186.664 160.668 184.998 162.335 184.998 164.393C184.998 166.45 186.664 168.118 188.72 168.118C190.774 168.118 192.441 166.45 192.441 164.393Z" fill="#337AB7"/>
<path d="M203.301 164.393C203.301 162.335 201.635 160.668 199.58 160.668C197.524 160.668 195.858 162.335 195.858 164.393C195.858 166.45 197.524 168.118 199.58 168.118C201.635 168.118 203.301 166.45 203.301 164.393Z" fill="#337AB7"/>
<path d="M229.232 164.631H207.191C207.059 164.631 206.953 164.525 206.953 164.393C206.953 164.261 207.059 164.154 207.191 164.154H228.993V139.23C228.993 139.099 229.1 138.992 229.232 138.992C229.363 138.992 229.47 139.099 229.47 139.23V164.393C229.47 164.525 229.363 164.631 229.232 164.631Z" fill="black"/>
<path d="M133.388 39.5265C133.388 37.4697 131.722 35.8013 129.666 35.8013C127.611 35.8013 125.945 37.4697 125.945 39.5265C125.945 41.5844 127.611 43.2517 129.666 43.2517C131.722 43.2517 133.388 41.5844 133.388 39.5265Z" fill="#337AB7"/>
<path d="M144.248 39.5265C144.248 37.4697 142.582 35.8013 140.526 35.8013C138.471 35.8013 136.805 37.4697 136.805 39.5265C136.805 41.5844 138.471 43.2517 140.526 43.2517C142.582 43.2517 144.248 41.5844 144.248 39.5265Z" fill="#337AB7"/>
<path d="M155.109 39.5265C155.109 37.4697 153.442 35.8013 151.387 35.8013C149.332 35.8013 147.666 37.4697 147.666 39.5265C147.666 41.5844 149.332 43.2517 151.387 43.2517C153.442 43.2517 155.109 41.5844 155.109 39.5265Z" fill="#337AB7"/>
<path d="M181.038 39.7644H158.999C158.867 39.7644 158.76 39.6584 158.76 39.5264C158.76 39.3944 158.867 39.2883 158.999 39.2883H181.038C181.17 39.2883 181.278 39.3944 181.278 39.5264C181.278 39.6584 181.17 39.7644 181.038 39.7644Z" fill="black"/>
</svg>
