<svg width="272" height="232" viewBox="0 0 272 232" fill="none" xmlns="http://www.w3.org/2000/svg">
<path d="M47.1975 218.984C47.1975 218.984 13.551 191.756 3.86497 145.411C-5.82101 99.0666 8.96299 42.8734 37.0015 14.487C65.0399 -13.8987 115.509 5.21829 137.941 28.97L160.371 52.7217C160.371 52.7217 181.782 66.0455 209.821 64.887C237.861 63.7285 262.839 107.177 269.467 141.356C276.094 175.535 260.291 220.721 260.291 220.721L47.1975 218.984Z" fill="#2D9BCC" fill-opacity="0.04"/>
<mask id="mask0_427_2614" style="mask-type:luminance" maskUnits="userSpaceOnUse" x="1" y="1" width="270" height="226">
<path d="M1.42188 1.95623H270.829V226.515H1.42188V1.95623Z" fill="white"/>
</mask>
<g mask="url(#mask0_427_2614)">
<path d="M31.9036 225.935C31.9036 225.935 8.45309 211.453 2.3356 177.853C-3.7819 144.253 22.7277 113.549 25.2761 96.7492C27.8251 79.9492 22.2176 59.0941 45.6681 42.873C69.1186 26.6526 110.922 32.4451 126.725 28.39C142.529 24.3349 160.881 -3.47194 192.489 2.90086C224.096 9.27295 254.683 28.39 256.213 70.1009C257.742 111.811 246.017 112.97 257.742 135.563C269.467 158.156 274.055 173.797 268.448 196.97C262.84 220.142 251.115 226.514 251.115 226.514L31.9036 225.935Z" fill="#2D9BCC" fill-opacity="0.21"/>
</g>
<path d="M248.63 136.48H221.143C219.442 136.48 218.063 134.913 218.063 132.98V117.387C218.063 115.454 219.442 113.887 221.143 113.887H248.63C250.331 113.887 251.71 115.454 251.71 117.387V132.98C251.71 134.913 250.331 136.48 248.63 136.48Z" fill="#0DAAFF"/>
<path d="M234.886 145.315L239.242 133.583H230.531L234.886 145.315Z" fill="#0DAAFF"/>
<path d="M234.782 121.304H242.65V122.612L246.508 120.085L242.65 117.558V118.866H234.782V121.304Z" fill="white"/>
<path d="M246.508 126.445H238.64V125.137L234.782 127.664L238.64 130.192V128.883H246.508V126.445Z" fill="white"/>
<path d="M229.953 128.745L229.579 128.901C229.579 128.901 228.411 127.386 227.805 125.736C227.199 124.087 227.178 122.072 227.178 122.072L227.451 121.942L225.788 117.417C225.491 117.68 225.209 118.019 224.98 118.458C224.038 120.266 224.132 123.041 225.079 125.752C226.026 128.462 227.039 130.88 228.887 132.401C229.977 133.298 230.912 133.455 231.637 133.325L229.953 128.745Z" fill="white"/>
<path d="M231.148 128.213L230.63 128.426L232.333 133.059C232.526 132.987 232.699 132.899 232.848 132.806C233.288 132.532 233.481 131.931 233.296 131.402L232.406 128.855C232.209 128.289 231.651 128.004 231.148 128.213Z" fill="white"/>
<path d="M227.088 116.624C226.878 116.709 226.651 116.825 226.421 116.979L228.12 121.601L228.692 121.329C229.188 121.093 229.429 120.451 229.233 119.882L228.34 117.277C228.146 116.71 227.591 116.418 227.088 116.624Z" fill="white"/>
<path d="M72.921 210.583V158.446C72.921 158.446 72.411 144.397 78.911 140.342C85.4104 136.287 112.812 138.46 112.812 138.46V210.583H72.921Z" fill="#0084FF"/>
<path d="M121.372 89.6525C121.372 89.6525 119.716 105.439 119.078 106.742L118.441 108.046L115.255 110.508C115.255 110.508 121.372 120.356 128.892 121.949C136.411 123.542 135.774 118.474 135.774 118.474L134.627 115.722L136.156 100.659C136.156 100.659 122.519 93.5627 121.372 89.6525Z" fill="#F0CFC1"/>
<path d="M111.304 111.811L116.274 109.349C116.274 109.349 119.46 115.287 126.852 118.763C134.244 122.238 134.372 120.211 134.754 118.763C135.136 117.314 134.627 115.721 134.627 115.721L135.174 110.65L138.13 111.77L148.391 206.093L122.009 207.542L111.304 111.811Z" fill="white"/>
<path d="M135.646 110.749C135.646 110.749 137.43 115.431 139.087 126.439C140.745 137.446 142.274 155.984 142.657 168.729C143.038 181.473 143.294 210.584 143.294 210.584H176.558C176.939 210.584 179.234 196.246 179.234 196.246C179.234 196.246 164.705 182.101 163.941 179.784C163.431 178.239 163.686 149.611 161.518 136.432C159.351 123.252 156.549 120.597 150.686 117.314C144.627 113.921 135.646 110.749 135.646 110.749Z" fill="#2D9BCC"/>
<path d="M152.979 193.989C152.809 193.989 152.671 193.832 152.671 193.639C152.671 192.603 152.509 177.892 152.353 163.664C152.196 149.434 152.034 134.72 152.034 133.68C152.034 133.486 152.172 133.33 152.342 133.33C152.512 133.33 152.65 133.486 152.65 133.68C152.65 134.716 152.812 149.427 152.968 163.655C153.125 177.885 153.287 192.599 153.287 193.639C153.287 193.832 153.149 193.989 152.979 193.989Z" fill="white"/>
<path d="M86.7064 190.452L86.4514 210.584H125.196C125.196 210.584 126.852 193.494 126.215 191.901C125.579 190.307 86.7064 190.452 86.7064 190.452Z" fill="#2D9BCC"/>
<mask id="mask1_427_2614" style="mask-type:luminance" maskUnits="userSpaceOnUse" x="122" y="91" width="15" height="19">
<path d="M122.438 91.3604H136.156V109.616H122.438V91.3604Z" fill="white"/>
</mask>
<g mask="url(#mask1_427_2614)">
<path d="M129.826 106.308C131.405 107.754 133.565 108.915 135.247 109.617L136.156 100.66C136.156 100.66 125.913 95.327 122.438 91.3601C123.164 95.8674 124.95 101.841 129.826 106.308Z" fill="#8A9CBE"/>
</g>
<path d="M148.137 60.2524C148.137 60.2524 150.813 65.4667 151.323 71.8388C151.833 78.2109 151.323 94.5769 146.735 101.529C142.146 108.48 132.588 106.452 128.255 102.252C124.278 98.3982 120.353 94.1422 119.333 85.7422C118.314 77.3422 121.5 61.4109 130.549 58.0803C139.598 54.749 148.137 60.2524 148.137 60.2524Z" fill="#F0CFC1"/>
<path d="M159.634 201.479C159.634 201.479 159.185 201.479 158.5 201.458C158.34 201.451 158.162 201.458 157.977 201.451C157.318 201.43 156.517 201.409 155.71 201.381C155.531 201.374 155.346 201.367 155.168 201.36C154.367 201.339 153.683 201.451 153.043 201.409H153.025C152.889 201.402 152.691 201.423 152.531 201.43C152.451 201.437 152.377 201.444 152.328 201.437C151.958 201.36 151.885 201.262 151.485 201.059C150.967 200.793 143.963 199.015 138.265 199.057C132.573 199.085 127.466 199.526 126.635 198.735C125.797 197.93 125.292 189.803 130.152 189.271L136.127 191.847C136.127 191.847 149.772 190.006 154.774 194.199C159.788 198.392 159.634 201.479 159.634 201.479Z" fill="#F0CFC1"/>
<path d="M153.025 201.409C152.888 201.401 152.692 201.423 152.531 201.429C152.409 201.206 152.149 200.8 152.008 200.632C150.468 198.847 146.748 197.691 145.398 197.32C145.275 197.285 145.195 197.145 145.226 197.006C145.251 196.866 145.38 196.782 145.509 196.81C147.474 197.348 151.645 198.728 152.827 200.988C152.864 201.051 152.962 201.269 153.025 201.409Z" fill="white"/>
<path d="M155.712 201.38C155.533 201.376 155.348 201.37 155.17 201.359C153.488 197.873 150.737 196.874 147.337 195.631L147.136 195.555C147.02 195.51 146.948 195.36 146.989 195.222C147.028 195.09 147.154 195.009 147.282 195.055L147.478 195.13C151.073 196.441 153.965 197.495 155.712 201.38Z" fill="white"/>
<path d="M158.501 201.458C158.341 201.453 158.162 201.455 157.977 201.45C156.957 199.013 153.582 194.936 149.117 193.985C148.988 193.961 148.904 193.825 148.926 193.679C148.954 193.539 149.073 193.445 149.196 193.47C153.795 194.451 157.506 198.721 158.501 201.458Z" fill="white"/>
<path d="M122.392 78.5733C122.392 78.5733 125.196 77.0522 127.171 72.7801C129.146 68.508 128.892 64.6699 128.892 64.6699C128.892 64.6699 132.46 64.0182 137.813 65.8284C143.166 67.6386 149.538 70.1005 154.891 66.625C160.245 63.1488 160.245 57.5733 157.631 55.2556C154.705 52.6607 148.901 54.242 148.901 54.242C148.901 54.242 151.131 51.7801 149.921 50.3318C148.71 48.8835 144.313 50.7665 144.313 50.7665C144.313 50.7665 138.96 45.9148 128.828 46.4937C118.696 47.0733 113.853 55.1107 113.279 64.0903C112.706 73.0699 115.573 82.0488 115.573 82.0488L122.392 78.5733Z" fill="black"/>
<mask id="mask2_427_2614" style="mask-type:luminance" maskUnits="userSpaceOnUse" x="140" y="80" width="6" height="14">
<path d="M140.328 80.574H145.601V93.3448H140.328V80.574Z" fill="white"/>
</mask>
<g mask="url(#mask2_427_2614)">
<path d="M142.947 80.7497C142.373 82.3583 142.387 84.2259 142.243 85.9332C142.131 87.2611 141.916 88.8095 142.986 89.7062C143.498 90.1346 145.917 91.2896 144.673 92.2255C144.198 92.5825 143.403 92.4852 142.864 92.4565C142.492 92.4369 142.116 92.4187 141.744 92.3872C141.345 92.3536 140.953 92.2164 140.553 92.2143C140.318 92.2129 140.246 92.5678 140.437 92.7036C141.08 93.1614 142.023 93.3021 142.774 93.335C143.524 93.3686 144.033 93.3294 144.708 92.9486C145.124 92.7141 145.527 92.383 145.592 91.8216C145.666 91.1902 145.249 90.6239 144.831 90.2711C144.349 89.8651 143.757 89.6761 143.271 89.2806C142.596 88.7311 142.652 87.8071 142.7 86.9503C142.813 84.8916 143.23 82.8679 143.392 80.8183C143.417 80.5047 143.035 80.5047 142.947 80.7497Z" fill="#8A9CBE"/>
</g>
<path d="M148.157 85.5656C147.967 86.7864 147.186 87.6502 146.411 87.4941C145.638 87.3387 145.165 86.2222 145.354 85.0021C145.545 83.7813 146.326 82.9175 147.1 83.0729C147.874 83.229 148.348 84.3448 148.157 85.5656Z" fill="black"/>
<path d="M138.405 84.5981C138.233 85.9155 137.417 86.8682 136.581 86.7275C135.746 86.5861 135.209 85.4038 135.381 84.0871C135.554 82.7697 136.371 81.8163 137.206 81.9577C138.041 82.0991 138.578 83.2814 138.405 84.5981Z" fill="black"/>
<path d="M145.887 80.5331C146.482 80.6472 147.083 80.531 147.684 80.5786C147.828 80.5905 147.971 80.6143 148.115 80.6304C148.218 80.6409 147.924 80.5954 148.067 80.622C148.098 80.6283 148.128 80.6339 148.159 80.6395C148.234 80.6549 148.309 80.6724 148.383 80.6934C148.512 80.7284 148.635 80.783 148.763 80.8152C148.879 80.8439 149.009 80.8747 149.126 80.8684C149.192 80.8586 149.257 80.8488 149.322 80.839C149.282 80.8467 149.24 80.8551 149.199 80.8642C149.198 80.8803 149.422 80.839 149.442 80.8341C149.784 80.7431 149.995 80.2937 149.9 79.9192C149.872 79.8107 149.83 79.7127 149.77 79.6238C149.745 79.5853 149.719 79.5482 149.692 79.5111C149.716 79.5419 149.74 79.5734 149.764 79.6049C149.739 79.5643 149.712 79.5251 149.684 79.4859C149.651 79.4215 149.606 79.3697 149.548 79.3312C149.501 79.2899 149.454 79.2458 149.405 79.2066C149.246 79.082 149.039 79.0092 148.852 78.9546C148.496 78.8503 148.123 78.7978 147.757 78.795C147.392 78.7929 147.033 78.8363 146.672 78.893C146.355 78.9434 146.001 79.0659 145.743 79.2836C145.544 79.4523 145.421 79.6686 145.456 79.9647C145.485 80.2097 145.655 80.489 145.887 80.5331Z" fill="#454545"/>
<path d="M139.089 78.5959C139.008 78.5413 138.925 78.4937 138.84 78.4496C138.768 78.4118 138.57 78.2942 138.72 78.3873C138.665 78.353 138.611 78.3194 138.556 78.2879C138.309 78.1465 138.052 78.052 137.786 77.9743C137.204 77.8063 136.592 77.7636 135.996 77.835C135.36 77.9106 134.778 78.0856 134.228 78.4636C134.15 78.5168 134.07 78.5686 134.005 78.6428C133.962 78.7058 133.918 78.7695 133.877 78.8332C133.888 78.8122 133.901 78.7912 133.912 78.7709C133.742 78.9053 133.644 79.1272 133.646 79.3603C133.647 79.5857 133.75 79.7733 133.921 79.8818C134.129 80.0134 134.326 79.9504 134.54 79.8874H134.218C134.395 79.9189 134.519 79.9266 134.698 79.8818C134.704 79.8804 134.87 79.8342 134.76 79.8601C134.658 79.8846 134.934 79.8356 134.964 79.8314C134.999 79.8251 135.191 79.8041 134.988 79.8265C135.025 79.8216 135.063 79.8167 135.1 79.8111C135.196 79.7978 135.292 79.7845 135.389 79.7761C135.81 79.7376 136.228 79.7159 136.65 79.7005C137.042 79.6858 137.439 79.6823 137.831 79.7012C137.999 79.7096 138.165 79.7159 138.333 79.7215C138.427 79.7243 138.387 79.7411 138.323 79.718C138.357 79.7299 138.392 79.7376 138.428 79.7481C138.497 79.7705 138.565 79.7957 138.633 79.8251C138.904 79.9434 139.23 79.7201 139.331 79.4359C139.44 79.1265 139.348 78.7709 139.089 78.5959Z" fill="#454545"/>
<path d="M142.115 98.7282C142.7 97.3926 143.764 96.4126 144.994 95.7826C143.926 95.6594 138.885 95.1288 137.612 95.9499C136.188 96.8697 137.876 100.562 140.823 100.747C141.133 100.767 141.414 100.739 141.683 100.69C141.707 100.016 141.844 99.3491 142.115 98.7282Z" fill="white"/>
<path d="M118.823 90.956C118.823 90.956 119.334 93.2009 122.264 95.8077C125.196 98.4145 129.444 100.321 129.444 100.321L129.784 98.6315C129.784 98.6315 125.387 96.4594 123.348 94.0696C121.308 91.6805 121.054 90.3764 121.054 90.3764L118.823 90.956Z" fill="#DEE2EC"/>
<path d="M130.294 97.3818C132.653 97.2572 133.97 99.3768 134.134 100.748C134.298 102.12 133.165 103.657 130.513 102.307C127.219 100.629 127.935 97.5064 130.294 97.3818Z" fill="#F29D00"/>
<path d="M120.672 74.3733C120.672 74.3733 121.69 66.0503 126.598 60.3971C135.966 49.608 143.93 50.259 143.93 50.259C143.93 50.259 143.867 48.7386 140.871 47.5801C138.06 46.4923 136.794 47.0733 136.794 47.0733C136.794 47.0733 129.083 47.7971 122.584 55.9801C116.084 64.1631 115.383 74.5903 115.383 74.5903L120.672 74.3733Z" fill="#DEE2EC"/>
<path d="M119.971 73.3592C113.834 72.1776 110.412 77.632 110.157 83.1354C109.902 88.6388 113.421 92.8227 118.123 92.4041C128.701 91.4626 127.49 74.8075 119.971 73.3592Z" fill="white"/>
<path d="M116.915 87.0558C115.295 87.0558 113.925 86.1311 113.143 84.5015C112.305 82.7564 112.375 80.6081 113.322 79.0289C113.394 78.9099 113.538 78.8784 113.643 78.9596C113.749 79.0415 113.776 79.2046 113.704 79.325C112.854 80.7425 112.793 82.6759 113.549 84.2502C114.266 85.7433 115.533 86.5896 117.033 86.5287C118.435 86.4867 119.623 85.7573 120.379 84.4763C121.241 83.0147 121.439 80.9952 120.884 79.3334C120.332 77.6842 118.821 76.56 117.446 76.7644C117.323 76.7833 117.204 76.6825 117.187 76.539C117.171 76.3955 117.259 76.2632 117.386 76.2443C118.993 76.0007 120.682 77.2488 121.316 79.1465C121.923 80.963 121.706 83.1701 120.762 84.7682C119.921 86.1948 118.601 87.0061 117.045 87.0537C117.002 87.0551 116.958 87.0558 116.915 87.0558Z" fill="#7C90B6"/>
<path d="M112.451 109.784C112.451 109.784 93.8435 114.997 87.344 123.397C80.844 131.797 77.7856 173.218 77.6581 180.894C77.5305 188.57 82.246 191.756 85.0501 193.928C87.8535 196.101 100.216 200.011 110.157 200.591C120.098 201.17 129.53 200.591 129.53 200.591C129.53 200.591 129.498 198.128 131.026 194.507C132.445 191.149 134.244 190.452 134.244 190.452L125.706 186.977C125.706 186.977 124.21 156.531 121.883 141.791C119.206 124.845 112.451 109.784 112.451 109.784Z" fill="#2D9BCC"/>
<path d="M143.294 182.113C143.252 182.113 143.209 182.103 143.169 182.083C143.014 182.004 142.943 181.798 143.012 181.621C144.756 177.151 146.562 168.376 147.579 162.219L147.663 161.722C147.971 159.911 148.354 157.658 147.59 156.104C147.2 155.311 146.319 153.59 145.472 151.936C144.593 150.219 143.763 148.597 143.533 148.113C143.084 147.167 144.497 144.642 146.543 141.177C147.095 140.241 147.573 139.432 147.851 138.885C148.58 137.451 148.095 136.138 147.533 134.617L147.342 134.093C146.832 132.672 146.253 131.249 145.694 129.872C145.465 129.309 145.235 128.746 145.01 128.18C144.711 127.431 144.411 126.67 144.106 125.899C142.306 121.337 140.443 116.619 138.058 112.062C137.971 111.896 138.02 111.681 138.166 111.583C138.312 111.485 138.501 111.539 138.588 111.705C140.991 116.297 142.86 121.033 144.668 125.613C144.972 126.383 145.272 127.143 145.571 127.891C145.796 128.456 146.025 129.017 146.252 129.578C146.815 130.962 147.397 132.394 147.912 133.829L148.101 134.347C148.674 135.897 149.267 137.501 148.384 139.235C148.096 139.803 147.613 140.621 147.054 141.567C145.988 143.373 143.768 147.134 144.075 147.78C144.3 148.254 145.128 149.871 146.004 151.584C146.853 153.243 147.736 154.967 148.128 155.762C149.002 157.54 148.594 159.932 148.268 161.855L148.184 162.348C147.814 164.59 145.851 176.07 143.575 181.904C143.524 182.036 143.411 182.113 143.294 182.113Z" fill="white"/>
<path d="M125.132 183.344C125.053 183.344 124.974 183.309 124.913 183.241C123.465 181.582 116.482 167.84 115.962 165.256C115.676 163.841 116.392 160.253 117.082 156.782C117.617 154.094 118.171 151.313 118.014 150.561C117.778 149.436 115.993 147.777 114.266 146.174C112.179 144.238 110.022 142.235 109.604 140.431C109.129 138.381 109.535 125.545 109.804 117.052C109.9 113.998 109.977 111.585 109.976 110.725C109.976 110.532 110.114 110.375 110.284 110.375C110.454 110.375 110.592 110.531 110.592 110.724C110.593 111.598 110.516 114.016 110.419 117.077C110.168 125.016 109.748 138.302 110.2 140.253C110.567 141.837 112.739 143.853 114.656 145.633C116.545 147.387 118.33 149.044 118.613 150.4C118.804 151.309 118.285 153.917 117.683 156.936C117.039 160.172 116.308 163.84 116.562 165.1C117.072 167.634 123.928 181.118 125.351 182.747C125.47 182.885 125.47 183.106 125.349 183.242C125.289 183.309 125.21 183.344 125.132 183.344Z" fill="white"/>
<path d="M100.089 177.334C100.075 177.334 100.06 177.332 100.046 177.33C99.8769 177.303 99.7598 177.126 99.7833 176.935C100.01 175.114 103.545 138.854 103.708 136.077C103.719 135.883 103.865 135.732 104.036 135.751C104.205 135.763 104.334 135.931 104.323 136.123C104.159 138.905 100.62 175.21 100.394 177.033C100.372 177.207 100.24 177.334 100.089 177.334Z" fill="white"/>
<path d="M125.451 187.181C125.412 187.181 125.373 187.173 125.335 187.156C124.552 186.795 121.09 185.469 116.708 183.789C107.863 180.4 95.7502 175.758 93.4464 174.397C93.2955 174.308 93.237 174.098 93.3152 173.926C93.3934 173.753 93.5788 173.685 93.7304 173.777C95.9917 175.112 108.577 179.934 116.905 183.126C121.297 184.809 124.766 186.138 125.566 186.507C125.724 186.58 125.8 186.784 125.736 186.963C125.688 187.099 125.572 187.181 125.451 187.181Z" fill="white"/>
<path d="M121.197 201.62C113.413 201.62 98.3223 200.025 86.8585 195.418C86.6984 195.352 86.614 195.153 86.6713 194.97C86.7273 194.788 86.9054 194.692 87.0637 194.757C101.546 200.579 121.805 201.573 125.574 200.611C125.74 200.57 125.905 200.688 125.943 200.876C125.979 201.064 125.875 201.252 125.709 201.294C124.893 201.502 123.316 201.62 121.197 201.62Z" fill="white"/>
<path d="M32.103 114.667C34.5196 117.083 37.5805 118.631 39.7008 121.424C40.5348 122.523 41.2845 123.692 42.0594 124.845C42.6231 125.683 44.128 127.075 44.3719 128.128C44.4797 128.593 44.4569 127.964 44.3491 127.498C44.3448 127.479 44.3356 127.46 44.3306 127.44C44.1194 125.306 43.9672 123.163 43.9013 121.016C43.836 118.876 43.953 116.725 43.8348 114.587C43.6684 111.572 42.8399 108.651 40.6704 106.761C39.6102 105.838 38.2476 105.275 37.2725 104.251C36.3473 103.278 36.7187 102.163 37.2627 101.078C37.7715 100.063 38.3887 99.0649 38.5871 97.8959C38.8125 96.5673 38.3733 95.1974 37.7801 94.0655C36.5179 91.6582 33.7188 88.973 31.0682 89.3335C28.8573 89.6338 28.6072 92.5311 28.6387 94.5506C28.6695 96.5127 28.8401 98.4699 28.8567 100.434C28.874 102.452 28.5721 104.43 28.5469 106.439C28.5038 109.855 29.8928 112.459 32.103 114.667Z" fill="#375A64"/>
<path d="M54.5557 146.015C55.2284 144.192 56.0002 142.487 56.9495 140.828C58.2517 138.553 59.6962 136.337 60.5704 133.789C61.4636 131.187 61.3323 128.406 61.4204 125.666C61.4851 123.653 62.0112 121.646 61.8695 119.628C61.8011 118.659 61.3102 117.094 60.2081 117.254C59.3507 117.378 58.8412 118.587 58.5117 119.357C57.9363 120.703 57.5378 122.138 57.1103 123.549C56.944 124.101 56.785 124.663 56.5737 125.196C56.4518 125.506 56.0612 126.262 55.6935 126.159C55.0676 125.984 55.6356 123.078 55.7286 122.563C56.1968 119.98 56.9008 117.577 56.9982 114.918C57.1398 111.062 56.8762 106.472 53.5578 104.365C52.6899 103.813 51.5915 103.485 50.7673 104.309C49.9536 105.123 49.7238 106.532 49.6031 107.692C49.2329 111.253 49.9702 114.625 50.9743 117.975C51.8034 120.741 52.7915 123.596 52.8636 126.554C52.9332 129.402 51.6297 131.925 51.0174 134.615C50.0423 138.902 50.2437 141.175 50.2394 142.563C50.2326 144.303 50.2887 146.023 50.4002 147.757C50.5037 149.352 50.625 150.946 50.7963 152.532C50.8314 152.854 50.8634 153.188 50.901 153.524C50.362 152.049 50.1735 150.36 49.7275 148.878C48.9341 146.243 48.0126 143.663 47.2518 141.015C46.6229 138.828 46.0284 136.626 45.1981 134.523C44.4188 132.55 43.4782 130.464 42.0251 129.017C41.1466 128.142 40.0822 127.63 38.9075 127.64C38.156 127.647 37.4808 127.943 36.7638 128.158C35.8805 128.423 35.1856 128.331 34.4593 127.697C32.081 125.62 31.3578 121.895 29.5966 119.264C28.2839 117.302 25.1676 113.958 22.8767 116.097C21.6613 117.232 21.3262 119.426 21.3897 121.107C21.4698 123.216 22.281 125.146 23.2469 126.909C24.2744 128.784 25.6013 130.464 26.545 132.392C27.1037 133.531 27.1905 134.623 27.1018 135.908C27.0187 137.118 26.9257 138.29 27.2885 139.458C28.3788 142.965 31.7834 142.475 34.4316 142.567C36.2839 142.63 38.2718 142.944 40.0311 143.617C42.0639 144.396 43.3864 145.899 44.1133 148.184C44.6387 149.837 44.9203 151.716 45.9108 153.12C46.3771 153.781 46.9931 154.268 47.6713 154.609C48.7037 155.128 51.8521 155.354 51.8755 155.027C51.9531 153.934 52.4102 152.779 52.6954 151.741C53.2319 149.794 53.8615 147.896 54.5557 146.015Z" fill="#375A64"/>
<path d="M69.1739 145.354C68.9004 143.35 68.9528 141.14 68.1175 139.299C68.0577 139.167 67.8994 139.133 67.7916 139.202C67.1935 139.579 67.1682 140.678 67.1196 141.351C67.0383 142.469 67.0986 143.589 66.9779 144.703C66.7654 146.66 66.3674 148.677 65.7471 150.522C65.0449 152.609 63.7685 153.793 61.9138 154.444C60.7224 154.862 59.5539 155.227 58.5596 156.125C57.6689 156.93 57.0504 158.039 56.5921 159.208C55.354 162.363 54.7645 165.89 54.1904 169.259C53.8041 171.529 53.4893 173.809 53.0039 176.056C52.5191 178.301 51.9992 180.535 51.7208 182.828C51.674 182.944 51.6241 183.058 51.581 183.175C51.4541 183.519 51.9259 183.704 52.0892 183.419C54.0031 180.071 56.3346 177.066 59.5157 175.222C60.9522 174.39 62.8606 174.216 64.0587 172.908C64.9704 171.912 65.0954 170.394 64.9593 169.04C64.7806 167.262 64.0303 165.797 63.2486 164.282C62.8199 163.449 62.3129 162.557 62.486 161.545C62.6493 160.591 63.3478 159.889 64.0408 159.399C65.3634 158.466 66.9095 158.047 67.9924 156.702C68.9984 155.453 69.5559 153.899 69.6674 152.216C69.8158 149.974 69.4758 147.568 69.1739 145.354Z" fill="#375A64"/>
<path d="M43.0767 156.913C41.3877 154.441 39.3493 152.309 37.0559 150.577C35.832 149.654 32.9448 147.831 32.362 150.556C32.0202 152.153 33.3957 153.724 34.3006 154.725C35.6607 156.229 37.234 157.527 38.3816 159.261C36.9605 159.775 35.4759 159.876 34.2414 160.992C32.7797 162.314 32.1243 164.867 33.5731 166.486C34.2796 167.275 35.216 167.759 36.0956 168.243C37.2389 168.872 38.4031 169.442 39.5748 169.998C42.1053 171.199 44.6679 172.417 46.8257 174.386C49.0248 176.391 51.0927 179.781 51.2671 183.052C51.2843 183.364 51.1796 183.08 51.3435 182.937C51.4334 183.029 51.7352 182.864 51.7334 182.682C51.6884 177.828 50.9209 173.206 49.1751 168.76C47.5569 164.638 45.5161 160.485 43.0767 156.913Z" fill="#375A64"/>
<path d="M37.2435 111.726C38.1755 113.923 39.1494 116.07 40.1837 118.213C41.1797 120.276 42.174 122.323 42.9187 124.524C43.8359 127.234 44.7975 129.903 45.7671 132.589C46.7749 135.381 47.6761 138.225 48.398 141.129C49.8087 146.799 50.8565 152.633 51.3746 158.496C51.6382 161.478 51.7577 164.478 51.6856 167.474C51.6296 169.815 51.3973 172.131 51.2033 174.46C51.0019 176.883 50.8571 179.335 51.0351 181.767C51.1842 183.8 51.4688 186.216 52.8573 187.666C53.1289 187.951 53.5133 187.597 53.3556 187.229C51.7066 183.385 51.7984 179.194 52.1144 175.025C52.2881 172.724 52.5296 170.434 52.5979 168.124C52.6848 165.185 52.5831 162.24 52.3398 159.312C51.8612 153.558 50.8516 147.872 49.542 142.292C48.8705 139.43 48.0389 136.625 47.0816 133.87C46.1219 131.109 45.0131 128.425 44.0836 125.651C42.4013 120.635 39.8375 116.186 37.5675 111.51C37.4493 111.267 37.14 111.481 37.2435 111.726Z" fill="white"/>
<path d="M51.4504 152.749C51.7171 149.096 52.0017 145.577 53.0859 142.092C53.591 140.467 54.2033 138.886 54.6912 137.254C55.0947 135.905 55.6977 134.056 55.3873 132.622C55.3522 132.463 55.147 132.471 55.1088 132.622C54.9012 133.441 54.924 134.34 54.7743 135.179C54.629 135.996 54.4349 136.799 54.2113 137.593C53.7358 139.282 53.1142 140.899 52.5758 142.561C51.5354 145.771 51.0013 149.327 51.2293 152.749C51.2397 152.911 51.4381 152.911 51.4504 152.749Z" fill="white"/>
<path d="M32.8197 131.753C34.0961 135.256 37.9319 135.459 40.7261 136.243C42.7219 136.803 44.1942 138.316 45.2524 140.28C46.4099 142.428 47.1935 144.951 47.8372 147.348C47.8446 147.375 47.8797 147.364 47.8741 147.336C47.0924 143.138 45.9732 138.081 42.1638 136.127C39.1109 134.562 35.0891 135.348 33.1363 131.601C33.0402 131.418 32.7427 131.541 32.8197 131.753Z" fill="white"/>
<path d="M49.4331 152.194C49.5846 152.427 49.7239 152.671 49.8809 152.899C49.9586 153.013 50.0368 153.119 50.1347 153.21C50.2351 153.303 50.3528 153.419 50.4902 153.416C50.5475 153.414 50.5875 153.342 50.5567 153.284C50.4932 153.167 50.3793 153.097 50.2906 153.008C50.1994 152.916 50.1058 152.826 50.0171 152.731C49.8391 152.539 49.6758 152.331 49.5009 152.135C49.4676 152.097 49.4029 152.149 49.4331 152.194Z" fill="#FF735D"/>
<path d="M41.4526 163.308C43.6535 165.362 45.6851 167.791 47.2984 170.453C48.0696 171.726 48.7811 173.073 49.4273 174.433C50.1326 175.917 50.5952 177.487 51.1478 179.044C51.1897 179.163 51.3794 179.165 51.3652 179.011C51.0597 175.717 49.2228 172.892 47.7524 170.151C46.9885 168.727 46.0387 167.58 45.0173 166.392C43.9621 165.165 42.8878 164.006 41.6509 163.016C41.5006 162.896 41.309 163.174 41.4526 163.308Z" fill="white"/>
<path d="M58.9813 159.43C57.9206 160.113 57.8867 162.015 57.8658 163.231C57.8257 165.565 58.3345 167.757 57.4327 169.982C56.6184 171.992 55.3174 173.67 54.2942 175.536C53.3363 177.282 52.392 179.515 52.4129 181.618C52.4142 181.739 52.5786 181.809 52.6285 181.685C53.0142 180.73 53.1528 179.646 53.4287 178.645C53.7392 177.52 54.1735 176.499 54.7346 175.51C55.719 173.777 56.9276 172.199 57.7259 170.335C58.5674 168.37 58.4442 166.424 58.3888 164.295C58.353 162.938 58.2335 160.757 59.1969 159.747C59.3479 159.59 59.1551 159.318 58.9813 159.43Z" fill="white"/>
<path d="M51.892 181.835C47.6212 181.768 39.4863 181.714 39.4863 181.714L41.4994 198.698C41.9522 202.518 44.8221 205.37 48.215 205.37H51.7226H52.0614H55.5689C58.9618 205.37 61.8311 202.518 62.2839 198.698L64.297 181.714C64.297 181.714 56.1627 181.768 51.892 181.835Z" fill="white"/>
<path d="M258.316 150.625L233.951 205.466L162.921 206.046L184.842 149.852L258.316 150.625Z" fill="#F6F7FA"/>
<path d="M115.778 205.704L115.792 201.314H161.774L182.93 148.597H256.468L258.316 150.625H186.477L164.492 205.66C164.492 205.66 115.778 205.56 115.778 205.704Z" fill="#D9DFE9"/>
<path d="M221.431 180.888C220.628 183.623 216.273 185.736 211.703 185.606C207.133 185.476 204.079 183.153 204.881 180.417C205.684 177.682 210.039 175.57 214.609 175.7C219.179 175.829 222.234 178.153 221.431 180.888Z" fill="#D9DFE9"/>
<path d="M164.492 206.01C164.45 206.01 164.406 205.999 164.365 205.978C164.21 205.898 164.142 205.691 164.212 205.515L186.279 150.275H258.316C258.486 150.275 258.624 150.432 258.624 150.625C258.624 150.818 258.486 150.975 258.316 150.975H186.676L164.773 205.804C164.722 205.933 164.609 206.01 164.492 206.01Z" fill="white"/>
<path d="M112.579 231.149H28.0806V209.86H112.579V231.149Z" fill="#4F6B9E"/>
<path d="M264.124 231.149H112.095V209.86H264.124V231.149Z" fill="#748AB2"/>
<mask id="mask3_427_2614" style="mask-type:luminance" maskUnits="userSpaceOnUse" x="28" y="209" width="237" height="5">
<path d="M28.0801 209.86H264.123V213.77H28.0801V209.86Z" fill="white"/>
</mask>
<g mask="url(#mask3_427_2614)">
<path d="M112.578 209.859H112.095H28.0796V213.77H112.095H112.578H264.123V209.859H112.578Z" fill="#BCC5D9"/>
</g>
<path d="M116.274 210.873H24.002V205.66H116.274V210.873Z" fill="#6880AC"/>
<path d="M267.82 210.873H115.792V205.66H267.82V210.873Z" fill="#99A8C5"/>
<path d="M91.2448 93.96H61.4157C59.5701 93.96 58.0732 92.2597 58.0732 90.1618V73.2393C58.0732 71.1421 59.5701 69.4411 61.4157 69.4411H91.2448C93.091 69.4411 94.5873 71.1421 94.5873 73.2393V90.1618C94.5873 92.2597 93.091 93.96 91.2448 93.96Z" fill="white"/>
<path d="M103.088 81.701L91.885 76.3292V87.0728L103.088 81.701Z" fill="white"/>
<path d="M69.8475 81.7009C69.8475 82.9959 68.7623 84.0459 67.4238 84.0459C66.0853 84.0459 65 82.9959 65 81.7009C65 80.4052 66.0853 79.3559 67.4238 79.3559C68.7623 79.3559 69.8475 80.4052 69.8475 81.7009Z" fill="#F29D00"/>
<path d="M78.159 81.7009C78.159 82.9959 77.0738 84.0459 75.7353 84.0459C74.3968 84.0459 73.3115 82.9959 73.3115 81.7009C73.3115 80.4052 74.3968 79.3559 75.7353 79.3559C77.0738 79.3559 78.159 80.4052 78.159 81.7009Z" fill="#F29D00"/>
<path d="M86.4706 81.7009C86.4706 82.9959 85.3853 84.0459 84.0468 84.0459C82.7083 84.0459 81.623 82.9959 81.623 81.7009C81.623 80.4052 82.7083 79.3559 84.0468 79.3559C85.3853 79.3559 86.4706 80.4052 86.4706 81.7009Z" fill="#F29D00"/>
<path d="M243.107 17.3834H174.242C169.819 17.3834 166.234 21.4574 166.234 26.4834V63.6079C166.234 68.6332 169.819 72.7079 174.242 72.7079H180.415C180.588 76.0728 180.164 81.0792 177.691 87.48C185.647 83.3094 190.229 77.0472 192.622 72.7079H243.107C247.529 72.7079 251.115 68.6332 251.115 63.6079V26.4834C251.115 21.4574 247.529 17.3834 243.107 17.3834Z" fill="#F29D00"/>
<path d="M213.73 35.0765H179.574C178.635 35.0765 177.874 34.212 177.874 33.1459C177.874 32.0791 178.635 31.2146 179.574 31.2146H213.73C214.668 31.2146 215.429 32.0791 215.429 33.1459C215.429 34.212 214.668 35.0765 213.73 35.0765Z" fill="white"/>
<path d="M238.221 46.3252H178.915C178.341 46.3252 177.874 45.796 177.874 45.1429C177.874 44.4891 178.341 43.9599 178.915 43.9599H238.221C238.796 43.9599 239.262 44.4891 239.262 45.1429C239.262 45.796 238.796 46.3252 238.221 46.3252Z" fill="white"/>
<path d="M238.221 52.8909H178.915C178.341 52.8909 177.874 52.3617 177.874 51.7079C177.874 51.0548 178.341 50.5256 178.915 50.5256H238.221C238.796 50.5256 239.262 51.0548 239.262 51.7079C239.262 52.3617 238.796 52.8909 238.221 52.8909Z" fill="white"/>
<path d="M225.284 59.8907H178.915C178.341 59.8907 177.874 59.3608 177.874 58.7077C177.874 58.0546 178.341 57.5254 178.915 57.5254H225.284C225.859 57.5254 226.325 58.0546 226.325 58.7077C226.325 59.3608 225.859 59.8907 225.284 59.8907Z" fill="white"/>
<path d="M237.756 35.0765H221.462C220.523 35.0765 219.762 34.212 219.762 33.1459C219.762 32.0791 220.523 31.2146 221.462 31.2146H237.756C238.694 31.2146 239.454 32.0791 239.454 33.1459C239.454 34.212 238.694 35.0765 237.756 35.0765Z" fill="white"/>
<g filter="url(#filter0_d_427_2614)">
<path d="M260.965 100.174H224.854C223.493 100.174 222.39 98.9203 222.39 97.374V90.9536C222.39 89.4073 223.493 88.1536 224.854 88.1536H260.965C262.325 88.1536 263.429 89.4073 263.429 90.9536V97.374C263.429 98.9203 262.325 100.174 260.965 100.174Z" fill="#337AB7"/>
<path d="M227.461 97.3155C227.299 97.3155 227.169 97.2504 227.071 97.1188C226.972 96.9879 226.929 96.8234 226.941 96.6267L227.097 95.0699C227.108 95.0307 227.103 95.0048 227.08 94.9915C227.056 94.9782 227.028 94.9845 226.993 95.0111L225.866 95.9365C225.727 96.0548 225.583 96.0982 225.432 96.0646C225.283 96.0324 225.161 95.9302 225.068 95.7594C224.964 95.5494 224.944 95.3653 225.008 95.2078C225.071 95.0503 225.179 94.939 225.328 94.8732L226.594 94.2229C226.629 94.2096 226.646 94.19 226.646 94.1641C226.646 94.1375 226.629 94.1179 226.594 94.1046L225.328 93.4543C225.166 93.3759 225.062 93.2513 225.017 93.0805C224.97 92.9097 224.988 92.7389 225.068 92.5681C225.161 92.3973 225.283 92.2958 225.432 92.2622C225.583 92.23 225.727 92.2664 225.866 92.3714L226.993 93.3171C227.028 93.343 227.056 93.3493 227.08 93.336C227.103 93.3234 227.108 93.2968 227.097 93.2576L226.941 91.7008C226.929 91.5041 226.975 91.3396 227.08 91.2087C227.184 91.0771 227.322 91.012 227.496 91.012C227.657 91.012 227.79 91.0771 227.894 91.2087C227.999 91.3396 228.039 91.5041 228.015 91.7008L227.859 93.2576C227.848 93.2968 227.854 93.3234 227.877 93.336C227.9 93.3493 227.93 93.343 227.964 93.3171L229.091 92.391C229.229 92.272 229.377 92.23 229.533 92.2622C229.689 92.2958 229.807 92.3973 229.888 92.5681C229.992 92.7781 230.013 92.9622 229.948 93.1197C229.885 93.2772 229.778 93.3892 229.628 93.4543L228.363 94.1046C228.328 94.1179 228.311 94.1375 228.311 94.1641C228.311 94.19 228.328 94.2096 228.363 94.2229L229.628 94.8732C229.79 94.9516 229.897 95.0769 229.948 95.247C230.001 95.4185 229.981 95.5893 229.888 95.7594C229.807 95.9302 229.689 96.0324 229.533 96.0646C229.377 96.0982 229.229 96.0611 229.091 95.9568L227.964 95.0111C227.93 94.9845 227.9 94.9782 227.877 94.9915C227.854 95.0048 227.848 95.0307 227.859 95.0699L228.015 96.6267C228.039 96.8234 227.996 96.9879 227.886 97.1188C227.776 97.2504 227.634 97.3155 227.461 97.3155Z" fill="white"/>
<path d="M234.93 97.3155C234.768 97.3155 234.638 97.2504 234.54 97.1188C234.441 96.9879 234.398 96.8234 234.409 96.6267L234.566 95.0699C234.577 95.0307 234.571 95.0048 234.549 94.9915C234.525 94.9782 234.497 94.9845 234.462 95.0111L233.335 95.9365C233.196 96.0548 233.052 96.0982 232.901 96.0646C232.752 96.0324 232.63 95.9302 232.537 95.7594C232.433 95.5494 232.413 95.3653 232.477 95.2078C232.54 95.0503 232.647 94.939 232.797 94.8732L234.063 94.2229C234.098 94.2096 234.115 94.19 234.115 94.1641C234.115 94.1375 234.098 94.1179 234.063 94.1046L232.797 93.4543C232.635 93.3759 232.531 93.2513 232.485 93.0805C232.439 92.9097 232.457 92.7389 232.537 92.5681C232.63 92.3973 232.752 92.2958 232.901 92.2622C233.052 92.23 233.196 92.2664 233.335 92.3714L234.462 93.3171C234.497 93.343 234.525 93.3493 234.549 93.336C234.571 93.3234 234.577 93.2968 234.566 93.2576L234.409 91.7008C234.398 91.5041 234.444 91.3396 234.549 91.2087C234.653 91.0771 234.791 91.012 234.965 91.012C235.126 91.012 235.259 91.0771 235.363 91.2087C235.468 91.3396 235.508 91.5041 235.484 91.7008L235.328 93.2576C235.317 93.2968 235.323 93.3234 235.346 93.336C235.369 93.3493 235.399 93.343 235.432 93.3171L236.56 92.391C236.698 92.272 236.846 92.23 237.001 92.2622C237.157 92.2958 237.276 92.3973 237.357 92.5681C237.46 92.7781 237.481 92.9622 237.417 93.1197C237.354 93.2772 237.247 93.3892 237.097 93.4543L235.832 94.1046C235.797 94.1179 235.78 94.1375 235.78 94.1641C235.78 94.19 235.797 94.2096 235.832 94.2229L237.097 94.8732C237.258 94.9516 237.366 95.0769 237.417 95.247C237.47 95.4185 237.45 95.5893 237.357 95.7594C237.276 95.9302 237.157 96.0324 237.001 96.0646C236.846 96.0982 236.698 96.0611 236.56 95.9568L235.432 95.0111C235.399 94.9845 235.369 94.9782 235.346 94.9915C235.323 95.0048 235.317 95.0307 235.328 95.0699L235.484 96.6267C235.508 96.8234 235.465 96.9879 235.354 97.1188C235.245 97.2504 235.103 97.3155 234.93 97.3155Z" fill="white"/>
<path d="M242.399 97.3155C242.237 97.3155 242.106 97.2504 242.008 97.1188C241.91 96.9879 241.867 96.8234 241.878 96.6267L242.035 95.0699C242.046 95.0307 242.04 95.0048 242.018 94.9915C241.994 94.9782 241.965 94.9845 241.931 95.0111L240.804 95.9365C240.665 96.0548 240.52 96.0982 240.371 96.0646C240.22 96.0324 240.099 95.9302 240.006 95.7594C239.902 95.5494 239.882 95.3653 239.946 95.2078C240.009 95.0503 240.116 94.939 240.266 94.8732L241.532 94.2229C241.566 94.2096 241.584 94.19 241.584 94.1641C241.584 94.1375 241.566 94.1179 241.532 94.1046L240.266 93.4543C240.104 93.3759 240 93.2513 239.954 93.0805C239.909 92.9097 239.926 92.7389 240.006 92.5681C240.099 92.3973 240.22 92.2958 240.371 92.2622C240.52 92.23 240.665 92.2664 240.804 92.3714L241.931 93.3171C241.965 93.343 241.994 93.3493 242.018 93.336C242.04 93.3234 242.046 93.2968 242.035 93.2576L241.878 91.7008C241.867 91.5041 241.914 91.3396 242.018 91.2087C242.122 91.0771 242.26 91.012 242.434 91.012C242.596 91.012 242.728 91.0771 242.832 91.2087C242.937 91.3396 242.977 91.5041 242.953 91.7008L242.798 93.2576C242.786 93.2968 242.791 93.3234 242.815 93.336C242.838 93.3493 242.867 93.343 242.902 93.3171L244.029 92.391C244.167 92.272 244.314 92.23 244.471 92.2622C244.626 92.2958 244.745 92.3973 244.826 92.5681C244.93 92.7781 244.95 92.9622 244.886 93.1197C244.824 93.2772 244.716 93.3892 244.566 93.4543L243.301 94.1046C243.266 94.1179 243.248 94.1375 243.248 94.1641C243.248 94.19 243.266 94.2096 243.301 94.2229L244.566 94.8732C244.727 94.9516 244.835 95.0769 244.886 95.247C244.938 95.4185 244.918 95.5893 244.826 95.7594C244.745 95.9302 244.626 96.0324 244.471 96.0646C244.314 96.0982 244.167 96.0611 244.029 95.9568L242.902 95.0111C242.867 94.9845 242.838 94.9782 242.815 94.9915C242.791 95.0048 242.786 95.0307 242.798 95.0699L242.953 96.6267C242.977 96.8234 242.933 96.9879 242.823 97.1188C242.714 97.2504 242.571 97.3155 242.399 97.3155Z" fill="white"/>
<path d="M249.867 97.3155C249.705 97.3155 249.575 97.2504 249.477 97.1188C249.379 96.9879 249.335 96.8234 249.347 96.6267L249.503 95.0699C249.515 95.0307 249.509 95.0048 249.486 94.9915C249.462 94.9782 249.434 94.9845 249.399 95.0111L248.272 95.9365C248.134 96.0548 247.989 96.0982 247.839 96.0646C247.689 96.0324 247.568 95.9302 247.475 95.7594C247.37 95.5494 247.351 95.3653 247.414 95.2078C247.477 95.0503 247.585 94.939 247.734 94.8732L249 94.2229C249.035 94.2096 249.053 94.19 249.053 94.1641C249.053 94.1375 249.035 94.1179 249 94.1046L247.734 93.4543C247.572 93.3759 247.468 93.2513 247.423 93.0805C247.377 92.9097 247.394 92.7389 247.475 92.5681C247.568 92.3973 247.689 92.2958 247.839 92.2622C247.989 92.23 248.134 92.2664 248.272 92.3714L249.399 93.3171C249.434 93.343 249.462 93.3493 249.486 93.336C249.509 93.3234 249.515 93.2968 249.503 93.2576L249.347 91.7008C249.335 91.5041 249.382 91.3396 249.486 91.2087C249.59 91.0771 249.728 91.012 249.902 91.012C250.064 91.012 250.197 91.0771 250.301 91.2087C250.405 91.3396 250.445 91.5041 250.421 91.7008L250.266 93.2576C250.255 93.2968 250.26 93.3234 250.283 93.336C250.306 93.3493 250.336 93.343 250.37 93.3171L251.497 92.391C251.636 92.272 251.783 92.23 251.939 92.2622C252.095 92.2958 252.213 92.3973 252.294 92.5681C252.398 92.7781 252.419 92.9622 252.354 93.1197C252.292 93.2772 252.184 93.3892 252.034 93.4543L250.769 94.1046C250.734 94.1179 250.717 94.1375 250.717 94.1641C250.717 94.19 250.734 94.2096 250.769 94.2229L252.034 94.8732C252.196 94.9516 252.303 95.0769 252.354 95.247C252.407 95.4185 252.387 95.5893 252.294 95.7594C252.213 95.9302 252.095 96.0324 251.939 96.0646C251.783 96.0982 251.636 96.0611 251.497 95.9568L250.37 95.0111C250.336 94.9845 250.306 94.9782 250.283 94.9915C250.26 95.0048 250.255 95.0307 250.266 95.0699L250.421 96.6267C250.445 96.8234 250.402 96.9879 250.292 97.1188C250.182 97.2504 250.04 97.3155 249.867 97.3155Z" fill="white"/>
<path d="M257.336 97.3155C257.174 97.3155 257.044 97.2504 256.946 97.1188C256.848 96.9879 256.804 96.8234 256.816 96.6267L256.972 95.0699C256.984 95.0307 256.978 95.0048 256.955 94.9915C256.931 94.9782 256.903 94.9845 256.868 95.0111L255.741 95.9365C255.603 96.0548 255.458 96.0982 255.308 96.0646C255.158 96.0324 255.037 95.9302 254.944 95.7594C254.839 95.5494 254.82 95.3653 254.883 95.2078C254.946 95.0503 255.053 94.939 255.203 94.8732L256.469 94.2229C256.504 94.2096 256.522 94.19 256.522 94.1641C256.522 94.1375 256.504 94.1179 256.469 94.1046L255.203 93.4543C255.041 93.3759 254.937 93.2513 254.891 93.0805C254.846 92.9097 254.863 92.7389 254.944 92.5681C255.037 92.3973 255.158 92.2958 255.308 92.2622C255.458 92.23 255.603 92.2664 255.741 92.3714L256.868 93.3171C256.903 93.343 256.931 93.3493 256.955 93.336C256.978 93.3234 256.984 93.2968 256.972 93.2576L256.816 91.7008C256.804 91.5041 256.851 91.3396 256.955 91.2087C257.059 91.0771 257.197 91.012 257.371 91.012C257.533 91.012 257.666 91.0771 257.77 91.2087C257.874 91.3396 257.914 91.5041 257.89 91.7008L257.735 93.2576C257.723 93.2968 257.729 93.3234 257.752 93.336C257.775 93.3493 257.804 93.343 257.839 93.3171L258.966 92.391C259.104 92.272 259.252 92.23 259.408 92.2622C259.564 92.2958 259.682 92.3973 259.763 92.5681C259.867 92.7781 259.888 92.9622 259.823 93.1197C259.761 93.2772 259.653 93.3892 259.503 93.4543L258.238 94.1046C258.203 94.1179 258.186 94.1375 258.186 94.1641C258.186 94.19 258.203 94.2096 258.238 94.2229L259.503 94.8732C259.665 94.9516 259.772 95.0769 259.823 95.247C259.876 95.4185 259.856 95.5893 259.763 95.7594C259.682 95.9302 259.564 96.0324 259.408 96.0646C259.252 96.0982 259.104 96.0611 258.966 95.9568L257.839 95.0111C257.804 94.9845 257.775 94.9782 257.752 94.9915C257.729 95.0048 257.723 95.0307 257.735 95.0699L257.89 96.6267C257.914 96.8234 257.871 96.9879 257.76 97.1188C257.651 97.2504 257.509 97.3155 257.336 97.3155Z" fill="#337AB7"/>
</g>
<defs>
<filter id="filter0_d_427_2614" x="218.39" y="88.1536" width="49.0386" height="20.0204" filterUnits="userSpaceOnUse" color-interpolation-filters="sRGB">
<feFlood flood-opacity="0" result="BackgroundImageFix"/>
<feColorMatrix in="SourceAlpha" type="matrix" values="0 0 0 0 0 0 0 0 0 0 0 0 0 0 0 0 0 0 127 0" result="hardAlpha"/>
<feOffset dy="4"/>
<feGaussianBlur stdDeviation="2"/>
<feComposite in2="hardAlpha" operator="out"/>
<feColorMatrix type="matrix" values="0 0 0 0 0 0 0 0 0 0 0 0 0 0 0 0 0 0 0.25 0"/>
<feBlend mode="normal" in2="BackgroundImageFix" result="effect1_dropShadow_427_2614"/>
<feBlend mode="normal" in="SourceGraphic" in2="effect1_dropShadow_427_2614" result="shape"/>
</filter>
</defs>
</svg>
