<svg width="287" height="176" viewBox="0 0 287 176" fill="none" xmlns="http://www.w3.org/2000/svg">
<path d="M198.532 143.976C198.35 143.466 198.11 142.809 197.82 142.032L197.813 142.035L153.845 101.648C152.747 100.641 151.277 100.141 149.793 100.27L144.687 100.714C143.289 100.835 142.055 101.674 141.427 102.93L136.277 113.231C135.346 115.091 133.948 116.675 132.219 117.828C129.402 119.706 125.758 120.142 122.707 119.162C119.814 118.233 118.071 115.274 118.535 112.269L121.874 90.6326C122.485 86.6759 125.085 83.3106 128.759 81.7198L140.064 76.8257C113.888 73.4908 98.6621 77.1755 94.2465 78.5216L77.4731 123.648C83.7891 135.245 137.913 167.867 147.598 173.642C148.565 174.217 149.665 174.521 150.789 174.521C154.413 174.521 157.886 173.082 160.448 170.521H163.269C167.72 170.521 171.905 168.411 174.554 164.835L177.946 164.527C182.837 164.083 186.897 160.562 188.03 155.783C193.12 155.146 197.316 151.486 198.638 146.529C198.863 145.686 198.826 144.797 198.532 143.976Z" fill="#F8BC9F"/>
<path d="M187.277 155.092C185.233 153.463 183.203 151.815 181.194 150.143L175.196 145.093L169.272 139.958C167.306 138.235 165.36 136.488 163.433 134.722C165.478 136.35 167.508 137.998 169.518 139.67L175.514 144.72L181.439 149.857C183.405 151.579 185.349 153.326 187.277 155.092Z" fill="#E59684"/>
<path d="M174.148 164.463C172.116 162.767 170.1 161.051 168.107 159.313L162.152 154.065L156.274 148.733C154.324 146.945 152.395 145.133 150.484 143.301C152.516 144.996 154.532 146.713 156.526 148.451L162.479 153.7L168.357 159.033C170.307 160.821 172.236 162.633 174.148 164.463Z" fill="#E59684"/>
<path d="M159.668 169.116C157.804 167.642 155.956 166.148 154.128 164.632L148.675 160.048L143.295 155.378C141.511 153.81 139.748 152.219 138.001 150.606C139.866 152.08 141.714 153.574 143.541 155.091L148.994 159.675L154.373 164.346C156.157 165.913 157.921 167.504 159.668 169.116Z" fill="#E59684"/>
<path d="M61.3568 135.607L45.4766 150.527L53.2182 131.574L61.3568 135.607Z" fill="#132A52"/>
<path d="M45.4765 150.526L79.5832 67.0212L32.9586 44.8408L22.346 39.3729C13.6925 52.3781 7.26655 66.8709 3.57997 82.36C3.30092 83.5352 3.03858 84.7172 2.79097 85.9041C2.74774 86.1095 2.70843 86.3158 2.66717 86.5212C2.46672 87.5057 2.27512 88.4922 2.0963 89.4846C2.04127 89.7882 1.99018 90.0918 1.9381 90.3964C1.78286 91.2905 1.63646 92.1876 1.49988 93.0877C1.44486 93.4541 1.3918 93.8206 1.33874 94.1881C1.21887 95.0312 1.10686 95.8752 1.00172 96.7222C0.951611 97.1299 0.902485 97.5367 0.855321 97.9445C0.76296 98.759 0.680425 99.5765 0.602803 100.396C0.561535 100.827 0.519283 101.258 0.482928 101.691C0.413166 102.504 0.356176 103.319 0.302135 104.136C0.27364 104.569 0.240235 105.001 0.216654 105.435C0.167525 106.296 0.133135 107.162 0.101693 108.029C0.0869545 108.414 0.0663198 108.797 0.0555116 109.183C0.0201393 110.43 0.000488281 111.681 0.000488281 112.935C0.000488281 114.058 0.0162113 115.175 0.0447056 116.291C0.0673046 117.165 0.103657 118.036 0.143943 118.905C0.152786 119.115 0.1577 119.326 0.168508 119.536C0.277573 121.691 0.438713 123.833 0.647016 125.96L45.4765 150.526Z" fill="#2E6EA5"/>
<path d="M78.6303 69.3526L53.2183 131.573L71.212 140.489L77.4729 123.647L94.2472 78.5219L94.9134 76.7267L78.6303 69.3526Z" fill="#CBCBCB"/>
<mask id="mask0_427_1942" style="mask-type:luminance" maskUnits="userSpaceOnUse" x="0" y="39" width="23" height="93">
<path d="M0 39.3822H22.3406V131.573H0V39.3822Z" fill="white"/>
</mask>
<g mask="url(#mask0_427_1942)">
<g opacity="0.210007">
<path d="M2.91527 127.204L10.8898 131.573L15.7092 92.7652L22.3406 39.3825C14.142 51.7058 7.94894 65.3644 4.18572 79.9407L3.58144 82.3549C3.58144 82.3559 3.58046 82.3578 3.58046 82.3598C3.30043 83.5359 3.03809 84.718 2.79048 85.9049C2.74823 86.1093 2.70893 86.3166 2.66668 86.521C2.46623 87.5055 2.27463 88.493 2.09581 89.4844C2.04078 89.788 1.99067 90.0916 1.93762 90.3962C1.78335 91.2903 1.63695 92.1874 1.50037 93.0874C1.44437 93.4539 1.39131 93.8204 1.33923 94.1879C1.21838 95.0309 1.10637 95.875 1.00222 96.7229C0.951122 97.1307 0.901994 97.5375 0.855813 97.9452C0.763452 98.7598 0.680917 99.5773 0.602311 100.397C0.561044 100.827 0.518794 101.258 0.482439 101.691C0.413659 102.503 0.356671 103.319 0.301647 104.135C0.273153 104.569 0.240728 105.001 0.216164 105.435C0.167036 106.297 0.132646 107.163 0.101204 108.028C0.0874481 108.413 0.0668143 108.798 0.0550236 109.183C0.0206338 110.431 0 111.68 0 112.936C0 114.057 0.0167037 115.175 0.0442154 116.292C0.0668144 117.164 0.103169 118.035 0.143454 118.904C0.152297 119.116 0.158193 119.326 0.169001 119.536C0.277083 121.692 0.438223 123.833 0.647509 125.961L2.91527 127.204Z" fill="#132A52"/>
</g>
</g>
<path d="M33.3132 133.942C33.3132 135.251 34.3734 136.311 35.6822 136.311C36.99 136.311 38.0502 135.251 38.0502 133.942C38.0502 132.634 36.99 131.574 35.6822 131.574C34.3734 131.574 33.3132 132.634 33.3132 133.942Z" fill="#CBCBCB"/>
<path d="M26.3655 130.89C26.3655 132.198 27.4257 133.258 28.7344 133.258C30.0422 133.258 31.1024 132.198 31.1024 130.89C31.1024 129.581 30.0422 128.521 28.7344 128.521C27.4257 128.521 26.3655 129.581 26.3655 130.89Z" fill="#CBCBCB"/>
<path d="M35.6824 131.574C35.8731 131.574 36.0568 131.602 36.2346 131.644C35.1951 131.895 34.4189 132.824 34.4189 133.942C34.4189 135.059 35.1951 135.989 36.2346 136.239C36.0568 136.282 35.8731 136.311 35.6824 136.311C34.3737 136.311 33.3135 135.25 33.3135 133.942C33.3135 132.634 34.3737 131.574 35.6824 131.574Z" fill="#B7B7B7"/>
<path d="M28.7344 128.52C28.9251 128.52 29.1088 128.549 29.2866 128.591C28.2471 128.842 27.4709 129.772 27.4709 130.889C27.4709 132.007 28.2471 132.936 29.2866 133.187C29.1088 133.229 28.9251 133.257 28.7344 133.257C27.4257 133.257 26.3655 132.197 26.3655 130.889C26.3655 129.581 27.4257 128.52 28.7344 128.52Z" fill="#B7B7B7"/>
<path d="M207.417 68.9157L241.523 152.422L286.142 127.972C286.704 123.033 287 118.017 287 112.936C287 86.5744 279.219 61.9523 265.744 41.0443L254.041 46.7354L207.417 68.9157Z" fill="#299BCC"/>
<path d="M208.369 71.2476L192.086 78.6218L215.788 142.384L233.782 133.468L208.369 71.2476Z" fill="#CBCBCB"/>
<path d="M225.644 137.502L241.523 152.422L233.782 133.47L225.644 137.502Z" fill="#0D3F9D"/>
<mask id="mask1_427_1942" style="mask-type:luminance" maskUnits="userSpaceOnUse" x="265" y="41" width="23" height="93">
<path d="M265.754 41.0586H287V133.469H265.754V41.0586Z" fill="white"/>
</mask>
<g mask="url(#mask1_427_1942)">
<g opacity="0.139999">
<path d="M286.143 127.972C286.705 123.034 287 118.018 287 112.936C287 86.5806 279.223 61.9634 265.754 41.0584L276.111 133.469L286.143 127.972Z" fill="#173568"/>
</g>
</g>
<path d="M253.285 135.669C253.285 136.977 252.225 138.038 250.917 138.038C249.608 138.038 248.548 136.977 248.548 135.669C248.548 134.361 249.608 133.3 250.917 133.3C252.225 133.3 253.285 134.361 253.285 135.669Z" fill="#CBCBCB"/>
<path d="M260.233 132.616C260.233 133.925 259.173 134.985 257.865 134.985C256.556 134.985 255.496 133.925 255.496 132.616C255.496 131.308 256.556 130.248 257.865 130.248C259.173 130.248 260.233 131.308 260.233 132.616Z" fill="#CBCBCB"/>
<path d="M250.917 133.3C250.725 133.3 250.542 133.329 250.365 133.372C251.404 133.621 252.18 134.552 252.18 135.669C252.18 136.786 251.404 137.717 250.365 137.966C250.542 138.009 250.725 138.038 250.917 138.038C252.225 138.038 253.285 136.977 253.285 135.669C253.285 134.361 252.225 133.3 250.917 133.3Z" fill="#B7B7B7"/>
<path d="M257.865 130.248C257.673 130.248 257.49 130.276 257.313 130.319C258.352 130.569 259.128 131.499 259.128 132.616C259.128 133.733 258.352 134.664 257.313 134.913C257.49 134.956 257.673 134.985 257.865 134.985C259.173 134.985 260.233 133.925 260.233 132.616C260.233 131.308 259.173 130.248 257.865 130.248Z" fill="#B7B7B7"/>
<path d="M194.674 85.5859L192.415 79.5068L163.609 71.1343C159.587 69.9661 155.283 70.2363 151.44 71.9007L140.065 76.8253L128.759 81.7195C125.085 83.3103 122.485 86.6755 121.874 90.6323L118.536 112.269C118.071 115.274 119.814 118.233 122.708 119.162C125.757 120.142 129.401 119.705 132.219 117.828C133.947 116.675 135.346 115.09 136.276 113.23L141.427 102.93C142.054 101.674 143.289 100.834 144.688 100.713L149.793 100.269C151.278 100.141 152.747 100.641 153.844 101.648L197.812 142.036L197.82 142.032L212.63 133.893L194.674 85.5859Z" fill="#E19C80"/>
<mask id="mask2_427_1942" style="mask-type:luminance" maskUnits="userSpaceOnUse" x="165" y="85" width="48" height="58">
<path d="M165.589 85.5854H212.631V142.032H165.589V85.5854Z" fill="white"/>
</mask>
<g mask="url(#mask2_427_1942)">
<g opacity="0.139999">
<path d="M165.59 112.437L197.82 142.032L212.63 133.892L194.675 85.5854L165.59 112.437Z" fill="#606060"/>
</g>
</g>
<path d="M105.9 140.59C105.205 141.873 104.43 143.106 103.662 144.341C102.869 145.562 102.082 146.786 101.215 147.959C101.91 146.676 102.686 145.444 103.455 144.209C104.248 142.989 105.035 141.764 105.9 140.59Z" fill="#FF735D"/>
<path d="M120.586 147.959C119.728 149.754 118.787 151.503 117.852 153.255C116.892 154.995 115.939 156.738 114.902 158.435C115.76 156.639 116.701 154.891 117.636 153.139C118.596 151.399 119.549 149.657 120.586 147.959Z" fill="#FF735D"/>
<path d="M133.219 157.171C132.536 158.658 131.77 160.099 131.011 161.546C130.226 162.977 129.449 164.414 128.587 165.804C129.268 164.317 130.036 162.875 130.795 161.43C131.579 159.998 132.358 158.563 133.219 157.171Z" fill="#FF735D"/>
<path d="M94.4251 128.274C94.4251 128.274 87.951 131.432 89.8464 142.959C91.7417 154.487 99.4794 149.749 99.4794 149.749C99.4794 149.749 100.163 165.277 113.428 160.54C113.428 160.54 116.849 171.279 126.798 167.488C126.798 167.488 128.024 178.762 137.685 174.067L143.536 171.226L138.483 167.278C138.483 167.278 142.115 154.96 133.904 155.908C133.904 155.908 133.587 141.696 121.587 145.96C121.587 145.96 119.376 132.852 106.427 139.8C106.427 139.8 104.269 122.851 94.4251 128.274Z" fill="#E19C80"/>
<path d="M179.346 0.000205994H118.324C116.087 0.000205994 114.273 1.81303 114.273 4.05033V37.712C114.273 39.9483 116.087 41.7621 118.324 41.7621H121.233L128.85 48.6381C129.418 49.15 130.29 49.1107 130.809 48.5487L137.074 41.7621H179.346C181.582 41.7621 183.396 39.9483 183.396 37.712V4.05033C183.396 1.81303 181.582 0.000205994 179.346 0.000205994Z" fill="#969696"/>
<path d="M138.204 20.2408C138.204 22.7483 136.171 24.7812 133.664 24.7812C131.156 24.7812 129.124 22.7483 129.124 20.2408C129.124 17.7333 131.156 15.7004 133.664 15.7004C136.171 15.7004 138.204 17.7333 138.204 20.2408Z" fill="white"/>
<path d="M153.612 20.2408C153.612 22.7483 151.58 24.7812 149.073 24.7812C146.565 24.7812 144.532 22.7483 144.532 20.2408C144.532 17.7333 146.565 15.7004 149.073 15.7004C151.58 15.7004 153.612 17.7333 153.612 20.2408Z" fill="white"/>
<path d="M168.546 20.2408C168.546 22.7483 166.513 24.7812 164.005 24.7812C161.498 24.7812 159.466 22.7483 159.466 20.2408C159.466 17.7333 161.498 15.7004 164.005 15.7004C166.513 15.7004 168.546 17.7333 168.546 20.2408Z" fill="white"/>
</svg>
