<svg width="273" height="283" viewBox="0 0 273 283" fill="none" xmlns="http://www.w3.org/2000/svg">
<path d="M207.684 7.72007L190.25 16.4646C188.947 17.0201 188.101 18.2997 188.101 19.717V27.8714C188.101 35.1575 190.135 42.3769 194.318 48.7511C197.458 53.5358 201.623 59.6513 208.552 63.1481H211.68C219.394 60.7951 225.152 54.524 228.673 49.1605C232.856 42.7863 234.889 35.567 234.889 28.2809V19.717C234.889 18.2997 234.043 17.0201 232.74 16.4646L212.881 8.00317C211.996 7.62591 208.569 7.34281 207.684 7.72007Z" fill="#E1E1E1"/>
<path d="M206.982 8.00299L187.122 16.465C185.819 17.0199 184.973 18.3001 184.973 19.7168V27.8718C184.973 35.1573 187.007 42.3773 191.19 48.7509C194.71 54.1149 200.161 59.6374 208.553 63.1479C216.266 60.7955 222.024 54.5244 225.545 49.1604C229.728 42.7861 231.761 35.5668 231.761 28.2807V19.7168C231.761 18.3001 230.915 17.0199 229.612 16.465L209.753 8.00299C208.867 7.62572 207.867 7.62572 206.982 8.00299Z" fill="#F5F5F5"/>
<path d="M231.697 26.0721C231.708 26.0715 231.721 26.2008 231.735 26.4476C231.747 26.7271 231.763 27.0853 231.783 27.5275C231.802 27.9966 231.829 28.5717 231.797 29.2386C231.762 29.9044 231.791 30.6678 231.693 31.5034C231.613 32.3402 231.557 33.261 231.385 34.2361C231.306 34.7236 231.244 35.2326 231.143 35.7493C231.032 36.2649 230.918 36.7953 230.802 37.3389C230.282 39.5 229.563 41.8494 228.512 44.1953C227.457 46.5399 226.212 48.6563 224.95 50.4884C224.288 51.383 223.678 52.2472 223.023 52.9898C222.701 53.3653 222.409 53.7444 222.095 54.0787C221.78 54.4119 221.478 54.7319 221.188 55.0383C220.625 55.6635 220.047 56.1599 219.564 56.6207C219.085 57.0855 218.643 57.4527 218.275 57.7459C217.93 58.0236 217.651 58.2483 217.433 58.4236C217.238 58.5761 217.133 58.6518 217.126 58.6435C217.12 58.6351 217.212 58.5428 217.393 58.3753C217.601 58.1887 217.867 57.9497 218.196 57.6541C218.55 57.3478 218.979 56.9693 219.445 56.4943C219.914 56.0235 220.479 55.5187 221.029 54.8869C221.312 54.5782 221.608 54.2557 221.915 53.9196C222.223 53.5828 222.509 53.2032 222.824 52.8265C223.467 52.0815 224.064 51.2173 224.715 50.3251C225.955 48.4972 227.182 46.3945 228.229 44.0689C229.271 41.7421 229.993 39.4147 230.524 37.2727C230.644 36.7345 230.761 36.2089 230.875 35.6975C230.98 35.1849 231.046 34.6807 231.131 34.1968C231.313 33.23 231.381 32.3164 231.474 31.485C231.586 30.6553 231.573 29.896 231.623 29.2333C231.672 28.5699 231.662 27.9972 231.662 27.5287C231.667 27.0871 231.67 26.7295 231.673 26.4499C231.678 26.2026 231.687 26.0727 231.697 26.0721Z" fill="#E1E1E1"/>
<path d="M206.889 43.7993L195.497 34.7425L198.657 30.7672L206.296 36.8404L217.451 24.3572L221.238 27.7407L206.889 43.7993Z" fill="white"/>
<path d="M260.691 52.3368H258.536V40.6051C258.536 37.8439 256.289 35.5975 253.528 35.5975C250.767 35.5975 248.52 37.8439 248.52 40.6051V52.3368H246.365V40.6051C246.365 36.6554 249.579 33.4424 253.528 33.4424C257.478 33.4424 260.691 36.6554 260.691 40.6051V52.3368Z" fill="#ECECEC"/>
<path d="M261.347 59.5048H245.708C244.696 59.5048 243.875 58.6835 243.875 57.6709V46.2074C243.875 45.1942 244.696 44.3735 245.708 44.3735H261.347C262.36 44.3735 263.181 45.1942 263.181 46.2074V57.6709C263.181 58.6835 262.36 59.5048 261.347 59.5048Z" fill="#ECECEC"/>
<path d="M255.01 52.3333C255.388 51.9524 255.621 51.4303 255.621 50.851C255.621 49.6781 254.67 48.7275 253.498 48.7275C252.325 48.7275 251.374 49.6781 251.374 50.851C251.374 51.8213 252.029 52.6307 252.919 52.884L252.462 54.9014H254.483L254.077 52.884C254.435 52.7821 254.755 52.5901 255.01 52.3333Z" fill="#FAFAFA"/>
<path d="M15.6723 223.618C13.3688 222.172 10.7303 221.264 8.02447 220.986C6.77466 220.858 5.40922 220.894 4.40675 221.651C4.19398 221.812 3.98657 222.05 4.03425 222.312C4.06941 222.504 4.23212 222.644 4.38827 222.764C7.49999 225.138 12.2066 225.437 15.6723 223.618Z" fill="#E1E1E1"/>
<path d="M15.4765 223.402C13.7451 222.051 12.0036 220.69 10.5369 219.056C9.0701 217.421 7.8781 215.48 7.44004 213.328C7.30714 212.676 7.26601 211.93 7.6844 211.412C11.6222 214.487 14.7154 218.464 15.4765 223.402Z" fill="#E1E1E1"/>
<path d="M15.6316 223.589C15.3354 221.435 15.2287 219.221 15.7234 217.103C16.218 214.986 17.3695 212.96 19.1778 211.751C19.8584 213.342 19.5658 215.174 19.0866 216.836C18.3458 219.405 17.1836 221.851 15.6608 224.048" fill="#E1E1E1"/>
<path d="M19.4916 230.505C17.1487 230.79 15.108 232.025 13.3582 233.609C11.6089 235.194 10.365 237.329 9.8501 239.632C12.1483 239.49 14.0984 237.869 15.5121 236.051C16.9264 234.234 17.9062 232.241 19.4594 230.541" fill="#E1E1E1"/>
<path d="M20.33 231.611C18.4425 226.962 19.1267 221.361 22.0769 217.302C23.4114 222.051 22.9214 227.414 20.33 231.611Z" fill="#E1E1E1"/>
<path d="M25.4302 237.684C23.3036 237.552 21.1419 238.058 19.2949 239.121C17.4491 240.184 15.9252 241.799 14.971 243.705C14.8416 243.963 14.7272 244.292 14.9006 244.525C15.0514 244.726 15.3429 244.745 15.5944 244.729C17.6553 244.595 19.4821 243.355 20.99 241.943C22.4972 240.53 23.8102 238.899 25.4761 237.678" fill="#E1E1E1"/>
<path d="M25.2672 237.353C24.1706 233.843 24.102 230.019 25.0729 226.472C25.4561 225.072 26.0998 223.597 27.3949 222.94C27.5052 222.884 27.6339 222.834 27.7501 222.878C27.8604 222.919 27.9242 223.032 27.9748 223.137C28.4355 224.101 28.5696 225.193 28.522 226.259C28.4749 227.326 28.2538 228.376 28.0332 229.42C27.625 231.351 27.408 233.427 26.3489 235.093C26.0974 235.488 25.8757 235.915 25.6755 236.339C25.4746 236.762 25.4734 236.911 25.2893 237.248" fill="#E1E1E1"/>
<path d="M38.767 239.365C37.7669 235.56 38.8284 230.948 41.2261 227.829C41.4025 227.6 41.6362 227.353 41.9246 227.38C42.3663 227.421 42.4807 228.009 42.461 228.452C42.2876 232.34 40.9907 236.171 38.767 239.365Z" fill="#E1E1E1"/>
<path d="M39.9844 240.197C44.6064 241.399 49.9096 240.23 53.7538 237.396C51.4753 236.242 48.7897 235.912 46.2996 236.481C43.8095 237.051 41.5346 238.167 39.9844 240.197Z" fill="#E1E1E1"/>
<path d="M41.0107 237.663C43.5998 233.443 48.5627 230.688 53.5077 230.438C52.9379 232.448 51.2852 234.012 49.4203 234.956C47.5554 235.901 45.4736 236.312 43.4216 236.71C42.6229 236.866 41.5281 237.036 41.0107 237.663Z" fill="#E1E1E1"/>
<path d="M39.0244 225.371C39.7253 222.97 40.4304 220.547 40.6229 218.052C40.8154 215.558 40.4596 212.954 39.1651 210.813C36.7471 215.493 36.5021 220.96 38.9517 225.622" fill="#E1E1E1"/>
<path d="M47.1655 221.257C49.9935 216.117 55.7628 212.012 61.6006 211.436C59.3484 217.043 53.2072 221.377 47.1655 221.257Z" fill="#E1E1E1"/>
<path d="M45.3867 222.264C49.604 222.906 53.1973 225.599 57.138 227.233C57.9814 227.582 58.8903 227.86 59.795 227.742C60.6997 227.623 61.592 227.016 61.7952 226.126C61.9633 225.388 61.6271 224.604 61.0973 224.062C60.5668 223.521 59.8665 223.183 59.1674 222.892C54.875 221.104 50.2715 221.06 45.7497 222.144" fill="#E1E1E1"/>
<path d="M42.9463 225.222C43.9011 225.495 44.2271 225.989 44.9834 226.633C47.5486 228.818 50.6246 230.398 53.8948 231.211C54.2351 231.295 54.6815 231.329 54.8502 231.022C54.9974 230.753 54.8109 230.428 54.6201 230.188C53.2499 228.474 51.2957 227.302 49.2395 226.536C47.1827 225.77 45.4006 224.847 42.9463 225.045" fill="#E1E1E1"/>
<path d="M40.1924 207.357C43.6218 210.558 48.4523 212.201 53.122 211.756C53.3348 211.736 53.566 211.702 53.7109 211.544C54.0363 211.19 53.6459 210.644 53.2662 210.349C49.465 207.385 44.8609 206.156 40.1924 207.357Z" fill="#E1E1E1"/>
<path d="M43.4575 206.162C47.9907 202.763 54.207 201.738 59.5912 203.499C57.5595 205.502 54.7404 206.58 51.9034 206.875C49.0659 207.17 46.2247 206.855 43.4575 206.162Z" fill="#E1E1E1"/>
<path d="M42.1598 197.953C41.7867 194.158 42.0287 191.163 41.7653 187.351C41.7444 187.046 41.6788 186.68 41.394 186.57C40.997 186.418 40.6668 186.905 40.5363 187.31C39.4069 190.824 40.0243 194.855 42.1544 197.869" fill="#E1E1E1"/>
<path d="M41.8867 198.372C44.4585 196.782 46.3877 194.705 48.1721 192.263C49.413 190.565 50.4602 188.529 50.1777 186.445C48.4344 186.41 46.7775 187.371 45.6439 188.696C44.5103 190.021 43.8362 191.677 43.3326 193.346C42.8296 195.016 42.4774 196.731 41.8867 198.372Z" fill="#E1E1E1"/>
<path d="M48.0619 196.656C53.706 194.569 58.9717 191.464 63.5299 187.536C61.6817 186.791 59.5665 187.236 57.7195 187.983C53.4992 189.686 50.0508 192.562 47.9814 196.615" fill="#E1E1E1"/>
<path d="M43.623 200.447C46.4785 200.76 49.3786 200.963 52.212 200.489C54.9965 200.024 57.6279 198.921 60.23 197.825C60.4457 197.734 60.6806 197.625 60.7747 197.411C60.8772 197.179 60.7682 196.896 60.5792 196.725C60.3909 196.555 60.1406 196.473 59.8956 196.405C57.067 195.614 54.0143 195.984 51.231 196.923C48.4471 197.861 46.1656 198.976 43.623 200.447Z" fill="#E1E1E1"/>
<path d="M27.3187 207.486C25.3704 203.554 25.4973 198.965 27.1798 194.913C28.3647 196.717 28.5095 199.016 28.2926 201.164C28.0762 203.313 27.4218 205.523 27.3795 207.682" fill="#E1E1E1"/>
<path d="M19.5364 203.561C14.6725 203.468 9.80732 205.541 6.50488 209.113C8.93239 209.494 11.432 208.868 13.6402 207.79C15.8484 206.712 17.811 205.199 19.7557 203.697" fill="#E1E1E1"/>
<path d="M14.304 201.812C11.9248 201.618 9.63498 201.324 7.34753 202.025C5.05949 202.726 2.97766 204.317 2.04492 206.521C4.27039 206.772 6.52744 206.214 8.56695 205.289C10.6071 204.365 12.4618 203.085 14.304 201.812Z" fill="#E1E1E1"/>
<path d="M22.0509 201.892C19.9107 200.489 17.7127 199.061 15.2202 198.479C12.7277 197.899 9.8395 198.328 8.10156 200.207C10.119 201.39 12.5668 201.53 14.9061 201.529C17.2454 201.527 20.1133 201.5 22.3185 202.281" fill="#E1E1E1"/>
<path d="M22.0636 202.005C18.4041 198.411 17.0166 191.956 18.4893 187.043C21.3656 191.414 22.6536 196.806 22.0636 202.005Z" fill="#E1E1E1"/>
<path d="M32.1265 191.823C32.8166 190.219 33.3018 188.534 33.921 186.901C34.5403 185.268 35.3097 183.661 36.4802 182.365C37.6502 181.068 39.2677 180.102 41.0122 180.015C39.9204 184.96 36.6358 189.378 32.2159 191.849" fill="#E1E1E1"/>
<path d="M30.3056 193.945C29.1637 192.372 27.8441 190.239 26.2951 189.065C24.7461 187.892 22.7299 187.182 20.8394 187.632C22.7615 191.069 26.3941 193.491 30.3056 193.945Z" fill="#E1E1E1"/>
<path d="M30.6696 191.954C29.921 190.051 29.167 188.129 28.8643 186.108C28.5615 184.086 28.7457 181.927 29.7791 180.163C31.7882 183.96 32.4349 188.036 30.7721 191.997" fill="#E1E1E1"/>
<path d="M32.1445 180.163C33.2823 176.399 36.729 173.627 40.4504 172.355C40.9194 172.195 41.4165 172.062 41.9064 172.137C42.3969 172.213 42.8773 172.548 42.9798 173.033C43.1157 173.673 42.5865 174.247 42.0894 174.673C39.1916 177.15 35.7855 179.031 32.1445 180.163Z" fill="#E1E1E1"/>
<path d="M32.1856 177.084C32.3304 174.658 32.4818 172.195 33.2709 169.896C34.0606 167.596 35.5822 165.439 37.7951 164.433C38.1718 166.884 37.0901 169.322 35.786 171.432C34.482 173.541 32.9097 175.532 32.126 177.885" fill="#E1E1E1"/>
<path d="M32.1262 178.755C31.1857 176.012 31.0886 172.528 29.446 170.137C28.2975 168.467 26.4589 167.329 25.4695 165.559C24.8121 167.212 25.013 169.116 25.7008 170.756C26.3879 172.396 27.5239 173.809 28.7398 175.107C29.955 176.405 30.9962 177.382 32.1262 178.755Z" fill="#E1E1E1"/>
<path d="M32.1445 259.544C32.0712 259.544 32.0081 241.243 32.0033 218.673C31.9979 196.096 32.0534 177.799 32.1261 177.799C32.1994 177.799 32.2625 196.096 32.2673 218.673C32.2727 241.243 32.2173 259.544 32.1445 259.544Z" fill="#E1E1E1"/>
<path d="M48.1373 204.725C48.1427 204.743 47.8971 204.833 47.4495 204.984C46.9548 205.15 46.3189 205.364 45.5554 205.622C43.9587 206.166 41.7655 206.954 39.385 207.929C37.0279 208.94 34.8048 209.762 33.5389 210.858C32.9065 211.399 32.5436 211.985 32.3642 212.412C32.183 212.842 32.1502 213.105 32.1264 213.1C32.1174 213.099 32.1198 213.033 32.1341 212.908C32.155 212.785 32.1865 212.6 32.2682 212.375C32.4226 211.923 32.776 211.297 33.4149 210.718C34.0514 210.138 34.9371 209.617 35.9515 209.142C36.9659 208.669 38.0905 208.175 39.2849 207.685C41.6725 206.706 43.883 205.944 45.4976 205.444C46.3046 205.193 46.9632 205.007 47.4197 204.885C47.8768 204.765 48.1319 204.708 48.1373 204.725Z" fill="#E1E1E1"/>
<path d="M53.3793 191.849C53.3852 191.856 53.3185 191.926 53.1862 192.054C53.0306 192.201 52.8363 192.383 52.5991 192.606C52.0538 193.102 51.3118 193.776 50.407 194.597C48.5141 196.283 45.9466 198.569 43.1102 201.095C40.2619 203.63 37.8004 206.053 36.0947 207.877C35.24 208.788 34.5677 209.542 34.1088 210.069C33.8943 210.313 33.719 210.514 33.5784 210.675C33.4556 210.812 33.3877 210.881 33.3805 210.875C33.3734 210.87 33.4276 210.789 33.5373 210.641C33.6481 210.494 33.809 210.275 34.0296 210.003C34.4652 209.455 35.1178 208.68 35.957 207.75C37.6324 205.889 40.0801 203.438 42.9338 200.897C45.7922 198.368 48.3932 196.096 50.2831 194.457C51.211 193.662 51.9721 193.009 52.5312 192.529C52.7815 192.321 52.9865 192.151 53.151 192.014C53.2947 191.899 53.3733 191.842 53.3793 191.849Z" fill="#E1E1E1"/>
<path d="M40.0356 203.673C39.9611 203.639 40.5559 202.266 41.149 200.528C41.7473 198.791 42.0287 197.325 42.1049 197.337C42.1735 197.344 42.0054 198.853 41.3993 200.613C41.1013 201.491 40.7723 202.264 40.5136 202.812C40.2544 203.36 40.0678 203.687 40.0356 203.673Z" fill="#E1E1E1"/>
<path d="M32.1616 214.75C32.1467 214.76 31.9911 214.579 31.7223 214.24C31.4249 213.858 31.0477 213.375 30.5983 212.798C29.6536 211.577 28.3478 209.892 26.8846 208.048C25.4202 206.204 24.0751 204.549 23.1006 203.352C22.6411 202.783 22.2555 202.306 21.9515 201.93C21.6827 201.592 21.5409 201.399 21.5552 201.387C21.5689 201.375 21.737 201.545 22.0296 201.863C22.3228 202.181 22.7376 202.648 23.2437 203.232C24.2557 204.399 25.6253 206.037 27.0914 207.884C28.557 209.73 29.8408 211.435 30.7479 212.686C31.2014 213.311 31.5626 213.822 31.8052 214.179C32.049 214.536 32.1765 214.739 32.1616 214.75Z" fill="#E1E1E1"/>
<path d="M28.6548 210.248C28.6119 210.294 27.6761 209.184 27.1856 207.498C26.8239 206.31 26.8084 205.222 26.8525 204.725L26.9693 204.734C26.9174 204.947 26.8787 205.058 26.8578 205.055C26.837 205.051 26.8358 204.933 26.8537 204.716L26.9705 204.725C27.0128 205.218 27.0879 206.268 27.4395 207.422C27.9127 209.057 28.7257 210.203 28.6548 210.248Z" fill="#E1E1E1"/>
<path d="M24.1276 204.553C24.0937 204.59 23.7927 204.211 23.1019 203.957C22.4171 203.693 21.386 203.634 20.2542 203.731C19.1218 203.814 18.1104 204.016 17.3869 204.194C16.6627 204.373 16.2205 204.514 16.2068 204.477C16.1949 204.446 16.6156 204.242 17.3362 204.014C18.0562 203.787 19.0813 203.552 20.2346 203.467C21.3783 203.368 22.4636 203.457 23.1722 203.784C23.8898 204.102 24.1515 204.547 24.1276 204.553Z" fill="#E1E1E1"/>
<path d="M23.0547 203.173C23.0344 203.214 22.4575 202.934 21.483 202.601C20.511 202.267 19.1264 201.916 17.5625 201.794C15.9986 201.677 14.576 201.814 13.5646 201.997C12.5514 202.178 11.9387 202.368 11.925 202.324C11.919 202.307 12.0674 202.245 12.3416 202.147C12.614 202.045 13.0198 201.929 13.5282 201.814C14.5426 201.581 15.9903 201.411 17.5828 201.53C19.1747 201.654 20.5795 202.041 21.5474 202.425C22.0319 202.616 22.4158 202.792 22.6697 202.934C22.9259 203.073 23.063 203.157 23.0547 203.173Z" fill="#E1E1E1"/>
<path d="M32.1265 197.337C32.0556 197.355 31.5424 195.573 30.9804 193.356C30.4184 191.14 30.0203 189.329 30.0912 189.311C30.1615 189.293 30.6747 191.075 31.2367 193.291C31.7987 195.508 32.1975 197.319 32.1265 197.337Z" fill="#E1E1E1"/>
<path d="M32.1993 197.337C32.1207 197.363 31.7905 196.172 30.9293 194.954C30.0907 193.71 29.0209 193.086 29.0596 193.024C29.0739 192.997 29.3689 193.105 29.7814 193.397C30.1944 193.684 30.7052 194.172 31.1456 194.802C32.0396 196.069 32.2631 197.333 32.1993 197.337Z" fill="#E1E1E1"/>
<path d="M32.1448 249.788C32.1162 249.793 32.0625 249.349 31.8563 248.571C31.6525 247.794 31.2681 246.692 30.6333 245.403C29.3686 242.819 27.0681 239.543 24.1447 236.262C22.6958 234.607 21.2904 233.045 20.0979 231.55C18.9029 230.058 17.9207 228.635 17.2037 227.377C16.4849 226.119 16.0164 225.04 15.7429 224.279C15.6088 223.898 15.5104 223.6 15.4562 223.393C15.3984 223.188 15.3722 223.08 15.3811 223.078C15.4044 223.07 15.5379 223.496 15.8388 224.242C16.1404 224.988 16.6309 226.046 17.3652 227.282C18.0977 228.519 19.0882 229.92 20.2874 231.398C21.4853 232.877 22.8925 234.43 24.3438 236.088C27.2749 239.378 29.5707 242.695 30.802 245.321C31.4207 246.632 31.7812 247.756 31.9559 248.546C32.0411 248.943 32.0977 249.252 32.118 249.465C32.1442 249.676 32.1537 249.787 32.1448 249.788Z" fill="#E1E1E1"/>
<path d="M46.5964 233.465C46.6047 233.485 46.3282 233.625 45.8389 233.89C45.3531 234.163 44.6642 234.584 43.8745 235.189C43.0848 235.794 42.2015 236.588 41.2944 237.542C40.3891 238.499 39.4563 239.61 38.5039 240.8C36.6009 243.189 34.8206 245.302 33.7544 246.989C33.2132 247.825 32.8199 248.531 32.5618 249.026C32.3019 249.52 32.1643 249.797 32.1452 249.789C32.1368 249.785 32.1607 249.711 32.2149 249.574C32.2715 249.438 32.3478 249.233 32.4694 248.981C32.7001 248.469 33.0714 247.745 33.5964 246.889C34.6317 245.161 36.3976 243.019 38.2977 240.635C39.2519 239.442 40.1959 238.329 41.1186 237.374C42.043 236.42 42.9495 235.631 43.7624 235.039C44.5754 234.446 45.287 234.046 45.7912 233.799C46.0421 233.673 46.2471 233.596 46.3824 233.538C46.5195 233.482 46.5928 233.457 46.5964 233.465Z" fill="#E1E1E1"/>
<path d="M46.879 238.761C46.882 238.8 46.2675 238.873 45.2781 238.993C44.2924 239.121 42.9192 239.285 41.4816 239.741C40.0488 240.208 38.858 240.918 38.082 241.525C37.2983 242.131 36.9288 242.632 36.8924 242.602C36.8799 242.593 36.9568 242.457 37.1296 242.234C37.3007 242.01 37.5814 241.71 37.964 241.38C38.7269 240.722 39.9296 239.968 41.4 239.49C42.8733 239.023 44.2649 238.888 45.2597 238.807C46.258 238.735 46.876 238.726 46.879 238.761Z" fill="#E1E1E1"/>
<path d="M37.3597 242.021C37.2762 241.974 37.9974 240.872 38.557 239.389C39.0821 237.893 39.2055 236.582 39.2996 236.597C39.3336 236.601 39.3324 236.929 39.2728 237.456C39.2102 237.981 39.0839 238.711 38.8062 239.479C38.526 240.247 38.1595 240.888 37.8776 241.335C37.5921 241.781 37.3895 242.039 37.3597 242.021Z" fill="#E1E1E1"/>
<path d="M51.2762 219.249C51.2798 219.257 51.191 219.304 51.02 219.386C50.8215 219.476 50.5724 219.589 50.2678 219.727C49.9382 219.868 49.5383 220.048 49.0877 220.285C48.6354 220.519 48.1073 220.759 47.5578 221.089C47.2789 221.247 46.9874 221.413 46.6847 221.585C46.3819 221.76 46.0821 221.966 45.7632 222.166C45.1196 222.556 44.4747 223.038 43.7863 223.529C42.4394 224.551 41.0227 225.761 39.659 227.159C38.3085 228.57 37.1475 230.027 36.1712 231.409C35.704 232.113 35.2456 232.774 34.8773 233.431C34.6884 233.757 34.4923 234.063 34.3284 234.372C34.1669 234.68 34.0113 234.977 33.8623 235.262C33.5512 235.822 33.3289 236.358 33.1114 236.817C32.8891 237.276 32.724 237.682 32.594 238.016C32.4659 238.325 32.361 238.578 32.2776 238.779C32.2025 238.953 32.159 239.043 32.1506 239.04C32.1417 239.037 32.1685 238.941 32.2275 238.761C32.299 238.555 32.3884 238.296 32.4975 237.979C32.6131 237.638 32.7657 237.225 32.9755 236.758C33.1817 236.29 33.3927 235.746 33.6948 235.178C33.8403 234.889 33.9917 234.588 34.149 234.274C34.3093 233.961 34.5024 233.65 34.6878 233.32C35.0507 232.654 35.5055 231.984 35.971 231.27C36.9424 229.871 38.1076 228.397 39.4689 226.975C40.8433 225.566 42.2761 224.352 43.6409 223.333C44.3388 222.843 44.9926 222.366 45.6458 221.98C45.9695 221.784 46.274 221.58 46.581 221.41C46.8891 221.241 47.1847 221.08 47.4684 220.925C48.0269 220.604 48.5633 220.374 49.024 220.152C49.4829 219.926 49.8905 219.76 50.2273 219.632C50.5408 219.512 50.7965 219.414 51.0003 219.335C51.1785 219.27 51.2733 219.241 51.2762 219.249Z" fill="#E1E1E1"/>
<path d="M39.839 226.912C39.8158 226.909 39.9427 226.464 40.4678 225.976C40.9798 225.488 41.9143 225.036 43.002 225.003C44.0861 224.975 45.0266 225.278 45.6685 225.524C46.314 225.778 46.6894 225.984 46.6763 226.014C46.6614 226.051 46.2597 225.906 45.6071 225.701C44.9569 225.502 44.0378 225.24 43.0103 225.268C41.9864 225.3 41.1025 225.693 40.59 226.117C40.0661 226.539 39.8813 226.938 39.839 226.912Z" fill="#E1E1E1"/>
<path d="M38.1297 228.676C38.057 228.635 38.7025 227.69 38.8491 226.335C39.0183 224.983 38.6077 223.914 38.6882 223.891C38.7168 223.879 38.861 224.128 38.985 224.573C39.1101 225.016 39.193 225.661 39.1119 226.366C39.0285 227.07 38.7996 227.679 38.5761 228.081C38.3526 228.485 38.1553 228.694 38.1297 228.676Z" fill="#E1E1E1"/>
<path d="M19.5049 252.411C19.8994 259.405 22.0069 266.517 25.2485 273.709H39.3451C42.4366 266.588 44.3986 259.487 44.7473 252.411H19.5049Z" fill="#E1E1E1"/>
<path d="M42.4628 263.728C42.4628 263.801 37.8212 263.86 32.0972 263.86C26.3714 263.86 21.731 263.801 21.731 263.728C21.731 263.654 26.3714 263.595 32.0972 263.595C37.8212 263.595 42.4628 263.654 42.4628 263.728Z" fill="#FAFAFA"/>
<path d="M42.148 266.261C42.148 266.335 37.7966 266.394 32.4308 266.394C27.0626 266.394 22.7124 266.335 22.7124 266.261C22.7124 266.189 27.0626 266.129 32.4308 266.129C37.7966 266.129 42.148 266.189 42.148 266.261Z" fill="#FAFAFA"/>
<path d="M25.4761 257.003C25.5494 257.003 25.6084 258.456 25.6084 260.25C25.6084 262.043 25.5494 263.497 25.4761 263.497C25.4028 263.497 25.3438 262.043 25.3438 260.25C25.3438 258.456 25.4028 257.003 25.4761 257.003Z" fill="#FAFAFA"/>
<path d="M33.0288 257.003C33.1021 257.003 33.1611 258.508 33.1611 260.365C33.1611 262.222 33.1021 263.728 33.0288 263.728C32.9555 263.728 32.8965 262.222 32.8965 260.365C32.8965 258.508 32.9555 257.003 33.0288 257.003Z" fill="#FAFAFA"/>
<path d="M40.1196 256.946C40.1929 256.946 40.2519 258.481 40.2519 260.375C40.2519 262.27 40.1929 263.805 40.1196 263.805C40.0469 263.805 39.9873 262.27 39.9873 260.375C39.9873 258.481 40.0469 256.946 40.1196 256.946Z" fill="#FAFAFA"/>
<path d="M44.3 257.003C44.3 257.076 38.8561 257.135 32.1428 257.135C25.4264 257.135 19.9844 257.076 19.9844 257.003C19.9844 256.93 25.4264 256.87 32.1428 256.87C38.8561 256.87 44.3 256.93 44.3 257.003Z" fill="#FAFAFA"/>
<path d="M262.989 191.783C265.49 190.734 267.269 188.155 267.284 185.116C267.3 181.135 264.287 177.894 260.554 177.877C256.823 177.859 253.783 181.072 253.766 185.054C253.754 188.121 255.545 190.731 258.073 191.783C247.672 193.35 248.144 204.654 248.144 204.654L272.739 204.768C272.739 204.768 273.3 193.34 262.989 191.783Z" fill="#ECECEC"/>
<path d="M152.421 27.4523C154.172 27.1525 155.688 25.7698 156.147 23.8328C156.746 21.295 155.303 18.7805 152.923 18.2178C150.545 17.6546 148.13 19.2555 147.53 21.7938C147.069 23.7493 147.826 25.6798 149.283 26.7251C142.414 26.187 141.044 33.4707 141.044 33.4707L156.722 37.1802C156.722 37.1802 158.77 29.971 152.421 27.4523Z" fill="#ECECEC"/>
<path d="M263.66 88.129C265.121 87.2517 265.994 85.4887 265.73 83.5982C265.383 81.1218 263.218 79.3773 260.896 79.7021C258.574 80.0264 256.973 82.2977 257.321 84.7741C257.588 86.6819 258.937 88.1439 260.603 88.5706C254.278 90.4796 255.587 97.4653 255.587 97.4653L270.888 95.3257C270.888 95.3257 270.21 88.1701 263.66 88.129Z" fill="#F5F5F5"/>
<path d="M18.0839 90.2897L9.81738 83.7176L12.1108 80.8329L17.6542 85.2398L25.7485 76.1818L28.496 78.6373L18.0839 90.2897Z" fill="#F5F5F5"/>
<path d="M204.918 5.36949L204.109 5.93629C197.294 10.7138 193.528 18.7872 194.59 26.9661C194.727 28.0175 194.939 29.0593 195.23 30.082C197.321 37.4438 203.398 43.5689 210.808 45.7843C215.167 47.0871 220.093 47.2063 223.668 49.989C228.32 53.6109 228.897 60.2432 229.1 66.0947C229.304 71.9463 229.899 78.5821 234.568 82.1838C237.491 84.439 241.471 84.9546 245.158 84.5135C254.919 83.346 263.227 75.9413 267.007 66.9732C270.786 58.0052 270.502 47.7588 267.958 38.3849C264.397 25.2538 256.193 13.0835 244.31 6.22832C232.429 -0.627464 216.798 -1.52861 204.918 5.36949Z" fill="#F5F5F5"/>
<path d="M176.055 19.6168C176.055 27.1139 169.977 33.1913 162.48 33.1913C154.983 33.1913 148.905 27.1139 148.905 19.6168C148.905 12.1197 154.983 6.0423 162.48 6.0423C169.977 6.0423 176.055 12.1197 176.055 19.6168Z" fill="#F5F5F5"/>
<path d="M42.9415 193.048C42.9415 204.745 33.4592 214.228 21.7615 214.228C10.0644 214.228 0.582031 204.745 0.582031 193.048C0.582031 181.351 10.0644 171.868 21.7615 171.868C33.4592 171.868 42.9415 181.351 42.9415 193.048Z" fill="#F5F5F5"/>
<path d="M268.512 273.921C268.512 274.007 208.827 274.077 135.218 274.077C61.5843 274.077 1.91162 274.007 1.91162 273.921C1.91162 273.835 61.5843 273.766 135.218 273.766C208.827 273.766 268.512 273.835 268.512 273.921Z" fill="#1A2E35"/>
<path d="M29.3634 99.8116L11.0811 108.982C9.71449 109.565 8.82764 110.907 8.82764 112.392V120.944C8.82764 128.585 10.9601 136.156 15.3467 142.84C18.6396 147.858 23.0071 154.271 30.2741 157.937H33.5545C41.644 155.47 47.6821 148.894 51.3737 143.269C55.7603 136.585 57.8927 129.014 57.8927 121.373V112.392C57.8927 110.907 57.0059 109.565 55.6387 108.982L34.8132 100.108C33.8847 99.7126 30.292 99.4158 29.3634 99.8116Z" fill="#2D9BCC"/>
<mask id="mask0_427_2810" style="mask-type:luminance" maskUnits="userSpaceOnUse" x="8" y="99" width="50" height="59">
<path d="M8.82764 99.625H57.8925V157.937H8.82764V99.625Z" fill="white"/>
</mask>
<g mask="url(#mask0_427_2810)">
<g opacity="0.300003">
<path d="M29.3639 99.8115L11.0816 108.982C9.71497 109.564 8.82812 110.907 8.82812 112.392V120.944C8.82812 128.585 10.9606 136.156 15.3472 142.84C18.6401 147.857 23.0076 154.271 30.2746 157.937H33.555C41.6445 155.47 47.6826 148.894 51.3742 143.269C55.7607 136.585 57.8932 129.014 57.8932 121.373V112.392C57.8932 110.907 57.0064 109.564 55.6392 108.982L34.8137 100.108C33.8852 99.7126 30.2925 99.4158 29.3639 99.8115Z" fill="black"/>
</g>
</g>
<path d="M28.6269 100.108L7.80143 108.982C6.43421 109.564 5.54736 110.907 5.54736 112.392V120.944C5.54736 128.585 7.67985 136.156 12.0664 142.84C15.758 148.465 21.4743 154.256 30.2742 157.938C38.3637 155.47 44.4018 148.894 48.0934 143.269C52.4806 136.585 54.6125 129.014 54.6125 121.374V112.392C54.6125 110.907 53.7256 109.564 52.359 108.982L31.533 100.108C30.605 99.7125 29.5554 99.7125 28.6269 100.108Z" fill="#2D9BCC"/>
<mask id="mask1_427_2810" style="mask-type:luminance" maskUnits="userSpaceOnUse" x="16" y="112" width="28" height="28">
<path d="M16.4282 112.521H43.7318V139.824H16.4282V112.521Z" fill="white"/>
</mask>
<g mask="url(#mask1_427_2810)">
<g opacity="0.300003">
<path d="M43.7321 126.172C43.7321 133.712 37.6201 139.824 30.0801 139.824C22.5407 139.824 16.4287 133.712 16.4287 126.172C16.4287 118.632 22.5407 112.52 30.0801 112.52C37.6201 112.52 43.7321 118.632 43.7321 126.172Z" fill="black"/>
</g>
</g>
<path d="M35.7474 121.258C35.7474 124.388 33.2097 126.925 30.0801 126.925C26.9499 126.925 24.4121 124.388 24.4121 121.258C24.4121 118.128 26.9499 115.59 30.0801 115.59C33.2097 115.59 35.7474 118.128 35.7474 121.258Z" fill="white"/>
<path d="M19.729 135.07C19.729 135.07 22.3675 128.775 29.8711 128.775C37.3748 128.775 40.4311 135.07 40.4311 135.07C40.4311 135.07 37.0833 140.015 29.6786 139.824C22.9754 139.651 19.729 135.07 19.729 135.07Z" fill="white"/>
<path d="M43.7319 126.172C43.7265 126.172 43.7176 126.097 43.705 125.951C43.6931 125.79 43.677 125.576 43.6568 125.304C43.6472 125.16 43.6365 125.002 43.6252 124.828C43.6055 124.653 43.5674 124.464 43.5358 124.258C43.469 123.848 43.4053 123.372 43.2461 122.854C43.0024 121.802 42.5065 120.56 41.7275 119.245C40.942 117.936 39.8114 116.568 38.2731 115.408C36.7402 114.259 34.8068 113.283 32.5759 112.889C30.36 112.51 27.8598 112.579 25.4788 113.485C24.8726 113.679 24.3029 113.979 23.7176 114.26C23.1627 114.596 22.5786 114.905 22.0625 115.325C21.5136 115.702 21.0338 116.174 20.5314 116.627C20.0772 117.13 19.5998 117.622 19.2088 118.193C18.4054 119.309 17.7039 120.548 17.2796 121.912C16.8397 123.267 16.6031 124.705 16.5835 126.17C16.6031 127.635 16.8391 129.075 17.279 130.43C17.7028 131.794 18.4048 133.034 19.2077 134.15C19.5992 134.721 20.076 135.214 20.5302 135.716C21.0332 136.17 21.513 136.642 22.0619 137.019C22.578 137.439 23.1627 137.748 23.717 138.085C24.3029 138.365 24.8726 138.666 25.4788 138.86C27.8598 139.765 30.3606 139.835 32.5765 139.455C34.808 139.062 36.7414 138.085 38.2743 136.936C39.812 135.776 40.9426 134.408 41.7281 133.098C42.5071 131.783 43.003 130.542 43.2467 129.49C43.4053 128.973 43.469 128.496 43.5358 128.085C43.5674 127.88 43.6055 127.691 43.6252 127.516C43.6365 127.343 43.6472 127.184 43.6568 127.04C43.677 126.768 43.6931 126.554 43.705 126.393C43.7176 126.247 43.7265 126.172 43.7319 126.172C43.7372 126.172 43.739 126.247 43.7366 126.393C43.7325 126.555 43.7265 126.771 43.7193 127.044C43.714 127.189 43.7086 127.349 43.7027 127.524C43.6878 127.7 43.6544 127.891 43.627 128.099C43.5692 128.513 43.5149 128.995 43.3635 129.52C43.1359 130.585 42.6519 131.847 41.8771 133.187C41.0963 134.522 39.9616 135.92 38.4072 137.111C36.8582 138.29 34.8956 139.296 32.6242 139.709C30.3678 140.107 27.8169 140.045 25.381 139.129C24.7618 138.931 24.1783 138.627 23.5799 138.341C23.0119 138 22.4141 137.685 21.8855 137.257C21.324 136.873 20.8318 136.392 20.318 135.929C19.8519 135.416 19.3644 134.913 18.9627 134.33C18.1396 133.191 17.4214 131.922 16.9858 130.528C16.5346 129.142 16.2926 127.668 16.2729 126.17C16.2926 124.673 16.5358 123.2 16.987 121.814C17.4226 120.42 18.1402 119.152 18.9639 118.012C19.365 117.43 19.8531 116.927 20.3186 116.415C20.8323 115.951 21.3246 115.471 21.8861 115.087C22.4147 114.659 23.0119 114.343 23.5799 114.003C24.1789 113.717 24.7618 113.413 25.381 113.216C27.8163 112.299 30.3672 112.238 32.623 112.636C34.895 113.048 36.857 114.054 38.4066 115.233C39.9604 116.423 41.0958 117.821 41.8765 119.156C42.6519 120.497 43.1353 121.759 43.3635 122.825C43.5143 123.349 43.5692 123.831 43.627 124.246C43.6544 124.453 43.6878 124.644 43.7027 124.82C43.7086 124.995 43.714 125.155 43.7193 125.3C43.7265 125.573 43.7325 125.789 43.7366 125.951C43.739 126.097 43.7372 126.172 43.7319 126.172Z" fill="#1A2E35"/>
<path d="M54.5457 119.057C54.5564 119.056 54.5689 119.192 54.5838 119.45C54.5964 119.742 54.6124 120.117 54.6327 120.583C54.6518 121.076 54.6798 121.678 54.6458 122.377C54.6351 122.729 54.6244 123.103 54.613 123.498C54.6089 123.895 54.5838 124.314 54.5362 124.752C54.4515 125.63 54.3931 126.595 54.2119 127.617C54.1291 128.129 54.0641 128.662 53.958 129.204C53.8418 129.744 53.722 130.3 53.5998 130.87C53.0551 133.136 52.3006 135.599 51.1986 138.059C50.0924 140.518 48.7865 142.737 47.464 144.657C46.7703 145.596 46.1308 146.502 45.4442 147.281C45.1068 147.675 44.8005 148.072 44.4709 148.423C44.1413 148.772 43.8243 149.108 43.5209 149.429C42.9308 150.085 42.3247 150.606 41.8193 151.089C41.3163 151.577 40.8526 151.962 40.4682 152.27C40.1052 152.563 39.8126 152.799 39.5861 152.982C39.3823 153.142 39.272 153.222 39.2654 153.214C39.2589 153.205 39.356 153.109 39.5462 152.934C39.7631 152.74 40.0426 152.489 40.3889 152.178C40.7608 151.858 41.2114 151.461 41.7001 150.963C42.1924 150.47 42.7848 149.94 43.3618 149.278C43.6586 148.954 43.9691 148.616 44.2921 148.264C44.6145 147.911 44.9143 147.512 45.2451 147.117C45.9192 146.336 46.5468 145.43 47.2292 144.494C48.5297 142.577 49.8176 140.372 50.9149 137.933C52.0085 135.492 52.7648 133.051 53.3215 130.805C53.4479 130.24 53.5706 129.688 53.6898 129.152C53.8001 128.615 53.8692 128.086 53.9574 127.578C54.1488 126.564 54.2197 125.605 54.3174 124.734C54.3723 124.299 54.4038 123.882 54.4158 123.487C54.4354 123.094 54.4545 122.722 54.4724 122.372C54.523 121.676 54.5123 121.076 54.5117 120.584C54.5159 120.119 54.5189 119.743 54.5213 119.453C54.5266 119.194 54.535 119.057 54.5457 119.057Z" fill="#1A2E35"/>
<path d="M199.464 273.921H58.5373C54.7229 273.921 51.6315 270.723 51.6315 266.778L51.6309 51.3629C51.6309 47.4174 54.7229 44.2193 58.5367 44.2193H199.464C203.278 44.2193 206.37 47.4174 206.37 51.3629V266.778C206.37 270.722 203.278 273.921 199.464 273.921Z" fill="#1A2E35"/>
<path d="M131.699 263.472C131.699 267.03 128.761 269.915 125.137 269.915C121.512 269.915 118.574 267.03 118.574 263.472C118.574 259.913 121.512 257.028 125.137 257.028C128.761 257.028 131.699 259.913 131.699 263.472Z" fill="#375A64"/>
<path d="M144.855 56.3577H113.253C112.036 56.3577 111.049 55.3373 111.049 54.078C111.049 52.8186 112.036 51.7983 113.253 51.7983H144.855C146.072 51.7983 147.059 52.8186 147.059 54.078C147.059 55.3373 146.072 56.3577 144.855 56.3577Z" fill="#375A64"/>
<path d="M201.357 252.436H56.3765V60.6067H201.357V252.436Z" fill="white"/>
<path d="M201.357 252.436H195.172V60.6067H201.357V252.436Z" fill="#F5F5F5"/>
<path d="M198.265 129.525C197.2 129.525 196.337 128.662 196.337 127.597V85.1639C196.337 84.0988 197.2 83.2358 198.265 83.2358C199.329 83.2358 200.193 84.0988 200.193 85.1639V127.597C200.193 128.662 199.329 129.525 198.265 129.525Z" fill="#E1E1E1"/>
<path d="M182.451 104.262H75.5506C73.8526 104.262 72.4758 102.885 72.4758 101.187C72.4758 99.4894 73.8526 98.1127 75.5506 98.1127H182.451C184.149 98.1127 185.526 99.4894 185.526 101.187C185.526 102.885 184.149 104.262 182.451 104.262Z" fill="#E1E1E1"/>
<path d="M166.009 81.825H98.7627C97.0647 81.825 95.688 80.4483 95.688 78.7502C95.688 77.0522 97.0647 75.6755 98.7627 75.6755H166.009C167.707 75.6755 169.084 77.0522 169.084 78.7502C169.084 80.4483 167.707 81.825 166.009 81.825Z" fill="#2D9BCC"/>
<path d="M167.271 116.639H90.7296C89.0316 116.639 87.6548 115.263 87.6548 113.565C87.6548 111.867 89.0316 110.49 90.7296 110.49H167.271C168.969 110.49 170.346 111.867 170.346 113.565C170.346 115.263 168.969 116.639 167.271 116.639Z" fill="#E1E1E1"/>
<path d="M132.714 170.596H73.8242C72.1262 170.596 70.75 169.219 70.75 167.521C70.75 165.823 72.1262 164.446 73.8242 164.446H132.714C134.412 164.446 135.789 165.823 135.789 167.521C135.789 169.219 134.412 170.596 132.714 170.596Z" fill="#E1E1E1"/>
<path d="M180.725 157.718H73.8245C72.1265 157.718 70.7498 156.341 70.7498 154.643C70.7498 152.945 72.1265 151.569 73.8245 151.569H180.725C182.423 151.569 183.8 152.945 183.8 154.643C183.8 156.341 182.423 157.718 180.725 157.718Z" fill="#E1E1E1"/>
<path d="M180.725 199.197H87.1553C85.4573 199.197 84.0806 197.821 84.0806 196.123C84.0806 194.425 85.4573 193.048 87.1553 193.048H180.725C182.423 193.048 183.8 194.425 183.8 196.123C183.8 197.821 182.423 199.197 180.725 199.197Z" fill="#E1E1E1"/>
<path d="M180.725 212.34H73.8245C72.1265 212.34 70.7498 210.963 70.7498 209.265C70.7498 207.567 72.1265 206.191 73.8245 206.191H180.725C182.423 206.191 183.8 207.567 183.8 209.265C183.8 210.963 182.423 212.34 180.725 212.34Z" fill="#E1E1E1"/>
<path d="M180.725 225.687H73.8245C72.1265 225.687 70.7498 224.311 70.7498 222.613C70.7498 220.915 72.1265 219.538 73.8245 219.538H180.725C182.423 219.538 183.8 220.915 183.8 222.613C183.8 224.311 182.423 225.687 180.725 225.687Z" fill="#E1E1E1"/>
<path d="M78.636 196.123C78.636 197.887 77.2062 199.317 75.442 199.317C73.6779 199.317 72.248 197.887 72.248 196.123C72.248 194.359 73.6779 192.929 75.442 192.929C77.2062 192.929 78.636 194.359 78.636 196.123Z" fill="#2D9BCC"/>
<path d="M180.725 145.709H87.1553C85.4573 145.709 84.0806 144.332 84.0806 142.634C84.0806 140.936 85.4573 139.559 87.1553 139.559H180.725C182.423 139.559 183.8 140.936 183.8 142.634C183.8 144.332 182.423 145.709 180.725 145.709Z" fill="#E1E1E1"/>
<path d="M78.636 142.634C78.636 144.398 77.2062 145.828 75.442 145.828C73.6779 145.828 72.248 144.398 72.248 142.634C72.248 140.87 73.6779 139.44 75.442 139.44C77.2062 139.44 78.636 140.87 78.636 142.634Z" fill="#2D9BCC"/>
<path d="M177.737 245.245H153.75C151.043 245.245 148.85 243.051 148.85 240.344C148.85 237.638 151.043 235.444 153.75 235.444H177.737C180.444 235.444 182.637 237.638 182.637 240.344C182.637 243.051 180.444 245.245 177.737 245.245Z" fill="#2D9BCC"/>
<path d="M54.1553 14.07L29.289 26.543C27.43 27.3351 26.2231 29.1607 26.2231 31.1817V42.8132C26.2231 53.2051 29.1233 63.5034 35.0904 72.5948C39.5694 79.4196 45.5097 88.1426 55.3938 93.1299H59.8554C70.8582 89.7745 79.0711 80.8291 84.0924 73.1788C90.0595 64.0869 92.9596 53.7892 92.9596 43.3973V31.1817C92.9596 29.1607 91.7528 27.3351 89.8938 26.543L61.5677 14.4734C60.3048 13.9353 55.4182 13.5318 54.1553 14.07Z" fill="#F29D00"/>
<mask id="mask2_427_2810" style="mask-type:luminance" maskUnits="userSpaceOnUse" x="26" y="13" width="67" height="81">
<path d="M26.2231 13.8159H92.9593V93.1298H26.2231V13.8159Z" fill="white"/>
</mask>
<g mask="url(#mask2_427_2810)">
<g opacity="0.300003">
<path d="M54.1548 14.0701L29.2885 26.5432C27.4296 27.3353 26.2227 29.1609 26.2227 31.1819V42.8134C26.2227 53.2053 29.1228 63.5036 35.0899 72.5949C39.5689 79.4197 45.5092 88.1428 55.3933 93.1301H59.8549C70.8577 89.7746 79.0706 80.8293 84.0919 73.179C90.059 64.087 92.9592 53.7894 92.9592 43.3975V31.1819C92.9592 29.1609 91.7523 27.3353 89.8933 26.5432L61.5672 14.4736C60.3043 13.9354 55.4177 13.532 54.1548 14.0701Z" fill="black"/>
</g>
</g>
<path d="M53.1531 14.4735L24.8271 26.5431C22.9681 27.3352 21.7612 29.1607 21.7612 31.1812V42.8133C21.7612 53.2052 24.662 63.5034 30.6285 72.5948C35.6498 80.2457 43.4246 88.123 55.3941 93.13C66.3969 89.7745 74.6097 80.8292 79.6304 73.1789C85.5976 64.0869 88.4977 53.7892 88.4977 43.3974V31.1812C88.4977 29.1607 87.2908 27.3352 85.4319 26.5431L57.1058 14.4735C55.8435 13.9353 54.4161 13.9353 53.1531 14.4735Z" fill="#F29D00"/>
<path d="M88.4064 40.2465C88.4118 40.2465 88.4178 40.2924 88.4249 40.3824C88.4309 40.4908 88.438 40.6225 88.447 40.7823C88.4607 41.1613 88.4797 41.6751 88.503 42.3229C88.5256 42.9922 88.5608 43.8111 88.5113 44.7618C88.4958 45.2386 88.4797 45.747 88.4625 46.2851C88.4535 46.5551 88.444 46.8323 88.4344 47.1172C88.4082 47.4008 88.3814 47.6923 88.354 47.9903C88.2366 49.1823 88.1549 50.4941 87.907 51.8828C87.7931 52.5777 87.7037 53.3024 87.5583 54.0385C87.4004 54.7728 87.2371 55.5285 87.0702 56.3027C86.327 59.381 85.3001 62.7276 83.8029 66.07C82.2998 69.4099 80.5273 72.4257 78.7322 75.038C77.7905 76.3134 76.9227 77.5459 75.9912 78.6062C75.534 79.142 75.118 79.6826 74.671 80.16C74.2234 80.6362 73.7937 81.0933 73.3825 81.5302C72.582 82.423 71.7602 83.1334 71.0748 83.7932C70.7255 84.1156 70.4108 84.4279 70.1021 84.6932C69.7904 84.9518 69.5043 85.1896 69.2444 85.4054C68.7432 85.8154 68.3451 86.1414 68.0518 86.3816C67.9261 86.4806 67.8224 86.5616 67.7372 86.629C67.665 86.6832 67.6263 86.7094 67.6233 86.7053C67.6197 86.7011 67.6513 86.6665 67.7169 86.6039C67.7974 86.5306 67.8939 86.4412 68.0125 86.3328C68.2962 86.0824 68.6806 85.7421 69.1658 85.3136C69.4197 85.0925 69.6992 84.8487 70.0031 84.5835C70.3059 84.3117 70.6135 83.9947 70.9562 83.6669C71.6278 82.9969 72.4366 82.2782 73.2233 81.3788C73.628 80.9396 74.0512 80.48 74.4922 80.0009C74.9321 79.5211 75.3415 78.9793 75.7921 78.4423C76.7111 77.3802 77.567 76.1477 78.4973 74.8747C80.2698 72.2672 82.0251 69.2645 83.5192 65.9436C85.008 62.6203 86.0367 59.2958 86.7919 56.2371C86.9623 55.4671 87.1286 54.7168 87.2907 53.9872C87.4397 53.2554 87.5333 52.5348 87.6525 51.8434C87.9106 50.4631 88.0047 49.1579 88.1353 47.9718C88.1662 47.675 88.1966 47.3854 88.2264 47.1029C88.2396 46.8192 88.2527 46.5432 88.2652 46.2744C88.2908 45.738 88.3152 45.232 88.3379 44.757C88.4035 43.8094 88.3862 42.9922 88.3826 42.3241C88.3832 41.6769 88.3838 41.1631 88.3844 40.7847C88.388 40.6243 88.3909 40.4926 88.3927 40.3835C88.3969 40.293 88.4011 40.2465 88.4064 40.2465Z" fill="#F29D00"/>
<path d="M66.3506 55.8793H63.3301V39.4375C63.3301 35.5677 60.1814 32.419 56.3116 32.419C52.4412 32.419 49.2931 35.5677 49.2931 39.4375V55.8793H46.272V39.4375C46.272 33.9018 50.7759 29.3979 56.3116 29.3979C61.8466 29.3979 66.3506 33.9018 66.3506 39.4375V55.8793Z" fill="#F5F5F5"/>
<path d="M66.3774 65.9254H46.2451C44.3325 65.9254 42.7817 64.3746 42.7817 62.462V48.1812C42.7817 46.2687 44.3325 44.7185 46.2451 44.7185H66.3774C68.2899 44.7185 69.8407 46.2687 69.8407 48.1812V62.462C69.8407 64.3746 68.2899 65.9254 66.3774 65.9254Z" fill="white"/>
<path d="M66.3775 65.9254C66.3751 65.9027 66.6999 65.9284 67.278 65.7704C67.8388 65.6143 68.7042 65.2 69.2883 64.2178C69.5821 63.7375 69.7675 63.1188 69.7669 62.434C69.7627 61.7361 69.7586 60.9786 69.7538 60.1656C69.7472 58.535 69.7395 56.682 69.7311 54.6353C69.7216 52.5875 69.7109 50.3465 69.6996 47.9423C69.6292 46.7848 68.8765 45.6393 67.7345 45.1458C67.163 44.883 66.5503 44.8341 65.8804 44.858C65.2206 44.8592 64.5519 44.8604 63.8749 44.8615C58.4548 44.8651 52.499 44.8693 46.2476 44.8735C45.5008 44.8806 44.7605 45.1292 44.1854 45.5952C43.6138 46.0583 43.1871 46.7038 43.0292 47.4154C42.9439 47.773 42.9296 48.1246 42.9362 48.5097C42.9356 48.8875 42.9356 49.2642 42.9356 49.6391C42.935 50.3888 42.9344 51.1327 42.9344 51.8699C42.9308 54.8177 42.9278 57.6618 42.9249 60.3718C42.9815 61.7164 42.7002 63.1063 43.3945 64.1702C44.0251 65.2441 45.2367 65.855 46.4103 65.7966C48.8187 65.8038 51.0626 65.8098 53.1129 65.8157C57.1985 65.8366 60.5098 65.8533 62.8187 65.8652C63.9511 65.8777 64.8368 65.8872 65.4572 65.8944C65.7469 65.9003 65.974 65.9057 66.1438 65.9093C66.2982 65.9146 66.3775 65.92 66.3775 65.9254C66.3775 65.9307 66.2982 65.9361 66.1438 65.9415C65.974 65.945 65.7469 65.9504 65.4572 65.9564C64.8368 65.9635 63.9511 65.9731 62.8187 65.9856C60.5098 65.9975 57.1985 66.0142 53.1129 66.035C51.0626 66.041 48.8187 66.047 46.4103 66.0541C45.173 66.1227 43.8409 65.47 43.1609 64.3108C42.8068 63.7452 42.6364 63.0562 42.6424 62.3786C42.6412 61.7182 42.64 61.0495 42.6394 60.3718C42.6364 57.6618 42.6334 54.8177 42.6298 51.8699C42.6298 51.1327 42.6292 50.3888 42.6286 49.6391C42.6286 49.2642 42.628 48.8875 42.628 48.5097C42.6209 48.1407 42.6352 47.7277 42.7288 47.3445C42.9022 46.5655 43.3671 45.8587 43.9923 45.3532C44.6199 44.8437 45.4322 44.5695 46.2476 44.563C52.499 44.5671 58.4548 44.5713 63.8749 44.5755C64.5519 44.5761 65.2206 44.5773 65.8804 44.5784C66.5241 44.5546 67.2458 44.6094 67.846 44.8973C69.0797 45.4355 69.8861 46.6764 69.9564 47.9238C69.9767 50.3507 69.9517 52.5821 69.9505 54.6353C69.9421 56.682 69.9344 58.535 69.9272 60.1656C69.9231 60.9786 69.9189 61.7361 69.9147 62.434C69.907 63.1462 69.7037 63.7887 69.3914 64.2804C68.7698 65.2871 67.8704 65.6911 67.2947 65.8312C66.7005 65.9719 66.3775 65.9254 66.3775 65.9254Z" fill="#F29D00"/>
<path d="M58.3879 55.8744C58.9172 55.341 59.2444 54.6091 59.2444 53.7967C59.2444 52.1536 57.9123 50.8209 56.2686 50.8209C54.6254 50.8209 53.2927 52.1536 53.2927 53.7967C53.2927 55.1568 54.2106 56.2916 55.4568 56.6468L54.8173 59.4742H57.6501L57.0803 56.6468C57.5821 56.5032 58.0309 56.2338 58.3879 55.8744Z" fill="#F29D00"/>
<path d="M242.983 77.1371V101.29C243.035 105.467 243.649 112.021 237.041 111.802C231.322 111.179 229.805 105.766 229.76 101.867C229.74 100.019 229.718 98.4769 229.704 98.2867C229.704 98.2867 223.443 97.776 222.915 91.5931C222.66 88.6047 222.635 82.4075 222.677 76.8003C222.723 70.7789 227.393 65.8047 233.398 65.3661L233.995 65.3226C240.462 65.2284 243.068 70.6705 242.983 77.1371Z" fill="#FFC19D"/>
<path d="M229.704 98.2868C229.704 98.2868 233.621 98.2308 237.588 95.3157C237.588 95.3157 235.952 99.98 229.736 99.8739L229.704 98.2868Z" fill="#FF9C6A"/>
<path d="M233.249 79.3344C233.371 79.4596 234.085 78.885 235.122 78.857C236.156 78.8135 236.931 79.3374 237.04 79.2039C237.093 79.1449 236.965 78.916 236.628 78.6788C236.295 78.4428 235.733 78.2199 235.088 78.242C234.442 78.2652 233.907 78.5245 233.602 78.7825C233.29 79.0424 233.189 79.2784 233.249 79.3344Z" fill="#1A2E35"/>
<path d="M233.233 82.2652C233.249 82.708 233.638 83.0585 234.101 83.0495C234.562 83.0406 234.924 82.6758 234.907 82.233C234.891 81.7908 234.502 81.4391 234.04 81.4481C233.578 81.457 233.216 81.8224 233.233 82.2652Z" fill="#1A2E35"/>
<path d="M230.654 86.5407C230.654 86.4865 230.056 86.4275 229.089 86.375C228.844 86.3673 228.611 86.3363 228.558 86.1736C228.488 86.0019 228.57 85.7331 228.667 85.4417C228.853 84.8374 229.046 84.2038 229.25 83.5399C230.055 80.834 230.619 78.6163 230.51 78.5847C230.401 78.5531 229.66 80.7214 228.854 83.4266C228.662 84.0936 228.477 84.7295 228.302 85.3374C228.23 85.6199 228.096 85.9447 228.246 86.2999C228.325 86.4764 228.512 86.595 228.671 86.6254C228.831 86.6617 228.967 86.6546 229.088 86.6528C230.056 86.6343 230.654 86.595 230.654 86.5407Z" fill="#1A2E35"/>
<path d="M233.689 74.9261C233.789 75.1562 234.619 74.9828 235.612 75.034C236.606 75.0638 237.422 75.304 237.537 75.0829C237.587 74.9774 237.433 74.7658 237.095 74.5608C236.761 74.3558 236.237 74.1764 235.641 74.1519C235.046 74.1281 234.512 74.2646 234.164 74.4416C233.814 74.618 233.646 74.8171 233.689 74.9261Z" fill="#1A2E35"/>
<path d="M223.851 76.4778C223.96 76.665 224.768 76.457 225.748 76.4272C226.727 76.3789 227.54 76.5225 227.644 76.3264C227.689 76.2329 227.527 76.0654 227.186 75.9164C226.847 75.7674 226.325 75.6542 225.737 75.6768C225.15 75.7012 224.63 75.8562 224.296 76.032C223.96 76.2078 223.803 76.3884 223.851 76.4778Z" fill="#1A2E35"/>
<path d="M214.466 71.2499C214.533 71.0007 214.714 70.7963 214.936 70.6652C215.42 70.3791 215.978 70.4173 216.517 70.4083C218.158 70.3821 219.787 69.8815 221.167 68.9952C221.814 68.0631 222.542 67.1869 223.331 66.3728C225.206 64.44 226.748 63.1246 228.343 62.4827C230.406 61.6519 233.857 61.3152 236.009 61.8796C238.16 62.444 240.092 64.1897 240.391 66.3937C241.598 65.3739 243.409 65.3823 244.879 65.9729L244.915 65.9568C246.552 66.5403 247.482 68.2693 247.965 69.9381C248.448 71.6075 248.654 73.3919 249.537 74.8879C249.722 75.2008 249.942 75.5756 249.781 75.9011C249.655 76.1526 249.336 76.2563 249.058 76.2157C248.78 76.1746 248.533 76.0209 248.296 75.8707C248.479 76.3075 248.661 76.745 248.844 77.1819C248.251 77.285 247.639 77.2373 247.063 77.0633C246.716 78.6236 246.301 80.4062 245.899 81.4641C245.215 81.4623 244.589 81.5112 244.168 81.8903C243.594 82.4058 243.338 83.3755 242.385 83.0072C241.9 82.82 241.458 81.8027 241.296 81.3092C240.219 78.0318 239.862 74.5213 240.251 71.0937C239.573 70.3714 238.755 69.7807 237.855 69.3647L237.929 69.4309C236.201 68.8307 234.246 68.2401 232.606 69.0512C231.334 69.6806 230.587 71.0007 229.636 72.0539C227.834 74.0499 225.403 75.134 222.716 75.2496C222.625 76.9911 222.771 79.452 222.68 81.1929L221.216 78.4037L221.214 78.418C221.094 78.2135 220.995 78.0079 220.899 77.8017L220.866 77.7391V77.7314C220.714 77.4 220.569 77.068 220.376 76.7408C220.371 76.7456 220.366 76.7504 220.36 76.7557C219.416 77.5877 218.026 76.3153 218.77 75.3009C218.918 75.0994 219.094 74.92 219.296 74.7722C218.866 75.1775 218.222 75.3712 217.657 75.1972C217.092 75.0237 216.653 74.4516 216.702 73.8621C216.735 73.4598 217.023 73.0999 217.386 72.9407C216.625 72.9997 215.845 72.8334 215.181 72.455C214.745 72.2065 214.318 71.7976 214.466 71.2499Z" fill="#1A2E35"/>
<path d="M238.445 67.1039C238.432 67.12 238.704 67.2672 239.065 67.6713C239.424 68.0736 239.825 68.7733 240.015 69.7251C240.112 70.1983 240.173 70.7276 240.173 71.2968C240.176 71.8665 240.13 72.4768 240.086 73.1193C240.045 73.7624 239.999 74.4412 240.04 75.1475C240.06 75.5003 240.102 75.8591 240.179 76.2179C240.257 76.5702 240.35 76.9528 240.616 77.2562C240.827 77.5029 241.182 77.612 241.489 77.5494C241.797 77.4946 242.073 77.3301 242.274 77.1054C242.672 76.6411 242.771 76.0516 242.87 75.5331L242.74 75.5486C242.953 76.0153 243.17 76.476 243.493 76.8443C243.81 77.2144 244.249 77.4594 244.696 77.4999C244.919 77.5196 245.143 77.4838 245.334 77.3879C245.528 77.2931 245.67 77.1316 245.767 76.9611C245.86 76.7871 245.908 76.5964 245.899 76.4128C245.888 76.2292 245.816 76.0552 245.7 75.9318L245.635 75.9903C246.111 76.5338 246.614 76.8252 246.963 76.9874C247.139 77.0684 247.28 77.1167 247.375 77.1471C247.471 77.1757 247.521 77.1876 247.522 77.1834C247.523 77.1793 247.476 77.1602 247.383 77.1244C247.291 77.0863 247.154 77.0315 246.983 76.9444C246.645 76.7716 246.158 76.4724 245.701 75.933L245.635 75.9914C245.843 76.212 245.856 76.5994 245.676 76.9105C245.586 77.0642 245.456 77.2079 245.285 77.2883C245.114 77.3718 244.91 77.4034 244.707 77.3825C244.297 77.342 243.886 77.1119 243.59 76.7597C243.285 76.408 243.075 75.9593 242.865 75.492L242.776 75.2935L242.735 75.5075C242.636 76.026 242.531 76.5916 242.168 77.0106C241.988 77.2115 241.736 77.3599 241.465 77.4075C241.194 77.4594 240.908 77.37 240.723 77.1584C240.49 76.8968 240.395 76.5344 240.32 76.1875C240.245 75.8377 240.203 75.4866 240.181 75.1392C240.139 74.4448 240.181 73.7702 240.219 73.1283C240.259 72.4858 240.3 71.8725 240.293 71.2956C240.288 70.7186 240.22 70.1828 240.115 69.703C239.909 68.7387 239.484 68.0307 239.107 67.6337C238.726 67.2344 238.445 67.1039 238.445 67.1039Z" fill="#375A64"/>
<path d="M219.31 73.1224C219.308 73.1242 219.325 73.1385 219.359 73.1647C219.401 73.1951 219.452 73.232 219.514 73.2773C219.582 73.328 219.668 73.387 219.776 73.4454C219.883 73.5068 220.004 73.5813 220.153 73.6433C220.727 73.9163 221.648 74.1874 222.8 74.1195C223.941 74.0557 225.31 73.651 226.533 72.7409C227.769 71.8523 228.853 70.5435 229.74 69.0445C230.19 68.296 230.556 67.5277 230.961 66.8185C231.362 66.1092 231.806 65.4536 232.343 64.9357C232.874 64.4154 233.49 64.0304 234.125 63.854C234.442 63.7598 234.761 63.7384 235.065 63.7455C235.37 63.7616 235.659 63.8236 235.926 63.9112C236.459 64.09 236.889 64.3844 237.216 64.6872C237.543 64.9935 237.763 65.316 237.913 65.5931C238.195 66.1617 238.21 66.5264 238.233 66.5205C238.235 66.5199 238.234 66.4978 238.228 66.4555C238.22 66.4043 238.21 66.3423 238.198 66.266C238.169 66.1003 238.097 65.8601 237.964 65.5675C237.818 65.282 237.601 64.947 237.271 64.6288C236.943 64.3135 236.506 64.0048 235.959 63.8141C235.686 63.7211 235.388 63.6537 235.071 63.6341C234.756 63.6233 234.422 63.6436 234.093 63.7384C233.433 63.9166 232.796 64.3099 232.25 64.8398C231.698 65.3672 231.244 66.0347 230.838 66.7488C230.429 67.4628 230.062 68.2286 229.616 68.9706C228.736 70.4583 227.667 71.7528 226.455 72.6337C225.254 73.5354 223.917 73.9401 222.794 74.0176C221.661 74.0974 220.75 73.8459 220.175 73.592C219.596 73.334 219.321 73.1045 219.31 73.1224Z" fill="#375A64"/>
<path d="M218.747 70.4043C218.742 70.4132 218.821 70.4675 218.969 70.5587C219.115 70.6528 219.34 70.7691 219.626 70.8924C219.911 71.0182 220.265 71.1356 220.666 71.2339C221.069 71.3251 221.519 71.3925 221.996 71.4104C222.473 71.4229 222.927 71.3847 223.334 71.3192C223.741 71.2471 224.102 71.1523 224.394 71.045C224.687 70.9401 224.919 70.8388 225.071 70.7542C225.224 70.6725 225.307 70.623 225.302 70.6141C225.291 70.5897 224.948 70.7655 224.363 70.9479C224.07 71.0414 223.714 71.1243 223.314 71.188C222.913 71.2447 222.467 71.278 222 71.2655C221.533 71.2482 221.092 71.1863 220.695 71.104C220.3 71.0146 219.95 70.9097 219.664 70.7977C219.09 70.5777 218.761 70.3805 218.747 70.4043Z" fill="#375A64"/>
<path d="M223.804 79.3344C223.927 79.4596 224.641 78.885 225.678 78.857C226.712 78.8135 227.487 79.3374 227.596 79.2039C227.649 79.1449 227.522 78.916 227.184 78.6788C226.851 78.4428 226.288 78.2199 225.644 78.242C224.998 78.2652 224.462 78.5245 224.157 78.7831C223.845 79.043 223.744 79.2784 223.804 79.3344Z" fill="#1A2E35"/>
<path d="M224.86 82.2652C224.877 82.708 225.266 83.0585 225.728 83.0495C226.189 83.0406 226.551 82.6758 226.535 82.233C226.518 81.7908 226.13 81.4391 225.668 81.4481C225.206 81.4564 224.844 81.8224 224.86 82.2652Z" fill="#1A2E35"/>
<path d="M242.822 81.7573C242.923 81.7037 246.977 80.191 247.151 84.4268C247.324 88.6632 243.036 87.9635 243.024 87.8425C243.011 87.7209 242.822 81.7573 242.822 81.7573Z" fill="#FFC19D"/>
<path d="M244.252 86.1843C244.269 86.17 244.327 86.2332 244.455 86.2851C244.578 86.3357 244.789 86.3655 245.007 86.2737C245.447 86.0914 245.795 85.3654 245.784 84.6008C245.779 84.2152 245.683 83.851 245.535 83.553C245.392 83.2484 245.183 83.0398 244.956 83.0095C244.73 82.9665 244.576 83.1078 244.529 83.2294C244.477 83.3504 244.507 83.4338 244.485 83.4416C244.474 83.4529 244.392 83.3748 244.418 83.1984C244.433 83.1132 244.478 83.0112 244.574 82.926C244.672 82.8396 244.82 82.7907 244.977 82.8014C245.305 82.8104 245.612 83.0989 245.775 83.4267C245.957 83.755 246.074 84.1633 246.08 84.5966C246.088 85.4513 245.683 86.2684 245.078 86.4704C244.784 86.5604 244.531 86.4806 244.399 86.3858C244.263 86.2863 244.237 86.1927 244.252 86.1843Z" fill="#FF9C6A"/>
<path d="M233.674 87.4194C233.709 87.4259 233.709 87.6685 233.563 88.0267C233.415 88.3795 233.094 88.8379 232.588 89.1567C232.087 89.4809 231.53 89.5835 231.144 89.5447C230.754 89.5101 230.544 89.3814 230.557 89.3486C230.572 89.301 230.796 89.3486 231.146 89.3254C231.495 89.3063 231.972 89.1841 232.421 88.8951C232.872 88.6102 233.183 88.2264 233.367 87.9266C233.55 87.6238 233.625 87.4075 233.674 87.4194Z" fill="#1A2E35"/>
<path d="M255.014 254.993L256.279 269.319L260.757 280.379C261.079 281.176 260.617 282.063 259.748 282.311C259.262 282.451 258.739 282.362 258.337 282.07C255.78 280.21 246.563 273.37 246.46 272.48C246.327 271.326 243.978 257.24 243.978 257.24L255.014 254.993Z" fill="#375A64"/>
<path d="M259.749 282.311L246.208 270.848L246.34 271.909C246.432 272.489 246.441 272.805 246.848 273.168C247.934 274.138 251.107 277.109 258.194 282.313C258.606 282.616 259.253 282.468 259.749 282.311Z" fill="#1A2E35"/>
<path d="M248.872 266.381C249.281 266.59 249.466 267.12 249.26 267.512C249.054 267.905 248.483 268.087 248.071 267.884C247.658 267.682 247.414 267.052 247.665 266.684C247.917 266.316 248.6 266.136 248.949 266.426" fill="white"/>
<path d="M255.568 276.413C255.658 276.444 255.916 275.661 256.776 275.168C257.618 274.651 258.481 274.768 258.49 274.678C258.5 274.642 258.295 274.55 257.934 274.538C257.575 274.524 257.066 274.623 256.596 274.901C256.127 275.18 255.814 275.57 255.672 275.88C255.528 276.191 255.529 276.405 255.568 276.413Z" fill="#1A2E35"/>
<path d="M256.867 278.219C256.946 278.274 257.382 277.76 258.145 277.47C258.9 277.163 259.595 277.233 259.609 277.142C259.645 277.064 258.878 276.834 258.015 277.179C257.148 277.514 256.783 278.188 256.867 278.219Z" fill="#1A2E35"/>
<path d="M253.274 274.16C253.353 274.221 254.019 273.428 255.163 272.879C256.298 272.313 257.371 272.255 257.363 272.16C257.379 272.081 256.226 271.995 255.008 272.599C253.783 273.191 253.196 274.127 253.274 274.16Z" fill="#1A2E35"/>
<path d="M252.502 269.836C252.553 269.917 253.355 269.504 254.445 269.357C255.531 269.197 256.428 269.371 256.45 269.28C256.484 269.206 255.563 268.875 254.395 269.045C253.225 269.204 252.447 269.774 252.502 269.836Z" fill="#1A2E35"/>
<path d="M252.017 265.639C252.074 265.717 252.865 265.156 254.025 265.091C255.183 265.001 256.051 265.45 256.095 265.366C256.117 265.333 255.93 265.17 255.558 265.015C255.189 264.859 254.625 264.735 254.001 264.776C253.377 264.819 252.838 265.017 252.496 265.22C252.151 265.424 251.991 265.61 252.017 265.639Z" fill="#1A2E35"/>
<path d="M253.908 264.295C253.927 264.293 253.94 264.097 253.867 263.752C253.794 263.409 253.63 262.91 253.25 262.382C253.056 262.132 252.846 261.808 252.4 261.662C252.179 261.588 251.869 261.656 251.71 261.864C251.552 262.066 251.521 262.306 251.542 262.533C251.66 263.439 252.588 264.233 253.688 264.256C254.791 264.26 255.713 263.576 256.056 262.749C256.128 262.537 256.165 262.281 256.019 262.052C255.876 261.82 255.556 261.754 255.342 261.811C254.898 261.919 254.64 262.192 254.396 262.4C253.916 262.848 253.639 263.297 253.483 263.614C253.327 263.934 253.287 264.125 253.305 264.131C253.363 264.164 253.61 263.391 254.559 262.562C254.8 262.369 255.075 262.128 255.397 262.067C255.554 262.036 255.698 262.082 255.767 262.197C255.839 262.306 255.827 262.489 255.762 262.656C255.47 263.334 254.627 263.957 253.694 263.94C252.767 263.931 251.952 263.23 251.85 262.502C251.828 262.327 251.857 262.145 251.946 262.031C252.033 261.918 252.179 261.874 252.325 261.914C252.634 261.997 252.867 262.277 253.057 262.511C253.816 263.497 253.842 264.316 253.908 264.295Z" fill="#1A2E35"/>
<path d="M218.924 255.733L219.488 267.864C219.488 267.864 206.56 272.478 206.432 274.729L231.494 274.545L231.44 255.609L218.924 255.733Z" fill="#375A64"/>
<path d="M227.229 266.787C227.716 266.908 228.055 267.418 227.946 267.879C227.837 268.341 227.288 268.67 226.8 268.557C226.312 268.444 225.885 267.843 226.047 267.396C226.211 266.949 226.878 266.595 227.323 266.815" fill="#E1E1E1"/>
<path d="M231.494 274.546L231.409 272.637L207.412 273.527C207.412 273.527 206.3 273.991 206.432 274.729L231.494 274.546Z" fill="#1A2E35"/>
<path d="M219.081 267.747C219.086 267.862 219.699 267.91 220.303 268.275C220.919 268.626 221.234 269.122 221.346 269.076C221.459 269.053 221.27 268.366 220.529 267.936C219.793 267.499 219.054 267.642 219.081 267.747Z" fill="#1A2E35"/>
<path d="M216.461 268.789C216.434 268.9 216.966 269.092 217.385 269.575C217.82 270.047 217.929 270.572 218.051 270.567C218.166 270.584 218.245 269.91 217.711 269.318C217.183 268.722 216.463 268.679 216.461 268.789Z" fill="#1A2E35"/>
<path d="M214.993 271.757C215.104 271.781 215.27 271.204 214.95 270.577C214.635 269.947 214.056 269.703 214.005 269.799C213.937 269.894 214.311 270.229 214.565 270.749C214.832 271.262 214.871 271.747 214.993 271.757Z" fill="#1A2E35"/>
<path d="M219.279 264.969C219.331 265.073 219.891 264.911 220.583 264.95C221.276 264.976 221.816 265.19 221.879 265.091C221.95 265.007 221.42 264.585 220.604 264.55C219.789 264.509 219.218 264.879 219.279 264.969Z" fill="#1A2E35"/>
<path d="M214.562 168.627C214.576 169.33 217.473 266.282 217.473 266.282H232.964L236.103 183.346C236.103 183.346 239.767 226.71 239.767 227.646C239.767 228.583 243 266.748 243 266.748L257.363 265.647L256.421 178.328L254.666 165.526L214.562 168.627Z" fill="#1A2E35"/>
<path d="M237.714 180.277C237.721 180.296 237.496 180.385 237.085 180.526C236.674 180.667 236.075 180.863 235.336 181.097L235.195 181.142L235.184 181.005C235.099 179.839 235.001 178.279 234.91 176.57C234.811 174.717 234.739 173.038 234.703 171.823C234.684 171.215 234.675 170.723 234.675 170.383C234.675 170.043 234.686 169.854 234.706 169.853C234.728 169.852 234.758 170.039 234.794 170.378C234.83 170.717 234.873 171.207 234.919 171.814C235.012 173.027 235.118 174.704 235.217 176.557C235.307 178.266 235.376 179.827 235.414 180.996L235.263 180.903C236.012 180.692 236.621 180.526 237.045 180.417C237.468 180.309 237.707 180.258 237.714 180.277Z" fill="#375A64"/>
<path d="M236.538 170.195C236.528 170.182 236.588 170.117 236.743 170.068C236.896 170.019 237.155 170.005 237.428 170.124C237.695 170.228 237.99 170.535 237.946 170.921C237.915 171.285 237.618 171.682 237.122 171.779C236.624 171.86 236.181 171.606 235.98 171.293C235.761 170.966 235.839 170.592 235.992 170.372C236.145 170.141 236.355 170.019 236.504 169.969C236.656 169.918 236.748 169.927 236.751 169.943C236.774 169.983 236.402 170.054 236.184 170.462C236.082 170.657 236.05 170.933 236.221 171.162C236.381 171.39 236.729 171.569 237.062 171.51C237.391 171.451 237.633 171.16 237.665 170.896C237.709 170.626 237.528 170.404 237.323 170.293C236.888 170.06 236.548 170.237 236.538 170.195Z" fill="#375A64"/>
<path d="M243.649 171.189C243.565 171.197 243.447 170.777 243.387 170.251C243.326 169.724 243.346 169.292 243.43 169.284C243.514 169.276 243.631 169.696 243.692 170.223C243.753 170.749 243.733 171.182 243.649 171.189Z" fill="#375A64"/>
<path d="M244.723 171.092C244.638 171.092 244.568 170.644 244.565 170.092C244.562 169.539 244.628 169.091 244.712 169.091C244.797 169.091 244.868 169.538 244.871 170.091C244.874 170.643 244.808 171.091 244.723 171.092Z" fill="#375A64"/>
<path d="M226.05 171.761C225.966 171.769 225.835 171.265 225.757 170.636C225.68 170.006 225.685 169.488 225.77 169.481C225.854 169.472 225.985 169.976 226.062 170.606C226.139 171.235 226.134 171.753 226.05 171.761Z" fill="#375A64"/>
<path d="M227.352 171.854C227.277 171.88 227.002 171.365 226.973 170.675C226.939 169.984 227.166 169.45 227.243 169.472C227.329 169.49 227.247 170.018 227.28 170.663C227.306 171.309 227.436 171.83 227.352 171.854Z" fill="#375A64"/>
<path d="M222.452 170.559C222.47 170.562 222.451 170.714 222.4 170.986C222.354 171.26 222.249 171.649 222.089 172.123C221.771 173.069 221.153 174.34 220.17 175.578C219.184 176.813 218.041 177.751 217.145 178.33C216.696 178.621 216.319 178.837 216.044 178.965C215.773 179.098 215.619 179.163 215.61 179.149C215.585 179.111 216.171 178.801 217.026 178.192C217.881 177.585 218.977 176.646 219.946 175.435C220.909 174.221 221.542 172.988 221.904 172.068C222.268 171.147 222.404 170.55 222.452 170.559Z" fill="#375A64"/>
<path d="M255.947 177.092C255.949 177.107 255.783 177.138 255.478 177.161C255.172 177.185 254.727 177.19 254.181 177.139C253.094 177.043 251.577 176.658 250.213 175.759C248.848 174.859 247.99 173.676 247.568 172.777C247.353 172.325 247.227 171.943 247.163 171.676C247.098 171.409 247.082 171.258 247.098 171.255C247.147 171.244 247.279 171.838 247.746 172.704C248.203 173.566 249.059 174.692 250.376 175.561C251.693 176.429 253.149 176.829 254.206 176.966C255.27 177.109 255.945 177.047 255.947 177.092Z" fill="#375A64"/>
<path d="M230.71 226.189C230.69 226.254 228.122 225.699 224.975 224.949C221.827 224.199 219.292 223.537 219.312 223.471C219.331 223.406 221.898 223.961 225.046 224.711C228.193 225.462 230.729 226.123 230.71 226.189Z" fill="#375A64"/>
<path d="M255.67 222.66C255.707 222.72 253.472 223.887 250.679 225.266C247.886 226.647 245.592 227.717 245.556 227.658C245.519 227.599 247.752 226.432 250.546 225.051C253.339 223.672 255.633 222.601 255.67 222.66Z" fill="#375A64"/>
<path d="M207.04 135.798L209.158 138.446V133.889H215.831C215.831 133.889 216.572 144.323 216.413 146.548C216.358 147.326 216.017 148.611 215.597 149.951C214.727 152.731 211.218 153.601 209.129 151.571C208.428 150.89 207.713 150.114 207.04 149.249C204.074 145.436 199.148 136.148 199.148 136.148L204.287 133.044L207.04 135.798Z" fill="#FFC19D"/>
<path d="M206.619 135.308C206.586 135.338 206.93 135.773 207.491 136.472C208.053 137.17 208.833 138.132 209.724 139.172C210.617 140.21 211.458 141.127 212.111 141.748C212.761 142.373 213.22 142.697 213.245 142.666C213.275 142.63 212.872 142.251 212.27 141.592C211.663 140.937 210.853 140.004 209.962 138.967C208.197 136.881 206.694 135.238 206.619 135.308Z" fill="#FF9C6A"/>
<path d="M222.263 103.734L229.3 100.975L242.262 100.241L248.354 102.558L240.006 107.194L232.807 106.929L222.263 103.734Z" fill="#FFC19D"/>
<path d="M213.963 169.953C214.6 170.063 257.071 171.867 257.071 171.867L255.579 133.678L255.457 126.18L253.045 103.466C253.045 103.466 246.696 101.283 243.457 100.241C243.457 100.241 240.048 103.794 233.566 103.698C227.23 103.604 225.906 102.175 225.906 102.175L217.046 105.572C217.046 105.572 210.747 107.831 209.662 110.618C208.607 113.331 206.674 128.827 206.674 128.827H215.857L215.683 156.202L213.963 169.953Z" fill="white"/>
<mask id="mask3_427_2810" style="mask-type:luminance" maskUnits="userSpaceOnUse" x="240" y="118" width="14" height="14">
<path d="M240.667 118.507H253.064V131.458H240.667V118.507Z" fill="white"/>
</mask>
<g mask="url(#mask3_427_2810)">
<g opacity="0.199997">
<path d="M240.667 118.986L241.984 128.613L248.354 131.458L253.064 127.445V118.507L240.667 118.986Z" fill="black"/>
</g>
</g>
<path d="M252.897 121.717C252.897 121.796 250.25 121.861 246.984 121.861C243.718 121.861 241.07 121.796 241.07 121.717C241.07 121.637 243.718 121.572 246.984 121.572C250.25 121.572 252.897 121.637 252.897 121.717Z" fill="#1A2E35"/>
<path d="M211.102 114.597C211.109 114.596 211.132 114.683 211.169 114.85C211.213 115.04 211.269 115.284 211.339 115.588C211.499 116.229 211.756 117.16 212.184 118.297C212.607 119.438 213.205 120.776 213.936 122.279C214.627 123.811 215.253 125.573 215.906 127.484L215.914 127.503L215.913 127.525C215.898 129.812 215.881 132.317 215.864 134.932C215.802 140.772 215.746 146.057 215.706 149.916C215.672 151.812 215.645 153.355 215.626 154.455C215.611 154.971 215.599 155.381 215.591 155.689C215.579 155.971 215.569 156.118 215.559 156.118C215.549 156.118 215.542 155.969 215.535 155.687C215.531 155.379 215.526 154.968 215.518 154.451C215.517 153.351 215.514 151.807 215.511 149.91C215.53 146.053 215.558 140.768 215.588 134.928C215.612 132.314 215.634 129.81 215.655 127.524L215.662 127.565C215.02 125.659 214.406 123.89 213.738 122.37C213.024 120.863 212.438 119.504 212.035 118.352C211.625 117.2 211.391 116.256 211.256 115.607C211.193 115.28 211.148 115.03 211.127 114.858C211.103 114.687 211.094 114.598 211.102 114.597Z" fill="#1A2E35"/>
<path d="M256.129 110.129C256.149 110.131 256.141 110.421 256.121 110.944C256.1 111.517 256.072 112.263 256.038 113.161C255.963 115.082 255.861 117.644 255.749 120.475C255.621 123.308 255.505 125.87 255.419 127.79C255.367 128.688 255.324 129.433 255.29 130.006C255.255 130.529 255.226 130.818 255.207 130.817C255.188 130.816 255.18 130.526 255.184 130.002C255.194 129.428 255.208 128.682 255.224 127.783C255.27 125.909 255.355 123.322 255.474 120.464C255.593 117.607 255.722 115.021 255.843 113.151C255.904 112.215 255.963 111.459 256.014 110.937C256.068 110.414 256.111 110.127 256.129 110.129Z" fill="#1A2E35"/>
<mask id="mask4_427_2810" style="mask-type:luminance" maskUnits="userSpaceOnUse" x="211" y="115" width="5" height="13">
<path d="M211.106 115.984H215.295V127.362H211.106V115.984Z" fill="white"/>
</mask>
<g mask="url(#mask4_427_2810)">
<g opacity="0.300003">
<path d="M211.125 115.984C210.918 120.175 212.498 124.234 215.295 127.361C214.431 123.422 212.273 119.755 211.125 115.984Z" fill="black"/>
</g>
</g>
<mask id="mask5_427_2810" style="mask-type:luminance" maskUnits="userSpaceOnUse" x="229" y="138" width="12" height="16">
<path d="M229.779 138.205H240.307V153.79H229.779V138.205Z" fill="white"/>
</mask>
<g mask="url(#mask5_427_2810)">
<g opacity="0.300003">
<path d="M229.779 153.79C231.765 153.622 233.554 152.445 234.876 150.954C236.198 149.463 237.394 147.772 238.3 145.998C239.531 143.584 240.142 140.956 240.307 138.204C237.832 144.836 234.205 150.084 229.779 153.79Z" fill="black"/>
</g>
</g>
<path d="M241.089 135.312C241.098 135.314 241.086 135.398 241.054 135.556C241.012 135.746 240.961 135.973 240.9 136.246C240.836 136.546 240.744 136.91 240.614 137.327C240.49 137.744 240.359 138.223 240.169 138.738C239.824 139.782 239.321 140.991 238.703 142.305C238.063 143.609 237.289 145.009 236.366 146.41C235.432 147.804 234.442 149.062 233.485 150.155C232.509 151.231 231.584 152.16 230.748 152.871C230.344 153.244 229.948 153.545 229.607 153.817C229.27 154.093 228.966 154.314 228.711 154.485C228.48 154.643 228.288 154.774 228.128 154.883C227.992 154.971 227.919 155.014 227.914 155.006C227.908 154.999 227.971 154.941 228.095 154.838C228.247 154.717 228.429 154.573 228.647 154.399C228.891 154.215 229.183 153.983 229.51 153.697C229.84 153.416 230.224 153.106 230.618 152.727C231.433 152.001 232.336 151.064 233.295 149.987C234.234 148.893 235.21 147.641 236.137 146.258C237.052 144.868 237.826 143.483 238.475 142.194C239.101 140.895 239.619 139.702 239.985 138.673C240.186 138.166 240.33 137.693 240.467 137.281C240.61 136.871 240.717 136.513 240.797 136.219C240.877 135.951 240.944 135.729 241 135.543C241.049 135.39 241.08 135.31 241.089 135.312Z" fill="#1A2E35"/>
<path d="M239.862 123.36C239.871 123.362 239.854 123.496 239.812 123.75C239.763 124.03 239.698 124.398 239.617 124.858C239.534 125.341 239.421 125.929 239.248 126.602C239.081 127.276 238.919 128.052 238.655 128.887C238.531 129.307 238.401 129.747 238.266 130.204C238.129 130.662 237.951 131.127 237.786 131.614C237.466 132.594 237.038 133.607 236.605 134.681C235.685 136.805 234.547 139.087 233.161 141.373C231.755 143.648 230.24 145.7 228.768 147.486C228.009 148.36 227.302 149.203 226.574 149.933C226.216 150.302 225.883 150.672 225.538 151.002C225.192 151.331 224.86 151.647 224.542 151.948C223.919 152.563 223.301 153.06 222.777 153.516C222.256 153.977 221.784 154.345 221.392 154.637C221.019 154.919 220.72 155.145 220.493 155.316C220.286 155.468 220.175 155.545 220.169 155.537C220.163 155.53 220.263 155.439 220.46 155.272C220.678 155.09 220.966 154.852 221.325 154.553C221.706 154.249 222.166 153.869 222.676 153.4C223.189 152.934 223.795 152.429 224.407 151.807C224.72 151.503 225.048 151.184 225.388 150.852C225.727 150.519 226.055 150.147 226.408 149.777C227.125 149.043 227.822 148.198 228.573 147.324C230.027 145.538 231.528 143.492 232.925 141.229C234.304 138.955 235.443 136.688 236.372 134.58C236.809 133.515 237.243 132.509 237.571 131.538C237.74 131.054 237.922 130.593 238.064 130.14C238.205 129.685 238.34 129.249 238.468 128.832C238.744 128.004 238.918 127.234 239.099 126.565C239.285 125.898 239.413 125.315 239.512 124.837C239.614 124.382 239.695 124.017 239.757 123.74C239.816 123.489 239.852 123.358 239.862 123.36Z" fill="#1A2E35"/>
<path d="M206.304 111.481C208.922 115.46 219.522 131.577 222.656 136.343C223.002 136.869 222.571 137.556 221.946 137.478L203.116 135.109C202.915 135.084 202.733 134.976 202.613 134.813L184.627 110.248C184.255 109.74 184.649 109.031 185.276 109.077L204.651 110.51C205.324 110.56 205.934 110.917 206.304 111.481Z" fill="#E1E1E1"/>
<path d="M206.304 111.481C206.304 111.481 206.266 111.396 206.154 111.255C206.042 111.117 205.854 110.916 205.545 110.742C205.244 110.556 204.795 110.455 204.29 110.437C203.78 110.395 203.196 110.347 202.538 110.293C199.885 110.085 196.073 109.786 191.369 109.417C190.19 109.326 188.955 109.231 187.667 109.132C187.024 109.084 186.368 109.034 185.699 108.982C185.525 108.973 185.379 108.95 185.179 108.95C184.981 108.954 184.784 109.039 184.637 109.175C184.335 109.44 184.259 109.938 184.494 110.282C186.135 112.531 187.887 114.934 189.73 117.462C193.422 122.511 197.481 128.061 201.74 133.886C202.014 134.254 202.257 134.602 202.553 134.985C202.646 135.085 202.761 135.163 202.887 135.212C203.02 135.264 203.151 135.269 203.253 135.284L203.917 135.367C204.801 135.478 205.68 135.588 206.552 135.698C208.296 135.917 210.014 136.132 211.703 136.344C215.08 136.765 218.337 137.172 221.441 137.56C221.643 137.581 221.81 137.614 222.039 137.626C222.269 137.629 222.504 137.532 222.663 137.366C222.826 137.204 222.918 136.978 222.921 136.748C222.93 136.522 222.797 136.28 222.694 136.144C222.275 135.508 221.861 134.881 221.452 134.262C220.636 133.026 219.844 131.826 219.077 130.665C217.544 128.346 216.115 126.186 214.81 124.212C212.199 120.281 210.084 117.096 208.613 114.879C207.882 113.791 207.311 112.942 206.914 112.351C206.724 112.073 206.575 111.856 206.466 111.698C206.363 111.551 206.309 111.478 206.304 111.481C206.3 111.484 206.345 111.563 206.439 111.715C206.542 111.878 206.682 112.1 206.862 112.385C207.247 112.984 207.801 113.844 208.511 114.946C209.963 117.175 212.049 120.38 214.625 124.334C215.92 126.314 217.338 128.482 218.86 130.808C219.622 131.972 220.41 133.175 221.222 134.414C221.628 135.033 222.04 135.662 222.458 136.299C222.579 136.469 222.632 136.582 222.636 136.747C222.634 136.9 222.572 137.056 222.46 137.165C222.351 137.278 222.197 137.341 222.041 137.339C221.881 137.33 221.664 137.294 221.477 137.273C218.374 136.879 215.117 136.467 211.741 136.039C210.053 135.826 208.334 135.609 206.59 135.389C205.718 135.278 204.841 135.168 203.956 135.056L203.292 134.973C203.173 134.957 203.076 134.951 203 134.919C202.918 134.887 202.843 134.836 202.783 134.772C202.52 134.416 202.257 134.058 201.993 133.7C197.727 127.88 193.662 122.336 189.963 117.291C188.115 114.774 186.358 112.38 184.713 110.14C184.546 109.901 184.598 109.554 184.811 109.363C184.915 109.267 185.049 109.207 185.19 109.204C185.33 109.202 185.519 109.224 185.68 109.233C186.349 109.281 187.006 109.328 187.65 109.374C188.937 109.466 190.173 109.554 191.353 109.638C196.06 109.965 199.875 110.23 202.529 110.414C203.187 110.458 203.773 110.497 204.284 110.53C204.797 110.54 205.211 110.625 205.515 110.797C206.122 111.134 206.285 111.504 206.304 111.481Z" fill="#1A2E35"/>
<path d="M184.627 110.248C184.626 110.257 184.762 110.277 185.022 110.307C185.309 110.335 185.688 110.374 186.165 110.422C187.192 110.513 188.633 110.641 190.42 110.799C194.071 111.097 199.127 111.511 204.891 111.981L204.776 111.914C205.681 113.26 206.616 114.657 207.554 116.1C211.372 121.97 214.708 127.366 217.228 131.205C218.48 133.129 219.522 134.668 220.246 135.727C220.603 136.235 220.886 136.638 221.096 136.938C221.293 137.212 221.401 137.353 221.41 137.347C221.419 137.341 221.329 137.188 221.149 136.902C220.95 136.594 220.684 136.181 220.348 135.66C219.639 134.554 218.641 132.998 217.414 131.085C214.944 127.217 211.639 121.805 207.817 115.929C206.878 114.485 205.941 113.086 205.03 111.741L204.989 111.68L204.915 111.674C199.147 111.246 194.088 110.871 190.436 110.6C188.645 110.48 187.202 110.383 186.173 110.314C185.695 110.288 185.314 110.267 185.026 110.251C184.765 110.239 184.628 110.238 184.627 110.248Z" fill="#1A2E35"/>
<path d="M196.303 113.76H196.302C196.299 113.759 196.297 113.758 196.294 113.757L196.303 113.76Z" fill="white"/>
<path d="M195.836 114.041C195.883 113.817 196.094 113.724 196.301 113.76C196.525 113.826 196.638 113.879 196.807 114.044C196.976 114.211 197.048 114.504 196.898 114.689C196.711 114.922 196.324 114.836 196.097 114.641C195.924 114.491 195.789 114.265 195.836 114.041Z" fill="white"/>
<path d="M204.631 127.975C204.631 127.975 205.375 126.203 203.488 125.975C201.602 125.746 196.651 125.975 196.651 125.975C196.651 125.975 193.944 126.261 194.515 128.204C194.515 128.204 192.915 129.633 193.772 131.176C194.63 132.719 194.973 132.262 194.973 132.262C194.973 132.262 194.744 134.148 196.173 134.434C196.173 134.434 197.722 136.262 199.148 136.148C200.574 136.034 206.631 133.119 207.032 132.547C207.432 131.976 208.003 131.651 207.66 131.013C207.66 131.013 208.403 129.341 206.803 129.087C206.803 129.087 206.689 127.69 204.631 127.975Z" fill="#FFC19D"/>
<path d="M196.038 128.615C196.039 128.659 196.526 128.69 197.313 128.707C198.099 128.723 199.185 128.724 200.385 128.706C201.582 128.666 202.671 128.713 203.471 128.522C204.285 128.334 204.603 127.857 204.565 127.847C204.532 127.806 204.189 128.187 203.425 128.305C202.677 128.431 201.578 128.354 200.38 128.392C199.18 128.41 198.095 128.445 197.309 128.485C196.523 128.525 196.038 128.572 196.038 128.615Z" fill="#FF9C6A"/>
<path d="M197.389 131.472C197.384 131.489 197.525 131.556 197.799 131.614C198.071 131.673 198.478 131.718 198.977 131.687C199.477 131.658 200.065 131.552 200.696 131.375C201.328 131.201 202.001 130.957 202.712 130.739C203.421 130.52 204.107 130.362 204.74 130.321C205.357 130.293 206.025 130.309 206.468 129.972C206.686 129.816 206.837 129.602 206.88 129.383C206.922 129.168 206.878 128.98 206.809 128.848C206.659 128.575 206.457 128.56 206.462 128.575C206.446 128.6 206.608 128.657 206.697 128.898C206.795 129.129 206.744 129.552 206.343 129.788C205.959 130.051 205.387 130.021 204.724 130.032C204.058 130.059 203.341 130.217 202.62 130.439C201.915 130.671 201.244 130.891 200.615 131.097C200 131.286 199.437 131.41 198.957 131.466C197.996 131.584 197.4 131.418 197.389 131.472Z" fill="#FF9C6A"/>
<path d="M199.414 133.889C199.425 133.93 199.912 133.838 200.686 133.643C201.461 133.447 202.522 133.144 203.681 132.766C204.839 132.386 205.874 132.003 206.614 131.702C207.355 131.402 207.801 131.188 207.786 131.149C207.754 131.065 205.893 131.713 203.583 132.467C201.275 133.224 199.391 133.803 199.414 133.889Z" fill="#FF9C6A"/>
<path d="M198.929 136.131C198.934 136.169 199.342 136.153 199.984 136.01C200.627 135.87 201.49 135.575 202.397 135.16C203.306 134.747 204.098 134.325 204.672 134.021C205.244 133.714 205.594 133.514 205.576 133.474C205.536 133.38 204.054 134.033 202.268 134.874C200.485 135.73 198.917 136.049 198.929 136.131Z" fill="#FF9C6A"/>
<path d="M259.139 119.089C259.139 119.089 255.288 134.515 250.477 140.209C245.819 145.722 238.517 143.188 235.989 136.054C233.46 128.919 228.955 112.625 228.955 112.625L234.488 108.394L244.047 126.92L248.355 114.291L259.139 119.089Z" fill="#FFC19D"/>
<path d="M229.212 113.052L225.155 107.172C225.155 107.172 223.808 106.859 223.426 106.636C222.966 106.367 222.514 104.031 222.523 103.576C222.533 103.12 221.737 102.054 222.059 101.754C222.381 101.454 223.469 101.431 223.411 100.993C223.398 100.9 222.604 99.9252 223.234 99.21C223.461 98.9513 224.377 98.7242 224.377 98.7242L224.313 96.4803C224.313 96.4803 225.524 93.8311 226.762 94.79C226.762 94.79 231.432 98.3768 231.902 98.9501C232.372 99.5235 234.169 106.993 234.488 108.394" fill="#FFC19D"/>
<path d="M234.488 108.394C234.497 108.392 234.476 108.256 234.425 107.999C234.364 107.715 234.285 107.342 234.185 106.875C233.967 105.901 233.64 104.494 233.197 102.759C232.974 101.891 232.727 100.942 232.416 99.93C232.334 99.6779 232.254 99.4211 232.146 99.1612C232.045 98.8656 231.797 98.6677 231.595 98.4842C231.17 98.1099 230.723 97.7427 230.261 97.3684C229.337 96.6205 228.356 95.8486 227.333 95.0536C227.069 94.867 226.852 94.6256 226.479 94.4898C226.101 94.3664 225.7 94.5249 225.426 94.7401C224.862 95.1883 224.498 95.7896 224.182 96.4208L224.167 96.4488L224.169 96.4846C224.175 96.7015 224.182 96.9357 224.188 97.1712C224.204 97.6962 224.219 98.2165 224.234 98.7285L224.343 98.5849C224.061 98.6594 223.79 98.7434 223.521 98.862C223.387 98.9264 223.251 98.9848 223.122 99.1219C223.025 99.2452 222.934 99.3811 222.896 99.5367C222.802 99.846 222.867 100.162 222.967 100.429C223.017 100.566 223.082 100.694 223.151 100.815L223.254 100.992L223.275 101.028C223.269 101.022 223.273 101.005 223.27 101.02C223.27 101.034 223.272 101.048 223.264 101.058C223.252 101.109 223.143 101.178 223.033 101.222C222.921 101.269 222.796 101.306 222.671 101.344C222.545 101.383 222.417 101.42 222.287 101.471C222.158 101.533 222.022 101.562 221.898 101.744C221.805 101.936 221.857 102.09 221.888 102.222C221.925 102.356 221.974 102.48 222.025 102.599C222.126 102.837 222.239 103.061 222.322 103.284C222.363 103.397 222.392 103.496 222.393 103.598C222.395 103.738 222.413 103.857 222.429 103.982C222.465 104.227 222.51 104.466 222.559 104.7C222.662 105.169 222.775 105.624 222.94 106.056C223.031 106.271 223.099 106.486 223.296 106.682C223.521 106.851 223.721 106.881 223.929 106.959C224.34 107.087 224.74 107.188 225.13 107.278L225.065 107.234C226.318 109.014 227.34 110.467 228.07 111.504C228.418 111.987 228.695 112.373 228.903 112.661C229.096 112.923 229.203 113.058 229.212 113.052C229.221 113.046 229.132 112.899 228.955 112.625C228.76 112.329 228.498 111.932 228.17 111.435C227.46 110.385 226.464 108.913 225.244 107.111L225.222 107.077L225.179 107.066C224.797 106.972 224.399 106.867 223.999 106.739C223.813 106.671 223.574 106.604 223.453 106.502C223.334 106.388 223.244 106.168 223.168 105.969C223.015 105.557 222.906 105.108 222.809 104.648C222.763 104.418 222.72 104.183 222.688 103.946C222.673 103.83 222.657 103.706 222.656 103.599C222.657 103.454 222.614 103.313 222.572 103.193C222.481 102.949 222.369 102.723 222.273 102.493C222.224 102.38 222.18 102.265 222.15 102.152C222.117 102.043 222.106 101.919 222.137 101.876C222.156 101.837 222.281 101.766 222.387 101.727C222.5 101.683 222.625 101.647 222.751 101.609C222.878 101.57 223.007 101.533 223.14 101.478C223.266 101.418 223.428 101.366 223.523 101.163C223.547 101.113 223.551 101.06 223.55 101.006C223.554 100.986 223.543 100.939 223.524 100.901L223.496 100.85L223.396 100.677C223.332 100.564 223.275 100.449 223.231 100.33C223.143 100.095 223.098 99.8395 223.169 99.6166C223.196 99.5015 223.265 99.4038 223.337 99.309C223.398 99.2411 223.52 99.1755 223.638 99.1225C223.88 99.0158 224.148 98.9323 224.412 98.8638L224.524 98.834L224.521 98.7202C224.507 98.2082 224.491 97.6879 224.476 97.1628C224.469 96.9274 224.462 96.6932 224.456 96.4762L224.443 96.54C224.737 95.9476 225.106 95.3557 225.597 94.9683C225.842 94.7794 226.134 94.6745 226.396 94.7603C226.646 94.842 226.904 95.087 227.162 95.2753C228.186 96.0662 229.17 96.832 230.096 97.5729C230.559 97.943 231.009 98.3065 231.43 98.6719C231.642 98.862 231.846 99.0217 231.923 99.2572C232.026 99.4997 232.108 99.7548 232.192 100.002C232.51 101.002 232.768 101.948 233.004 102.81C233.452 104.517 233.817 105.906 234.078 106.901C234.199 107.362 234.296 107.731 234.37 108.011C234.438 108.265 234.478 108.397 234.488 108.394Z" fill="#FF9C6A"/>
<path d="M224.378 98.7242C224.379 98.7736 224.852 98.7361 225.588 98.807C225.961 98.835 226.361 98.9739 226.865 99.0991C227.382 99.2129 227.951 99.1539 228.516 99.1128C229.651 98.9584 230.609 99.4388 231.117 99.9567C231.639 100.476 231.692 100.973 231.745 100.955C231.769 100.968 231.793 100.424 231.266 99.8178C231.008 99.5234 230.63 99.2314 230.149 99.0335C229.675 98.8178 229.069 98.776 228.497 98.8261C227.919 98.869 227.383 98.9286 226.917 98.8392C226.452 98.7379 225.99 98.6056 225.604 98.6044C224.834 98.5835 224.375 98.695 224.378 98.7242Z" fill="#FF9C6A"/>
<path d="M226.03 98.6015C226.099 98.6367 226.287 98.3637 226.263 97.9763C226.241 97.5883 226.021 97.3398 225.957 97.3827C225.886 97.4232 225.96 97.6807 225.976 97.993C225.998 98.3053 225.955 98.5699 226.03 98.6015Z" fill="#FF9C6A"/>
<path d="M223.266 101.078C223.262 101.151 224.864 101.22 226.783 100.803C227.263 100.698 227.701 100.565 228.076 100.639C228.448 100.707 228.734 100.956 228.913 101.191C229.266 101.686 229.324 102.1 229.375 102.083C229.398 102.084 229.424 101.658 229.08 101.075C228.902 100.797 228.592 100.483 228.129 100.379C227.663 100.276 227.183 100.425 226.722 100.521C224.838 100.932 223.263 100.993 223.266 101.078Z" fill="#FF9C6A"/>
<path d="M222.646 103.2C222.646 103.237 222.979 103.27 223.51 103.204C224.041 103.145 224.754 102.962 225.532 102.81C225.922 102.738 226.294 102.678 226.62 102.701C226.948 102.72 227.221 102.826 227.403 102.984C227.788 103.308 227.743 103.675 227.786 103.67C227.802 103.673 227.843 103.592 227.834 103.432C227.824 103.275 227.745 103.041 227.543 102.835C227.346 102.624 227.011 102.47 226.643 102.437C226.272 102.396 225.878 102.454 225.479 102.527C224.678 102.684 223.986 102.895 223.475 103.004C222.967 103.119 222.644 103.158 222.646 103.2Z" fill="#FF9C6A"/>
<path d="M224.037 104.883C223.988 104.92 224.383 105.335 225.112 105.333L224.968 105.209C224.982 105.337 224.997 105.459 225.011 105.585C225.116 106.415 225.265 107.079 225.344 107.067C225.423 107.055 225.401 106.377 225.297 105.551C225.28 105.427 225.262 105.306 225.245 105.179L225.227 105.047L225.101 105.054C224.491 105.092 224.073 104.821 224.037 104.883Z" fill="#FF9C6A"/>
<path d="M253.044 103.466C253.044 103.466 260.931 105.377 260.914 115.834C260.897 126.251 258.532 131.458 258.532 131.458L243.995 123.546L247.239 115.402L253.044 103.466Z" fill="white"/>
<path d="M258.532 131.458C258.527 131.466 258.424 131.421 258.23 131.326C258.01 131.215 257.731 131.073 257.387 130.898C256.625 130.496 255.577 129.944 254.288 129.265C251.641 127.838 248.011 125.883 243.922 123.68L243.805 123.617L243.852 123.493C244.102 122.841 244.365 122.152 244.632 121.455C245.561 119.041 246.445 116.744 247.252 114.648C247.657 113.605 248.042 112.612 248.404 111.681C248.752 110.746 249.136 109.886 249.555 109.143C250.372 107.646 251.34 106.589 252.178 106.108C252.591 105.858 252.954 105.746 253.2 105.698C253.324 105.675 253.42 105.662 253.484 105.661C253.549 105.658 253.582 105.659 253.582 105.664C253.595 105.702 253.033 105.693 252.241 106.209C251.447 106.708 250.528 107.756 249.745 109.247C249.343 109.989 248.979 110.834 248.642 111.77C248.289 112.705 247.913 113.7 247.517 114.747C246.717 116.845 245.84 119.146 244.919 121.562C244.652 122.26 244.388 122.948 244.137 123.599L244.068 123.412C248.138 125.65 251.751 127.636 254.386 129.085C255.656 129.799 256.689 130.378 257.44 130.8C257.774 130.994 258.044 131.151 258.257 131.275C258.442 131.387 258.537 131.449 258.532 131.458Z" fill="#1A2E35"/>
</svg>
