<svg width="285" height="220" viewBox="0 0 285 220" fill="none" xmlns="http://www.w3.org/2000/svg">
<path fill-rule="evenodd" clip-rule="evenodd" d="M152.701 5.66147C184.109 5.66147 180.524 61.1669 203.198 78.0868C233.209 100.48 284.838 89.392 284.838 127.823C284.838 195.292 217.87 219.736 144.893 219.736C71.9146 219.736 9.64422 182.316 31.3733 115.026C53.1037 47.7353 79.7224 5.66147 152.701 5.66147Z" fill="#EEEEEE"/>
<path fill-rule="evenodd" clip-rule="evenodd" d="M119.522 190.665C160.251 190.665 193.272 192.475 193.272 194.705C193.272 196.935 160.251 198.743 119.522 198.743C78.7917 198.743 45.77 196.935 45.77 194.705C45.77 192.475 78.7917 190.665 119.522 190.665Z" fill="#708FA0"/>
<path fill-rule="evenodd" clip-rule="evenodd" d="M143.538 21.6987C136.144 21.8119 128.902 23.3587 121.818 26.3392C114.684 29.3414 107.692 33.8019 100.852 39.7167C99.9611 40.4842 98.6159 40.3819 97.8489 39.4894C97.0829 38.5969 97.1852 37.2508 98.0751 36.4833C105.254 30.2772 112.618 25.5835 120.162 22.4091C127.757 19.2151 135.53 17.5551 143.475 17.435C144.651 17.4173 145.62 18.358 145.638 19.5358C145.655 20.7117 144.716 21.682 143.538 21.6987ZM156.736 14.5962C157.88 14.8717 159.032 14.1652 159.307 13.0208C159.583 11.8764 158.879 10.7222 157.733 10.4467C150.02 8.57705 142.083 8.23658 133.928 9.43017C125.827 10.6139 117.522 13.314 109.018 17.5275C107.964 18.048 107.532 19.3263 108.052 20.3801C108.571 21.434 109.848 21.866 110.901 21.3454C119 17.3327 126.88 14.7654 134.533 13.6466C142.138 12.5347 149.54 12.8496 156.736 14.5962Z" fill="white"/>
<path fill-rule="evenodd" clip-rule="evenodd" d="M107.778 0.362635C145.562 29.9997 147.941 75.8089 105.927 109.123C67.4129 74.2965 68.0303 32.0445 107.778 0.362635Z" fill="#F29D00"/>
<path fill-rule="evenodd" clip-rule="evenodd" d="M109.076 5.85433C109.085 5.46368 108.776 5.13994 108.387 5.13109C107.997 5.12223 107.675 5.43022 107.666 5.82087L106.796 42.5979L88.3029 32.2954C87.9628 32.1065 87.5324 32.2285 87.3441 32.5699C87.1553 32.9094 87.278 33.3404 87.618 33.5293L106.758 44.1929L106.516 54.4059C106.413 54.5997 106.4 54.8369 106.501 55.0494L106.316 62.8811L84.0895 54.5948C83.7237 54.46 83.318 54.645 83.1821 55.01C83.0462 55.3751 83.2327 55.7815 83.597 55.9173L106.28 64.3728L106.063 73.5506C106.06 73.5821 106.06 73.6116 106.062 73.6421L105.841 82.9655L89.2139 77.4462C88.8447 77.3242 88.4466 77.525 88.3235 77.8949C88.2021 78.2639 88.4024 78.6634 88.7721 78.7855L105.805 84.4385L105.222 109.107C105.213 109.497 105.521 109.82 105.911 109.83C106.301 109.839 106.623 109.531 106.633 109.14L107.025 92.5526L119.874 87.2941C120.235 87.1465 120.408 86.7352 120.262 86.376C120.115 86.0149 119.704 85.8417 119.343 85.9874L107.061 91.0146L107.461 74.1174L130.329 66.0417C130.697 65.9108 130.89 65.5074 130.76 65.1384C130.631 64.7713 130.226 64.5775 129.859 64.7074L107.496 72.605L107.701 63.9221L107.703 63.8867L107.91 55.1449L130.037 43.9883C130.385 43.8141 130.524 43.389 130.35 43.0407C130.174 42.6913 129.748 42.5516 129.401 42.7278L107.947 53.5439L108.177 43.8259L108.178 43.7767L108.424 33.3876L123.737 23.2898C124.063 23.0753 124.153 22.6384 123.941 22.3137C123.726 21.987 123.289 21.8975 122.964 22.111L108.464 31.6715L109.076 5.85433Z" fill="white"/>
<path fill-rule="evenodd" clip-rule="evenodd" d="M40.1014 23.5486C88.1027 24.4087 117.593 59.5266 104.133 111.451C52.4236 106.889 27.4673 72.8028 40.1014 23.5486Z" fill="#299BCC"/>
<path fill-rule="evenodd" clip-rule="evenodd" d="M44.4442 27.1481C44.2167 26.8313 43.7762 26.7584 43.4607 26.9857C43.1437 27.214 43.0718 27.6549 43.2993 27.9717L64.7565 57.843L43.7954 60.7753C43.41 60.8294 43.1415 61.1866 43.1958 61.5714C43.25 61.9581 43.6066 62.2277 43.9919 62.1736L65.6871 59.1389L71.647 67.435C71.6807 67.6505 71.8134 67.8483 72.0218 67.9556L76.5904 74.3161L53.8651 81.1116C53.4918 81.2228 53.2796 81.6164 53.3905 81.9884C53.5031 82.3623 53.8961 82.5749 54.2682 82.4627L77.4618 75.5284L82.8165 82.9832C82.8321 83.0098 82.8502 83.0344 82.8694 83.058L88.308 90.6289L71.7181 96.2544C71.3497 96.3794 71.1518 96.7809 71.2772 97.1489C71.4026 97.5179 71.802 97.7147 72.1704 97.5897L89.1689 91.8274L103.56 111.863C103.789 112.179 104.229 112.251 104.546 112.024C104.861 111.797 104.933 111.356 104.706 111.038L95.028 97.5661L102.114 85.6203C102.314 85.2858 102.203 84.8518 101.87 84.6531C101.536 84.4533 101.102 84.5635 100.903 84.8991L94.1303 96.3164L84.2719 82.5926L97.6555 62.3556C97.8709 62.0299 97.7824 61.5911 97.4559 61.3756C97.1314 61.1601 96.6928 61.2496 96.4775 61.5743L83.3901 81.3636L78.324 74.3112L78.303 74.2827L73.2032 67.1821L84.1402 44.9349C84.3121 44.5865 84.167 44.1615 83.8182 43.9902C83.4677 43.818 83.0454 43.9627 82.8736 44.312L72.2684 65.8823L66.5986 57.9886L66.5699 57.9493L60.5084 49.5115L66.6465 32.2167C66.7769 31.8506 66.5854 31.4472 66.2197 31.3163C65.8526 31.1855 65.4497 31.3773 65.3188 31.7434L59.5081 48.1181L44.4442 27.1481Z" fill="white"/>
<path fill-rule="evenodd" clip-rule="evenodd" d="M0.0644531 82.8671C38.885 54.6017 83.5696 64.8392 104.103 114.39C60.0933 141.937 19.6505 129.79 0.0644531 82.8671Z" fill="#F29D00"/>
<path fill-rule="evenodd" clip-rule="evenodd" d="M5.69805 83.12C5.32596 83.0049 4.93017 83.2135 4.81532 83.5844C4.70043 83.9574 4.90834 84.353 5.28033 84.4681L40.3945 95.3619L25.4341 110.344C25.1587 110.621 25.1601 111.069 25.4354 111.342C25.7109 111.618 26.1577 111.618 26.4331 111.341L41.917 95.8352L51.6689 98.8601C51.8253 99.0136 52.0515 99.0903 52.2813 99.051L59.7598 101.371L45.7169 120.499C45.4871 120.813 45.554 121.255 45.8682 121.485C46.1824 121.715 46.6228 121.649 46.8545 121.334L61.1838 101.813L69.9468 104.532C69.9755 104.543 70.0052 104.552 70.0348 104.557L78.9346 107.32L69.0837 121.815C68.8653 122.137 68.9492 122.575 69.271 122.794C69.593 123.012 70.0312 122.929 70.2496 122.606L80.3422 107.756L103.895 115.064C104.267 115.179 104.661 114.97 104.776 114.599C104.892 114.227 104.685 113.831 104.312 113.716L88.4745 108.802L86.9339 94.9959C86.891 94.6092 86.5436 94.3297 86.156 94.373C85.7694 94.4153 85.4903 94.7627 85.5327 95.1494L87.0064 108.347L70.8738 103.342L69.3641 79.121C69.3395 78.7323 69.0048 78.4352 68.6146 78.4588C68.2256 78.4834 67.9292 78.818 67.9539 79.2086L69.4298 102.893L61.1387 100.32L61.1049 100.31L52.7595 97.7206L48.086 73.3725C48.0121 72.9897 47.6428 72.7388 47.2602 72.8126C46.8777 72.8864 46.6269 73.2564 46.7004 73.6401L51.2307 97.2463L41.9521 94.3681L41.9055 94.3533L31.9857 91.2764L26.4668 73.7749C26.3505 73.404 25.9548 73.1964 25.5841 73.3125C25.213 73.4305 25.0064 73.8261 25.1227 74.1971L30.348 90.7676L5.69805 83.12Z" fill="white"/>
<path fill-rule="evenodd" clip-rule="evenodd" d="M220.482 209.549C238.816 209.549 253.679 211.357 253.679 213.589C253.679 215.819 238.816 217.628 220.482 217.628C202.148 217.628 187.284 215.819 187.284 213.589C187.284 211.357 202.148 209.549 220.482 209.549Z" fill="#708FA0"/>
<path fill-rule="evenodd" clip-rule="evenodd" d="M241.513 124.501C240.961 123.789 240.206 123.251 239.449 122.778C239.249 122.653 238.957 122.738 238.845 122.945C238.259 124.038 237.717 125.158 237.046 126.203C236.826 126.547 236.51 127.003 236.23 127.207C236.211 127.219 236.14 127.253 236.108 127.271C236.104 127.266 236.1 127.259 236.093 127.252C236.039 127.171 236.008 127.082 235.977 126.989C235.454 125.382 236.088 123.66 235.676 122.042C235.458 121.185 234.915 120.294 234.298 119.67C233.629 118.991 232.73 118.675 232.313 117.759C232.25 117.621 232.137 117.556 232.013 117.544H231.931C231.78 117.557 231.629 117.641 231.545 117.763C230.579 119.155 229.226 120.59 228.97 122.329C228.741 123.872 229.575 125.16 230.463 126.332C230.894 126.899 231.318 127.477 231.652 128.106C231.836 128.454 232.154 129.081 231.819 129.421C231.469 129.776 230.936 129.142 230.66 128.855C230.093 128.269 229.613 127.6 229.12 126.952C228.308 125.879 227.021 124.246 225.49 124.542C224.815 124.673 224.54 125.37 224.505 125.978C224.448 126.944 224.921 127.984 225.395 128.793C226.474 130.632 228.658 131.166 230.063 132.651C230.387 132.991 231.271 134.158 230.763 134.638C230.586 134.806 230.173 134.751 229.964 134.717C229.448 134.638 228.884 134.448 228.469 134.129C226.889 132.906 226.313 130.782 224.654 129.623C223.926 129.116 222.804 128.804 221.929 129.014C221.188 129.19 220.846 129.888 220.814 130.593C220.774 131.445 221.161 132.326 221.591 133.038C222.088 133.862 222.771 134.552 223.606 135.029C225.279 135.98 227.396 136.102 228.509 137.854C228.662 138.094 228.826 138.407 228.752 138.698C228.695 138.925 228.374 138.997 228.183 139.04C227.326 139.229 226.199 138.912 225.445 138.509C224.536 138.024 223.873 137.147 223.175 136.414C222.437 135.638 221.615 135.007 220.581 134.691C219.829 134.464 218.906 134.502 218.422 135.202C217.977 135.848 218.068 136.715 218.249 137.431C218.488 138.378 219.006 139.257 219.64 139.992C220.325 140.788 221.406 141.238 222.374 141.564C223.38 141.902 224.428 142.108 225.423 142.484C225.685 142.582 225.891 142.653 226.179 142.674C226.487 142.696 226.798 142.681 227.099 142.759C227.352 142.824 227.184 143.093 227.097 143.277C226.892 143.721 226.232 143.701 225.815 143.734C225.42 143.766 225.031 143.865 224.635 143.867C224.183 143.871 223.73 143.788 223.284 143.718C222.398 143.583 221.461 143.426 220.585 143.693C219.738 143.95 219.141 144.748 218.989 145.605C218.671 147.403 220.676 148.498 222.167 148.727C223.122 148.873 223.988 148.665 224.827 148.189C225.86 147.604 226.676 146.759 227.869 146.614C227.947 147.092 227.776 147.475 227.352 147.833C226.768 148.328 225.961 148.592 225.255 148.855C223.866 149.371 221.834 149.83 221.089 151.27C220.999 151.444 221.017 151.661 221.164 151.803C221.823 152.432 222.581 152.925 223.507 153C224.275 153.061 225.025 152.704 225.646 152.291C226.76 151.552 227.718 150.403 228.97 149.884C228.798 150.201 228.509 150.416 228.158 150.689C227.533 151.173 227.213 151.847 227.039 152.606C226.779 153.755 227.177 154.998 228.524 155.005C229.26 155.009 229.998 154.639 230.612 154.269C231.314 153.847 231.876 153.234 232.313 152.547C232.855 151.696 233.154 150.714 233.323 149.708C234.449 151.906 236.896 154.202 239.206 152.303C241.179 150.678 237.929 149.434 236.646 148.156C236.898 148.26 237.144 148.391 237.378 148.51C238.048 148.853 238.699 149.234 239.397 149.517C240.701 150.05 242.163 149.999 242.942 148.655C243.616 147.498 242.221 146.961 241.363 146.702C240.665 146.492 239.357 146.267 238.85 145.564C240.573 145.752 242.492 145.965 243.976 144.971C244.651 144.519 245.46 143.649 245.54 142.801C245.606 142.108 244.856 141.862 244.317 141.808C242.846 141.664 241.416 142.311 239.943 142.265C239.587 142.253 239.237 142.216 238.891 142.138C238.761 142.11 238.628 142.073 238.508 142.018C238.461 141.998 238.414 141.958 238.382 141.934C238.39 141.914 238.402 141.889 238.423 141.864C238.554 141.712 238.724 141.598 238.891 141.488C239.268 141.24 239.664 141.096 240.113 141.048C240.969 140.958 241.824 141.065 242.678 140.916C243.639 140.75 244.418 140.193 245.051 139.476C245.616 138.841 246.158 138.035 246.247 137.168C246.34 136.272 245.798 135.666 244.997 135.361C242.763 134.503 241.453 136.815 239.858 137.864C239.436 138.142 238.933 138.325 238.452 138.473C238.255 138.534 237.679 138.732 237.489 138.579C237.375 138.486 237.755 137.879 237.827 137.762C238.148 137.242 238.557 136.88 239.084 136.577C240.418 135.813 242.045 135.576 243.096 134.368C243.787 133.577 244.33 132.234 243.655 131.268C242.938 130.244 241.343 130.52 240.442 131.117C239.31 131.865 238.738 133.385 237.375 133.747C237.256 133.1 237.509 132.506 237.944 131.93C238.58 131.09 239.401 130.4 240.155 129.671C240.88 128.973 241.622 128.214 242 127.262C242.386 126.291 242.139 125.308 241.513 124.501Z" fill="#05223D"/>
<path fill-rule="evenodd" clip-rule="evenodd" d="M275.208 155.623C275.424 154.747 275.379 153.821 275.283 152.934C275.257 152.699 275.008 152.522 274.778 152.563C273.557 152.777 272.343 153.046 271.107 153.164C270.7 153.204 270.147 153.238 269.814 153.143C269.794 153.136 269.722 153.102 269.689 153.088C269.691 153.081 269.692 153.074 269.695 153.065C269.725 152.971 269.775 152.892 269.829 152.812C270.766 151.404 272.51 150.839 273.526 149.511C274.063 148.811 274.427 147.833 274.536 146.961C274.654 146.014 274.346 145.113 274.807 144.219C274.975 143.893 274.627 143.6 274.329 143.616C272.639 143.719 270.675 143.544 269.15 144.418C267.797 145.195 267.301 146.647 266.933 148.07C266.753 148.76 266.564 149.449 266.275 150.103C266.118 150.461 265.822 151.099 265.347 151.047C264.851 150.992 265.019 150.181 265.074 149.786C265.182 148.976 265.41 148.186 265.616 147.398C265.955 146.093 266.44 144.072 265.26 143.052C264.74 142.603 264.023 142.82 263.522 143.168C262.729 143.722 262.206 144.735 261.864 145.61C261.087 147.597 262.021 149.642 261.726 151.664C261.659 152.131 261.289 153.55 260.598 153.446C260.357 153.41 260.145 153.052 260.04 152.868C259.784 152.412 259.583 151.851 259.578 151.326C259.559 149.328 260.871 147.561 260.754 145.54C260.702 144.653 260.253 143.579 259.547 143.02C258.95 142.549 258.19 142.71 257.616 143.121C256.921 143.616 256.471 144.467 256.178 145.247C255.837 146.148 255.718 147.11 255.862 148.062C256.15 149.967 257.366 151.706 256.679 153.666C256.585 153.933 256.441 154.256 256.166 154.377C255.953 154.473 255.698 154.265 255.546 154.141C254.868 153.585 254.419 152.502 254.268 151.662C254.086 150.647 254.364 149.583 254.509 148.581C254.66 147.52 254.647 146.483 254.254 145.475C253.97 144.743 253.368 144.041 252.517 144.095C251.737 144.145 251.112 144.751 250.661 145.337C250.065 146.113 249.695 147.062 249.511 148.017C249.312 149.048 249.626 150.175 249.97 151.137C250.328 152.139 250.815 153.088 251.135 154.103C251.22 154.37 251.29 154.575 251.454 154.814C251.627 155.069 251.83 155.306 251.956 155.591C252.062 155.831 251.747 155.863 251.549 155.91C251.073 156.024 250.679 155.492 250.396 155.186C250.127 154.895 249.809 154.649 249.561 154.343C249.278 153.987 249.063 153.578 248.841 153.187C248.399 152.406 247.943 151.574 247.191 151.049C246.464 150.543 245.469 150.567 244.704 150.979C243.096 151.841 243.477 154.094 244.22 155.408C244.696 156.248 245.395 156.8 246.287 157.166C247.386 157.618 248.553 157.734 249.406 158.584C249.079 158.937 248.673 159.041 248.129 158.93C247.381 158.778 246.671 158.305 246.029 157.915C244.765 157.141 243.146 155.829 241.556 156.134C241.363 156.171 241.202 156.32 241.183 156.524C241.098 157.431 241.179 158.333 241.694 159.104C242.122 159.748 242.865 160.115 243.574 160.347C244.844 160.765 246.337 160.81 247.52 161.47C247.165 161.531 246.817 161.439 246.387 161.33C245.619 161.139 244.892 161.306 244.19 161.638C243.125 162.144 242.395 163.225 243.225 164.29C243.677 164.872 244.425 165.221 245.094 165.476C245.86 165.767 246.689 165.829 247.499 165.747C248.502 165.647 249.459 165.274 250.35 164.785C249.325 167.03 249.037 170.373 251.957 171.014C254.452 171.56 253.418 168.236 253.626 166.435C253.701 166.699 253.753 166.973 253.803 167.229C253.947 167.969 254.053 168.715 254.26 169.441C254.65 170.793 255.595 171.912 257.132 171.694C258.457 171.507 258.016 170.077 257.687 169.245C257.42 168.564 256.788 167.398 257.026 166.563C257.944 168.035 258.963 169.675 260.665 170.227C261.436 170.476 262.619 170.574 263.336 170.112C263.92 169.735 263.649 168.994 263.357 168.536C262.56 167.291 261.167 166.567 260.291 165.38C260.08 165.094 259.893 164.795 259.739 164.476C259.682 164.356 259.628 164.23 259.596 164.101C259.584 164.053 259.587 163.989 259.586 163.95C259.607 163.945 259.632 163.938 259.665 163.939C259.866 163.947 260.061 164.012 260.25 164.074C260.679 164.217 261.037 164.439 261.353 164.761C261.954 165.38 262.399 166.117 263.044 166.698C263.769 167.348 264.688 167.616 265.642 167.672C266.49 167.72 267.459 167.649 268.195 167.183C268.956 166.702 269.096 165.899 268.841 165.081C268.129 162.794 265.505 163.197 263.694 162.592C263.214 162.431 262.76 162.149 262.346 161.865C262.177 161.747 261.664 161.416 261.667 161.172C261.668 161.025 262.38 160.947 262.515 160.931C263.124 160.862 263.662 160.959 264.225 161.188C265.651 161.762 266.844 162.896 268.442 162.973C269.491 163.027 270.881 162.622 271.222 161.494C271.583 160.297 270.378 159.215 269.351 158.874C268.063 158.448 266.517 158.937 265.389 158.092C265.823 157.599 266.446 157.429 267.167 157.416C268.221 157.394 269.271 157.613 270.311 157.754C271.305 157.893 272.361 158.006 273.34 157.714C274.343 157.416 274.961 156.613 275.208 155.623Z" fill="#05223D"/>
<path fill-rule="evenodd" clip-rule="evenodd" d="M215.325 131.267C214.486 130.94 213.562 130.869 212.67 130.853C212.432 130.849 212.226 131.072 212.238 131.306C212.297 132.545 212.407 133.786 212.37 135.028C212.357 135.435 212.322 135.99 212.185 136.308C212.176 136.328 212.132 136.394 212.114 136.424C212.107 136.422 212.102 136.42 212.092 136.417C212.004 136.374 211.931 136.315 211.857 136.25C210.582 135.142 210.241 133.338 209.056 132.165C208.428 131.541 207.503 131.057 206.654 130.837C205.731 130.6 204.798 130.792 203.97 130.223C203.667 130.014 203.333 130.322 203.313 130.621C203.199 132.311 202.779 134.239 203.452 135.863C204.05 137.304 205.427 137.979 206.792 138.525C207.452 138.79 208.113 139.067 208.723 139.434C209.059 139.637 209.655 140.012 209.542 140.476C209.426 140.961 208.642 140.691 208.257 140.588C207.469 140.377 206.714 140.051 205.959 139.747C204.71 139.248 202.767 138.509 201.606 139.552C201.096 140.011 201.219 140.751 201.5 141.291C201.949 142.149 202.889 142.796 203.713 143.246C205.582 144.268 207.729 143.602 209.697 144.15C210.15 144.276 211.509 144.823 211.321 145.495C211.255 145.729 210.872 145.893 210.676 145.975C210.192 146.171 209.611 146.299 209.09 146.237C207.107 146.004 205.52 144.477 203.502 144.339C202.617 144.278 201.495 144.589 200.853 145.219C200.307 145.752 200.373 146.527 200.708 147.148C201.112 147.9 201.897 148.455 202.632 148.844C203.482 149.296 204.422 149.535 205.382 149.513C207.309 149.469 209.186 148.481 211.042 149.412C211.295 149.539 211.596 149.722 211.683 150.011C211.75 150.234 211.512 150.461 211.37 150.595C210.731 151.2 209.603 151.507 208.751 151.551C207.721 151.603 206.702 151.193 205.726 150.922C204.694 150.637 203.664 150.52 202.615 150.782C201.854 150.973 201.081 151.481 201.027 152.332C200.977 153.113 201.5 153.81 202.025 154.331C202.718 155.022 203.612 155.508 204.534 155.813C205.532 156.141 206.688 155.971 207.685 155.752C208.724 155.524 209.727 155.16 210.774 154.971C211.05 154.92 211.263 154.875 211.519 154.744C211.795 154.604 212.054 154.431 212.352 154.344C212.604 154.269 212.596 154.584 212.618 154.789C212.67 155.276 212.094 155.599 211.753 155.842C211.43 156.072 211.149 156.357 210.811 156.562C210.423 156.8 209.991 156.96 209.574 157.131C208.746 157.471 207.863 157.819 207.248 158.499C206.655 159.157 206.553 160.147 206.861 160.959C207.513 162.664 209.797 162.569 211.193 161.999C212.087 161.633 212.721 161.008 213.197 160.17C213.782 159.136 214.047 157.993 214.996 157.253C215.307 157.623 215.358 158.039 215.178 158.565C214.932 159.288 214.376 159.934 213.906 160.52C212.98 161.679 211.474 163.118 211.575 164.735C211.586 164.933 211.715 165.11 211.914 165.155C212.803 165.356 213.706 165.388 214.539 164.975C215.229 164.631 215.688 163.939 216.008 163.264C216.584 162.058 216.815 160.578 217.62 159.491C217.636 159.85 217.498 160.185 217.339 160.597C217.052 161.336 217.123 162.079 217.365 162.818C217.732 163.938 218.712 164.8 219.871 164.11C220.504 163.736 220.947 163.037 221.283 162.406C221.669 161.683 221.835 160.867 221.857 160.053C221.883 159.044 221.634 158.047 221.262 157.1C223.359 158.403 226.637 159.111 227.641 156.294C228.499 153.886 225.071 154.492 223.314 154.057C223.585 154.015 223.861 154 224.124 153.983C224.874 153.933 225.628 153.924 226.375 153.807C227.765 153.592 228.991 152.795 228.971 151.242C228.953 149.905 227.48 150.161 226.612 150.381C225.905 150.562 224.668 151.04 223.872 150.698C225.445 149.974 227.2 149.169 227.962 147.551C228.308 146.816 228.555 145.654 228.188 144.885C227.887 144.257 227.118 144.432 226.627 144.663C225.292 145.297 224.399 146.589 223.112 147.308C222.802 147.479 222.482 147.629 222.145 147.741C222.019 147.783 221.887 147.82 221.755 147.836C221.706 147.841 221.644 147.832 221.603 147.828C221.601 147.806 221.599 147.781 221.603 147.746C221.637 147.547 221.724 147.363 221.811 147.182C222.007 146.775 222.271 146.448 222.632 146.175C223.319 145.659 224.108 145.31 224.765 144.742C225.501 144.106 225.884 143.227 226.06 142.286C226.215 141.451 226.266 140.479 225.898 139.691C225.517 138.873 224.739 138.633 223.897 138.782C221.539 139.2 221.606 141.857 220.777 143.578C220.558 144.032 220.221 144.45 219.885 144.824C219.747 144.976 219.355 145.444 219.113 145.411C218.968 145.389 218.981 144.673 218.982 144.536C218.99 143.923 219.155 143.402 219.451 142.871C220.202 141.531 221.476 140.489 221.757 138.914C221.941 137.877 221.716 136.447 220.641 135.966C219.499 135.457 218.276 136.517 217.809 137.491C217.222 138.716 217.514 140.312 216.53 141.325C216.096 140.833 216.007 140.193 216.085 139.475C216.198 138.426 216.547 137.411 216.82 136.399C217.081 135.427 217.328 134.394 217.163 133.385C216.994 132.353 216.277 131.638 215.325 131.267Z" fill="#05223D"/>
<path fill-rule="evenodd" clip-rule="evenodd" d="M258.226 143.446C258.104 142.554 257.721 141.71 257.304 140.92C257.193 140.711 256.897 140.64 256.698 140.763C255.644 141.414 254.612 142.11 253.508 142.678C253.144 142.864 252.642 143.101 252.298 143.133C252.277 143.137 252.198 143.13 252.162 143.129C252.161 143.122 252.159 143.116 252.159 143.106C252.153 143.009 252.168 142.916 252.19 142.82C252.543 141.167 253.954 139.997 254.409 138.389C254.649 137.538 254.628 136.495 254.408 135.645C254.169 134.72 253.55 133.999 253.647 132.996C253.683 132.631 253.252 132.487 252.981 132.614C251.448 133.333 249.558 133.896 248.464 135.271C247.492 136.49 247.567 138.024 247.75 139.485C247.838 140.189 247.916 140.902 247.888 141.615C247.873 142.008 247.834 142.71 247.374 142.836C246.892 142.969 246.75 142.152 246.654 141.764C246.457 140.973 246.378 140.155 246.278 139.345C246.111 138.009 245.816 135.951 244.343 135.437C243.696 135.214 243.108 135.678 242.772 136.186C242.239 136.994 242.127 138.13 242.132 139.069C242.142 141.203 243.764 142.759 244.236 144.747C244.345 145.205 244.524 146.66 243.845 146.82C243.608 146.874 243.278 146.619 243.114 146.487C242.707 146.158 242.313 145.712 242.115 145.225C241.362 143.376 241.929 141.249 241.074 139.415C240.699 138.609 239.886 137.777 239.023 137.517C238.294 137.299 237.647 137.731 237.265 138.324C236.803 139.043 236.699 139.998 236.712 140.831C236.728 141.795 236.974 142.732 237.457 143.564C238.427 145.228 240.199 146.395 240.282 148.469C240.294 148.754 240.28 149.107 240.069 149.323C239.906 149.49 239.594 149.39 239.406 149.33C238.57 149.065 237.755 148.225 237.304 147.499C236.759 146.622 236.626 145.532 236.391 144.545C236.14 143.504 235.746 142.545 235.009 141.755C234.473 141.18 233.657 140.748 232.885 141.111C232.178 141.446 231.822 142.242 231.619 142.953C231.351 143.895 231.358 144.912 231.537 145.866C231.733 146.899 232.441 147.831 233.115 148.597C233.817 149.395 234.62 150.099 235.292 150.924C235.469 151.144 235.611 151.305 235.85 151.469C236.106 151.642 236.381 151.785 236.604 152.003C236.79 152.188 236.51 152.336 236.343 152.452C235.941 152.732 235.38 152.385 235.004 152.204C234.647 152.032 234.259 151.924 233.917 151.727C233.524 151.504 233.173 151.202 232.822 150.919C232.124 150.358 231.392 149.753 230.501 149.543C229.638 149.341 228.722 149.73 228.161 150.395C226.985 151.789 228.172 153.744 229.345 154.69C230.099 155.297 230.952 155.55 231.915 155.562C233.104 155.575 234.23 155.251 235.338 155.726C235.164 156.178 234.825 156.425 234.279 156.52C233.525 156.655 232.693 156.479 231.952 156.352C230.492 156.1 228.504 155.478 227.14 156.348C226.973 156.455 226.878 156.653 226.935 156.849C227.19 157.725 227.598 158.532 228.362 159.059C228.996 159.499 229.822 159.566 230.568 159.522C231.902 159.441 233.307 158.928 234.649 159.106C234.341 159.293 233.984 159.336 233.544 159.396C232.76 159.502 232.145 159.923 231.616 160.492C230.812 161.355 230.534 162.632 231.696 163.315C232.331 163.686 233.156 163.736 233.872 163.725C234.692 163.715 235.484 163.465 236.206 163.09C237.102 162.625 237.854 161.927 238.502 161.141C238.376 163.605 239.343 166.821 242.292 166.337C244.812 165.925 242.625 163.217 242.155 161.468C242.321 161.684 242.47 161.918 242.612 162.14C243.02 162.774 243.392 163.428 243.853 164.024C244.714 165.139 246.005 165.829 247.354 165.061C248.515 164.395 247.578 163.231 246.966 162.577C246.467 162.045 245.449 161.193 245.363 160.331C246.759 161.359 248.311 162.505 250.095 162.391C250.904 162.338 252.04 161.993 252.535 161.298C252.939 160.732 252.414 160.144 251.974 159.827C250.775 158.964 249.213 158.804 247.961 158.025C247.66 157.837 247.376 157.627 247.114 157.388C247.018 157.298 246.92 157.2 246.843 157.093C246.813 157.052 246.793 156.993 246.777 156.955C246.794 156.942 246.817 156.928 246.848 156.916C247.038 156.849 247.242 156.836 247.442 156.826C247.893 156.8 248.306 156.872 248.72 157.059C249.506 157.411 250.192 157.934 251.004 158.232C251.919 158.569 252.872 158.48 253.778 158.178C254.585 157.911 255.46 157.486 255.972 156.782C256.5 156.052 256.335 155.254 255.797 154.588C254.291 152.727 252.001 154.07 250.095 154.176C249.59 154.204 249.063 154.111 248.573 153.998C248.373 153.95 247.775 153.831 247.686 153.605C247.634 153.468 248.268 153.132 248.388 153.068C248.927 152.779 249.462 152.67 250.072 152.674C251.608 152.683 253.135 153.295 254.648 152.777C255.644 152.439 256.786 151.55 256.687 150.376C256.581 149.131 255.061 148.569 253.983 148.633C252.628 148.712 251.372 149.74 250.011 149.367C250.233 148.75 250.749 148.36 251.414 148.083C252.387 147.675 253.443 147.489 254.461 147.238C255.436 146.997 256.46 146.713 257.261 146.082C258.083 145.434 258.361 144.46 258.226 143.446Z" fill="#C0DBEA"/>
<path fill-rule="evenodd" clip-rule="evenodd" d="M251.698 134.891C251.185 137.115 250.743 139.357 250.104 141.55C249.448 143.801 248.516 145.883 247.23 147.847C244.577 151.898 241.201 155.411 238.467 159.406C238.353 159.572 238.374 159.733 238.464 159.853C237.937 160.849 237.631 161.981 237.412 163.064C237.029 164.948 236.913 166.883 236.836 168.804C236.744 171.149 236.762 173.481 236.871 175.827C236.998 178.581 237.181 181.34 237.065 184.098C237.058 184.259 237.049 184.419 237.04 184.578C237.008 185.15 237.893 185.146 237.925 184.578C238.076 181.885 237.919 179.189 237.787 176.498C237.67 174.099 237.617 171.71 237.703 169.311C237.77 167.455 237.862 165.593 238.178 163.761C238.467 162.095 238.928 160.208 240.185 158.989C240.364 158.816 240.346 158.598 240.233 158.442C242.788 154.969 245.716 151.777 248.081 148.161C249.347 146.228 250.25 144.139 250.914 141.928C251.586 139.694 252.028 137.398 252.551 135.124C252.678 134.57 251.825 134.334 251.698 134.891Z" fill="#C0DBEA"/>
<path fill-rule="evenodd" clip-rule="evenodd" d="M237.26 184.712C236.781 180.407 234.801 176.555 232.751 172.809C230.718 169.097 228.576 165.333 227.952 161.08C227.869 160.518 227.018 160.759 227.099 161.317C228.344 169.801 235.42 176.145 236.376 184.712C236.438 185.273 237.324 185.278 237.26 184.712Z" fill="#C0DBEA"/>
<path fill-rule="evenodd" clip-rule="evenodd" d="M250.268 164.536C246.481 166.189 242.772 168.72 240.231 172.017C238.843 173.813 238.028 175.859 237.517 178.003C237.324 175.768 236.913 173.555 236.486 171.355C235.489 166.222 234.722 161.064 234.239 155.854C234.048 153.787 233.905 151.716 233.81 149.642C233.784 149.074 232.898 149.073 232.925 149.642C233.189 155.398 233.851 161.124 234.744 166.814C235.348 170.664 236.367 174.466 236.662 178.356C236.329 176.253 235.828 174.177 235.183 172.154C234.259 169.262 233.017 166.451 231.406 163.873C231.414 163.764 231.383 163.647 231.29 163.542C231.181 163.42 231.07 163.299 230.958 163.18C230.559 162.579 230.139 161.991 229.697 161.417C229.501 161.162 229.217 161.255 229.069 161.46C228.392 160.942 227.668 160.478 226.889 160.074C225.07 159.133 222.807 158.523 221.935 156.458C221.714 155.936 220.951 156.388 221.17 156.907C222.036 158.956 224.151 159.718 225.998 160.617C227.656 161.424 229.057 162.46 230.31 163.782C232.076 166.476 233.396 169.467 234.372 172.527C235.557 176.242 236.236 180.145 236.244 184.047C236.244 184.069 236.245 184.088 236.247 184.109C236.186 184.397 236.416 184.587 236.657 184.607C236.775 185.008 237.486 184.952 237.527 184.445C237.85 180.258 238.326 175.862 241.007 172.447C243.483 169.295 247.069 166.893 250.714 165.301C251.236 165.073 250.785 164.31 250.268 164.536Z" fill="#05223D"/>
<path fill-rule="evenodd" clip-rule="evenodd" d="M223.788 134.797C222.985 134.388 222.074 134.228 221.188 134.126C220.952 134.099 220.724 134.302 220.713 134.535C220.653 135.774 220.643 137.021 220.485 138.253C220.434 138.658 220.345 139.207 220.178 139.508C220.168 139.528 220.117 139.59 220.097 139.619C220.09 139.615 220.084 139.612 220.075 139.608C219.992 139.557 219.925 139.49 219.857 139.421C218.696 138.193 218.53 136.367 217.464 135.08C216.897 134.401 216.026 133.829 215.2 133.53C214.303 133.204 213.357 133.306 212.588 132.658C212.308 132.421 211.946 132.696 211.897 132.992C211.621 134.662 211.015 136.541 211.528 138.222C211.985 139.715 213.29 140.52 214.595 141.195C215.228 141.523 215.859 141.862 216.431 142.287C216.745 142.521 217.302 142.952 217.146 143.402C216.982 143.875 216.229 143.53 215.856 143.39C215.092 143.104 214.371 142.706 213.648 142.331C212.454 141.712 210.592 140.79 209.335 141.715C208.782 142.123 208.834 142.871 209.062 143.435C209.426 144.334 210.298 145.069 211.075 145.597C212.838 146.795 215.039 146.337 216.944 147.072C217.382 147.242 218.684 147.917 218.43 148.569C218.343 148.797 217.946 148.924 217.742 148.984C217.242 149.133 216.65 149.204 216.139 149.093C214.187 148.668 212.756 146.996 210.761 146.663C209.884 146.516 208.739 146.718 208.037 147.282C207.445 147.761 207.436 148.539 207.708 149.19C208.037 149.976 208.765 150.605 209.459 151.064C210.262 151.596 211.174 151.925 212.132 151.995C214.054 152.138 216.017 151.337 217.774 152.442C218.014 152.591 218.298 152.805 218.356 153.1C218.401 153.327 218.142 153.53 217.988 153.65C217.295 154.191 216.14 154.389 215.29 154.349C214.259 154.303 213.284 153.796 212.338 153.431C211.339 153.048 210.326 152.83 209.257 152.991C208.48 153.108 207.663 153.537 207.526 154.38C207.4 155.152 207.855 155.898 208.327 156.467C208.949 157.22 209.792 157.792 210.681 158.182C211.641 158.607 212.81 158.55 213.824 158.427C214.879 158.301 215.911 158.035 216.972 157.947C217.252 157.926 217.468 157.901 217.736 157.795C218.023 157.683 218.299 157.536 218.603 157.476C218.861 157.426 218.824 157.74 218.825 157.944C218.83 158.433 218.225 158.701 217.863 158.91C217.519 159.106 217.21 159.365 216.855 159.536C216.448 159.733 216.002 159.853 215.569 159.983C214.712 160.24 213.8 160.503 213.122 161.119C212.468 161.716 212.271 162.692 212.501 163.531C212.985 165.291 215.267 165.419 216.71 164.984C217.636 164.706 218.327 164.146 218.882 163.358C219.565 162.385 219.938 161.271 220.954 160.628C221.229 161.026 221.239 161.445 221.011 161.951C220.693 162.649 220.078 163.235 219.553 163.774C218.521 164.837 216.882 166.125 216.826 167.743C216.82 167.941 216.93 168.131 217.123 168.195C217.988 168.479 218.886 168.6 219.754 168.267C220.474 167.994 220.997 167.351 221.381 166.71C222.07 165.565 222.443 164.116 223.35 163.109C223.33 163.469 223.162 163.788 222.962 164.184C222.606 164.891 222.607 165.636 222.776 166.395C223.031 167.546 223.925 168.499 225.145 167.925C225.81 167.612 226.319 166.961 226.715 166.364C227.169 165.682 227.413 164.886 227.512 164.078C227.635 163.077 227.485 162.06 227.207 161.08C229.167 162.58 232.362 163.601 233.633 160.896C234.718 158.581 231.249 158.854 229.542 158.251C229.815 158.237 230.093 158.248 230.354 158.255C231.106 158.278 231.858 158.342 232.61 158.299C234.016 158.219 235.315 157.544 235.443 155.995C235.554 154.662 234.064 154.774 233.179 154.912C232.458 155.022 231.179 155.378 230.421 154.962C232.058 154.391 233.88 153.76 234.796 152.224C235.212 151.527 235.569 150.394 235.278 149.592C235.04 148.939 234.257 149.037 233.746 149.222C232.355 149.724 231.342 150.923 229.991 151.514C229.667 151.657 229.334 151.771 228.987 151.851C228.859 151.881 228.724 151.906 228.59 151.908C228.54 151.909 228.481 151.893 228.441 151.885C228.44 151.865 228.44 151.838 228.449 151.805C228.501 151.611 228.606 151.434 228.71 151.263C228.943 150.878 229.238 150.577 229.625 150.341C230.359 149.892 231.176 149.621 231.884 149.12C232.68 148.556 233.145 147.72 233.41 146.802C233.646 145.984 233.792 145.022 233.501 144.201C233.199 143.352 232.449 143.038 231.596 143.105C229.21 143.293 229.018 145.942 228.029 147.574C227.765 148.007 227.39 148.388 227.021 148.729C226.867 148.868 226.432 149.296 226.195 149.239C226.052 149.204 226.134 148.491 226.148 148.357C226.216 147.748 226.431 147.244 226.777 146.744C227.655 145.482 229.023 144.569 229.452 143.027C229.737 142.014 229.651 140.569 228.626 139.986C227.541 139.368 226.218 140.304 225.661 141.23C224.959 142.393 225.094 144.01 224.02 144.923C223.635 144.39 223.607 143.746 223.754 143.039C223.967 142.006 224.412 141.028 224.782 140.047C225.136 139.106 225.482 138.101 225.415 137.081C225.346 136.037 224.702 135.256 223.788 134.797Z" fill="#299BCC"/>
<path fill-rule="evenodd" clip-rule="evenodd" d="M247.307 210.735H228.223L221.978 186.042H253.117L247.307 210.735Z" fill="#C0DBEA"/>
<path fill-rule="evenodd" clip-rule="evenodd" d="M219.896 186.042H254.766V182.833H219.896V186.042Z" fill="#05223D"/>
<path fill-rule="evenodd" clip-rule="evenodd" d="M237.547 186.042H221.978L228.223 210.735H237.547V186.042Z" fill="#05223D"/>
<path fill-rule="evenodd" clip-rule="evenodd" d="M219.896 186.042H237.548V182.833H219.896V186.042Z" fill="#8EB4CF"/>
<path fill-rule="evenodd" clip-rule="evenodd" d="M247.307 211.105H228.223L221.978 207.772H253.117L247.307 211.105Z" fill="#05223D"/>
<path fill-rule="evenodd" clip-rule="evenodd" d="M237.547 207.772H221.978L228.223 211.105H237.547V207.772Z" fill="#8EB4CF"/>
<path fill-rule="evenodd" clip-rule="evenodd" d="M66.2842 52.5235H183.735V190.723H66.2842V52.5235Z" fill="white"/>
<path fill-rule="evenodd" clip-rule="evenodd" d="M74.4979 55.5631H130.591C132.54 55.5631 134.135 57.1591 134.135 59.1094V59.1104C134.135 61.0607 132.54 62.6557 130.591 62.6557H74.4979C72.5487 62.6557 70.9551 61.0607 70.9551 59.1104V59.1094C70.9551 57.1591 72.5487 55.5631 74.4979 55.5631Z" fill="#E1E1E1"/>
<path fill-rule="evenodd" clip-rule="evenodd" d="M174.839 62.7059C176.819 62.7059 178.433 61.0892 178.433 59.1074C178.433 57.1266 176.819 55.5109 174.839 55.5109C172.859 55.5109 171.245 57.1266 171.245 59.1074C171.245 61.0892 172.859 62.7059 174.839 62.7059Z" fill="#2D9BCC"/>
<path fill-rule="evenodd" clip-rule="evenodd" d="M75.3589 77.6519H129.224V88.3922H75.3589V77.6519Z" fill="#E1E1E1"/>
<path fill-rule="evenodd" clip-rule="evenodd" d="M75.3262 101.391H129.193V103.696H75.3262V101.391ZM75.3262 106.489H129.193V108.794H75.3262V106.489ZM75.3262 111.585H129.193V113.891H75.3262V111.585ZM75.3262 116.683H129.193V118.988H75.3262V116.683ZM75.3262 121.78H129.193V124.085H75.3262V121.78ZM75.3262 96.2948H129.193V98.5993H75.3262V96.2948Z" fill="#E1E1E1"/>
<path fill-rule="evenodd" clip-rule="evenodd" d="M75.3262 133.174H129.193V161.717H75.3262V133.174Z" fill="#E1E1E1"/>
<path fill-rule="evenodd" clip-rule="evenodd" d="M75.3262 169.866H129.193V182.111H75.3262V169.866Z" fill="#E1E1E1"/>
<path fill-rule="evenodd" clip-rule="evenodd" d="M173.716 92.5378C173.78 101.562 166.523 108.93 157.504 108.995C148.487 109.059 141.124 101.796 141.06 92.772C140.996 83.7488 148.253 76.3806 157.272 76.3156C166.29 76.2517 173.651 83.5146 173.716 92.5378Z" fill="#299BCC"/>
<path fill-rule="evenodd" clip-rule="evenodd" d="M161.984 84.9217C162.003 87.4939 159.936 89.5908 157.366 89.6105C154.798 89.6282 152.7 87.5608 152.682 84.9896C152.664 82.4194 154.732 80.3195 157.3 80.3018C159.87 80.2821 161.966 82.3525 161.984 84.9217Z" fill="white"/>
<path fill-rule="evenodd" clip-rule="evenodd" d="M157.378 91.2026C152.612 91.236 148.778 95.1307 148.811 99.8992C148.82 101.15 149.842 102.157 151.092 102.149L163.821 102.057C165.071 102.048 166.079 101.027 166.07 99.7752C166.034 95.0067 162.144 91.1681 157.378 91.2026Z" fill="white"/>
<path fill-rule="evenodd" clip-rule="evenodd" d="M140.327 124.086H174.449V127.328H140.327V124.086ZM140.327 131.513H174.449V134.756H140.327V131.513ZM140.327 138.941H174.449V142.184H140.327V138.941ZM140.327 116.659H174.449V119.901H140.327V116.659Z" fill="#E1E1E1"/>
<path fill-rule="evenodd" clip-rule="evenodd" d="M140.327 176.64H174.451V150.293H140.327V176.64Z" fill="#E1E1E1"/>
<path fill-rule="evenodd" clip-rule="evenodd" d="M66.2841 190.723V52.5235H61.6479V194.616H183.735V190.723H66.2841Z" fill="#183249"/>
<path fill-rule="evenodd" clip-rule="evenodd" d="M193.948 108.562C194.627 108.184 195.839 111.554 196.357 112.917C190.522 122.24 185.815 125.131 183 122.989C181.167 121.594 191.771 109.773 193.948 108.562Z" fill="#F3A369"/>
<path fill-rule="evenodd" clip-rule="evenodd" d="M218.865 216.777C221.545 215.786 221.759 214.336 223.204 213.627C224.658 212.914 224.824 211.644 223.403 210.265C222.352 211.145 221.051 212.229 220.36 211.655C219.899 211.272 218.336 211.297 218.026 211.856C216.665 215.178 214.773 214.125 214.398 215.637C214.356 217.65 217.636 217.231 218.865 216.777Z" fill="#23396F"/>
<path fill-rule="evenodd" clip-rule="evenodd" d="M195.646 213.47C200.365 213.392 203.893 213.333 205.522 212.791C207.28 212.209 206.917 211.083 205.907 209.282C201.459 211.43 202.645 208.839 200.565 209.168C199.103 210.404 196.937 211.233 194.071 211.654C192.859 212.592 193.351 213.429 195.646 213.47Z" fill="#23396F"/>
<path fill-rule="evenodd" clip-rule="evenodd" d="M204.349 96.1304C204.687 101.564 207.387 101.526 212.448 96.0163C217.32 96.4453 218.274 96.5112 220.979 97.4323C226.828 103.302 227.368 110.077 230.424 117.816C227.038 117.974 225.52 118.403 223.217 119.264C222.723 117.41 222.31 115.917 221.977 114.785C222.07 124.994 222.106 131.987 222.084 135.768C210.887 140.427 201.664 138.831 197.897 135.199C197.842 126.127 197.771 118.944 197.68 113.654C196.341 115.311 195.1 116.597 193.955 117.509C191.21 114.204 190.607 114.283 189.05 112.334C192.587 106.233 196.846 96.7415 204.349 96.1304Z" fill="white"/>
<path fill-rule="evenodd" clip-rule="evenodd" d="M197.895 135.201C198.116 136.083 197.202 141.267 197.049 143.97C195.562 153.621 196.836 166.183 197.637 182.338C199.072 188.029 201.188 195.616 201.052 206.292C203.548 207.094 204.453 207.178 206.709 206.575C208.286 195.432 207.21 186.51 205.786 182.389C206.697 176.018 208.06 168.888 210.04 158.606C212.274 169.812 215.263 178.129 216.556 183.556C216.813 189.606 217.978 197.772 218.586 208.053C220.442 208.639 221.595 208.808 223.52 208.562C226.017 199.112 225.597 188.828 224.54 177.714C223.414 164.352 225.27 149.263 223.412 144.031C222.462 140.932 222.339 138.18 222.084 135.768C212.743 139.033 204.678 138.844 197.895 135.201Z" fill="white"/>
<path fill-rule="evenodd" clip-rule="evenodd" d="M219.895 107.6C220.621 110.054 221.316 112.45 221.977 114.785C221.995 116.759 222.01 118.611 222.024 120.344C221.545 120.296 220.983 120.264 220.316 120.247C220.246 115.456 220.107 111.239 219.895 107.6ZM192.983 116.378C194.633 114.936 196.203 112.593 197.693 109.353C197.524 110.481 197.458 111.993 197.492 113.885C196.224 115.431 195.045 116.639 193.953 117.508C193.619 117.104 193.296 116.729 192.983 116.378ZM220.361 125.399C220.961 125.492 221.529 125.575 222.062 125.65C222.091 130.153 222.097 133.524 222.084 135.768C221.555 136.016 220.811 136.303 220.231 136.375C220.235 136.086 220.321 135.419 220.324 135.134C220.359 131.691 220.374 128.446 220.361 125.399Z" fill="white"/>
<path fill-rule="evenodd" clip-rule="evenodd" d="M222.933 208.626C222.932 209.333 222.998 209.956 223.13 210.492C222.136 211.318 220.991 212.179 220.36 211.655C220.057 211.403 219.278 211.327 218.691 211.465C218.934 210.61 219.123 209.54 219.262 208.256C220.567 208.624 221.57 208.748 222.933 208.626ZM205.594 206.835C205.483 207.809 205.466 208.68 205.546 209.451C201.825 211.149 202.456 209.188 200.969 209.139C201.343 208.45 201.586 207.567 201.696 206.493C203.318 206.982 204.242 207.09 205.594 206.835Z" fill="#F3A369"/>
<path fill-rule="evenodd" clip-rule="evenodd" d="M197.049 143.97C203.62 150.404 212.407 150.424 223.412 144.031C225.27 149.263 223.414 164.352 224.54 177.714C225.597 188.828 226.017 199.112 223.52 208.562C223.316 208.588 223.121 208.61 222.933 208.626C221.57 208.748 220.567 208.624 219.262 208.256C219.047 208.195 218.822 208.126 218.586 208.053C217.978 197.772 216.813 189.606 216.556 183.556C215.263 178.129 212.274 169.812 210.04 158.606C208.06 168.888 206.697 176.018 205.786 182.389C207.21 186.51 208.286 195.432 206.709 206.575C206.298 206.685 205.932 206.771 205.594 206.835C204.242 207.092 203.318 206.982 201.696 206.494C201.492 206.432 201.279 206.365 201.052 206.292C201.188 195.616 199.072 188.029 197.637 182.338C196.836 166.183 195.562 153.621 197.049 143.97Z" fill="#23396F"/>
<path fill-rule="evenodd" clip-rule="evenodd" d="M200.951 201.304C202.983 201.658 205.096 201.618 207.288 201.189C207.252 201.676 207.211 202.17 207.165 202.668C204.924 203.167 202.876 203.256 201.02 202.935C201.003 202.383 200.979 201.84 200.951 201.304ZM218.347 204.453C218.305 203.883 218.261 203.321 218.217 202.766C220.23 203.344 222.36 203.53 224.608 203.321C224.531 203.812 224.448 204.301 224.36 204.787C222.137 205.048 220.132 204.938 218.347 204.453ZM224.938 200.836C222.33 201.164 220.021 200.983 218.01 200.293C217.96 199.717 217.908 199.149 217.856 198.591C220.115 199.366 222.522 199.63 225.083 199.386C225.04 199.872 224.991 200.355 224.938 200.836ZM207.42 198.919C205.023 199.603 202.828 199.809 200.835 199.538C200.792 198.985 200.743 198.443 200.69 197.91C202.876 198.208 205.135 198.055 207.469 197.449C207.457 197.931 207.442 198.421 207.42 198.919Z" fill="#384FA8"/>
<path fill-rule="evenodd" clip-rule="evenodd" d="M206.088 100.509C205.849 100.529 205.666 100.746 205.678 100.995C205.69 101.245 205.895 101.433 206.133 101.414C206.372 101.396 206.556 101.178 206.544 100.928C206.532 100.679 206.327 100.492 206.088 100.509Z" fill="white"/>
<path fill-rule="evenodd" clip-rule="evenodd" d="M204.946 110.046H191.973C191.376 110.046 190.968 110.533 191.062 111.128L193.973 129.521C194.067 130.117 194.631 130.603 195.226 130.603H208.201C208.796 130.603 209.205 130.117 209.111 129.521L206.199 111.128C206.104 110.533 205.541 110.046 204.946 110.046Z" fill="#23396F"/>
<path fill-rule="evenodd" clip-rule="evenodd" d="M209.189 104.274C211.461 101.82 213.037 99.419 213.919 97.0702C213.423 96.1324 212.643 95.1907 212.096 94.926C209.455 97.6842 207.774 99.2261 206.162 100.165C206.154 100.171 206.143 100.176 206.134 100.181C206.113 100.109 206.093 100.035 206.071 99.9602C205.645 98.5038 205.029 96.8163 204.761 95.1336C204.003 95.6739 203.729 96.4926 203.316 97.3132C202.639 99.1346 202.405 101.298 202.61 103.804C203.108 103.105 203.607 102.486 204.106 101.945C204.784 101.212 205.459 100.624 206.134 100.181C206.732 100.689 207.303 101.323 207.852 102.084C208.314 102.723 208.76 103.454 209.189 104.274Z" fill="white"/>
<path fill-rule="evenodd" clip-rule="evenodd" d="M212.067 94.9418C211.658 94.4321 211.312 93.7531 211.031 92.9049C211.179 92.4513 211.334 91.8776 211.491 91.1868C214.381 89.1293 214.751 87.6454 212.599 86.7352C212.173 86.9851 211.656 87.7399 211.046 88.9974C210.537 88.9886 211.017 87.6582 210.744 87.1642C211.305 85.0526 210.792 84.4149 210.947 83.1013C209.454 80.9808 205.835 80.415 201.37 81.09C200.993 85.208 199.721 94.9221 204.697 94.6082L204.732 95.1494C205.002 96.831 205.616 98.5186 206.042 99.9759L206.134 100.181C207.745 99.2428 209.426 97.7019 212.067 94.9418Z" fill="#F3A369"/>
<path fill-rule="evenodd" clip-rule="evenodd" d="M201.603 81.4236C206.067 80.7486 209.455 80.9808 210.947 83.1013C210.792 84.415 211.157 85.2169 210.595 87.3305C210.868 87.8245 210.537 88.9886 211.047 88.9974C211.656 87.7399 212.174 86.9852 212.599 86.7352C214.751 87.6454 214.381 89.1293 211.491 91.1868C211.334 91.8776 211.179 92.4513 211.031 92.9049C216.111 89.9185 218.333 82.6841 213.706 79.2922C212.766 73.2958 204.155 78.7993 199.72 75.9929C198.034 78.4332 200.247 81.399 201.603 81.4236Z" fill="#23396F"/>
<path fill-rule="evenodd" clip-rule="evenodd" d="M208.074 94.189C207.256 94.4163 205.641 94.6377 204.697 94.6082L204.733 95.1494C204.785 95.4771 204.851 95.8028 204.924 96.1275C204.934 96.1236 204.943 96.1206 204.954 96.1177C206.414 95.606 207.455 94.9634 208.074 94.189Z" fill="#ED674C"/>
<path fill-rule="evenodd" clip-rule="evenodd" d="M214.187 81.3547C213.763 80.7485 213.732 80.2201 214.09 79.7724C215.101 79.5608 215.921 79.8019 216.552 80.4956C216.074 80.3756 215.285 80.6619 214.187 81.3547Z" fill="#23396F"/>
<path fill-rule="evenodd" clip-rule="evenodd" d="M213.143 79.4792C213.559 79.9446 213.942 80.0489 214.29 79.7882C214.504 78.9075 214.377 78.136 213.911 77.4699C213.969 77.9176 213.712 78.5867 213.143 79.4792Z" fill="#23396F"/>
<path fill-rule="evenodd" clip-rule="evenodd" d="M204.746 81.1038C204.71 79.8069 204.205 79.0295 203.23 78.7717C201.586 79.5274 200.681 80.7249 200.514 82.3623C201.064 81.6942 202.474 81.274 204.746 81.1038Z" fill="#23396F"/>
<path fill-rule="evenodd" clip-rule="evenodd" d="M207.73 76.536C207.531 77.0871 207.79 77.8084 207.01 77.9776C206.493 80.3569 204.617 77.1471 204.655 76.2595C204.987 76.5085 206.013 76.602 207.73 76.536Z" fill="#23396F"/>
<path fill-rule="evenodd" clip-rule="evenodd" d="M205.884 103.663C205.645 103.681 205.462 103.898 205.474 104.147C205.485 104.397 205.69 104.585 205.928 104.567C206.167 104.548 206.351 104.33 206.34 104.08C206.328 103.831 206.123 103.643 205.884 103.663Z" fill="white"/>
<path fill-rule="evenodd" clip-rule="evenodd" d="M205.678 106.815C205.439 106.832 205.256 107.051 205.269 107.301C205.281 107.551 205.485 107.737 205.722 107.719C205.961 107.699 206.146 107.482 206.134 107.232C206.122 106.983 205.918 106.795 205.678 106.815Z" fill="white"/>
<path fill-rule="evenodd" clip-rule="evenodd" d="M229.289 117.886C229.822 120.156 230.044 122.233 229.608 124.987C228.277 127.016 222.908 125.883 209.085 123.455C208.589 123.93 207.564 124.403 206.007 124.192C204.561 123.813 204.493 123.418 202.87 121.811C202.478 120.561 202.558 119.606 203.113 118.947C204.938 120.077 205.9 120.676 207.956 120.748C207.409 119.268 207.327 118.314 207.709 117.883C208.411 118.473 208.868 119.362 209.08 120.547C219.979 120.05 222.852 120.116 224.303 120.915C224.146 120.197 224.007 119.565 223.885 119.021C225.582 118.413 226.962 118.061 229.289 117.886Z" fill="#F3A369"/>
<path fill-rule="evenodd" clip-rule="evenodd" d="M206.549 84.8095C206.82 84.7731 207.063 85.028 207.091 85.3783C207.119 85.7286 206.92 86.0434 206.65 86.0799C206.379 86.1153 206.135 85.8594 206.108 85.5091C206.08 85.1588 206.277 84.8459 206.549 84.8095Z" fill="#C0DEF5"/>
<path fill-rule="evenodd" clip-rule="evenodd" d="M206.65 86.0798C206.923 86.0434 207.12 85.7286 207.092 85.3783C207.063 85.027 206.82 84.7721 206.549 84.8085C206.436 84.8233 206.334 84.8872 206.257 84.9827L206.294 84.9709C206.382 84.9591 206.461 85.0427 206.47 85.1559C206.479 85.27 206.416 85.3723 206.327 85.3832C206.239 85.396 206.159 85.3123 206.151 85.1992V85.1746C206.113 85.2759 206.098 85.3901 206.107 85.5091C206.135 85.8604 206.379 86.1153 206.65 86.0798Z" fill="#23396F"/>
<path fill-rule="evenodd" clip-rule="evenodd" d="M205.689 84.3874C205.676 84.3992 205.665 84.41 205.652 84.4238C205.669 84.3647 205.737 84.287 205.764 84.2398C205.735 84.2624 205.719 84.2703 205.692 84.3077C205.669 84.3401 205.653 84.3746 205.635 84.4139C205.632 84.3696 205.648 84.3411 205.652 84.3008C205.631 84.3313 205.615 84.3893 205.614 84.4257C205.615 84.2959 205.619 84.3047 205.669 84.1837C205.614 84.2201 205.575 84.3362 205.567 84.4021C205.554 84.3746 205.554 84.3391 205.552 84.3008C205.53 84.346 205.532 84.3667 205.533 84.411L205.497 84.3647C205.503 84.3933 205.512 84.4011 205.517 84.4257C205.452 84.3765 205.34 84.2122 205.352 84.1266C205.364 84.163 205.389 84.2299 205.409 84.2526C205.401 84.1906 205.379 84.1227 205.389 84.0528C205.407 84.0971 205.402 84.1571 205.415 84.2073C205.428 84.2555 205.449 84.3126 205.472 84.3421C205.452 84.2398 205.422 84.1551 205.451 84.041L205.455 84.0685C205.457 84.1227 205.454 84.1807 205.466 84.2339C205.48 84.1364 205.471 84.0479 205.55 83.9751C205.532 84.0154 205.513 84.04 205.5 84.0882C205.544 84.043 205.558 83.9613 205.631 83.9514C205.6 83.9888 205.57 84.0134 205.538 84.0646C205.512 84.1059 205.475 84.1748 205.492 84.226C205.537 84.0489 205.636 83.9564 205.756 83.9239C205.723 83.9416 205.622 84.0154 205.614 84.0577L205.614 84.0656C205.62 84.1138 205.62 84.0233 205.616 84.0754C205.594 84.0941 205.566 84.1325 205.552 84.163C205.542 84.1807 205.533 84.2024 205.526 84.225C205.524 84.2339 205.519 84.2535 205.517 84.2624C205.517 84.2742 205.517 84.2722 205.519 84.2801L205.52 84.2919C205.554 84.1748 205.594 84.1099 205.673 84.0439C205.722 84.0036 205.835 83.9328 205.902 83.9239C205.9 83.9249 205.897 83.9259 205.896 83.9268L205.842 83.9534C205.708 84.0233 205.581 84.105 205.541 84.2722C205.549 84.2663 205.542 84.2742 205.552 84.2585C205.556 84.2545 205.556 84.2535 205.558 84.2496C205.587 84.2004 205.616 84.1482 205.656 84.1069C205.698 84.0617 205.751 84.0193 205.795 83.9938C205.856 83.9593 206.047 83.8845 206.145 83.8963C206.116 83.8954 205.935 83.9505 205.904 83.9642C205.837 83.9908 205.75 84.0312 205.701 84.0981C205.73 84.0892 205.759 84.0695 205.785 84.0577C205.953 83.982 206.245 83.8678 206.419 83.8767C206.312 83.9003 206.157 83.9485 206.077 83.9957L206.143 83.982C206.125 83.9888 206.109 84.0006 206.088 84.0105C206.069 84.0193 206.055 84.0253 206.035 84.0371C205.945 84.0902 205.808 84.1807 205.757 84.2801C205.781 84.2575 205.813 84.2329 205.841 84.2093C205.87 84.1847 205.896 84.164 205.928 84.1423C205.985 84.102 206.05 84.0567 206.113 84.0252C206.248 83.9593 206.376 83.9052 206.527 83.8727C206.505 83.8806 206.484 83.8885 206.467 83.9091C206.59 83.9023 206.791 83.8029 207.099 83.7891C207.033 83.8117 206.923 83.8216 206.849 83.8432L206.78 83.8708C206.821 83.8708 206.953 83.8373 207.006 83.8265C207.27 83.7763 207.434 83.7409 207.72 83.7428C207.904 83.7438 208.074 83.7438 208.257 83.8216C208.376 83.8708 208.488 83.9318 208.585 84.0115C208.621 84.04 208.639 84.0607 208.666 84.0882C208.592 84.0508 208.428 83.8885 208.267 83.855C208.515 84.0007 208.715 84.1305 208.89 84.3234C208.842 84.2929 208.774 84.2299 208.723 84.1906C208.663 84.1443 208.604 84.103 208.542 84.0617C208.431 83.9888 208.252 83.8885 208.111 83.8521C208.144 83.8796 208.232 83.9219 208.274 83.9465C208.583 84.1227 208.879 84.3234 209.151 84.5497C209.183 84.5763 209.246 84.6442 209.271 84.6609C209.241 84.6491 209.127 84.5586 209.09 84.533C208.89 84.3952 208.701 84.2693 208.456 84.2004C208.52 84.2496 208.962 84.4267 209.101 84.5556L208.721 84.3637C208.607 84.3096 208.411 84.226 208.283 84.2093C208.429 84.2378 208.991 84.4936 209.105 84.5901C209.045 84.5684 208.96 84.5202 208.895 84.4907C208.818 84.4592 208.743 84.4277 208.666 84.3992C208.507 84.3421 208.338 84.2929 208.173 84.2703C207.947 84.2388 207.733 84.2447 207.514 84.2663C207.451 84.2722 207.367 84.288 207.308 84.288C207.343 84.2663 207.451 84.2585 207.491 84.2526C207.617 84.2339 207.744 84.223 207.872 84.222C207.924 84.222 208.029 84.2339 208.07 84.228C207.916 84.1886 207.797 84.2043 207.667 84.1876C207.679 84.1856 207.672 84.1876 207.683 84.1837C207.695 84.1797 207.69 84.1827 207.699 84.1758C207.618 84.1689 207.461 84.1974 207.386 84.2152C207.297 84.2378 207.12 84.3077 207.109 84.3096C207.132 84.2929 207.152 84.2831 207.169 84.2663L206.952 84.3165L207.218 84.2181C207.166 84.225 207.094 84.2535 207.042 84.2663C206.979 84.2831 206.849 84.3145 206.789 84.3372C206.721 84.3647 206.593 84.3815 206.52 84.3834C206.545 84.3687 206.631 84.3421 206.67 84.3293L206.813 84.2791C206.841 84.2693 206.864 84.2624 206.886 84.2506C206.953 84.2152 207.023 84.1906 207.092 84.161C207.218 84.1109 207.583 84.0026 207.716 84.04C207.544 83.9839 207.191 84.0951 207.067 84.1443L206.779 84.2634C206.751 84.2722 206.734 84.284 206.708 84.2949C206.638 84.3234 206.565 84.3539 206.491 84.3765L206.496 84.3608C206.496 84.3588 206.498 84.3578 206.498 84.3569C206.498 84.3569 206.498 84.3559 206.498 84.3539C206.498 84.3529 206.499 84.3519 206.499 84.3519C206.473 84.3667 206.397 84.3972 206.363 84.4011C206.433 84.3332 206.607 84.2801 206.667 84.1955C206.607 84.2152 206.536 84.2673 206.482 84.3037C206.461 84.3165 206.441 84.3244 206.424 84.3362C206.47 84.2535 206.564 84.1827 206.638 84.1276L206.724 84.0754C206.652 84.0813 206.568 84.1502 206.515 84.1965C206.462 84.2447 206.416 84.3008 206.371 84.3569C206.365 84.3637 206.365 84.3618 206.36 84.3667C206.349 84.3775 206.355 84.3726 206.346 84.3765L206.411 84.2634C206.398 84.285 206.311 84.3765 206.306 84.407C206.317 84.348 206.355 84.3018 206.379 84.2555L206.336 84.285C206.403 84.1719 206.561 84.0912 206.662 84.0203C206.562 84.0312 206.384 84.1689 206.32 84.2614C206.29 84.3037 206.268 84.3578 206.24 84.3942L206.271 84.3047C206.269 84.3067 206.266 84.3077 206.265 84.3077L206.219 84.3647C206.255 84.2535 206.311 84.1925 206.376 84.1227C206.347 84.1286 206.325 84.1502 206.302 84.1719C206.281 84.1915 206.26 84.2152 206.241 84.2417C206.204 84.2949 206.172 84.3529 206.147 84.4188C206.143 84.3913 206.161 84.3421 206.171 84.3116C206.152 84.3165 206.169 84.3086 206.15 84.3204C206.121 84.3411 206.1 84.3864 206.083 84.4149L206.093 84.348L206.048 84.4149C206.058 84.3529 206.078 84.3195 206.092 84.2673C206.055 84.2929 206.038 84.3401 206.021 84.3874C206.014 84.3667 206.023 84.3323 206.03 84.3067L205.978 84.3608C205.966 84.3785 205.953 84.4011 205.94 84.4179C205.954 84.3588 205.981 84.3283 206.006 84.2831C205.951 84.3195 205.931 84.3726 205.891 84.4307C205.902 84.3637 205.951 84.2624 205.989 84.2211C205.928 84.2309 205.891 84.3913 205.861 84.4238L205.862 84.3559C205.857 84.3588 205.859 84.3569 205.851 84.3667L205.815 84.4356L205.818 84.346C205.795 84.3726 205.791 84.4011 205.775 84.4356C205.778 84.4316 205.773 84.3618 205.788 84.3204C205.775 84.3273 205.785 84.3195 205.77 84.3332C205.743 84.3588 205.732 84.3972 205.708 84.4228L205.735 84.3519C205.726 84.3569 205.732 84.3539 205.722 84.3608L205.689 84.3874Z" fill="#23396F"/>
<path fill-rule="evenodd" clip-rule="evenodd" d="M202.193 84.6658C201.942 84.7023 201.759 85.0161 201.785 85.3664C201.81 85.7167 202.035 85.9726 202.287 85.9362C202.54 85.9008 202.722 85.5869 202.696 85.2366C202.67 84.8863 202.445 84.6294 202.193 84.6658Z" fill="#C0DEF5"/>
<path fill-rule="evenodd" clip-rule="evenodd" d="M202.287 85.9372C202.035 85.9736 201.81 85.7168 201.785 85.3665C201.759 85.0152 201.942 84.7023 202.193 84.6659C202.3 84.6501 202.4 84.6865 202.484 84.7593L202.448 84.7574C202.367 84.7702 202.307 84.8715 202.316 84.9857C202.324 85.0988 202.397 85.1815 202.479 85.1697C202.56 85.1588 202.619 85.0565 202.611 84.9433L202.608 84.9187C202.656 85.0083 202.688 85.1175 202.697 85.2366C202.723 85.5869 202.54 85.9008 202.287 85.9372Z" fill="#23396F"/>
<path fill-rule="evenodd" clip-rule="evenodd" d="M203.253 84.4651C203.264 84.4779 203.273 84.4877 203.281 84.5015C203.269 84.4435 203.219 84.3657 203.198 84.3175C203.219 84.3411 203.231 84.349 203.251 84.3864C203.268 84.4179 203.28 84.4523 203.294 84.4907C203.296 84.4474 203.283 84.4189 203.28 84.3785C203.296 84.409 203.308 84.4661 203.309 84.5035C203.306 84.3736 203.303 84.3824 203.266 84.2614C203.305 84.2968 203.335 84.4139 203.342 84.4799C203.351 84.4523 203.351 84.4159 203.351 84.3785C203.367 84.4228 203.368 84.4444 203.368 84.4887L203.391 84.4415C203.387 84.471 203.382 84.4779 203.378 84.5015C203.424 84.4533 203.501 84.289 203.49 84.2043C203.485 84.2398 203.466 84.3077 203.453 84.3283C203.457 84.2673 203.472 84.2004 203.464 84.1305C203.45 84.1748 203.456 84.2348 203.447 84.284C203.439 84.3332 203.426 84.3903 203.41 84.4198C203.421 84.3175 203.441 84.2329 203.418 84.1187L203.416 84.1463C203.416 84.2004 203.42 84.2585 203.412 84.3116C203.4 84.2152 203.405 84.1256 203.348 84.0538C203.361 84.0941 203.374 84.1177 203.385 84.165C203.353 84.1197 203.34 84.04 203.289 84.0312C203.31 84.0666 203.333 84.0912 203.358 84.1433C203.377 84.1837 203.404 84.2526 203.394 84.3018C203.358 84.1276 203.285 84.0351 203.198 84.0026C203.222 84.0193 203.296 84.0941 203.303 84.1364L203.302 84.1443C203.298 84.1916 203.297 84.102 203.301 84.1551C203.317 84.1719 203.338 84.2102 203.35 84.2398C203.356 84.2585 203.364 84.2801 203.368 84.3018C203.37 84.3116 203.374 84.3313 203.375 84.3401C203.375 84.3519 203.375 84.35 203.375 84.3578L203.374 84.3697C203.348 84.2526 203.318 84.1876 203.26 84.1207C203.224 84.0813 203.141 84.0115 203.095 84.0036C203.096 84.0046 203.097 84.0066 203.097 84.0066L203.137 84.0331C203.234 84.102 203.326 84.1837 203.359 84.35C203.354 84.3441 203.358 84.3519 203.35 84.3362C203.348 84.3323 203.348 84.3313 203.346 84.3273C203.324 84.2772 203.302 84.226 203.273 84.1847C203.243 84.1404 203.203 84.0981 203.172 84.0725C203.128 84.038 202.989 83.9642 202.919 83.9761C202.94 83.9751 203.071 84.0292 203.092 84.043C203.141 84.0695 203.203 84.1099 203.242 84.1758C203.221 84.1679 203.199 84.1483 203.181 84.1355C203.059 84.0607 202.848 83.9485 202.722 83.9583C202.8 83.98 202.911 84.0282 202.971 84.0745L202.923 84.0607C202.936 84.0695 202.947 84.0813 202.962 84.0902C202.975 84.0991 202.987 84.1059 203 84.1158C203.067 84.1689 203.166 84.2594 203.203 84.3578C203.187 84.3342 203.164 84.3116 203.143 84.288C203.121 84.2634 203.102 84.2427 203.079 84.2211C203.037 84.1807 202.99 84.1355 202.946 84.105C202.847 84.04 202.755 83.9859 202.647 83.9544C202.66 83.9623 202.676 83.9701 202.689 83.9908C202.601 83.9839 202.456 83.8865 202.235 83.8727C202.282 83.8954 202.362 83.9042 202.416 83.9259L202.464 83.9515C202.434 83.9534 202.34 83.92 202.302 83.9091C202.113 83.859 201.994 83.8245 201.79 83.8275C201.659 83.8294 201.537 83.8304 201.408 83.9082C201.322 83.9583 201.244 84.0193 201.176 84.0991C201.151 84.1276 201.138 84.1482 201.12 84.1758C201.172 84.1384 201.286 83.9761 201.401 83.9416C201.225 84.0892 201.085 84.2181 200.963 84.412C200.998 84.3824 201.044 84.3195 201.08 84.2772C201.123 84.2329 201.164 84.1915 201.208 84.1502C201.286 84.0754 201.413 83.9751 201.512 83.9387C201.489 83.9662 201.426 84.0105 201.397 84.0351C201.18 84.2102 200.97 84.411 200.781 84.6383C200.759 84.6658 200.714 84.7347 200.698 84.7495C200.718 84.7387 200.797 84.6481 200.825 84.6216C200.965 84.4838 201.098 84.3578 201.271 84.287C201.226 84.3372 200.913 84.5153 200.817 84.6442L201.085 84.4513C201.167 84.3982 201.305 84.3145 201.395 84.2959C201.292 84.3254 200.893 84.5822 200.814 84.6786C200.856 84.658 200.917 84.6088 200.963 84.5802C201.017 84.5468 201.069 84.5173 201.126 84.4877C201.237 84.4307 201.357 84.3795 201.476 84.3569C201.636 84.3254 201.79 84.3283 201.947 84.35C201.992 84.3569 202.052 84.3706 202.095 84.3706C202.069 84.35 201.992 84.3421 201.963 84.3362C201.873 84.3175 201.78 84.3086 201.689 84.3077C201.653 84.3077 201.578 84.3195 201.548 84.3146C201.657 84.2752 201.743 84.289 201.836 84.2722C201.828 84.2713 201.833 84.2722 201.825 84.2693C201.816 84.2644 201.82 84.2663 201.813 84.2614C201.871 84.2535 201.984 84.2821 202.036 84.2998C202.101 84.3214 202.23 84.3903 202.237 84.3933C202.222 84.3765 202.206 84.3657 202.194 84.349L202.349 84.3992L202.157 84.3008C202.195 84.3077 202.247 84.3362 202.285 84.349C202.33 84.3647 202.424 84.3972 202.467 84.4189C202.516 84.4464 202.607 84.4631 202.66 84.4641C202.643 84.4484 202.58 84.4238 202.552 84.411L202.448 84.3608C202.428 84.35 202.412 84.3451 202.396 84.3323C202.347 84.2968 202.297 84.2722 202.246 84.2447C202.155 84.1955 201.893 84.0863 201.799 84.1256C201.92 84.0695 202.175 84.1778 202.264 84.228L202.474 84.346C202.491 84.3539 202.506 84.3657 202.525 84.3765C202.574 84.4041 202.627 84.4356 202.68 84.4562L202.676 84.4415V84.4385C202.676 84.4366 202.676 84.4356 202.676 84.4346C202.675 84.4336 202.675 84.4336 202.675 84.4316C202.693 84.4474 202.749 84.4769 202.774 84.4808C202.722 84.4149 202.597 84.3618 202.552 84.2772C202.595 84.2959 202.647 84.349 202.687 84.3834C202.701 84.3972 202.715 84.4041 202.729 84.4159C202.693 84.3332 202.625 84.2634 202.57 84.2093L202.51 84.1571C202.56 84.163 202.622 84.2309 202.66 84.2772C202.7 84.3244 202.733 84.3815 202.767 84.4366C202.771 84.4434 202.771 84.4415 202.775 84.4474C202.781 84.4572 202.777 84.4523 202.783 84.4562L202.736 84.3441C202.745 84.3657 202.809 84.4562 202.814 84.4877C202.806 84.4277 202.777 84.3824 202.759 84.3362L202.788 84.3657C202.741 84.2526 202.625 84.1719 202.552 84.102C202.623 84.1128 202.753 84.2496 202.8 84.3411C202.824 84.3834 202.839 84.4385 202.861 84.473L202.837 84.3854C202.838 84.3864 202.839 84.3874 202.84 84.3874L202.876 84.4444C202.847 84.3323 202.807 84.2722 202.758 84.2043C202.779 84.2093 202.795 84.2299 202.812 84.2526C202.828 84.2713 202.843 84.2959 202.857 84.3214C202.885 84.3746 202.908 84.4336 202.927 84.4986C202.93 84.472 202.917 84.4228 202.908 84.3903C202.922 84.3972 202.91 84.3893 202.923 84.4011C202.946 84.4218 202.96 84.4651 202.973 84.4936L202.964 84.4267L202.998 84.4936C202.99 84.4336 202.975 84.3982 202.964 84.346C202.99 84.3726 203.004 84.4198 203.017 84.4661C203.021 84.4464 203.014 84.412 203.009 84.3864L203.047 84.4395C203.057 84.4572 203.067 84.4799 203.075 84.4966C203.065 84.4385 203.045 84.407 203.027 84.3618C203.067 84.3982 203.081 84.4513 203.112 84.5094C203.102 84.4415 203.066 84.3411 203.037 84.2998C203.081 84.3096 203.111 84.469 203.132 84.5035L203.13 84.4346C203.134 84.4385 203.131 84.4356 203.137 84.4444L203.165 84.5133L203.161 84.4257C203.178 84.4494 203.182 84.4799 203.194 84.5143C203.193 84.5094 203.193 84.4395 203.184 84.3992C203.191 84.4061 203.186 84.3982 203.196 84.412C203.215 84.4366 203.223 84.474 203.242 84.5015L203.221 84.4307C203.229 84.4346 203.223 84.4316 203.231 84.4385L203.253 84.4651Z" fill="#23396F"/>
<path d="M203.984 85.7846C203.781 85.9854 203 88.3676 203.021 88.5792C203.097 89.3182 203.854 89.0761 204.014 89.1834" stroke="#F17F63" stroke-width="0.0642667" stroke-miterlimit="2.6131" stroke-linecap="round" stroke-linejoin="round"/>
<path fill-rule="evenodd" clip-rule="evenodd" d="M206.893 90.3888C204.579 91.974 203.231 92.0764 202.85 90.6978C204.53 90.866 205.878 90.7627 206.893 90.3888Z" fill="white"/>
<path fill-rule="evenodd" clip-rule="evenodd" d="M186.304 120.376C181.737 120.362 181.194 125.773 186.247 124.847C194.124 123.403 204.255 115.657 186.304 120.376Z" fill="#F39A60"/>
<path fill-rule="evenodd" clip-rule="evenodd" d="M193.978 121.625L194.185 121.507C194.761 121.77 195.797 121.861 197.081 121.197C198.218 120.42 198.154 120.055 199.065 118.161C199.021 116.956 198.656 116.152 197.968 115.754C196.735 117.294 196.086 118.114 194.326 118.813C194.343 117.362 194.12 116.507 193.655 116.251C193.229 116.98 193.108 117.894 193.291 118.986L193.063 119.056L193.978 121.625Z" fill="#F39A60"/>
<path fill-rule="evenodd" clip-rule="evenodd" d="M159.813 14.6916L182.828 24.1331L176.508 32.2098L159.813 14.6916Z" fill="white"/>
<path fill-rule="evenodd" clip-rule="evenodd" d="M186.075 20.327L160.516 14.7428L192.333 17.069L186.075 20.327Z" fill="white"/>
<path fill-rule="evenodd" clip-rule="evenodd" d="M186.075 20.327L185.476 30.9296L182.828 24.1331L159.813 14.6916L160.516 14.7428L186.075 20.327Z" fill="#05223D"/>
<path fill-rule="evenodd" clip-rule="evenodd" d="M185.476 30.9296L180.028 27.7119L182.828 24.1331L185.476 30.9296Z" fill="#8EB4CF"/>
<path fill-rule="evenodd" clip-rule="evenodd" d="M197.009 29.7439C197.696 29.8295 197.6 30.9296 196.844 30.8352L195.758 30.6757C195.061 30.5891 195.168 29.489 195.912 29.5835L197.009 29.7439ZM201.384 30.5193C202.147 30.7112 201.812 31.7641 201.163 31.6027L200.088 31.3891C199.385 31.213 199.552 30.2103 200.295 30.3038L201.384 30.5193ZM205.714 31.5791C206.376 31.7444 206.16 32.8297 205.41 32.6408L204.358 32.3505C203.669 32.1773 203.915 31.1018 204.637 31.2819L205.714 31.5791ZM209.943 33.0521C210.622 33.3434 210.175 34.3529 209.517 34.0715C209.184 33.9288 208.847 33.797 208.508 33.6681C207.834 33.4142 208.214 32.3771 208.901 32.6359C209.25 32.7687 209.599 32.9055 209.943 33.0521ZM213.932 35.1726C214.503 35.579 213.983 36.4695 213.316 36.0877C213.019 35.886 212.718 35.6971 212.411 35.5131C211.797 35.1628 212.322 34.1906 212.974 34.5625C213.3 34.7564 213.618 34.9581 213.932 35.1726ZM217.265 38.3195C217.697 38.9236 216.789 39.5524 216.373 38.9718C216.169 38.6855 215.954 38.4169 215.72 38.1541C215.219 37.5529 216.108 36.8976 216.539 37.4142C216.797 37.6956 217.042 38.0115 217.265 38.3195ZM218.964 42.6461C219.052 43.3684 217.958 43.5051 217.867 42.7839C217.829 42.4414 217.765 42.099 217.681 41.7654C217.501 41.05 218.575 40.7942 218.75 41.4909C218.845 41.8727 218.918 42.2554 218.964 42.6461ZM218.409 47.2325C218.162 47.8928 217.175 47.6281 217.361 46.8881C217.472 46.5467 217.573 46.2131 217.663 45.8648C217.839 45.1632 218.91 45.4269 218.733 46.1354C218.637 46.5083 218.529 46.8665 218.409 47.2325ZM216.617 51.3545C216.218 52.0541 215.308 51.4263 215.63 50.8615L216.112 49.8785C216.489 49.2192 217.389 49.7004 217.108 50.3548L216.617 51.3545ZM214.561 55.2797C214.179 55.9498 213.246 55.3574 213.587 54.7621L214.103 53.786C214.486 53.1168 215.42 53.7092 215.079 54.3045C214.902 54.6214 214.73 54.9579 214.561 55.2797ZM212.592 59.199C212.318 59.8346 211.288 59.4391 211.589 58.7365C211.743 58.4009 211.902 58.0605 212.067 57.7269C212.473 57.0194 213.377 57.655 213.059 58.213C212.899 58.5387 212.744 58.8703 212.592 59.199ZM211.069 63.2452C210.9 63.9172 209.821 63.6909 210.005 62.9529C210.102 62.5908 210.209 62.2169 210.332 61.8636C210.603 61.1404 211.618 61.5783 211.377 62.2188C211.263 62.5544 211.162 62.9008 211.069 63.2452ZM210.773 67.375C210.871 68.1612 209.767 68.2222 209.685 67.5639C209.613 67.1684 209.571 66.7866 209.556 66.3861C209.556 65.6235 210.66 65.6638 210.66 66.3595C210.671 66.7039 210.711 67.0365 210.773 67.375ZM212.838 70.7236C213.414 71.2037 212.687 72.0352 212.145 71.5826C211.832 71.3277 211.546 71.0621 211.276 70.7619C210.784 70.1725 211.662 69.5014 212.103 70.0318C212.33 70.2837 212.576 70.5081 212.838 70.7236ZM216.582 72.6089C217.243 72.8578 216.979 73.8458 216.237 73.6598C215.876 73.5427 215.52 73.4158 215.165 73.278C214.491 72.9897 214.893 71.9959 215.574 72.2527C215.905 72.3846 216.244 72.5007 216.582 72.6089ZM220.799 73.5407C221.486 73.6254 221.39 74.7265 220.634 74.632L220.799 73.5407ZM225.143 73.953C225.793 73.953 225.885 75.0561 225.081 75.0561L223.969 74.9862C223.178 74.8878 223.395 73.8035 224.05 73.8842L225.143 73.953ZM229.128 74.0544C229.619 74.0544 229.861 74.6527 229.527 74.9862C229.448 75.0846 229.283 75.1584 229.128 75.1584L228.415 75.1545C227.701 75.1545 227.685 74.0505 228.427 74.0505L229.128 74.0544ZM191.395 30.1444C190.646 30.0519 190.815 28.9596 191.508 29.0472L192.611 29.1663C193.349 29.2588 193.192 30.353 192.487 30.2634L191.395 30.1444Z" fill="#8EB4CF"/>
<path fill-rule="evenodd" clip-rule="evenodd" d="M200.003 58.644L225.398 69.0616L218.425 77.9737L200.003 58.644Z" fill="white"/>
<path fill-rule="evenodd" clip-rule="evenodd" d="M228.979 64.8619L200.78 58.701L235.886 61.2673L228.979 64.8619Z" fill="white"/>
<path fill-rule="evenodd" clip-rule="evenodd" d="M228.979 64.8619L228.32 76.5616L225.398 69.0616L200.003 58.644L200.78 58.701L228.979 64.8619Z" fill="#05223D"/>
<path fill-rule="evenodd" clip-rule="evenodd" d="M228.321 76.5616L222.31 73.0104L225.398 69.0616L228.321 76.5616Z" fill="#8EB4CF"/>
<path fill-rule="evenodd" clip-rule="evenodd" d="M241.045 75.2509C241.802 75.3454 241.696 76.5606 240.864 76.4563L239.665 76.2812C238.895 76.1857 239.014 74.9725 239.834 75.0738L241.045 75.2509ZM245.873 76.109C246.713 76.3196 246.344 77.4807 245.628 77.3026L244.442 77.0674C243.668 76.8736 243.851 75.7675 244.671 75.8699L245.873 76.109ZM250.649 77.277C251.379 77.461 251.143 78.6566 250.316 78.4489L249.154 78.1282C248.394 77.9383 248.666 76.7506 249.463 76.9493L250.649 77.277ZM255.316 78.9026C256.065 79.2234 255.572 80.3382 254.846 80.0263C254.479 79.8698 254.107 79.7242 253.734 79.5815C252.99 79.3021 253.409 78.1577 254.166 78.4421C254.553 78.5897 254.937 78.7412 255.316 78.9026ZM259.719 81.2415C260.347 81.6893 259.775 82.6733 259.037 82.2521C258.711 82.0297 258.378 81.8201 258.038 81.6184C257.364 81.2317 257.942 80.1582 258.661 80.5705C259.02 80.784 259.371 81.0054 259.719 81.2415ZM263.395 84.7151C263.871 85.3812 262.869 86.074 262.412 85.4344C262.185 85.1185 261.948 84.8223 261.689 84.533C261.138 83.8688 262.119 83.1466 262.593 83.7153C262.878 84.0253 263.149 84.3736 263.395 84.7151ZM265.269 89.4875C265.368 90.2855 264.159 90.435 264.06 89.639C264.016 89.2621 263.946 88.8843 263.854 88.5163C263.657 87.7281 264.842 87.4457 265.034 88.2151C265.138 88.6353 265.218 89.0584 265.269 89.4875ZM264.657 94.5482C264.385 95.2773 263.296 94.9851 263.501 94.1693C263.624 93.7934 263.736 93.4244 263.834 93.0407C264.028 92.2653 265.211 92.5566 265.015 93.3388C264.91 93.7492 264.791 94.1447 264.657 94.5482ZM262.681 99.0972C262.24 99.8687 261.236 99.1779 261.592 98.554L262.124 97.4687C262.54 96.7405 263.533 97.2709 263.222 97.9941L262.681 99.0972ZM260.411 103.429C259.99 104.167 258.962 103.512 259.336 102.858L259.907 101.781C260.329 101.043 261.359 101.696 260.983 102.352C260.788 102.702 260.599 103.073 260.411 103.429ZM258.239 107.752C257.938 108.454 256.8 108.017 257.133 107.243C257.304 106.872 257.479 106.495 257.662 106.129C258.107 105.347 259.106 106.05 258.755 106.664C258.578 107.024 258.407 107.388 258.239 107.752ZM256.558 112.217C256.374 112.96 255.181 112.709 255.385 111.895C255.492 111.496 255.609 111.082 255.746 110.693C256.044 109.896 257.165 110.378 256.898 111.083C256.773 111.455 256.661 111.838 256.558 112.217ZM256.232 116.774C256.34 117.643 255.123 117.709 255.032 116.981C254.953 116.545 254.905 116.125 254.89 115.682C254.89 114.842 256.108 114.886 256.108 115.653C256.119 116.034 256.164 116.4 256.232 116.774ZM258.51 120.469C259.144 120.997 258.344 121.915 257.746 121.416C257.401 121.134 257.084 120.843 256.786 120.511C256.245 119.861 257.212 119.121 257.699 119.704C257.951 119.984 258.222 120.23 258.51 120.469ZM262.642 122.549C263.371 122.823 263.081 123.913 262.263 123.708C261.861 123.58 261.47 123.44 261.079 123.288C260.335 122.968 260.777 121.873 261.531 122.155C261.895 122.301 262.268 122.431 262.642 122.549ZM267.296 123.576C268.052 123.671 267.948 124.885 267.113 124.782L267.296 123.576ZM272.086 124.032C272.805 124.032 272.907 125.248 272.019 125.248L270.791 125.172C269.92 125.062 270.16 123.866 270.881 123.957L272.086 124.032ZM276.486 124.143C277.026 124.143 277.294 124.805 276.927 125.172C276.838 125.279 276.656 125.361 276.486 125.361L275.699 125.358C274.91 125.358 274.894 124.139 275.711 124.139L276.486 124.143ZM234.85 75.6957C234.024 75.5914 234.21 74.388 234.977 74.4834L236.191 74.6153C237.008 74.7176 236.834 75.924 236.056 75.8256L234.85 75.6957Z" fill="#8EB4CF"/>
</svg>
