<svg width="264" height="232" viewBox="0 0 264 232" fill="none" xmlns="http://www.w3.org/2000/svg">
<path d="M232.349 23.0027C232.349 30.6305 226.164 36.8152 218.536 36.8152C210.907 36.8152 204.722 30.6305 204.722 23.0027C204.722 15.3734 210.907 9.18861 218.536 9.18861C226.164 9.18861 232.349 15.3734 232.349 23.0027Z" fill="#DBDDDF"/>
<path d="M219.956 29.1842V31.0969H217.529V29.2704C215.806 29.1664 214.136 28.7032 213.102 28.0646L214.41 25.1022C215.548 25.775 217.062 26.2056 218.388 26.2056C219.544 26.2056 219.956 25.9635 219.956 25.5507C219.956 24.0346 213.292 25.2566 213.292 20.7635C213.292 18.8167 214.704 17.1804 217.529 16.7855V14.9086H219.956V16.7497C221.23 16.87 222.47 17.1982 223.452 17.7491L222.23 20.6936C221.04 20.0907 219.922 19.7982 218.871 19.7982C217.683 19.7982 217.304 20.1427 217.304 20.5571C217.304 22.0034 223.968 20.7976 223.968 25.2404C223.968 27.0994 222.625 28.7195 219.956 29.1842Z" fill="white"/>
<path d="M202.889 41.7683C202.889 46.3898 199.142 50.137 194.52 50.137C189.899 50.137 186.151 46.3898 186.151 41.7683C186.151 37.1468 189.899 33.3995 194.52 33.3995C199.142 33.3995 202.889 37.1468 202.889 41.7683Z" fill="#DBDDDF"/>
<path d="M195.381 45.5139V46.6709H193.909V45.5659C192.866 45.5025 191.855 45.2214 191.229 44.8346L192.021 43.0406C192.71 43.4485 193.628 43.7085 194.431 43.7085C195.131 43.7085 195.381 43.5623 195.381 43.312C195.381 42.3939 191.343 43.1349 191.343 40.4114C191.343 39.2333 192.2 38.242 193.909 38.0015V36.8656H195.381V37.9804C196.152 38.0535 196.904 38.2518 197.499 38.5865L196.758 40.3708C196.038 40.0051 195.36 39.828 194.723 39.828C194.003 39.828 193.774 40.036 193.774 40.2863C193.774 41.1621 197.811 40.4325 197.811 43.1235C197.811 44.2513 196.998 45.2311 195.381 45.5139Z" fill="white"/>
<path d="M223.309 47.1356C223.309 50.7009 220.418 53.5917 216.851 53.5917C213.286 53.5917 210.395 50.7009 210.395 47.1356C210.395 43.5687 213.286 40.6779 216.851 40.6779C220.418 40.6779 223.309 43.5687 223.309 47.1356Z" fill="#DBDDDF"/>
<path d="M217.516 50.0249V50.9186H216.38V50.0655C215.575 50.0168 214.795 49.799 214.311 49.5017L214.924 48.1171C215.455 48.4308 216.162 48.6323 216.783 48.6323C217.322 48.6323 217.516 48.5201 217.516 48.3268C217.516 47.6183 214.4 48.1887 214.4 46.0892C214.4 45.1792 215.06 44.4138 216.38 44.2285V43.351H217.516V44.2123C218.11 44.2692 218.69 44.4219 219.15 44.6803L218.578 46.0567C218.023 45.7739 217.499 45.6374 217.009 45.6374C216.453 45.6374 216.276 45.7983 216.276 45.9917C216.276 46.6677 219.391 46.1054 219.391 48.1805C219.391 49.0499 218.764 49.8071 217.516 50.0249Z" fill="white"/>
<path d="M190.859 25.762H189.915V18.9939H190.859V25.762Z" fill="#299BCC"/>
<path d="M193.771 22.85H187.003V21.9059H193.771V22.85Z" fill="#299BCC"/>
<path d="M199.283 11.0476H197.864V0.883263H199.283V11.0476Z" fill="#299BCC"/>
<path d="M203.656 6.67477H193.492V5.25614H203.656V6.67477Z" fill="#299BCC"/>
<path d="M231.161 60.563H230.086V52.867H231.161V60.563Z" fill="#299BCC"/>
<path d="M234.472 57.2513H226.776V56.1771H234.472V57.2513Z" fill="#299BCC"/>
<path d="M103.352 38.8498C96.431 38.8498 90.8203 33.2386 90.8203 26.3178C90.8203 19.3969 96.431 13.7874 103.352 13.7874C110.273 13.7874 115.884 19.3969 115.884 26.3178C115.884 33.2386 110.273 38.8498 103.352 38.8498Z" fill="#F5F5FF"/>
<path d="M133.259 191.6C125.47 191.6 119.156 185.285 119.156 177.496C119.156 176.481 119.263 175.491 119.467 174.537H147.052C147.255 175.491 147.363 176.481 147.363 177.496C147.363 185.285 141.049 191.6 133.259 191.6Z" fill="#F5F5FF"/>
<path d="M108.449 144.484C107.78 144.452 107.101 144.444 106.434 144.462L106.423 144.055C107.1 144.038 107.789 144.046 108.469 144.078L108.449 144.484ZM102.428 144.868L102.357 144.468C103.023 144.35 103.705 144.254 104.382 144.185L104.423 144.589C103.756 144.657 103.084 144.751 102.428 144.868ZM112.445 144.98C111.791 144.848 111.122 144.74 110.456 144.657L110.506 144.254C111.182 144.337 111.861 144.447 112.525 144.582L112.445 144.98ZM98.5297 145.874L98.3986 145.49C99.0411 145.271 99.7003 145.073 100.358 144.904L100.46 145.297C99.8118 145.464 99.1625 145.658 98.5297 145.874ZM116.319 146.074C115.691 145.845 115.046 145.635 114.403 145.453L114.513 145.063C115.167 145.247 115.821 145.46 116.459 145.694L116.319 146.074ZM94.832 147.458L94.6442 147.097C95.2469 146.784 95.8681 146.49 96.491 146.222L96.651 146.595C96.0376 146.859 95.4256 147.149 94.832 147.458ZM119.987 147.746C119.4 147.422 118.793 147.117 118.185 146.841L118.353 146.47C118.971 146.751 119.586 147.062 120.183 147.39L119.987 147.746ZM91.4137 149.584L91.1738 149.255C91.7214 148.854 92.2916 148.471 92.8684 148.111L93.0829 148.456C92.5148 148.81 91.9532 149.189 91.4137 149.584ZM123.359 149.949C122.828 149.543 122.275 149.15 121.714 148.784L121.937 148.445C122.506 148.817 123.067 149.215 123.606 149.628L123.359 149.949ZM88.3518 152.198L88.0655 151.911C88.5476 151.431 89.0537 150.965 89.5699 150.525L89.8337 150.833C89.3252 151.267 88.8267 151.727 88.3518 152.198ZM126.361 152.635C125.897 152.153 125.409 151.682 124.91 151.236L125.181 150.934C125.687 151.386 126.182 151.864 126.654 152.354L126.361 152.635ZM85.7154 155.244L85.3893 155.001C85.7941 154.457 86.2247 153.919 86.6695 153.406L86.9764 153.672C86.5385 154.178 86.1142 154.707 85.7154 155.244ZM128.926 155.739C128.539 155.192 128.128 154.654 127.702 154.139L128.015 153.88C128.447 154.403 128.866 154.949 129.257 155.504L128.926 155.739ZM83.5657 158.651L83.2068 158.461C83.5251 157.861 83.8702 157.265 84.2326 156.69L84.5763 156.908C84.2191 157.473 83.8793 158.06 83.5657 158.651ZM130.996 159.191C130.697 158.594 130.37 158.001 130.026 157.426L130.375 157.218C130.725 157.8 131.054 158.403 131.358 159.009L130.996 159.191ZM81.9552 162.346L81.5714 162.212C81.7951 161.57 82.0462 160.928 82.3179 160.305L82.6903 160.468C82.4227 161.082 82.1754 161.713 81.9552 162.346ZM132.519 162.917C132.314 162.28 132.081 161.643 131.828 161.024L132.203 160.869C132.462 161.5 132.697 162.145 132.905 162.792L132.519 162.917ZM80.9246 166.238L80.5252 166.164C80.6488 165.496 80.7995 164.825 80.973 164.168L81.3658 164.272C81.1948 164.919 81.0465 165.58 80.9246 166.238ZM133.461 166.831C133.355 166.17 133.221 165.505 133.065 164.855L133.459 164.761C133.619 165.421 133.754 166.095 133.862 166.766L133.461 166.831ZM80.494 170.241L80.0879 170.228C80.1097 169.548 80.1574 168.861 80.2299 168.188L80.6337 168.232C80.5624 168.895 80.5154 169.571 80.494 170.241ZM133.802 170.844C133.796 170.172 133.763 169.495 133.706 168.83L134.111 168.796C134.17 169.47 134.202 170.158 134.209 170.839L133.802 170.844ZM134.134 173.158L133.729 173.128C133.778 172.462 133.804 171.784 133.804 171.115H134.21C134.21 171.796 134.184 172.483 134.134 173.158ZM80.2606 174.313C80.1813 173.639 80.1266 172.953 80.0981 172.274L80.5041 172.257C80.532 172.925 80.586 173.601 80.664 174.264L80.2606 174.313ZM133.523 177.199L133.126 177.11C133.276 176.458 133.403 175.792 133.503 175.13L133.905 175.19C133.804 175.863 133.674 176.539 133.523 177.199ZM81.0445 178.325C80.864 177.67 80.7065 176.999 80.5764 176.333L80.9751 176.255C81.1034 176.911 81.2585 177.571 81.4362 178.216L81.0445 178.325ZM132.306 181.105L131.929 180.954C132.176 180.334 132.402 179.693 132.601 179.053L132.99 179.175C132.787 179.823 132.558 180.473 132.306 181.105ZM82.4269 182.17C82.1494 181.551 81.8923 180.912 81.6628 180.275L82.0452 180.137C82.2711 180.766 82.5243 181.393 82.7976 182.004L82.4269 182.17ZM130.512 184.781L130.161 184.576C130.499 183.998 130.82 183.4 131.113 182.799L131.479 182.977C131.18 183.588 130.855 184.195 130.512 184.781ZM84.3748 185.761C84.0063 185.189 83.6557 184.598 83.3329 184.003L83.69 183.808C84.008 184.394 84.3534 184.978 84.7164 185.542L84.3748 185.761ZM128.183 188.143L127.867 187.888C128.289 187.367 128.697 186.824 129.077 186.275L129.41 186.507C129.025 187.064 128.61 187.615 128.183 188.143ZM86.8419 189.021C86.3922 188.511 85.9566 187.978 85.5469 187.436L85.8708 187.191C86.2744 187.724 86.7036 188.249 87.1464 188.751L86.8419 189.021ZM125.377 191.119L125.103 190.818C125.597 190.368 126.08 189.892 126.54 189.406L126.836 189.684C126.369 190.178 125.878 190.66 125.377 191.119ZM89.7701 191.873C89.2493 191.437 88.7386 190.976 88.2522 190.501L88.5358 190.21C89.0148 190.677 89.5179 191.132 90.0309 191.562L89.7701 191.873ZM122.159 193.637L121.933 193.299C122.49 192.927 123.039 192.531 123.565 192.118L123.815 192.438C123.281 192.857 122.724 193.26 122.159 193.637ZM93.0939 194.257C92.5143 193.904 91.94 193.524 91.3868 193.127L91.6236 192.797C92.1683 193.187 92.7341 193.561 93.305 193.909L93.0939 194.257ZM118.6 195.644L118.427 195.277C119.033 194.993 119.635 194.684 120.217 194.356L120.417 194.708C119.826 195.041 119.214 195.357 118.6 195.644ZM96.7402 196.112C96.1128 195.851 95.4875 195.561 94.8817 195.253L95.0658 194.89C95.6627 195.194 96.2786 195.479 96.8966 195.737L96.7402 196.112ZM114.777 197.091L114.663 196.701C115.305 196.512 115.948 196.296 116.573 196.06L116.717 196.441C116.082 196.679 115.429 196.899 114.777 197.091ZM100.625 197.393C99.9642 197.229 99.303 197.039 98.659 196.826L98.7863 196.441C99.4205 196.65 100.072 196.837 100.722 196.998L100.625 197.393ZM110.779 197.94L110.725 197.537C111.388 197.448 112.056 197.333 112.71 197.193L112.794 197.591C112.131 197.732 111.453 197.849 110.779 197.94ZM104.656 198.069C103.978 198.009 103.296 197.919 102.628 197.807L102.695 197.407C103.353 197.518 104.025 197.604 104.693 197.664L104.656 198.069ZM107.142 198.183C106.994 198.183 106.846 198.181 106.698 198.179L106.705 197.773C107.374 197.783 108.053 197.768 108.72 197.731L108.743 198.135C108.214 198.166 107.675 198.183 107.142 198.183Z" fill="#299BCC"/>
<path d="M82.5395 3.97075L82.4804 3.56939C83.1534 3.47026 83.8418 3.41013 84.5264 3.39225L84.5373 3.7985C83.8688 3.81638 83.1967 3.87325 82.5395 3.97075ZM88.5234 4.16575C87.8731 4.026 87.2064 3.92363 86.5414 3.86188L86.5788 3.45887C87.2597 3.52062 87.9426 3.62462 88.6091 3.76924L88.5234 4.16575ZM78.6788 5.027L78.5253 4.65001C79.1574 4.39163 79.8118 4.16898 80.4702 3.99023L80.5773 4.38188C79.9346 4.55738 79.296 4.7735 78.6788 5.027ZM92.3079 5.47549C91.7086 5.18299 91.0852 4.92298 90.4554 4.70523L90.5883 4.32174C91.2334 4.54437 91.8721 4.81087 92.4861 5.10987L92.3079 5.47549ZM75.1841 6.97376L74.9452 6.64549C75.4977 6.24412 76.0798 5.87199 76.6754 5.54049L76.8731 5.89475C76.2917 6.21975 75.7235 6.58213 75.1841 6.97376ZM95.6695 7.65137C95.1568 7.224 94.6133 6.82426 94.0541 6.46188L94.2749 6.12063C94.8478 6.49113 95.4043 6.90061 95.9294 7.33773L95.6695 7.65137ZM72.2499 9.69725L71.9398 9.43398C72.3812 8.91398 72.8587 8.41513 73.3592 7.95038L73.6357 8.24773C73.147 8.70111 72.6806 9.18863 72.2499 9.69725ZM98.419 10.5601C98.0227 10.0255 97.5895 9.50875 97.1314 9.02288L97.4266 8.74501C97.8958 9.24063 98.3394 9.77037 98.7455 10.318L98.419 10.5601ZM70.0439 13.0399L69.6806 12.8579C69.9854 12.2469 70.3309 11.6489 70.7076 11.0785L71.0467 11.3011C70.6788 11.8585 70.3416 12.4435 70.0439 13.0399ZM100.399 14.0376C100.141 13.4234 99.8435 12.8189 99.5136 12.2404L99.8667 12.0389C100.205 12.632 100.509 13.2511 100.773 13.88L100.399 14.0376ZM68.7 16.8115L68.3037 16.7221C68.4535 16.0559 68.6458 15.3912 68.8751 14.7477L69.2577 14.8842C69.034 15.5115 68.8463 16.1599 68.7 16.8115ZM101.49 17.8889C101.386 17.2291 101.242 16.571 101.061 15.9291L101.452 15.8186C101.637 16.4751 101.785 17.1511 101.891 17.8255L101.49 17.8889ZM67.8898 20.8009C67.888 20.6985 67.8871 20.5945 67.8872 20.4905C67.8872 19.9104 67.9166 19.3237 67.9746 18.7501L68.3788 18.7907C68.3221 19.3514 68.2935 19.9234 68.2935 20.4905C68.2933 20.5912 68.2943 20.6936 68.2961 20.7944L67.8898 20.8009ZM101.976 22.5412L101.572 22.4925C101.651 21.8327 101.691 21.16 101.691 20.4905C101.691 20.289 101.688 20.0859 101.68 19.8844L102.086 19.8698C102.094 20.0761 102.097 20.2841 102.097 20.4905C102.097 21.1762 102.056 21.8652 101.976 22.5412ZM68.4509 24.8617C68.2771 24.202 68.1415 23.5244 68.0483 22.8484L68.4508 22.7931C68.5418 23.4529 68.674 24.1142 68.8437 24.7577L68.4509 24.8617ZM101.003 26.5241L100.623 26.3811C100.858 25.7571 101.057 25.1136 101.215 24.4652L101.61 24.5611C101.448 25.2257 101.244 25.8855 101.003 26.5241ZM69.9664 28.6707C69.6393 28.0711 69.3458 27.4471 69.0936 26.8134L69.4711 26.6623C69.7171 27.2814 70.0038 27.8907 70.3229 28.4757L69.9664 28.6707ZM99.1035 30.1609L98.7686 29.9317C99.1462 29.3809 99.4941 28.8024 99.8025 28.2125L100.163 28.401C99.8467 29.0055 99.4904 29.597 99.1035 30.1609ZM72.3462 32.0085C71.8863 31.5047 71.4523 30.9669 71.0561 30.4111L71.3868 30.1755C71.7737 30.7182 72.1975 31.2415 72.6465 31.7355L72.3462 32.0085ZM96.3957 33.2402L96.1248 32.938C96.6213 32.4927 97.0963 32.0134 97.5366 31.5129L97.8415 31.781C97.3907 32.2945 96.9042 32.7852 96.3957 33.2402ZM75.4498 34.6881C74.8841 34.3079 74.3351 33.8886 73.8177 33.4417L74.0832 33.1346C74.5882 33.5701 75.1245 33.9796 75.6768 34.3517L75.4498 34.6881ZM93.0367 35.59L92.8454 35.2309C93.4322 34.9189 94.007 34.5646 94.5536 34.1827L94.7865 34.5159C94.2265 34.9075 93.6378 35.2682 93.0367 35.59ZM79.103 36.5552C78.4626 36.3196 77.829 36.0434 77.2199 35.7314L77.4048 35.3706C77.9993 35.6745 78.6176 35.9442 79.2427 36.1734L79.103 36.5552ZM89.2129 37.0704L89.113 36.6771C89.7591 36.513 90.4016 36.3082 91.0228 36.0677L91.1696 36.4464C90.5332 36.6934 89.8749 36.903 89.2129 37.0704ZM83.0961 37.4912C82.4167 37.4165 81.7356 37.2995 81.072 37.1435L81.1646 36.7486C81.8125 36.9014 82.4774 37.0151 83.1406 37.0882L83.0961 37.4912ZM85.1468 37.5952L85.1433 37.189C85.8119 37.1825 86.4849 37.137 87.1435 37.0525L87.1951 37.4555C86.5208 37.5416 85.8316 37.5887 85.1468 37.5952Z" fill="#299BCC"/>
<path d="M16.7808 114.006C13.9807 114.006 11.7026 116.284 11.7026 119.084C11.7026 121.884 13.9807 124.162 16.7808 124.162C19.5808 124.162 21.8589 121.884 21.8589 119.084C21.8589 116.284 19.5808 114.006 16.7808 114.006ZM16.7808 124.975C13.5327 124.975 10.8901 122.333 10.8901 119.084C10.8901 115.836 13.5327 113.194 16.7808 113.194C20.0288 113.194 22.6714 115.836 22.6714 119.084C22.6714 122.333 20.0288 124.975 16.7808 124.975Z" fill="#299BCC"/>
<path d="M44.9756 174.131H213.811V49.3043H44.9756V174.131Z" fill="white"/>
<path d="M45.3818 173.725H213.406V49.7112H45.3818V173.725ZM214.218 174.537H44.5693V48.8987H214.218V174.537Z" fill="#299BCC"/>
<path d="M70.4878 160.318H56.6753V133.589H70.4878V160.318Z" fill="#299BCC"/>
<path d="M92.4253 160.318H78.6128V120.259H92.4253V160.318Z" fill="#299BCC"/>
<path d="M114.363 160.318H100.55V92.7672H114.363V160.318Z" fill="#F29D00"/>
<path d="M136.3 160.318H122.488V112.285H136.3V160.318Z" fill="#299BCC"/>
<path d="M158.237 160.318H144.425V91.1016H158.237V160.318Z" fill="#F29D00"/>
<path d="M180.175 160.318H166.362V94.7172H180.175V160.318Z" fill="#299BCC"/>
<path d="M188.3 160.318H202.112V70.7483H188.3V160.318Z" fill="#F29D00"/>
<path d="M60.8402 149.712L60.4717 148.987L83.5418 137.25L107.334 104.844L129.116 127.643L151.508 105.25L173.226 107.89L195.022 82.8645L195.633 83.3975L173.554 108.747L151.804 106.105L129.103 128.807L107.415 106.105L84.0826 137.887L60.8402 149.712Z" fill="#23396F"/>
<path d="M163.384 65.5274H95.4043V64.7149H163.384V65.5274Z" fill="#23396F"/>
<path d="M140.437 74.4649H118.351V73.6524H140.437V74.4649Z" fill="#23396F"/>
<path d="M42.2483 197.999C43.5731 191.015 42.7111 183.582 39.8298 177.149C36.9485 170.715 32.0642 165.317 26.1279 162.005C29.1348 165.819 29.91 171.053 30.2145 176.018C30.5192 180.984 30.4971 186.11 32.2985 190.703C34.1 195.295 38.3523 199.27 43.0032 198.694L42.2483 197.999Z" fill="#23396F"/>
<path d="M42.3458 199.761C41.0208 192.776 41.883 185.344 44.7643 178.91C47.6456 172.477 52.5298 167.079 58.4661 163.765C55.4592 167.581 54.6841 172.813 54.3794 177.779C54.0749 182.744 54.097 187.87 52.2955 192.463C50.494 197.057 46.2417 201.031 41.5908 200.454L42.3458 199.761Z" fill="#23396F"/>
<path d="M37.0169 196.437C34.0208 191.452 33.2027 185.051 34.8388 179.396C36.4747 173.741 40.5352 168.934 45.6501 166.598C44.5737 173.749 49.8876 180.655 48.9381 187.828C48.3235 192.469 44.8373 196.53 40.5434 197.604L37.0169 196.437Z" fill="#DBDDDF"/>
<path d="M39.1972 206.036C39.1842 198.911 41.6355 191.801 46.0735 186.093C50.5114 180.384 56.9115 176.107 64.0274 174.095C59.9871 177.209 58.0789 182.18 56.7355 186.985C55.3924 191.792 54.3708 196.823 51.4798 200.952C48.5886 205.081 43.1646 208.094 38.2363 206.56L39.1972 206.036Z" fill="#299BCC"/>
<path d="M41.4371 206.418C41.4491 199.292 39.1987 192.183 35.1241 186.474C31.0498 180.766 25.1739 176.489 18.6411 174.477C22.3503 177.591 24.1022 182.561 25.3355 187.368C26.5687 192.173 27.5065 197.204 30.1607 201.333C32.815 205.463 37.7947 208.475 42.3193 206.941L41.4371 206.418Z" fill="#299BCC"/>
<path d="M53.3898 230.733H27.6537L23.229 203.935H57.8145L53.3898 230.733Z" fill="white"/>
<path d="M27.912 230.427H53.131L57.4552 204.239H23.5879L27.912 230.427ZM53.6479 231.037H27.3949L22.8696 203.63H58.1734L53.6479 231.037Z" fill="#299BCC"/>
<path d="M87.478 90.2696H9.05859V28.6707H87.478V90.2696Z" fill="white"/>
<path d="M9.46484 89.8634H87.0717V29.077H9.46484V89.8634ZM87.8842 90.6759H8.65234V28.2645H87.8842V90.6759Z" fill="#299BCC"/>
<path d="M37.3991 48.7769H19.7124V38.762H37.3991V48.7769Z" fill="#DBDDDF"/>
<path d="M77.0347 40.1546H44.8574V39.7272H77.0347V40.1546Z" fill="#299BCC"/>
<path d="M77.0347 43.9832H44.8574V43.5574H77.0347V43.9832Z" fill="#DBDDDF"/>
<path d="M77.0347 47.8116H44.8574V47.3859H77.0347V47.8116Z" fill="#DBDDDF"/>
<path d="M31.7182 80.2011H28.0244V68.7595H31.7182V80.2011Z" fill="#DBDDDF"/>
<path d="M35.4119 80.2011H31.7183V63.1906H35.4119V80.2011Z" fill="#299BCC"/>
<path d="M45.4985 80.1296H41.8047V61.265H45.4985V80.1296Z" fill="#DBDDDF"/>
<path d="M49.1922 80.1296H45.4985V73.1486H49.1922V80.1296Z" fill="#299BCC"/>
<path d="M59.2781 80.1865H55.5845V67.1231H59.2781V80.1865Z" fill="#DBDDDF"/>
<path d="M62.9719 80.1865H59.2783V64.2339H62.9719V80.1865Z" fill="#299BCC"/>
<path d="M73.0584 80.102H69.3647V70.9922H73.0584V80.102Z" fill="#DBDDDF"/>
<path d="M76.7522 80.102H73.0586V58.366H76.7522V80.102Z" fill="#299BCC"/>
<path d="M76.7523 80.3149H19.8916V57.3715H20.3178V79.8891H76.7523V80.3149Z" fill="#299BCC"/>
<path d="M239.219 219.733L241.656 230.631L225.103 230.6L232.009 224.639L231.5 219.225L239.219 219.733Z" fill="black"/>
<path d="M234.554 227.177L231.812 224.873L232.204 224.405L234.947 226.709L234.554 227.177Z" fill="#EBEBFF"/>
<path d="M206.618 219.561L207.837 230.631H190.063L198.188 224.639V219.155L206.618 219.561Z" fill="black"/>
<path d="M200.734 227.177L197.991 224.873L198.384 224.405L201.126 226.709L200.734 227.177Z" fill="#EBEBFF"/>
<path d="M242.165 221.053L239.524 221.09L231.687 221.196L227.337 221.256C223.071 206.514 219.077 192.063 215.811 178.41C215.169 175.732 214.556 173.083 213.979 170.475C211.83 160.803 210.115 151.6 209.023 143.074C208.788 141.241 208.58 139.442 208.406 137.674C208.263 136.265 208.141 134.876 208.04 133.506L227.54 136.756C227.735 138.605 227.941 140.458 228.161 142.322C231.099 167.498 236.115 193.956 242.165 221.053Z" fill="#23396F"/>
<path d="M217.181 136.147L216.563 142.777L214.072 169.459L213.98 170.475L209.259 221.053H194.702C194.991 191.795 195.945 163.983 199.78 143.44C200.061 141.923 200.362 140.453 200.674 139.02L208.406 137.674L217.181 136.147Z" fill="#23396F"/>
<path d="M215.965 180.264L210.413 151.691L210.812 151.613L216.363 180.186L215.965 180.264Z" fill="#2E6EA5"/>
<path d="M216.563 142.777L217.179 136.155C218.91 136.208 220.641 136.241 222.371 136.241C222.504 136.241 222.638 136.241 222.771 136.241C222.803 136.239 222.836 136.239 222.87 136.239C223.419 136.239 224.008 136.254 224.619 136.269L227.54 136.756C227.735 138.605 227.942 140.458 228.161 142.322L216.563 142.777Z" fill="#2C2DA5"/>
<path d="M208.406 137.674C208.344 137.066 208.286 136.462 208.232 135.861L210.172 135.843C212.494 135.968 214.818 136.08 217.142 136.153L208.406 137.674Z" fill="#2C2DA5"/>
<path d="M199.78 143.44C200.061 141.924 200.362 140.453 200.674 139.02L208.406 137.674L217.142 136.153C217.155 136.153 217.168 136.155 217.179 136.155L216.563 142.777L209.023 143.074L199.78 143.44Z" fill="#2C2DA5"/>
<path d="M206.464 105.681L213.936 104.747L229.531 108.016L229.62 136.13C229.622 136.901 229.307 137.638 228.746 138.168C228.231 138.656 227.548 138.927 226.84 138.93L200.674 139.02L195.632 123.798L200.489 109.417L206.464 105.681Z" fill="white"/>
<path d="M215.783 111.841C214.17 111.841 212.606 111.268 211.388 110.122L211.597 109.9C213.918 112.084 217.564 112.08 220.267 109.893L220.458 110.13C219.048 111.271 217.392 111.841 215.783 111.841Z" fill="white"/>
<path d="M232.482 110.148C231.912 107.584 229.807 105.644 227.204 105.286L217.248 103.918L223.275 114.209L225.135 120.651L234.518 119.326L232.482 110.148Z" fill="white"/>
<path d="M236.526 130.337C236.291 133.82 234.186 135.302 231.513 135.911C229.432 136.384 227.007 136.33 224.849 136.275C224.118 136.257 223.417 136.238 222.771 136.241C218.57 136.252 214.369 136.07 210.172 135.843L199.509 135.943L198.29 134.047C199.679 132.084 203.436 129.513 210.001 131.068L227.031 127.209L225.135 120.649L234.519 119.328L236.44 127.994C236.554 128.863 236.578 129.638 236.526 130.337Z" fill="#FFBC96"/>
<path d="M190.774 123.249L197.478 131.678L198.696 131.983L199.701 122.172L192.841 118.935L190.774 123.249Z" fill="#FFBC96"/>
<path d="M213.119 103.85L203.328 105.398C200.619 105.827 198.292 107.561 197.107 110.036L192.842 118.935L199.701 122.172L200.422 115.122L213.119 103.85Z" fill="white"/>
<path d="M231.513 135.911C230.98 135.258 230.655 134.421 230.655 133.506C230.655 131.415 232.353 129.715 234.446 129.715C235.213 129.715 235.928 129.947 236.526 130.337C236.291 133.82 234.186 135.302 231.513 135.911Z" fill="#FFA988"/>
<path d="M198.442 134.063L198.138 134.029L200.271 115.106L200.574 115.14L198.442 134.063Z" fill="white"/>
<path d="M226.885 127.251L223.128 114.251L223.421 114.167L227.178 127.167L226.885 127.251Z" fill="white"/>
<path d="M219.458 81.61C219.404 80.9242 219.438 80.219 219.648 79.5446C219.856 78.8751 220.291 78.2495 220.915 77.8806C221.224 77.6986 221.567 77.5751 221.919 77.515C222.272 77.4532 222.631 77.4532 222.984 77.4939C223.689 77.5767 224.365 77.8319 224.96 78.2154C225.553 78.5989 226.062 79.1319 226.377 79.777C226.697 80.4189 226.765 81.1891 226.565 81.8748C226.369 82.5655 225.956 83.1602 225.478 83.664C224.991 84.1612 224.435 84.5805 223.848 84.9412L223.783 84.8421C224.339 84.4489 224.872 84.0199 225.322 83.5177C225.772 83.0205 226.146 82.4436 226.309 81.8066C226.474 81.1729 226.414 80.4887 226.115 79.9037C225.826 79.3155 225.347 78.8312 224.794 78.4689C224.242 78.1049 223.605 77.8595 222.95 77.7766C222.295 77.6921 221.614 77.7847 221.044 78.1032C220.472 78.4234 220.059 78.9823 219.844 79.6112C219.731 79.9248 219.661 80.2547 219.618 80.5895C219.579 80.9242 219.571 81.2639 219.576 81.6051L219.458 81.61Z" fill="#2E6EA5"/>
<path d="M226.039 81.7676C226.039 83.5665 224.581 85.0241 222.782 85.0241C220.983 85.0241 219.524 83.5665 219.524 81.7676C219.524 79.9688 220.983 78.5095 222.782 78.5095C224.581 78.5095 226.039 79.9688 226.039 81.7676Z" fill="#2E6EA5"/>
<path d="M225.249 99.7873L223.502 97.1141L224.176 100.072L218.148 101.664L206.821 102.122L207.735 93.1329C204.842 91.711 202.791 82.546 213.772 81.0023C215.767 80.7228 217.815 80.8999 219.667 81.6848C225.314 84.0735 227.223 90.4061 227.743 99.1291L225.249 99.7873Z" fill="#2E6EA5"/>
<path d="M215.837 109.3C213.393 109.3 211.412 107.319 211.412 104.875V95.2844H220.26V104.875C220.26 107.319 218.279 109.3 215.837 109.3Z" fill="#FFBC96"/>
<path d="M217.404 99.3128C216.456 102.106 214.237 103.413 211.411 104.121V99.9563L217.404 99.3128Z" fill="#2E6EA5"/>
<path d="M220.073 85.9748L219.787 98.3995C219.787 98.3995 214.564 102.2 210.908 101.107C209.681 100.741 208.848 99.3485 208.284 97.6146C208.016 96.7891 207.808 95.884 207.645 94.974C207.073 91.7029 207.101 88.3635 207.101 88.3635L220.073 85.9748Z" fill="#FFBC96"/>
<path d="M209.387 93.6155C209.387 93.986 209.166 94.285 208.891 94.285C208.618 94.285 208.397 93.986 208.397 93.6155C208.397 93.2466 208.618 92.9476 208.891 92.9476C209.166 92.9476 209.387 93.2466 209.387 93.6155Z" fill="#2E6EA5"/>
<path d="M213.211 93.3214C213.211 93.7487 212.961 94.0965 212.652 94.0965C212.343 94.0965 212.093 93.7487 212.093 93.3214C212.093 92.894 212.343 92.5479 212.652 92.5479C212.961 92.5479 213.211 92.894 213.211 93.3214Z" fill="#2E6EA5"/>
<path d="M214.473 91.7451C214.454 91.9352 213.818 91.9791 213.115 91.8556C212.41 91.7321 211.808 91.7679 211.922 91.2999C212.015 90.9164 212.572 90.9489 213.277 91.0724C213.981 91.1942 214.491 91.5794 214.473 91.7451Z" fill="#2E6EA5"/>
<path d="M207.582 92.1709C207.606 92.3594 208.147 92.3497 208.74 92.1709C209.334 91.9905 209.845 91.9775 209.73 91.5193C209.636 91.1455 209.165 91.2235 208.571 91.4039C207.978 91.5843 207.561 92.0084 207.582 92.1709Z" fill="#2E6EA5"/>
<path d="M215.454 96.3845C214.654 96.3845 214.006 95.7361 214.006 94.9383C214.006 94.1388 214.654 93.4904 215.454 93.4904C216.253 93.4904 216.902 94.1388 216.902 94.9383C216.902 95.7361 216.253 96.3845 215.454 96.3845Z" fill="#FFA988"/>
<path d="M208.284 97.6146C208.016 96.7891 207.808 95.884 207.646 94.974C208.369 95.0536 208.929 95.6679 208.929 96.4121C208.929 96.9159 208.674 97.353 208.284 97.6146Z" fill="#FFA988"/>
<path d="M210.531 94.207C210.547 94.3354 210.517 94.4686 210.466 94.584C210.416 94.7026 210.349 94.8034 210.283 94.896C210.149 95.0829 210.019 95.2438 209.985 95.39C209.967 95.4599 209.974 95.5346 209.992 95.6078C210.008 95.6809 210.049 95.7459 210.107 95.8093C210.224 95.9344 210.409 96.0286 210.611 96.1034L210.596 96.261C210.357 96.2886 210.097 96.2431 209.873 96.0774C209.763 95.9961 209.667 95.8743 209.616 95.7329C209.572 95.5948 209.553 95.4388 209.594 95.2925C209.678 95.0016 209.868 94.8261 210.016 94.6734C210.172 94.5174 210.305 94.3841 210.372 94.1956L210.531 94.207Z" fill="#2E6EA5"/>
<path d="M210.146 97.5025C210.681 99.2039 212.966 98.3394 213.143 96.7404L210.146 97.5025Z" fill="white"/>
<path d="M206.669 90.3411C210.492 90.3346 213.7 89.9836 216.723 88.513C217.049 91.009 218.12 92.2131 219.566 92.881L222.613 90.3411L221.04 85.2126L212.763 84.756L206.363 87.9556L206.669 90.3411Z" fill="#2E6EA5"/>
<path d="M221.957 94.6977C221.134 95.8677 219.805 96.352 218.991 95.7784C218.177 95.2064 218.183 93.7926 219.007 92.621C219.831 91.451 221.159 90.9667 221.973 91.5404C222.789 92.1124 222.78 93.5261 221.957 94.6977Z" fill="#FFBC96"/>
<path d="M219.771 94.5027C219.713 94.2915 219.695 94.0689 219.721 93.843C219.745 93.6171 219.821 93.3847 219.961 93.1865C220.101 92.9866 220.299 92.8322 220.514 92.7412C220.728 92.6502 220.954 92.6145 221.175 92.6275L221.203 92.7851C221.013 92.8729 220.835 92.9557 220.679 93.0581C220.525 93.1589 220.393 93.2775 220.291 93.4189C220.187 93.5602 220.117 93.7292 220.06 93.9112C220.005 94.0932 219.971 94.2899 219.93 94.4946L219.771 94.5027Z" fill="#2E6EA5"/>
<path d="M223.816 84.8909C223.393 84.6455 223.033 84.3611 222.675 84.0816L221.645 83.2317C221.307 82.9522 220.972 82.6744 220.624 82.4079C220.277 82.1365 219.917 81.8846 219.516 81.6067C220.004 81.5547 220.493 81.6701 220.941 81.8521C221.39 82.0406 221.799 82.3022 222.165 82.6077C222.532 82.9149 222.855 83.2626 223.135 83.6412C223.411 84.0247 223.655 84.431 223.816 84.8909Z" fill="#FFA121"/>
<path d="M209.394 139.059H198.628V135.875H209.394V139.059Z" fill="#DBDDDF"/>
<path d="M202.081 139.059H177.706L167.009 115.953H191.384L202.081 139.059Z" fill="#DBDDDF"/>
<path d="M193.059 138.025C192.487 138.129 192.146 138.599 192.118 139.156V136.637C192.118 136.129 191.756 135.666 191.252 135.609C190.674 135.542 190.186 135.979 190.16 136.537V135.521C190.16 135.008 189.79 134.54 189.279 134.489C188.691 134.429 188.195 134.889 188.195 135.466V136.537C188.169 135.979 187.682 135.542 187.104 135.609C186.6 135.666 186.237 136.129 186.237 136.637V138.636C186.21 138.124 185.821 137.491 185.29 137.442C184.198 137.339 184.439 139.259 184.439 139.259C184.755 141.199 185.329 141.413 186.492 141.496C188.308 141.626 190.147 141.621 192.006 141.495C193.176 141.417 193.36 141.29 193.872 139.549C194.044 138.8 193.896 137.874 193.059 138.025Z" fill="#FFBC96"/>
<path d="M186.263 137.263C186.345 137.673 186.374 138.084 186.389 138.495C186.395 138.701 186.397 138.908 186.389 139.114C186.38 139.32 186.366 139.527 186.33 139.733L186.211 139.736C186.166 139.532 186.14 139.327 186.12 139.12C186.101 138.916 186.091 138.709 186.086 138.505C186.078 138.092 186.085 137.679 186.143 137.266L186.263 137.263Z" fill="#D28572"/>
<path d="M188.256 136.535C188.337 136.971 188.368 137.408 188.384 137.843C188.391 138.063 188.392 138.282 188.384 138.5C188.378 138.719 188.362 138.938 188.329 139.158L188.209 139.161C188.163 138.943 188.136 138.726 188.118 138.508C188.097 138.29 188.087 138.071 188.08 137.853C188.072 137.416 188.079 136.977 188.137 136.538L188.256 136.535Z" fill="#D28572"/>
<path d="M190.219 136.533C190.307 136.946 190.343 137.359 190.365 137.773C190.375 137.981 190.378 138.189 190.373 138.397C190.369 138.605 190.357 138.813 190.326 139.021L190.206 139.026C190.157 138.821 190.128 138.615 190.107 138.409C190.084 138.201 190.07 137.994 190.061 137.786C190.048 137.372 190.048 136.956 190.1 136.54L190.219 136.533Z" fill="#D28572"/>
<path d="M192.764 138.15C192.671 138.267 192.608 138.41 192.546 138.556C192.486 138.704 192.427 138.855 192.37 139.008C192.313 139.159 192.257 139.314 192.193 139.466C192.131 139.619 192.065 139.77 191.982 139.92L191.868 139.889C191.873 139.717 191.901 139.549 191.938 139.385C191.977 139.221 192.026 139.059 192.088 138.899C192.151 138.742 192.221 138.584 192.315 138.436C192.409 138.292 192.521 138.14 192.695 138.053L192.764 138.15Z" fill="#D28572"/>
<path d="M243.364 86.0284V97.184L238.22 100.84H262.507V86.0284H243.364Z" fill="white"/>
<path d="M238.855 100.637H262.304V86.2315H243.567V97.2896L238.855 100.637ZM262.71 101.043H237.583L243.161 97.08V85.8253H262.71V101.043Z" fill="#299BCC"/>
<path d="M252.674 97.3725L249.549 94.363L250.113 93.778L252.471 96.0481L256.482 88.6966L257.195 89.085L252.674 97.3725Z" fill="#299BCC"/>
<path d="M263.183 231.037H0.574219V230.427H263.183V231.037Z" fill="#2E6EA5"/>
</svg>
