<svg width="299" height="296" viewBox="0 0 299 296" fill="none" xmlns="http://www.w3.org/2000/svg">
<mask id="mask0_589_88" style="mask-type:luminance" maskUnits="userSpaceOnUse" x="1" y="0" width="296" height="296">
<path d="M127.946 295.184C122.275 295.184 116.697 294.909 111.254 294.362C94.4299 292.673 60.5795 289.276 34.5471 263.781C34.4526 263.688 34.3604 263.599 34.2663 263.505H231.813C200.63 284.931 162.568 295.184 127.946 295.184ZM20.2709 246.018C-12.8708 193.4 -0.431011 108.107 43.8349 56.1704C50.1184 48.7977 92.9075 0.191402 158.423 0.191402C159.637 0.191402 160.856 0.208267 162.085 0.241981C211.565 1.60737 245.812 30.17 249.975 33.7268C255.233 38.2191 266.819 48.8799 277.136 65.6513C300.859 104.218 302.55 157.191 284.42 199.977L285.678 113.074C285.678 110.59 282.855 105.825 277.667 105.825C277.474 105.825 277.277 105.831 277.078 105.845L249.384 105.129L251.277 66.2371L223.001 35.0005L70.8769 34.0692C70.859 34.0692 70.84 34.0692 70.8221 34.0692C65.8483 34.0692 61.8796 38.2328 62.1261 43.2076L64.8938 100.355L29.2178 99.4311C29.1156 99.429 29.0131 99.4279 28.9113 99.4279C25.7841 99.4279 22.7797 100.666 20.5601 102.878C18.2682 105.162 17.0142 108.285 17.0907 111.519L20.2709 246.018Z" fill="white"/>
</mask>
<g mask="url(#mask0_589_88)">
<path d="M127.946 295.184C122.275 295.184 116.697 294.909 111.254 294.362C94.4299 292.673 60.5795 289.276 34.5471 263.781C34.4526 263.688 34.3604 263.599 34.2663 263.505H231.813C200.63 284.931 162.568 295.184 127.946 295.184ZM20.2709 246.018C-12.8708 193.4 -0.431011 108.107 43.8349 56.1704C50.1184 48.7977 92.9075 0.191402 158.423 0.191402C159.637 0.191402 160.856 0.208267 162.085 0.241981C211.565 1.60737 245.812 30.17 249.975 33.7268C255.233 38.2191 266.819 48.8799 277.136 65.6513C300.859 104.218 302.55 157.191 284.42 199.977L285.678 113.074C285.678 110.59 282.855 105.825 277.667 105.825C277.474 105.825 277.277 105.831 277.078 105.845L249.384 105.129L251.277 66.2371L223.001 35.0005L70.8769 34.0692C70.859 34.0692 70.84 34.0692 70.8221 34.0692C65.8483 34.0692 61.8796 38.2328 62.1261 43.2076L64.8938 100.355L29.2178 99.4311C29.1156 99.429 29.0131 99.4279 28.9113 99.4279C25.7841 99.4279 22.7797 100.666 20.5601 102.878C18.2682 105.162 17.0142 108.285 17.0907 111.519L20.2709 246.018Z" fill="#EEEEEE"/>
</g>
<mask id="mask1_589_88" style="mask-type:luminance" maskUnits="userSpaceOnUse" x="17" y="99" width="269" height="165">
<path d="M278.877 263.505H25.2636C22.6841 263.505 20.5736 261.397 20.5736 258.82L20.2709 246.018L17.0907 111.519C17.0142 108.285 18.2683 105.162 20.5601 102.878C22.7797 100.666 25.7841 99.428 28.9113 99.428C29.0131 99.428 29.1157 99.429 29.2178 99.4311L64.8938 100.355L65.1635 105.926L30.1927 104.989C30.1185 104.986 30.0441 104.985 29.9702 104.985C27.7759 104.985 25.6679 105.856 24.1099 107.41C22.4996 109.016 21.6139 111.214 21.6709 113.487L25.2037 254.324C25.2037 256.764 27.2004 258.762 29.6408 258.762H72.5636L72.592 259.34H241.878L241.906 258.762H272.761C275.202 258.762 277.199 256.764 277.199 254.324L279.19 122.016C278.962 114.274 272.356 111.354 268.1 111.354C267.979 111.354 267.86 111.356 267.743 111.361L249.105 110.861L249.384 105.129L277.078 105.845C277.277 105.831 277.474 105.825 277.667 105.825C282.855 105.825 285.678 110.59 285.678 113.074L284.42 199.977L283.567 258.82C283.567 261.397 281.457 263.505 278.877 263.505Z" fill="white"/>
</mask>
<g mask="url(#mask1_589_88)">
<path d="M278.877 263.505H25.2636C22.6841 263.505 20.5736 261.397 20.5736 258.82L20.2709 246.018L17.0907 111.519C17.0142 108.285 18.2683 105.162 20.5601 102.878C22.7797 100.666 25.7841 99.428 28.9113 99.428C29.0131 99.428 29.1157 99.429 29.2178 99.4311L64.8938 100.355L65.1635 105.926L30.1927 104.989C30.1185 104.986 30.0441 104.985 29.9702 104.985C27.7759 104.985 25.6679 105.856 24.1099 107.41C22.4996 109.016 21.6139 111.214 21.6709 113.487L25.2037 254.324C25.2037 256.764 27.2004 258.762 29.6408 258.762H72.5636L72.592 259.34H241.878L241.906 258.762H272.761C275.202 258.762 277.199 256.764 277.199 254.324L279.19 122.016C278.962 114.274 272.356 111.354 268.1 111.354C267.979 111.354 267.86 111.356 267.743 111.361L249.105 110.861L249.384 105.129L277.078 105.845C277.277 105.831 277.474 105.825 277.667 105.825C282.855 105.825 285.678 110.59 285.678 113.074L284.42 199.977L283.567 258.82C283.567 261.397 281.457 263.505 278.877 263.505Z" fill="#DBDDDF"/>
</g>
<mask id="mask2_589_88" style="mask-type:luminance" maskUnits="userSpaceOnUse" x="21" y="104" width="259" height="155">
<path d="M272.762 258.762H241.907L248.917 114.74L265.523 115.186C265.543 115.185 265.616 115.183 265.734 115.183C266.656 115.183 270.308 115.339 272.709 117.638C274.159 119.028 274.9 120.977 274.911 123.418L274.307 164.515C274.302 164.873 274.589 165.169 274.948 165.174H274.959C275.313 165.174 275.602 164.89 275.608 164.534L276.211 123.425C276.199 120.605 275.323 118.342 273.608 116.7C270.908 114.112 267.009 113.879 265.825 113.879C265.674 113.879 265.566 113.884 265.512 113.887L248.98 113.443L249.106 110.861L267.744 111.361C267.861 111.356 267.98 111.354 268.101 111.354C272.356 111.354 278.963 114.274 279.191 122.016L277.199 254.324C277.199 256.764 275.203 258.762 272.762 258.762ZM72.5643 258.762H29.6415C27.2011 258.762 25.2044 256.764 25.2044 254.324L21.6715 113.487C21.6145 111.214 22.5003 109.016 24.1106 107.41C25.6686 105.856 27.7765 104.985 29.9708 104.985C30.0448 104.985 30.1192 104.986 30.1933 104.989L65.1642 105.926L72.5643 258.762Z" fill="white"/>
</mask>
<g mask="url(#mask2_589_88)">
<path d="M272.762 258.762H241.907L248.917 114.74L265.523 115.186C265.543 115.185 265.616 115.183 265.734 115.183C266.656 115.183 270.308 115.339 272.709 117.638C274.159 119.028 274.9 120.977 274.911 123.418L274.307 164.515C274.302 164.873 274.589 165.169 274.948 165.174H274.959C275.313 165.174 275.602 164.89 275.608 164.534L276.211 123.425C276.199 120.605 275.323 118.342 273.608 116.7C270.908 114.112 267.009 113.879 265.825 113.879C265.674 113.879 265.566 113.884 265.512 113.887L248.98 113.443L249.106 110.861L267.744 111.361C267.861 111.356 267.98 111.354 268.101 111.354C272.356 111.354 278.963 114.274 279.191 122.016L277.199 254.324C277.199 256.764 275.203 258.762 272.762 258.762ZM72.5643 258.762H29.6415C27.2011 258.762 25.2044 256.764 25.2044 254.324L21.6715 113.487C21.6145 111.214 22.5003 109.016 24.1106 107.41C25.6686 105.856 27.7765 104.985 29.9708 104.985C30.0448 104.985 30.1192 104.986 30.1933 104.989L65.1642 105.926L72.5643 258.762Z" fill="#F7F7F7"/>
</g>
<path d="M274.572 191.469H274.562C274.203 191.463 273.917 191.168 273.922 190.808L274.079 180.079C274.084 179.723 274.375 179.438 274.729 179.438H274.738C275.098 179.444 275.385 179.739 275.379 180.098L275.222 190.828C275.217 191.183 274.927 191.469 274.572 191.469Z" fill="white"/>
<path d="M274.958 165.174H274.947C274.588 165.169 274.301 164.873 274.307 164.515L274.91 123.418C274.899 120.977 274.158 119.028 272.708 117.638C270.001 115.045 265.702 115.177 265.522 115.186L189.595 113.149C189.236 113.141 188.953 112.842 188.962 112.482C188.972 112.123 189.248 111.818 189.63 111.85L265.512 113.887C265.984 113.858 270.56 113.779 273.607 116.7C275.322 118.342 276.198 120.605 276.21 123.425L275.607 164.534C275.601 164.89 275.312 165.174 274.958 165.174Z" fill="white"/>
<mask id="mask3_589_88" style="mask-type:luminance" maskUnits="userSpaceOnUse" x="-1" y="262" width="300" height="14">
<path d="M0.595186 275.604H298.405C298.732 275.604 299 275.336 299 275.008V263.393C299 263.067 298.732 262.798 298.405 262.798H0.595186C0.267639 262.798 -0.000488281 263.067 -0.000488281 263.393V275.008C-0.000488281 275.336 0.267639 275.604 0.595186 275.604Z" fill="white"/>
</mask>
<g mask="url(#mask3_589_88)">
<path d="M0.595186 275.604H298.405C298.732 275.604 299 275.336 299 275.008V263.393C299 263.067 298.732 262.798 298.405 262.798H0.595186C0.267639 262.798 -0.000488281 263.067 -0.000488281 263.393V275.008C-0.000488281 275.336 0.267639 275.604 0.595186 275.604Z" fill="#DBDDDF"/>
</g>
<path d="M223.002 35.0005L70.8774 34.0692C65.8783 34.0387 61.879 38.2149 62.1266 43.2076L72.5925 259.34H241.878L251.278 66.2371L223.002 35.0005Z" fill="white"/>
<path d="M229.327 65.312C224.371 65.1371 220.562 60.8661 220.952 55.9228L222.583 35.285L251.307 66.1106L229.327 65.312Z" fill="#2E6EA5"/>
<path d="M96.3833 172.233C117.472 171.892 198.423 170.495 218.864 170.142C221.443 170.098 223.563 171.66 223.549 173.59C223.537 175.427 221.583 176.922 219.13 176.973L96.7247 179.507C94.3669 179.556 92.3398 178.252 92.0491 176.499L91.9753 176.056C91.6435 174.052 93.6873 172.276 96.3833 172.233Z" fill="#DBDDDF"/>
<path d="M94.9077 193.691C95.2627 194.142 95.9138 194.418 96.6123 194.411L180.656 193.639C181.711 193.63 182.559 192.99 182.566 192.2L182.595 188.054C182.601 187.23 181.691 186.564 180.591 186.588L98.8848 188.295C95.2459 188.371 93.0598 191.337 94.9077 193.691Z" fill="#DBDDDF"/>
<path d="M95.9783 209.738C117.066 209.397 198.017 208 218.459 207.647C221.037 207.603 223.157 209.164 223.143 211.095C223.131 212.933 221.178 214.427 218.724 214.478L96.3186 217.012C93.9607 217.061 91.9348 215.757 91.6429 214.004L91.5703 213.56C91.2373 211.557 93.2812 209.781 95.9783 209.738Z" fill="#DBDDDF"/>
<path d="M94.5021 231.195C94.856 231.647 95.5082 231.922 96.2067 231.915L180.25 231.144C181.306 231.135 182.154 230.495 182.159 229.705L182.189 225.558C182.194 224.734 181.285 224.07 180.185 224.093L98.4781 225.801C94.8392 225.876 92.6531 228.841 94.5021 231.195Z" fill="#DBDDDF"/>
<path d="M193.96 130C193.944 130 193.928 130 193.913 130L129.903 129.142C128.795 129.127 127.817 128.411 127.491 127.372L108.13 65.5692L97.4306 65.822C97.4064 65.822 97.3837 65.822 97.3595 65.822C96.0504 65.822 95 64.9516 95 63.6367C95 62.2978 96.0874 61.3649 97.4306 61.3294L109.95 61.0014C109.973 61 109.996 61 110.019 61C111.075 61 112 61.646 112.314 62.6428L114.618 69.9525L205.813 68.0427C205.846 68.0413 205.877 68.0413 205.909 68.0413C206.875 68.0413 207.779 68.3508 208.361 69.0679C208.964 69.8076 209.153 70.7419 208.873 71.6507L198.095 106.462C197.704 107.727 196.474 108.642 195.077 108.642C195.076 108.642 195.074 108.642 195.073 108.642L126.784 108.538L131.77 124.584L193.913 125.253C195.415 125.27 196.635 126.242 196.635 127.66C196.635 129.064 195.441 130 193.96 130Z" fill="#299BCC"/>
<path d="M139.707 152C139.621 152 139.535 151.999 139.448 151.996C134.226 151.855 130 147.504 130 142.296C130 137.138 134.143 133 139.294 133C139.345 133 139.397 133 139.448 133C144.702 133.084 149 137.438 149 142.704C149 147.883 144.843 152 139.707 152ZM139.363 138.065C136.962 138.065 135.026 139.994 135.026 142.403C135.026 144.841 137.007 146.873 139.448 146.93C139.485 146.932 139.52 146.932 139.556 146.932C141.954 146.932 143.892 145.007 143.892 142.594C143.892 140.143 141.896 138.113 139.448 138.067C139.42 138.065 139.391 138.065 139.363 138.065Z" fill="#299BCC"/>
<path d="M182.223 153C182.131 153 182.037 152.999 181.943 152.996C176.447 152.852 172 148.498 172 143.29C172 138.136 176.356 134 181.777 134C181.832 134 181.888 134.001 181.943 134.001C187.474 134.087 192 138.443 192 143.708C192 148.886 187.627 153 182.223 153ZM181.852 139.066C179.325 139.066 177.289 140.993 177.289 143.402C177.289 145.839 179.374 147.87 181.943 147.931C181.982 147.932 182.02 147.932 182.06 147.932C184.583 147.932 186.622 146.01 186.622 143.597C186.622 141.147 184.52 139.114 181.943 139.066C181.913 139.066 181.882 139.066 181.852 139.066Z" fill="#299BCC"/>
<mask id="mask4_589_88" style="mask-type:luminance" maskUnits="userSpaceOnUse" x="45" y="121" width="43" height="37">
<path d="M45.9399 157.867C45.4541 157.867 45.0532 157.481 45.0383 156.993C45.0284 156.665 44.8199 148.863 47.1166 140.532C50.2103 129.312 56.4148 122.661 65.0596 121.301C69.2949 120.633 73.0697 121.633 76.2788 124.272C86.7363 132.874 87.7309 155.953 87.7688 156.93C87.7877 157.429 87.399 157.848 86.9007 157.867C86.3992 157.879 85.9841 157.497 85.9651 156.999C85.9556 156.768 84.9632 133.75 75.1305 125.664C72.3375 123.369 69.0441 122.499 65.3399 123.083C46.1261 126.108 46.8332 156.629 46.8427 156.938C46.8579 157.436 46.4662 157.852 45.9679 157.867H45.9399Z" fill="white"/>
</mask>
<g mask="url(#mask4_589_88)">
<path d="M45.9399 157.867C45.4541 157.867 45.0532 157.481 45.0383 156.993C45.0284 156.665 44.8199 148.863 47.1166 140.532C50.2103 129.312 56.4148 122.661 65.0596 121.301C69.2949 120.633 73.0697 121.633 76.2788 124.272C86.7363 132.874 87.7309 155.953 87.7688 156.93C87.7877 157.429 87.399 157.848 86.9007 157.867C86.3992 157.879 85.9841 157.497 85.9651 156.999C85.9556 156.768 84.9632 133.75 75.1305 125.664C72.3375 123.369 69.0441 122.499 65.3399 123.083C46.1261 126.108 46.8332 156.629 46.8427 156.938C46.8579 157.436 46.4662 157.852 45.9679 157.867H45.9399Z" fill="#44BFE2"/>
</g>
<mask id="mask5_589_88" style="mask-type:luminance" maskUnits="userSpaceOnUse" x="7" y="148" width="94" height="115">
<path d="M7.9223 256.687L23.4308 149.741L81.6905 148.761L100.468 262.631H12.967C9.8545 262.631 7.46811 259.82 7.9223 256.687Z" fill="white"/>
</mask>
<g mask="url(#mask5_589_88)">
<path d="M7.9223 256.687L23.4308 149.741L81.6905 148.761L100.468 262.631H12.967C9.8545 262.631 7.46811 259.82 7.9223 256.687Z" fill="#F29D00"/>
</g>
<mask id="mask6_589_88" style="mask-type:luminance" maskUnits="userSpaceOnUse" x="81" y="148" width="35" height="115">
<path d="M93.0044 149.741L81.6904 148.761L100.468 262.631H111.701C113.978 262.631 115.68 260.503 115.216 258.235L93.0044 149.741Z" fill="white"/>
</mask>
<g mask="url(#mask6_589_88)">
<path d="M93.0044 149.741L81.6904 148.761L100.468 262.631H111.701C113.978 262.631 115.68 260.503 115.216 258.235L93.0044 149.741Z" fill="#F28300"/>
</g>
<mask id="mask7_589_88" style="mask-type:luminance" maskUnits="userSpaceOnUse" x="32" y="120" width="44" height="38">
<path d="M74.3473 157.623C73.8648 157.623 73.4645 157.241 73.4455 156.754C73.4371 156.523 72.4436 133.505 62.6109 125.42C59.819 123.124 56.5256 122.255 52.8212 122.839C33.6223 125.86 34.3143 156.385 34.3236 156.692C34.3385 157.191 33.947 157.607 33.4487 157.622C32.9452 157.643 32.5346 157.245 32.5192 156.747C32.5094 156.419 32.3008 148.618 34.5977 140.288C37.6913 129.066 43.8958 122.416 52.5407 121.055C56.7766 120.388 60.5512 121.388 63.7592 124.027C74.2178 132.629 75.2123 155.707 75.2492 156.686C75.2681 157.184 74.8804 157.603 74.3821 157.622C74.3705 157.623 74.3589 157.623 74.3473 157.623Z" fill="white"/>
</mask>
<g mask="url(#mask7_589_88)">
<path d="M74.3473 157.623C73.8648 157.623 73.4645 157.241 73.4455 156.754C73.4371 156.523 72.4436 133.505 62.6109 125.42C59.819 123.124 56.5256 122.255 52.8212 122.839C33.6223 125.86 34.3143 156.385 34.3236 156.692C34.3385 157.191 33.947 157.607 33.4487 157.622C32.9452 157.643 32.5346 157.245 32.5192 156.747C32.5094 156.419 32.3008 148.618 34.5977 140.288C37.6913 129.066 43.8958 122.416 52.5407 121.055C56.7766 120.388 60.5512 121.388 63.7592 124.027C74.2178 132.629 75.2123 155.707 75.2492 156.686C75.2681 157.184 74.8804 157.603 74.3821 157.622C74.3705 157.623 74.3589 157.623 74.3473 157.623Z" fill="#44BFE2"/>
</g>
<mask id="mask8_589_88" style="mask-type:luminance" maskUnits="userSpaceOnUse" x="229" y="285" width="23" height="3">
<path d="M229.804 285.622C233.623 285.952 240.247 286.488 245.471 286.718C248.61 286.856 250.418 286.549 251.459 286.132C251.457 286.249 251.454 286.36 251.45 286.463C251.425 287.013 250.979 287.452 250.423 287.483C240.554 288.034 232.704 287.674 229.91 287.503C229.333 287.469 228.988 286.841 229.283 286.348C229.432 286.101 229.61 285.86 229.804 285.622Z" fill="white"/>
</mask>
<g mask="url(#mask8_589_88)">
<path d="M229.804 285.622C233.623 285.952 240.247 286.488 245.471 286.718C248.61 286.856 250.418 286.549 251.459 286.132C251.457 286.249 251.454 286.36 251.45 286.463C251.425 287.013 250.979 287.452 250.423 287.483C240.554 288.034 232.704 287.674 229.91 287.503C229.333 287.469 228.988 286.841 229.283 286.348C229.432 286.101 229.61 285.86 229.804 285.622Z" fill="#2E6EA5"/>
</g>
<mask id="mask9_589_88" style="mask-type:luminance" maskUnits="userSpaceOnUse" x="229" y="277" width="23" height="10">
<path d="M245.47 286.718C240.247 286.488 233.622 285.952 229.804 285.622C233.558 281.017 245.47 277.913 245.47 277.913H248.835C251.149 281.249 251.484 284.425 251.459 286.132C250.418 286.549 248.61 286.856 245.47 286.718Z" fill="white"/>
</mask>
<g mask="url(#mask9_589_88)">
<path d="M245.47 286.718C240.247 286.488 233.622 285.952 229.804 285.622C233.558 281.017 245.47 277.913 245.47 277.913H248.835C251.149 281.249 251.484 284.425 251.459 286.132C250.418 286.549 248.61 286.856 245.47 286.718Z" fill="black"/>
</g>
<mask id="mask10_589_88" style="mask-type:luminance" maskUnits="userSpaceOnUse" x="243" y="272" width="7" height="9">
<path d="M249.401 272.421L249.086 278.652C249.052 279.326 248.548 279.893 247.871 279.99C247.199 280.085 246.299 280.098 245.344 279.78C244.757 279.584 244.321 279.09 244.212 278.486L243.125 272.421H249.401Z" fill="white"/>
</mask>
<g mask="url(#mask10_589_88)">
<path d="M249.401 272.421L249.086 278.652C249.052 279.326 248.548 279.893 247.871 279.99C247.199 280.085 246.299 280.098 245.344 279.78C244.757 279.584 244.321 279.09 244.212 278.486L243.125 272.421H249.401Z" fill="url(#paint0_linear_589_88)"/>
</g>
<mask id="mask11_589_88" style="mask-type:luminance" maskUnits="userSpaceOnUse" x="282" y="290" width="10" height="5">
<path d="M288.452 292.809C290.107 292.511 290.856 291.4 291.171 290.211C291.172 290.222 291.174 290.232 291.176 290.243C291.42 291.496 290.856 292.795 289.726 293.414C288.362 294.16 286.87 294.287 285.712 294.226C284.469 294.16 283.329 293.495 282.702 292.432L282.693 292.415C283.94 293.213 285.691 293.307 288.452 292.809Z" fill="white"/>
</mask>
<g mask="url(#mask11_589_88)">
<path d="M288.452 292.809C290.107 292.511 290.856 291.4 291.171 290.211C291.172 290.222 291.174 290.232 291.176 290.243C291.42 291.496 290.856 292.795 289.726 293.414C288.362 294.16 286.87 294.287 285.712 294.226C284.469 294.16 283.329 293.495 282.702 292.432L282.693 292.415C283.94 293.213 285.691 293.307 288.452 292.809Z" fill="#2E6EA5"/>
</g>
<mask id="mask12_589_88" style="mask-type:luminance" maskUnits="userSpaceOnUse" x="278" y="274" width="14" height="20">
<path d="M280.646 274.341H283.421C287.648 274.229 290.302 285.749 291.171 290.211C290.856 291.4 290.107 292.511 288.452 292.809C285.691 293.307 283.94 293.213 282.693 292.415C280.41 288.532 279.277 282.845 278.734 279.525C278.114 275.75 280.646 274.341 280.646 274.341Z" fill="white"/>
</mask>
<g mask="url(#mask12_589_88)">
<path d="M280.646 274.341H283.421C287.648 274.229 290.302 285.749 291.171 290.211C290.856 291.4 290.107 292.511 288.452 292.809C285.691 293.307 283.94 293.213 282.693 292.415C280.41 288.532 279.277 282.845 278.734 279.525C278.114 275.75 280.646 274.341 280.646 274.341Z" fill="black"/>
</g>
<mask id="mask13_589_88" style="mask-type:luminance" maskUnits="userSpaceOnUse" x="277" y="268" width="8" height="10">
<path d="M283.065 268.557L284.605 274.685C284.794 275.436 284.434 276.214 283.74 276.57C282.878 277.012 281.665 277.477 280.549 277.343C280.024 277.28 279.589 276.91 279.415 276.416L277.153 269.968L283.065 268.557Z" fill="white"/>
</mask>
<g mask="url(#mask13_589_88)">
<path d="M283.065 268.557L284.605 274.685C284.794 275.436 284.434 276.214 283.74 276.57C282.878 277.012 281.665 277.477 280.549 277.343C280.024 277.28 279.589 276.91 279.415 276.416L277.153 269.968L283.065 268.557Z" fill="url(#paint1_linear_589_88)"/>
</g>
<mask id="mask14_589_88" style="mask-type:luminance" maskUnits="userSpaceOnUse" x="228" y="186" width="57" height="90">
<path d="M228.865 187.847C228.865 187.847 242.634 273.914 242.407 274.387C242.407 274.387 246.209 276.116 250.355 274.608C250.355 274.608 249.111 228.599 246.192 210.957C246.192 210.957 269.692 252.08 277.154 272.572C277.154 272.572 281.046 272.107 284.267 269.987C284.267 269.987 258.967 195.967 252.216 186.108L228.865 187.847Z" fill="white"/>
</mask>
<g mask="url(#mask14_589_88)">
<path d="M228.865 187.847C228.865 187.847 242.634 273.914 242.407 274.387C242.407 274.387 246.209 276.116 250.355 274.608C250.355 274.608 249.111 228.599 246.192 210.957C246.192 210.957 269.692 252.08 277.154 272.572C277.154 272.572 281.046 272.107 284.267 269.987C284.267 269.987 258.967 195.967 252.216 186.108L228.865 187.847Z" fill="#23396F"/>
</g>
<mask id="mask15_589_88" style="mask-type:luminance" maskUnits="userSpaceOnUse" x="236" y="200" width="11" height="11">
<path d="M245.644 210.509C245.717 210.509 245.791 210.489 245.858 210.447C246.049 210.328 246.106 210.077 245.987 209.887L240.843 201.668C240.782 201.573 240.687 201.507 240.578 201.485L236.791 200.723C236.569 200.679 236.357 200.822 236.312 201.041C236.268 201.261 236.41 201.476 236.63 201.521L240.245 202.248L245.298 210.318C245.375 210.441 245.508 210.509 245.644 210.509Z" fill="white"/>
</mask>
<g mask="url(#mask15_589_88)">
<path d="M245.644 210.509C245.717 210.509 245.791 210.489 245.858 210.447C246.049 210.328 246.106 210.077 245.987 209.887L240.843 201.668C240.782 201.573 240.687 201.507 240.578 201.485L236.791 200.723C236.569 200.679 236.357 200.822 236.312 201.041C236.268 201.261 236.41 201.476 236.63 201.521L240.245 202.248L245.298 210.318C245.375 210.441 245.508 210.509 245.644 210.509Z" fill="white"/>
</g>
<mask id="mask16_589_88" style="mask-type:luminance" maskUnits="userSpaceOnUse" x="165" y="103" width="35" height="38">
<path d="M165.679 103.567C165.679 103.567 174.97 105.616 180.621 108.226C181.743 108.744 182.639 109.65 183.149 110.767C184.839 114.469 189.896 123.753 199.702 128.183C198.289 130.058 196.016 133.957 195.025 140.51C189.135 136.126 184.051 128.805 181.61 116.799C181.61 116.799 179.75 117.809 177.431 116.683C176.206 116.088 174.792 115.244 173.73 114.58C172.671 113.919 171.883 112.891 171.578 111.69C171.173 110.105 171.411 108.711 171.411 107.215L166.636 105.734C166.636 105.734 165.2 105.193 165.679 103.567Z" fill="white"/>
</mask>
<g mask="url(#mask16_589_88)">
<path d="M165.679 103.567C165.679 103.567 174.97 105.616 180.621 108.226C181.743 108.744 182.639 109.65 183.149 110.767C184.839 114.469 189.896 123.753 199.702 128.183C198.289 130.058 196.016 133.957 195.025 140.51C189.135 136.126 184.051 128.805 181.61 116.799C181.61 116.799 179.75 117.809 177.431 116.683C176.206 116.088 174.792 115.244 173.73 114.58C172.671 113.919 171.883 112.891 171.578 111.69C171.173 110.105 171.411 108.711 171.411 107.215L166.636 105.734C166.636 105.734 165.2 105.193 165.679 103.567Z" fill="url(#paint2_linear_589_88)"/>
</g>
<mask id="mask17_589_88" style="mask-type:luminance" maskUnits="userSpaceOnUse" x="195" y="127" width="81" height="64">
<path d="M195.026 140.51C196.016 133.957 198.29 130.058 199.703 128.183C205.794 130.936 213.719 131.816 223.81 128.319C224.74 127.997 225.71 127.808 226.693 127.75C232.065 127.435 249.768 126.86 264.417 131.7C267.499 132.719 269.996 134.998 271.282 137.951C275.245 147.044 281.66 167.752 263.851 178.208C262.482 174.811 260.903 172.08 259.553 170.073C262.421 165.237 263.27 158.629 258.181 150.024C254.47 160.046 252.728 174.667 252.365 181.138C252.245 183.268 252.619 185.395 253.454 187.361L253.546 187.576C253.725 187.997 253.479 188.481 253.029 188.582C243.003 190.833 232.575 190.222 229.46 189.964C228.904 189.919 228.441 189.521 228.314 188.983C223.439 168.44 223.427 154.427 224.621 145.569C220.06 146.589 206.114 148.763 195.026 140.51Z" fill="white"/>
</mask>
<g mask="url(#mask17_589_88)">
<path d="M195.026 140.51C196.016 133.957 198.29 130.058 199.703 128.183C205.794 130.936 213.719 131.816 223.81 128.319C224.74 127.997 225.71 127.808 226.693 127.75C232.065 127.435 249.768 126.86 264.417 131.7C267.499 132.719 269.996 134.998 271.282 137.951C275.245 147.044 281.66 167.752 263.851 178.208C262.482 174.811 260.903 172.08 259.553 170.073C262.421 165.237 263.27 158.629 258.181 150.024C254.47 160.046 252.728 174.667 252.365 181.138C252.245 183.268 252.619 185.395 253.454 187.361L253.546 187.576C253.725 187.997 253.479 188.481 253.029 188.582C243.003 190.833 232.575 190.222 229.46 189.964C228.904 189.919 228.441 189.521 228.314 188.983C223.439 168.44 223.427 154.427 224.621 145.569C220.06 146.589 206.114 148.763 195.026 140.51Z" fill="white"/>
</g>
<mask id="mask18_589_88" style="mask-type:luminance" maskUnits="userSpaceOnUse" x="224" y="132" width="5" height="15">
<path d="M224.601 146.122C224.802 146.122 224.977 145.972 225.004 145.768C226.149 137.12 228.481 133.345 228.503 133.308C228.623 133.118 228.568 132.866 228.378 132.746C228.188 132.627 227.937 132.683 227.817 132.872C227.717 133.029 225.37 136.808 224.197 145.662C224.168 145.884 224.325 146.088 224.547 146.118C224.566 146.121 224.583 146.122 224.601 146.122Z" fill="white"/>
</mask>
<g mask="url(#mask18_589_88)">
<path d="M224.601 146.122C224.802 146.122 224.977 145.972 225.004 145.768C226.149 137.12 228.481 133.345 228.503 133.308C228.623 133.118 228.568 132.866 228.378 132.746C228.188 132.627 227.937 132.683 227.817 132.872C227.717 133.029 225.37 136.808 224.197 145.662C224.168 145.884 224.325 146.088 224.547 146.118C224.566 146.121 224.583 146.122 224.601 146.122Z" fill="#44BFE2"/>
</g>
<mask id="mask19_589_88" style="mask-type:luminance" maskUnits="userSpaceOnUse" x="239" y="115" width="13" height="18">
<path d="M249.343 115.783C249.343 115.783 250.358 126.507 251.251 129.679C251.386 130.161 251.177 130.669 250.74 130.918C249.224 131.784 245.589 133.197 240.616 130.76C239.81 130.365 239.327 129.526 239.364 128.636L239.802 118.274L249.343 115.783Z" fill="white"/>
</mask>
<g mask="url(#mask19_589_88)">
<path d="M249.343 115.783C249.343 115.783 250.358 126.507 251.251 129.679C251.386 130.161 251.177 130.669 250.74 130.918C249.224 131.784 245.589 133.197 240.616 130.76C239.81 130.365 239.327 129.526 239.364 128.636L239.802 118.274L249.343 115.783Z" fill="url(#paint3_linear_589_88)"/>
</g>
<mask id="mask20_589_88" style="mask-type:luminance" maskUnits="userSpaceOnUse" x="235" y="102" width="18" height="19">
<path d="M239.583 102.064C239.583 102.064 236.339 109.516 236.121 113.427C235.904 117.339 235.061 119.877 239.583 120.664C244.106 121.452 247.916 119.199 249.981 115.303C249.981 115.303 253.214 109.3 252.489 106.841C251.763 104.382 239.583 102.064 239.583 102.064Z" fill="white"/>
</mask>
<g mask="url(#mask20_589_88)">
<path d="M239.583 102.064C239.583 102.064 236.339 109.516 236.121 113.427C235.904 117.339 235.061 119.877 239.583 120.664C244.106 121.452 247.916 119.199 249.981 115.303C249.981 115.303 253.214 109.3 252.489 106.841C251.763 104.382 239.583 102.064 239.583 102.064Z" fill="url(#paint4_linear_589_88)"/>
</g>
<mask id="mask21_589_88" style="mask-type:luminance" maskUnits="userSpaceOnUse" x="235" y="93" width="24" height="24">
<path d="M248.435 112.501L248.177 112.389C247.85 112.243 247.709 111.853 247.874 111.535C248.512 110.304 249.755 107.479 248.149 106.821C246.08 105.971 237.88 104.3 236.111 101.391C234.411 98.5946 235.917 94.9851 238.181 93.959C238.333 93.8894 238.512 93.9442 238.589 94.0917L238.778 94.4489C238.907 94.6933 239.268 94.6554 239.345 94.3899C239.418 94.1349 239.757 94.0864 239.898 94.3109C240.442 95.1811 241.91 96.5928 245.836 97.3166C251.415 98.347 255.104 100.605 255.196 104.46C255.201 104.705 255.463 104.841 255.671 104.714C256.083 104.463 256.743 104.345 257.623 105.085C259.156 106.374 258.529 109.716 255.17 112.466C255.011 112.596 255.012 112.845 255.184 112.958C255.793 113.354 256.701 114.298 254.349 115.555C251.916 116.856 250.099 116.748 249.399 116.633C249.226 116.605 249.114 116.436 249.152 116.264L249.899 112.875C249.941 112.684 249.794 112.501 249.598 112.501H248.435Z" fill="white"/>
</mask>
<g mask="url(#mask21_589_88)">
<path d="M248.435 112.501L248.177 112.389C247.85 112.243 247.709 111.853 247.874 111.535C248.512 110.304 249.755 107.479 248.149 106.821C246.08 105.971 237.88 104.3 236.111 101.391C234.411 98.5946 235.917 94.9851 238.181 93.959C238.333 93.8894 238.512 93.9442 238.589 94.0917L238.778 94.4489C238.907 94.6933 239.268 94.6554 239.345 94.3899C239.418 94.1349 239.757 94.0864 239.898 94.3109C240.442 95.1811 241.91 96.5928 245.836 97.3166C251.415 98.347 255.104 100.605 255.196 104.46C255.201 104.705 255.463 104.841 255.671 104.714C256.083 104.463 256.743 104.345 257.623 105.085C259.156 106.374 258.529 109.716 255.17 112.466C255.011 112.596 255.012 112.845 255.184 112.958C255.793 113.354 256.701 114.298 254.349 115.555C251.916 116.856 250.099 116.748 249.399 116.633C249.226 116.605 249.114 116.436 249.152 116.264L249.899 112.875C249.941 112.684 249.794 112.501 249.598 112.501H248.435Z" fill="#23396F"/>
</g>
<mask id="mask22_589_88" style="mask-type:luminance" maskUnits="userSpaceOnUse" x="248" y="109" width="5" height="7">
<path d="M248.294 113.217C248.294 113.217 249.532 108.457 251.667 109.791C253.801 111.125 250.56 115.125 248.843 115.303L248.294 113.217Z" fill="white"/>
</mask>
<g mask="url(#mask22_589_88)">
<path d="M248.294 113.217C248.294 113.217 249.532 108.457 251.667 109.791C253.801 111.125 250.56 115.125 248.843 115.303L248.294 113.217Z" fill="url(#paint5_linear_589_88)"/>
</g>
<mask id="mask23_589_88" style="mask-type:luminance" maskUnits="userSpaceOnUse" x="173" y="108" width="8" height="8">
<path d="M179.132 115.692C179.222 115.692 179.313 115.662 179.388 115.6C179.562 115.459 179.588 115.203 179.447 115.028C179.095 114.596 175.978 110.784 174.777 110.106C174.339 109.858 174.079 109.603 174.023 109.368C173.997 109.255 174.015 109.129 174.078 108.986L177.741 109.72L179.817 111.501C179.986 111.647 180.245 111.628 180.39 111.457C180.536 111.287 180.517 111.03 180.347 110.883L178.19 109.033C178.137 108.988 178.074 108.957 178.006 108.943L173.95 108.13C173.787 108.098 173.624 108.166 173.532 108.302C173.235 108.742 173.137 109.153 173.232 109.555C173.344 110.03 173.718 110.442 174.376 110.814C175.28 111.324 177.888 114.4 178.816 115.542C178.896 115.64 179.014 115.692 179.132 115.692Z" fill="white"/>
</mask>
<g mask="url(#mask23_589_88)">
<path d="M179.132 115.692C179.222 115.692 179.313 115.662 179.388 115.6C179.562 115.459 179.588 115.203 179.447 115.028C179.095 114.596 175.978 110.784 174.777 110.106C174.339 109.858 174.079 109.603 174.023 109.368C173.997 109.255 174.015 109.129 174.078 108.986L177.741 109.72L179.817 111.501C179.986 111.647 180.245 111.628 180.39 111.457C180.536 111.287 180.517 111.03 180.347 110.883L178.19 109.033C178.137 108.988 178.074 108.957 178.006 108.943L173.95 108.13C173.787 108.098 173.624 108.166 173.532 108.302C173.235 108.742 173.137 109.153 173.232 109.555C173.344 110.03 173.718 110.442 174.376 110.814C175.28 111.324 177.888 114.4 178.816 115.542C178.896 115.64 179.014 115.692 179.132 115.692Z" fill="url(#paint6_linear_589_88)"/>
</g>
<mask id="mask24_589_88" style="mask-type:luminance" maskUnits="userSpaceOnUse" x="234" y="170" width="30" height="14">
<path d="M248.452 183.362L234.112 183.539L239.131 178.815C240.379 177.641 242.283 177.45 243.723 178.385C244.566 178.932 245.48 179.673 246.272 180.656C246.272 180.656 255.217 177.388 259.553 170.073C260.903 172.08 262.482 174.811 263.851 178.208C259.964 180.49 254.925 182.284 248.452 183.362Z" fill="white"/>
</mask>
<g mask="url(#mask24_589_88)">
<path d="M248.452 183.362L234.112 183.539L239.131 178.815C240.379 177.641 242.283 177.45 243.723 178.385C244.566 178.932 245.48 179.673 246.272 180.656C246.272 180.656 255.217 177.388 259.553 170.073C260.903 172.08 262.482 174.811 263.851 178.208C259.964 180.49 254.925 182.284 248.452 183.362Z" fill="url(#paint7_linear_589_88)"/>
</g>
<mask id="mask25_589_88" style="mask-type:luminance" maskUnits="userSpaceOnUse" x="208" y="181" width="41" height="5">
<path d="M246.907 185.211C246.88 185.213 246.852 185.213 246.824 185.213L210.425 185.174C209.525 185.173 208.796 184.45 208.797 183.56C208.798 182.67 209.532 181.934 210.428 181.95L246.827 181.989C247.727 181.99 248.456 182.713 248.455 183.603C248.454 184.465 247.768 185.169 246.907 185.211Z" fill="white"/>
</mask>
<g mask="url(#mask25_589_88)">
<path d="M246.907 185.211C246.88 185.213 246.852 185.213 246.824 185.213L210.425 185.174C209.525 185.173 208.796 184.45 208.797 183.56C208.798 182.67 209.532 181.934 210.428 181.95L246.827 181.989C247.727 181.99 248.456 182.713 248.455 183.603C248.454 184.465 247.768 185.169 246.907 185.211Z" fill="#DBDDDF"/>
</g>
<mask id="mask26_589_88" style="mask-type:luminance" maskUnits="userSpaceOnUse" x="175" y="152" width="53" height="34">
<path d="M177.704 152.512H208.016C210.253 152.512 212.288 153.789 213.242 155.79L227.256 185.192H189.584C188.143 185.192 186.848 184.32 186.319 182.994L175.452 155.787C174.824 154.215 175.995 152.512 177.704 152.512Z" fill="white"/>
</mask>
<g mask="url(#mask26_589_88)">
<path d="M177.704 152.512H208.016C210.253 152.512 212.288 153.789 213.242 155.79L227.256 185.192H189.584C188.143 185.192 186.848 184.32 186.319 182.994L175.452 155.787C174.824 154.215 175.995 152.512 177.704 152.512Z" fill="#DBDDDF"/>
</g>
<mask id="mask27_589_88" style="mask-type:luminance" maskUnits="userSpaceOnUse" x="194" y="164" width="6" height="9">
<path d="M199.06 167.587C199.716 169.607 199.231 171.567 197.976 171.968C196.72 172.367 195.169 171.054 194.513 169.036C193.855 167.016 194.341 165.054 195.597 164.655C196.852 164.255 198.403 165.567 199.06 167.587Z" fill="white"/>
</mask>
<g mask="url(#mask27_589_88)">
<path d="M199.06 167.587C199.716 169.607 199.231 171.567 197.976 171.968C196.72 172.367 195.169 171.054 194.513 169.036C193.855 167.016 194.341 165.054 195.597 164.655C196.852 164.255 198.403 165.567 199.06 167.587Z" fill="#2E6EA5"/>
</g>
<defs>
<linearGradient id="paint0_linear_589_88" x1="249.401" y1="276.235" x2="243.124" y2="276.235" gradientUnits="userSpaceOnUse">
<stop stop-color="#FEBBBA"/>
<stop offset="1" stop-color="#FF928E"/>
</linearGradient>
<linearGradient id="paint1_linear_589_88" x1="284.655" y1="272.961" x2="277.153" y2="272.961" gradientUnits="userSpaceOnUse">
<stop stop-color="#FEBBBA"/>
<stop offset="1" stop-color="#FF928E"/>
</linearGradient>
<linearGradient id="paint2_linear_589_88" x1="181.475" y1="114.95" x2="211.185" y2="153.602" gradientUnits="userSpaceOnUse">
<stop stop-color="#FEBBBA"/>
<stop offset="1" stop-color="#FF928E"/>
</linearGradient>
<linearGradient id="paint3_linear_589_88" x1="247.698" y1="139.931" x2="244.448" y2="122.867" gradientUnits="userSpaceOnUse">
<stop stop-color="#FEBBBA"/>
<stop offset="1" stop-color="#FF928E"/>
</linearGradient>
<linearGradient id="paint4_linear_589_88" x1="238.904" y1="108.623" x2="257.449" y2="122.813" gradientUnits="userSpaceOnUse">
<stop stop-color="#FEBBBA"/>
<stop offset="1" stop-color="#FF928E"/>
</linearGradient>
<linearGradient id="paint5_linear_589_88" x1="241.204" y1="105.617" x2="259.749" y2="119.807" gradientUnits="userSpaceOnUse">
<stop stop-color="#FEBBBA"/>
<stop offset="1" stop-color="#FF928E"/>
</linearGradient>
<linearGradient id="paint6_linear_589_88" x1="173.197" y1="111.907" x2="180.489" y2="111.907" gradientUnits="userSpaceOnUse">
<stop stop-color="#FF928E"/>
<stop offset="1" stop-color="#FE7062"/>
</linearGradient>
<linearGradient id="paint7_linear_589_88" x1="230.331" y1="152.054" x2="243.311" y2="171.524" gradientUnits="userSpaceOnUse">
<stop stop-color="#FEBBBA"/>
<stop offset="1" stop-color="#FF928E"/>
</linearGradient>
</defs>
</svg>
