<svg width="311" height="311" viewBox="0 0 311 311" fill="none" xmlns="http://www.w3.org/2000/svg">
<mask id="mask0_428_11183" style="mask-type:luminance" maskUnits="userSpaceOnUse" x="0" y="0" width="311" height="311">
<path d="M0 3.05176e-05H311V311H0V3.05176e-05Z" fill="white"/>
</mask>
<g mask="url(#mask0_428_11183)">
<path d="M278.555 103.978C278.988 100.837 274.555 98.2536 271.225 97.9855C269.637 97.8574 267.988 98.0999 266.483 97.5762C263.223 96.4392 261.921 92.2276 258.74 90.8866C256.361 89.8833 253.624 90.7759 251.319 91.9365C249.013 93.0966 246.734 94.557 244.159 94.7219C241.919 94.8655 239.486 94.0346 237.525 95.1287C236.065 95.9441 235.3 97.6278 233.953 98.6206C232.636 99.5921 230.918 99.7974 229.284 99.8863C227.65 99.9753 225.957 99.9921 224.47 100.673C222.981 101.355 221.751 102.929 222.06 104.535L278.555 103.978Z" fill="#ECECEC"/>
<path d="M141.869 75.1487C142.301 72.0083 137.869 69.4245 134.538 69.1564C132.95 69.0283 131.3 69.2708 129.796 68.7471C126.536 67.6107 125.234 63.3985 122.053 62.0575C119.675 61.0542 116.937 61.9468 114.631 63.1074C112.326 64.2675 110.048 65.7279 107.472 65.8928C105.232 66.0364 102.799 65.2055 100.838 66.2996C99.378 67.115 98.613 68.7987 97.2663 69.7915C95.9496 70.763 94.2316 70.9689 92.597 71.0572C90.963 71.1462 89.2712 71.163 87.7827 71.8447C86.2949 72.5258 85.0639 74.0994 85.3725 75.7061L141.869 75.1487Z" fill="#ECECEC"/>
<path d="M80.982 173.504C81.4143 170.363 76.9819 167.78 73.6517 167.511C72.0631 167.384 70.4136 167.626 68.909 167.102C65.6491 165.966 64.3466 161.754 61.1663 160.412C58.7878 159.41 56.0504 160.302 53.7446 161.463C51.4389 162.623 49.1611 164.083 46.5854 164.248C44.345 164.392 41.9123 163.561 39.9518 164.655C38.4913 165.47 37.7263 167.154 36.3796 168.147C35.0622 169.118 33.3443 169.324 31.7103 169.413C30.0763 169.502 28.3838 169.518 26.896 170.2C25.4082 170.881 24.1772 172.455 24.4857 174.062L80.982 173.504Z" fill="#ECECEC"/>
<path d="M194.165 131.052C194.429 129.134 191.72 127.555 189.685 127.391C188.715 127.312 187.707 127.461 186.787 127.141C184.796 126.447 183.999 123.873 182.056 123.053C180.603 122.44 178.93 122.986 177.521 123.695C176.113 124.404 174.72 125.296 173.146 125.397C171.777 125.484 170.291 124.977 169.093 125.645C168.2 126.144 167.733 127.172 166.91 127.779C166.105 128.372 165.055 128.499 164.057 128.553C163.058 128.607 162.024 128.617 161.115 129.033C160.205 129.45 159.453 130.411 159.642 131.393L194.165 131.052Z" fill="#ECECEC"/>
</g>
<mask id="mask1_428_11183" style="mask-type:luminance" maskUnits="userSpaceOnUse" x="0" y="0" width="311" height="311">
<path d="M0 3.05176e-05H311V311H0V3.05176e-05Z" fill="white"/>
</mask>
<g mask="url(#mask1_428_11183)">
<path d="M213.041 54.7844L212.249 53.4782C205.565 42.4657 193.484 35.8271 180.745 36.6332C179.107 36.7365 177.477 36.9579 175.868 37.3025C164.286 39.7818 154.209 48.5402 150.031 59.7573C147.574 66.3543 146.888 73.9501 142.226 79.1861C136.159 86.0014 125.858 86.2153 116.801 85.933C107.745 85.6506 97.4369 85.8913 91.3992 92.7333C87.6181 97.0176 86.4157 103.111 86.7211 108.849C87.5279 124.042 98.1143 137.626 111.577 144.379C125.041 151.13 140.892 151.735 155.626 148.765C176.268 144.604 195.898 133.177 207.696 115.528C219.496 97.8791 222.482 73.8332 213.041 54.7844Z" fill="#F5F5F5"/>
<path d="M263.217 94.5606C263.217 101.137 257.885 106.469 251.308 106.469C244.732 106.469 239.4 101.137 239.4 94.5606C239.4 87.9835 244.732 82.6518 251.308 82.6518C257.885 82.6518 263.217 87.9835 263.217 94.5606Z" fill="#F5F5F5"/>
<path d="M63.0357 163.363C63.0357 169.94 57.7046 175.271 51.1276 175.271C44.5505 175.271 39.2188 169.94 39.2188 163.363C39.2188 156.786 44.5505 151.454 51.1276 151.454C57.7046 151.454 63.0357 156.786 63.0357 163.363Z" fill="#F5F5F5"/>
</g>
<mask id="mask2_428_11183" style="mask-type:luminance" maskUnits="userSpaceOnUse" x="0" y="0" width="311" height="311">
<path d="M0 3.05176e-05H311V311H0V3.05176e-05Z" fill="white"/>
</mask>
<g mask="url(#mask2_428_11183)">
<path d="M305.268 303.653C305.268 303.743 238.235 303.816 155.565 303.816C72.8668 303.816 5.84814 303.743 5.84814 303.653C5.84814 303.564 72.8668 303.491 155.565 303.491C238.235 303.491 305.268 303.564 305.268 303.653Z" fill="#1A2E35"/>
</g>
<path d="M198.452 256.852L245.476 303.505L254.658 303.48L257.924 256.852H198.452Z" fill="#E1E1E1"/>
<path d="M236.689 261.27L189.306 303.505L222.404 303.455L250.298 279.993L236.689 261.27Z" fill="#E1E1E1"/>
<path d="M232.233 140.581L290.641 194.72L291.671 138.562L232.233 140.581Z" fill="#299BCC"/>
<path d="M271.586 142.917L113.612 303.48H144.741L285.821 161.167L271.586 142.917Z" fill="#299BCC"/>
<path d="M66.5977 202.374L123.135 258.464L126.07 202.374H66.5977Z" fill="#E1E1E1"/>
<path d="M105.848 206.044L4.3374 303.48H37.0459L119.456 224.768L105.848 206.044Z" fill="#E1E1E1"/>
<path d="M115.889 183.118L196.604 263.194V183.118H115.889Z" fill="#F29D00"/>
<mask id="mask3_428_11183" style="mask-type:luminance" maskUnits="userSpaceOnUse" x="0" y="0" width="311" height="311">
<path d="M0 4.02927e-05H311V311H0V4.02927e-05Z" fill="white"/>
</mask>
<g mask="url(#mask3_428_11183)">
<path d="M169.146 184.924C167.319 186.385 51.1274 303.48 51.1274 303.48H101.185L192.531 211.596L169.146 184.924Z" fill="#F29D00"/>
</g>
<path d="M66.4424 47.021C66.4424 51.4298 62.8684 55.0032 58.4603 55.0032C54.0516 55.0032 50.4775 51.4298 50.4775 47.021C50.4775 42.6123 54.0516 39.0389 58.4603 39.0389C62.8684 39.0389 66.4424 42.6123 66.4424 47.021Z" fill="#2D9BCC"/>
<path d="M57.3232 64.8701C57.2766 64.8701 57.2393 63.396 57.2393 61.5779C57.2393 59.7591 57.2766 58.285 57.3232 58.285C57.3693 58.285 57.4072 59.7591 57.4072 61.5779C57.4072 63.396 57.3693 64.8701 57.3232 64.8701Z" fill="#2D9BCC"/>
<path d="M52.7231 56.4287C52.7629 56.4523 52.0121 57.8276 51.0461 59.5001C50.0796 61.1739 49.2635 62.5112 49.2237 62.4882C49.1839 62.4652 49.934 61.09 50.9006 59.4162C51.8672 57.7436 52.6826 56.4057 52.7231 56.4287Z" fill="#2D9BCC"/>
<path d="M48.0021 53.4896C48.0307 53.5256 47.1966 54.2372 46.1379 55.0788C45.0793 55.9203 44.1979 56.5728 44.1687 56.5361C44.1401 56.5 44.9748 55.7885 46.0334 54.9469C47.0915 54.106 47.9735 53.4529 48.0021 53.4896Z" fill="#2D9BCC"/>
<path d="M65.2859 61.6264C65.2623 61.6302 65.1907 61.3185 65.0757 60.816C64.9612 60.314 64.7983 59.6211 64.5942 58.8623C64.3902 58.1034 64.1837 57.4223 64.0307 56.9303C63.8777 56.4377 63.7832 56.1323 63.8062 56.1236C63.8267 56.1161 63.961 56.4072 64.1433 56.8918C64.3255 57.3763 64.5507 58.0555 64.7566 58.8187C64.9618 59.5819 65.1068 60.2829 65.192 60.793C65.2778 61.3036 65.3077 61.6227 65.2859 61.6264Z" fill="#2D9BCC"/>
<path d="M73.3825 55.8811C73.352 55.9159 72.2953 55.0426 71.0233 53.9305C69.7507 52.8177 68.7436 51.8878 68.7741 51.853C68.8046 51.8182 69.8607 52.6915 71.134 53.8042C72.406 54.9164 73.413 55.8462 73.3825 55.8811Z" fill="#2D9BCC"/>
<path d="M76.4839 47.9858C76.4783 48.0101 76.1126 47.946 75.5211 47.8477C74.9296 47.7488 74.1123 47.6226 73.2048 47.5181C72.2966 47.4142 71.4712 47.352 70.8729 47.3141C70.2751 47.2761 69.9038 47.2562 69.9038 47.2313C69.9038 47.2096 70.2758 47.1878 70.8779 47.1953C71.4793 47.2033 72.3109 47.2469 73.2234 47.3508C74.1365 47.4559 74.9557 47.602 75.5435 47.7308C76.1313 47.8596 76.4889 47.9647 76.4839 47.9858Z" fill="#2D9BCC"/>
<path d="M76.4939 40.2222C76.5051 40.267 74.7765 40.7272 72.6344 41.2485C70.4916 41.771 68.7456 42.1572 68.7344 42.1124C68.7238 42.067 70.4518 41.6074 72.5946 41.0855C74.7367 40.5637 76.4827 40.1768 76.4939 40.2222Z" fill="#2D9BCC"/>
<path d="M67.4738 31.1765C67.5124 31.2021 66.6858 32.5213 65.6277 34.1217C64.5691 35.724 63.6796 37.001 63.6405 36.9755C63.6019 36.95 64.4285 35.6313 65.4872 34.029C66.5458 32.4286 67.4353 31.1504 67.4738 31.1765Z" fill="#2D9BCC"/>
<path d="M58.5223 29.2867C58.5466 29.2879 58.5434 29.7066 58.5341 30.3827C58.5242 31.0588 58.5105 31.9918 58.5117 33.0224C58.513 34.0537 58.5285 34.9873 58.5397 35.6628C58.5509 36.3389 58.5546 36.7575 58.531 36.7588C58.5086 36.76 58.4626 36.3433 58.4209 35.6678C58.3792 34.9917 58.345 34.0562 58.3438 33.0231C58.3425 31.9893 58.3749 31.0544 58.4153 30.3783C58.4551 29.7022 58.4999 29.2855 58.5223 29.2867Z" fill="#2D9BCC"/>
<path d="M51.7429 37.7296C51.7038 37.7539 50.8622 36.4496 49.8651 34.8174C48.8674 33.1847 48.0906 31.8418 48.1304 31.8182C48.1702 31.7939 49.0105 33.097 50.0082 34.7297C51.0059 36.3625 51.7828 37.7054 51.7429 37.7296Z" fill="#2D9BCC"/>
<path d="M47.6938 41.1713C47.6888 41.1931 47.3641 41.1458 46.8448 41.037C46.326 40.9275 45.6138 40.7534 44.8376 40.5245C44.0607 40.2956 43.3678 40.0555 42.8733 39.8651C42.3775 39.6748 42.079 39.5386 42.0871 39.5174C42.0952 39.495 42.408 39.5921 42.9125 39.7532C43.4163 39.9143 44.1117 40.1351 44.8848 40.364C45.658 40.591 46.3621 40.7826 46.8727 40.9213C47.3828 41.0594 47.6988 41.1477 47.6938 41.1713Z" fill="#2D9BCC"/>
<path d="M45.9245 47.3041C45.9288 47.3501 44.7881 47.4981 43.3768 47.6331C41.9654 47.7693 40.8178 47.8415 40.8135 47.7955C40.8091 47.7494 41.9493 47.602 43.3612 47.4664C44.7719 47.3302 45.9201 47.258 45.9245 47.3041Z" fill="#2D9BCC"/>
<path d="M283.721 222.736C284.047 220.372 280.709 218.427 278.202 218.224C277.006 218.128 275.765 218.311 274.632 217.916C272.177 217.061 271.197 213.889 268.802 212.879C267.011 212.124 264.95 212.797 263.214 213.67C261.478 214.543 259.762 215.643 257.824 215.768C256.137 215.875 254.305 215.25 252.829 216.074C251.729 216.687 251.153 217.955 250.14 218.703C249.148 219.434 247.854 219.588 246.624 219.656C245.394 219.723 244.12 219.735 242.999 220.248C241.879 220.761 240.952 221.946 241.184 223.156L283.721 222.736Z" fill="white"/>
<path d="M283.721 222.736C283.725 222.74 283.656 222.745 283.516 222.75C283.36 222.754 283.155 222.761 282.893 222.768C282.322 222.779 281.509 222.795 280.469 222.815C278.332 222.848 275.263 222.895 271.459 222.953C263.779 223.045 253.134 223.173 241.186 223.317L241.052 223.319L241.026 223.187C240.887 222.481 241.14 221.734 241.583 221.168C242.024 220.595 242.662 220.165 243.352 219.933C244.946 219.391 246.59 219.62 248.099 219.339C248.852 219.207 249.583 218.951 250.159 218.484C250.741 218.019 251.174 217.384 251.698 216.814C251.96 216.531 252.244 216.256 252.578 216.042C252.912 215.83 253.282 215.678 253.662 215.595C254.426 215.432 255.186 215.486 255.914 215.541C256.643 215.597 257.358 215.67 258.05 215.593C258.744 215.521 259.414 215.323 260.052 215.067C261.334 214.555 262.492 213.831 263.707 213.276C264.918 212.73 266.208 212.339 267.49 212.434C268.126 212.486 268.747 212.664 269.283 212.972C269.819 213.278 270.274 213.68 270.677 214.099C271.483 214.943 272.118 215.855 272.857 216.59C273.581 217.337 274.456 217.865 275.384 217.995C276.308 218.142 277.209 218.062 278.054 218.124C279.758 218.26 281.114 218.938 282.073 219.628C283.035 220.339 283.547 221.174 283.688 221.788C283.827 222.404 283.704 222.754 283.721 222.736C283.693 222.723 283.777 222.405 283.625 221.805C283.467 221.213 282.954 220.413 281.998 219.729C281.048 219.068 279.7 218.42 278.042 218.305C277.214 218.252 276.313 218.342 275.351 218.198C274.38 218.073 273.439 217.513 272.696 216.753C271.932 216.003 271.291 215.091 270.497 214.273C270.102 213.867 269.663 213.484 269.156 213.199C268.65 212.911 268.07 212.749 267.47 212.702C266.259 212.616 265.01 212.994 263.826 213.536C262.637 214.082 261.475 214.814 260.164 215.344C259.509 215.609 258.811 215.818 258.082 215.896C257.35 215.979 256.615 215.904 255.89 215.849C255.166 215.795 254.432 215.749 253.731 215.901C253.024 216.047 252.423 216.468 251.931 217.029C251.428 217.575 250.989 218.226 250.359 218.733C249.73 219.246 248.939 219.519 248.155 219.656C246.581 219.943 244.95 219.724 243.459 220.238C242.813 220.456 242.242 220.846 241.839 221.366C241.438 221.88 241.226 222.529 241.343 223.125L241.183 222.994C253.089 222.903 263.698 222.821 271.35 222.762C275.169 222.746 278.249 222.731 280.394 222.722C281.45 222.721 282.273 222.721 282.853 222.721C283.122 222.723 283.335 222.724 283.495 222.726C283.642 222.729 283.717 222.732 283.721 222.736Z" fill="#1A2E35"/>
<path d="M150.086 274.796C150.518 271.656 146.086 269.073 142.756 268.804C141.168 268.676 139.518 268.919 138.013 268.395C134.753 267.258 133.451 263.047 130.27 261.705C127.892 260.703 125.154 261.594 122.849 262.756C120.543 263.916 118.265 265.376 115.689 265.54C113.449 265.684 111.016 264.854 109.056 265.947C107.595 266.763 106.83 268.446 105.484 269.44C104.167 270.411 102.449 270.617 100.814 270.706C99.1803 270.794 97.4884 270.811 96 271.492C94.5122 272.173 93.2812 273.747 93.5897 275.354L150.086 274.796Z" fill="white"/>
<path d="M150.086 274.797C150.086 274.797 149.996 274.806 149.811 274.811C149.611 274.816 149.335 274.823 148.979 274.831C148.23 274.844 147.146 274.863 145.755 274.887C142.925 274.926 138.845 274.983 133.782 275.053C123.596 275.17 109.459 275.333 93.592 275.516L93.4582 275.517L93.4321 275.384C93.2511 274.466 93.5795 273.489 94.1611 272.746C94.7414 271.994 95.5768 271.43 96.4867 271.124C98.5866 270.409 100.767 270.712 102.783 270.337C103.789 270.161 104.77 269.817 105.542 269.189C106.323 268.565 106.9 267.719 107.591 266.967C107.938 266.592 108.312 266.23 108.751 265.95C109.189 265.672 109.675 265.473 110.174 265.362C111.178 265.146 112.184 265.219 113.149 265.291C114.117 265.365 115.07 265.463 115.996 265.359C116.923 265.263 117.818 264.998 118.669 264.657C120.376 263.974 121.913 263.01 123.524 262.275C125.127 261.549 126.833 261.033 128.525 261.157C129.363 261.227 130.182 261.459 130.888 261.866C131.597 262.268 132.197 262.8 132.732 263.354C133.801 264.47 134.644 265.682 135.63 266.661C136.595 267.654 137.768 268.361 139.007 268.533C140.24 268.727 141.439 268.62 142.558 268.7C143.683 268.771 144.7 269.067 145.59 269.42C146.481 269.78 147.248 270.219 147.884 270.685C148.519 271.156 149.01 271.669 149.369 272.16C149.735 272.649 149.92 273.142 150.032 273.541C150.119 273.946 150.148 274.265 150.116 274.483C150.099 274.698 150.086 274.797 150.086 274.797C150.086 274.797 150.083 274.68 150.085 274.472C150.102 274.267 150.065 273.953 149.969 273.558C149.762 272.767 149.08 271.7 147.81 270.787C147.177 270.334 146.415 269.91 145.533 269.564C144.652 269.223 143.649 268.941 142.546 268.881C141.444 268.809 140.246 268.927 138.974 268.736C137.692 268.569 136.453 267.83 135.469 266.824C134.459 265.829 133.608 264.618 132.553 263.528C132.025 262.986 131.441 262.474 130.761 262.092C130.085 261.706 129.308 261.489 128.505 261.425C126.885 261.31 125.219 261.814 123.642 262.534C122.058 263.261 120.517 264.233 118.779 264.934C117.913 265.284 116.991 265.56 116.027 265.661C115.061 265.771 114.089 265.671 113.125 265.6C112.164 265.528 111.184 265.464 110.242 265.669C109.774 265.773 109.327 265.958 108.922 266.215C108.516 266.474 108.162 266.817 107.826 267.181C107.153 267.911 106.572 268.773 105.743 269.439C104.915 270.113 103.875 270.473 102.84 270.654C100.759 271.034 98.5903 270.742 96.5931 271.43C95.7285 271.721 94.9597 272.245 94.4173 272.944C93.8768 273.636 93.5895 274.514 93.7487 275.324L93.5888 275.193C109.414 275.063 123.513 274.946 133.673 274.863C138.75 274.834 142.843 274.81 145.68 274.793C147.086 274.789 148.181 274.786 148.939 274.784C149.303 274.785 149.585 274.787 149.79 274.787C149.982 274.79 150.086 274.797 150.086 274.797Z" fill="#1A2E35"/>
<path d="M92.565 126.459C92.9277 123.823 89.2075 121.655 86.4122 121.43C85.0793 121.322 83.6947 121.526 82.4314 121.086C79.6952 120.132 78.6024 116.597 75.9328 115.471C73.9368 114.629 71.6385 115.378 69.7034 116.352C67.7684 117.326 65.8564 118.552 63.6943 118.69C61.814 118.811 59.7713 118.113 58.1261 119.032C56.9008 119.717 56.2583 121.129 55.1281 121.963C54.0228 122.778 52.5804 122.951 51.2089 123.025C49.8374 123.1 48.4173 123.114 47.1684 123.686C45.9194 124.257 44.8863 125.578 45.145 126.927L92.565 126.459Z" fill="white"/>
<path d="M92.5649 126.459C92.568 126.463 92.4902 126.468 92.3347 126.473C92.1637 126.478 91.9329 126.484 91.6387 126.492C91.0055 126.504 90.098 126.521 88.9349 126.542C86.5557 126.577 83.1335 126.628 78.8889 126.69C70.3321 126.791 58.465 126.931 45.1467 127.089L45.013 127.09L44.9868 126.958C44.8326 126.178 45.1119 125.35 45.6039 124.723C46.0934 124.088 46.8 123.609 47.5675 123.352C49.3377 122.75 51.1701 123.004 52.8558 122.69C53.6986 122.543 54.5165 122.257 55.1609 121.733C55.8121 121.213 56.296 120.503 56.8776 119.871C57.1699 119.555 57.4847 119.249 57.856 119.012C58.2267 118.778 58.6379 118.609 59.059 118.516C59.9067 118.334 60.7527 118.395 61.5638 118.456C62.3761 118.518 63.1747 118.6 63.9485 118.513C64.7229 118.434 65.4724 118.212 66.1852 117.926C67.6158 117.354 68.9065 116.546 70.2606 115.928C71.6072 115.319 73.0434 114.885 74.469 114.99C75.175 115.048 75.8654 115.244 76.4613 115.587C77.0584 115.927 77.5628 116.375 78.0125 116.841C78.9113 117.779 79.6179 118.796 80.4439 119.617C81.2525 120.45 82.2316 121.041 83.2684 121.185C84.2997 121.349 85.3061 121.26 86.246 121.328C88.1431 121.479 89.6545 122.232 90.7231 123C91.7948 123.792 92.3658 124.721 92.5238 125.404C92.5966 125.745 92.6196 126.013 92.5916 126.197C92.5767 126.378 92.5649 126.459 92.5649 126.459C92.5649 126.459 92.5605 126.359 92.5611 126.186C92.5742 126.015 92.5418 125.752 92.461 125.421C92.2856 124.759 91.7133 123.866 90.6478 123.102C89.588 122.362 88.0852 121.638 86.2348 121.509C85.3111 121.449 84.3053 121.549 83.2355 121.389C82.1557 121.249 81.1101 120.626 80.2828 119.78C79.4332 118.944 78.7179 117.928 77.8334 117.015C77.3912 116.561 76.9017 116.133 76.3344 115.814C75.7684 115.492 75.1202 115.311 74.4485 115.258C73.0944 115.162 71.6999 115.584 70.3781 116.188C69.0508 116.797 67.7576 117.613 66.2966 118.204C65.5682 118.498 64.7919 118.73 63.9802 118.816C63.166 118.908 62.3487 118.824 61.5395 118.764C60.7328 118.704 59.9123 118.651 59.1274 118.822C58.3368 118.985 57.6607 119.458 57.1121 120.085C56.5492 120.695 56.0609 121.419 55.3612 121.983C54.662 122.551 53.785 122.855 52.9124 123.008C51.1614 123.327 49.3421 123.083 47.6739 123.658C46.9517 123.901 46.3117 124.338 45.8595 124.921C45.4092 125.497 45.1716 126.226 45.3034 126.897L45.1436 126.766C58.4202 126.661 70.25 126.567 78.7795 126.5C83.0389 126.478 86.473 126.461 88.8602 126.448C90.0383 126.447 90.957 126.446 91.5983 126.445C91.9012 126.447 92.1382 126.449 92.3142 126.45C92.4765 126.452 92.5611 126.456 92.5649 126.459Z" fill="#1A2E35"/>
<path d="M262.133 57.7952C262.418 55.7234 259.494 54.0185 257.297 53.8418C256.249 53.7572 255.16 53.9171 254.167 53.5712C252.017 52.8217 251.157 50.0426 249.059 49.1575C247.49 48.4957 245.684 49.0854 244.162 49.8504C242.641 50.6161 241.138 51.5796 239.439 51.6884C237.96 51.783 236.355 51.235 235.062 51.9565C234.098 52.4952 233.593 53.6054 232.704 54.2604C231.836 54.9017 230.703 55.0373 229.624 55.0958C228.546 55.1542 227.43 55.1654 226.448 55.6151C225.466 56.0642 224.654 57.103 224.857 58.1628L262.133 57.7952Z" fill="white"/>
<path d="M262.133 57.7952C262.137 57.799 262.076 57.8039 261.954 57.8089C261.816 57.8133 261.636 57.8189 261.409 57.8257C260.904 57.8363 260.195 57.8512 259.288 57.8705C257.411 57.9003 254.724 57.9433 251.394 57.9968C244.658 58.0801 235.329 58.1952 224.859 58.3246L224.725 58.3264L224.698 58.1933C224.575 57.5688 224.8 56.9076 225.19 56.4088C225.579 55.9037 226.143 55.5243 226.75 55.3203C228.153 54.8438 229.594 55.0447 230.913 54.7991C231.571 54.684 232.208 54.4601 232.709 54.0533C233.216 53.649 233.596 53.0929 234.055 52.5928C234.498 52.0822 235.109 51.6536 235.788 51.5186C236.46 51.3743 237.128 51.4228 237.767 51.4714C238.405 51.5205 239.03 51.5846 239.634 51.5168C240.24 51.4546 240.826 51.2816 241.385 51.0577C242.506 50.6099 243.52 49.9754 244.587 49.4897C245.649 49.0095 246.782 48.6668 247.911 48.7507C248.469 48.7968 249.016 48.9529 249.488 49.2247C249.961 49.494 250.358 49.8479 250.714 50.2162C251.421 50.9563 251.976 51.7562 252.622 52.3994C253.256 53.0525 254.018 53.514 254.829 53.6278C255.636 53.7566 256.427 53.6875 257.167 53.7423C258.663 53.8629 259.852 54.4582 260.693 55.0646C261.536 55.691 261.985 56.4243 262.108 56.9636C262.229 57.5041 262.118 57.8126 262.133 57.7952C262.107 57.7815 262.178 57.5048 262.044 56.9804C261.905 56.4623 261.455 55.7638 260.618 55.1667C259.787 54.5882 258.605 54.0222 257.156 53.9227C256.432 53.8773 255.64 53.9569 254.796 53.8312C253.942 53.7218 253.113 53.2285 252.461 52.5623C251.791 51.9036 251.227 51.105 250.534 50.3903C250.187 50.0339 249.804 49.6999 249.361 49.4511C248.92 49.2004 248.414 49.0599 247.89 49.0188C246.833 48.9448 245.741 49.2745 244.705 49.7484C243.665 50.2274 242.647 50.8693 241.495 51.3351C240.921 51.5671 240.308 51.7519 239.667 51.8197C239.022 51.8924 238.378 51.8265 237.742 51.7792C237.108 51.732 236.467 51.6915 235.856 51.8247C235.241 51.9522 234.719 52.3167 234.289 52.8068C233.849 53.2845 233.464 53.8561 232.91 54.3027C232.354 54.7549 231.658 54.9956 230.969 55.1157C229.585 55.3676 228.157 55.1766 226.857 55.6257C226.294 55.8154 225.797 56.1544 225.447 56.6072C225.097 57.0544 224.914 57.6167 225.016 58.1324L224.856 58.0017C235.284 57.9246 244.576 57.8562 251.285 57.807C254.629 57.794 257.327 57.784 259.213 57.7766C260.134 57.7778 260.856 57.7784 261.369 57.7791C261.603 57.7815 261.789 57.7834 261.934 57.7853C262.063 57.7878 262.129 57.7915 262.133 57.7952Z" fill="#1A2E35"/>
<path d="M153.689 167.124L153.242 177.353C153.242 177.353 163.489 181.243 163.59 183.141L143.726 182.987L143.769 167.019L153.689 167.124Z" fill="#375A64"/>
<path d="M147.107 176.444C146.721 176.546 146.452 176.977 146.538 177.365C146.624 177.755 147.06 178.032 147.447 177.936C147.834 177.842 148.173 177.335 148.043 176.958C147.914 176.581 147.385 176.283 147.032 176.468" fill="#E1E1E1"/>
<mask id="mask4_428_11183" style="mask-type:luminance" maskUnits="userSpaceOnUse" x="143" y="181" width="21" height="3">
<path d="M143.726 181.377H163.6V183.141H143.726V181.377Z" fill="white"/>
</mask>
<g mask="url(#mask4_428_11183)">
<g opacity="0.600006">
<path d="M143.726 182.987L143.793 181.377L162.814 182.127C162.814 182.127 163.695 182.519 163.591 183.141L143.726 182.987Z" fill="white"/>
</g>
</g>
<path d="M153.565 177.254C153.561 177.351 153.075 177.392 152.596 177.7C152.108 177.995 151.859 178.413 151.77 178.375C151.681 178.355 151.83 177.776 152.417 177.413C153.001 177.045 153.587 177.165 153.565 177.254Z" fill="#1A2E35"/>
<path d="M155.642 178.132C155.663 178.226 155.242 178.388 154.909 178.796C154.565 179.194 154.478 179.637 154.382 179.632C154.29 179.647 154.228 179.078 154.651 178.579C155.069 178.076 155.64 178.04 155.642 178.132Z" fill="#1A2E35"/>
<path d="M156.806 180.635C156.717 180.655 156.586 180.17 156.839 179.64C157.089 179.109 157.548 178.903 157.589 178.985C157.643 179.065 157.346 179.347 157.145 179.785C156.933 180.217 156.902 180.626 156.806 180.635Z" fill="#1A2E35"/>
<path d="M153.408 174.912C153.367 175 152.923 174.862 152.374 174.896C151.825 174.918 151.397 175.098 151.347 175.014C151.291 174.944 151.711 174.588 152.357 174.558C153.004 174.523 153.456 174.836 153.408 174.912Z" fill="#1A2E35"/>
<path d="M184.555 167.124L184.107 177.353C184.107 177.353 194.355 181.243 194.456 183.141L174.591 182.987L174.634 167.019L184.555 167.124Z" fill="#375A64"/>
<path d="M177.971 176.444C177.586 176.546 177.317 176.977 177.403 177.365C177.49 177.755 177.925 178.032 178.312 177.936C178.698 177.842 179.037 177.335 178.908 176.958C178.779 176.581 178.25 176.283 177.897 176.468" fill="#E1E1E1"/>
<mask id="mask5_428_11183" style="mask-type:luminance" maskUnits="userSpaceOnUse" x="174" y="181" width="21" height="3">
<path d="M174.591 181.377H194.464V183.141H174.591V181.377Z" fill="white"/>
</mask>
<g mask="url(#mask5_428_11183)">
<g opacity="0.600006">
<path d="M174.591 182.987L174.658 181.377L193.679 182.127C193.679 182.127 194.56 182.519 194.456 183.141L174.591 182.987Z" fill="white"/>
</g>
</g>
<path d="M184.43 177.254C184.426 177.351 183.941 177.392 183.461 177.7C182.973 177.995 182.724 178.413 182.635 178.375C182.546 178.355 182.695 177.776 183.282 177.413C183.867 177.045 184.452 177.165 184.43 177.254Z" fill="#1A2E35"/>
<path d="M186.507 178.132C186.528 178.226 186.107 178.388 185.774 178.796C185.43 179.194 185.343 179.637 185.247 179.632C185.155 179.647 185.093 179.078 185.516 178.579C185.935 178.076 186.506 178.04 186.507 178.132Z" fill="#1A2E35"/>
<path d="M187.671 180.635C187.582 180.655 187.451 180.17 187.705 179.64C187.954 179.109 188.413 178.903 188.454 178.985C188.508 179.065 188.211 179.347 188.01 179.785C187.798 180.217 187.767 180.626 187.671 180.635Z" fill="#1A2E35"/>
<path d="M184.273 174.912C184.232 175 183.788 174.862 183.239 174.896C182.69 174.918 182.262 175.098 182.213 175.014C182.157 174.944 182.576 174.588 183.223 174.558C183.869 174.523 184.321 174.836 184.273 174.912Z" fill="#1A2E35"/>
<path d="M143.82 32.8044C143.121 30.8918 142.43 28.9642 142.071 26.9601C141.711 24.956 141.696 22.8531 142.336 20.9205C142.433 20.6276 143.279 18.6539 143.587 18.6732C143.807 18.6869 143.309 20.5175 143.427 20.7034C144.551 22.4836 144.918 24.6606 144.824 26.7642C144.731 28.8672 144.363 30.7699 143.82 32.8044Z" fill="#1A2E35"/>
<path d="M144.475 43.6484L143.732 25.1688C143.381 20.074 145.663 15.5023 150.766 15.2933L151.32 15.3033C156.032 15.3848 159.89 19.0701 160.187 23.773C160.468 28.2116 160.723 33.141 160.652 35.522C160.506 40.4203 155.593 41.0964 155.593 41.0964C155.581 41.097 155.802 44.6474 155.84 46.0848C155.84 46.0848 155.321 46.4624 150.757 46.6241C146.192 46.7858 144.475 43.6484 144.475 43.6484Z" fill="#FFC19D"/>
<path d="M155.592 41.0966C155.592 41.0966 152.501 41.2241 149.246 39.0994C149.246 39.0994 150.739 42.6902 155.636 42.3338L155.592 41.0966Z" fill="#FF9C6A"/>
<path d="M158.505 28.2218C158.512 28.5919 158.204 28.9023 157.818 28.916C157.432 28.9303 157.114 28.6423 157.108 28.2728C157.101 27.9028 157.408 27.5918 157.794 27.5781C158.18 27.5638 158.498 27.8524 158.505 28.2218Z" fill="#1A2E35"/>
<path d="M158.951 26.4735C158.862 26.5631 158.34 26.1619 157.586 26.1507C156.834 26.1283 156.275 26.5065 156.195 26.4126C156.155 26.3709 156.247 26.2079 156.49 26.0369C156.731 25.8665 157.137 25.7041 157.606 25.7141C158.075 25.7253 158.467 25.9044 158.69 26.0848C158.919 26.267 158.994 26.4337 158.951 26.4735Z" fill="#1A2E35"/>
<path d="M152.069 28.3371C151.981 28.4266 151.457 28.0254 150.704 28.0136C149.952 27.9925 149.393 28.37 149.313 28.2761C149.274 28.2344 149.364 28.0715 149.608 27.9004C149.849 27.73 150.255 27.5677 150.724 27.5776C151.193 27.5888 151.585 27.7679 151.808 27.9483C152.036 28.1306 152.112 28.2966 152.069 28.3371Z" fill="#1A2E35"/>
<path d="M154.362 32.406C154.359 32.3631 154.828 32.2903 155.588 32.207C155.781 32.1902 155.963 32.1554 155.998 32.0241C156.046 31.8866 155.969 31.6777 155.88 31.4525C155.707 30.9841 155.527 30.4927 155.337 29.9784C154.583 27.8803 154.042 26.1568 154.126 26.1269C154.211 26.0971 154.891 27.774 155.644 29.872C155.825 30.3895 155.998 30.8821 156.163 31.3542C156.231 31.5744 156.353 31.8238 156.249 32.1106C156.195 32.253 156.052 32.355 155.928 32.3861C155.805 32.4216 155.696 32.4216 155.601 32.4259C154.837 32.4533 154.363 32.4489 154.362 32.406Z" fill="#1A2E35"/>
<path d="M152.104 26.3316C152.012 26.5288 151.272 26.3645 150.382 26.3913C149.492 26.4 148.76 26.5934 148.659 26.4006C148.615 26.3079 148.756 26.1276 149.061 25.9559C149.362 25.7848 149.833 25.638 150.367 25.6269C150.9 25.6169 151.376 25.7444 151.685 25.9036C151.996 26.0629 152.144 26.2377 152.104 26.3316Z" fill="#1A2E35"/>
<path d="M159.247 23.6564C159.132 23.8561 158.505 23.8107 157.795 23.9562C157.08 24.0806 156.511 24.353 156.335 24.2081C156.256 24.1366 156.314 23.9487 156.541 23.7335C156.766 23.5196 157.169 23.2969 157.659 23.2036C158.149 23.1115 158.604 23.1712 158.888 23.2888C159.176 23.4064 159.295 23.5606 159.247 23.6564Z" fill="#1A2E35"/>
<path d="M144.066 28.7678C143.984 28.7299 140.718 27.7135 140.766 31.0649C140.815 34.4168 144.17 33.6766 144.173 33.5802C144.178 33.4844 144.066 28.7678 144.066 28.7678Z" fill="#FFC19D"/>
<path d="M143.076 32.3385C143.061 32.3279 143.018 32.3802 142.919 32.4268C142.824 32.4722 142.659 32.5052 142.483 32.4424C142.128 32.3174 141.821 31.7594 141.796 31.1561C141.783 30.8507 141.843 30.5596 141.947 30.3176C142.046 30.0707 142.202 29.8972 142.38 29.8629C142.557 29.8194 142.685 29.9245 142.727 30.0184C142.773 30.1111 142.753 30.1783 142.771 30.1839C142.78 30.192 142.842 30.1267 142.813 29.9886C142.798 29.922 142.758 29.8437 142.678 29.7808C142.597 29.7162 142.478 29.6844 142.354 29.7C142.096 29.7211 141.866 29.9625 141.751 30.2281C141.623 30.4955 141.548 30.8227 141.562 31.1654C141.594 31.8403 141.949 32.4673 142.436 32.6004C142.672 32.6588 142.868 32.5848 142.968 32.504C143.071 32.4194 143.087 32.3447 143.076 32.3385Z" fill="#FF9C6A"/>
<path d="M157.895 18.3523C158.43 18.0407 156.762 16.3221 155.415 15.7486C153.379 14.8815 150.29 14.3908 148.446 14.9605C146.224 15.6466 144.393 16.8029 143.317 18.8642C142.242 20.9255 141.875 23.3065 141.995 25.6278C142.032 26.3363 142.122 27.0733 142.515 27.6642C143 28.3945 143.909 28.8398 143.894 29.863C143.888 30.2368 144.003 30.6113 144.266 30.8775C144.894 31.5157 145.63 30.885 145.96 30.263C146.666 28.9331 146.711 27.3644 146.741 25.8592C146.762 24.7894 146.78 23.6965 146.455 22.677C146.278 22.1228 146.002 21.601 145.856 21.0368C145.711 20.4733 145.713 19.8295 146.055 19.3587C146.111 19.2822 146.203 19.1845 146.321 19.0775C147.25 18.2229 148.573 17.943 149.772 18.3361C151.675 18.96 154.921 19.8812 155.747 19.2212C156.936 18.272 157.212 17.665 157.212 17.665L157.895 18.3523Z" fill="#1A2E35"/>
<path d="M154.849 34.4426C154.862 34.4967 154.678 34.6055 154.342 34.6478C154.008 34.6908 153.526 34.641 153.056 34.4177C152.585 34.1938 152.242 33.8504 152.066 33.5649C151.886 33.2776 151.854 33.0661 151.905 33.0425C152.017 32.9834 152.423 33.6439 153.245 34.0202C154.055 34.4202 154.823 34.3188 154.849 34.4426Z" fill="#1A2E35"/>
<path d="M201.503 26.2875C201.503 26.2875 201.374 25.5044 200.987 25.5044C200.6 25.5044 200.019 25.7158 199.761 26.2875C199.503 26.8591 201.503 26.2875 201.503 26.2875Z" fill="#FFC19D"/>
<path d="M191.638 38.7553L192.025 32.5776L193.251 26.2171C193.251 26.2171 194.219 25.182 194.735 25.4228C195.251 25.6635 195.057 26.5131 195.057 26.5131C195.057 26.5131 196.412 25.0496 196.929 25.3867C197.444 25.7232 197.251 26.5131 197.251 26.5131C197.251 26.5131 198.477 24.8891 199.058 25.3363C199.638 25.7835 199.058 26.5131 199.058 26.5131C199.058 26.5131 199.827 33.64 199.439 36.1858C199.052 38.7317 196.884 39.6771 196.884 39.6771L195.854 43.6853L190.799 40.9342L191.638 38.7553Z" fill="#FFC19D"/>
<path d="M194.732 30.6729L167.276 30.3681V28.1712L194.732 27.4011V30.6729Z" fill="#2D9BCC"/>
<path d="M223.723 32.8499L184.929 31.2109C184.444 29.8929 184.425 28.466 184.899 26.9241L223.45 25.2241C225.226 27.0677 225.245 30.9528 223.723 32.8499Z" fill="#2D9BCC"/>
<path d="M223.344 25.5791C223.344 25.5791 222.175 26.6732 222.221 29.0561C222.267 31.4384 223.44 32.4404 223.44 32.4404C223.44 32.4404 224.712 31.0957 224.527 28.7078C224.347 26.3734 223.344 25.5791 223.344 25.5791Z" fill="#E1E1E1"/>
<path d="M221.794 32.85C221.766 32.8743 221.424 32.5546 221.04 31.9083C220.659 31.2708 220.253 30.2638 220.275 29.0925C220.293 27.9468 220.584 26.9149 220.955 26.2581C221.32 25.5938 221.686 25.2896 221.71 25.3151C221.753 25.3493 221.456 25.7008 221.16 26.3595C220.858 27.0132 220.617 27.9941 220.599 29.0994C220.578 30.1922 220.924 31.1557 221.241 31.8007C221.561 32.4513 221.835 32.8183 221.794 32.85Z" fill="#1A2E35"/>
<path d="M223.523 25.3116C223.564 25.3445 223.28 25.7078 222.971 26.3683C222.661 27.0221 222.354 28.0011 222.38 29.1051C222.398 30.211 222.742 31.1776 223.074 31.8195C223.382 32.4932 223.777 32.7214 223.763 32.7557C223.757 32.7737 223.633 32.7525 223.456 32.6244C223.276 32.4981 223.069 32.2549 222.875 31.9321C222.477 31.2946 222.075 30.2826 222.057 29.112C222.029 27.9414 222.393 26.9144 222.768 26.2632C223.143 25.6033 223.497 25.2867 223.523 25.3116Z" fill="#1A2E35"/>
<path d="M224.028 27.3022C223.978 27.1785 223.918 27.0553 223.822 26.962C223.726 26.8687 223.588 26.8096 223.457 26.8376C223.327 26.865 223.225 26.9769 223.187 27.1038C223.151 27.2313 223.173 27.3707 223.23 27.4913C223.37 27.7718 223.6 28.0325 223.593 28.3124C223.585 28.5923 223.514 28.8709 223.537 29.1502C223.546 29.2522 223.569 29.3567 223.627 29.4407C223.686 29.5246 223.788 29.5837 223.89 29.57C224.056 29.547 224.138 29.3592 224.176 29.1962C224.324 28.5699 224.272 27.8981 224.028 27.3022Z" fill="white"/>
<path d="M184.922 31.3496C184.851 31.39 184.365 30.4234 184.392 29.1216C184.409 27.8198 184.928 26.87 184.997 26.9129C185.089 26.9483 184.729 27.9006 184.716 29.1272C184.688 30.3532 185.014 31.3173 184.922 31.3496Z" fill="#1A2E35"/>
<path d="M167.22 30.8892C166.989 30.8892 166.801 30.7013 166.801 30.4699V28.1461C166.801 27.9148 166.989 27.7275 167.22 27.7275C167.451 27.7275 167.639 27.9148 167.639 28.1461V30.4699C167.639 30.7013 167.451 30.8892 167.22 30.8892Z" fill="#2D9BCC"/>
<path d="M167.22 30.8892C167.217 30.8624 167.331 30.8605 167.444 30.7461C167.498 30.6895 167.547 30.603 167.546 30.4985C167.54 30.3542 167.532 30.2093 167.524 30.0619C167.513 29.6862 167.502 29.3018 167.49 28.905C167.487 28.6811 167.484 28.454 167.481 28.222C167.502 28.0161 167.382 27.8986 167.22 27.8892C167.058 27.898 166.938 28.0161 166.959 28.2214C166.956 28.454 166.952 28.6811 166.949 28.905C166.938 29.3018 166.926 29.6862 166.915 30.0619C166.908 30.2093 166.9 30.3542 166.893 30.4992C166.893 30.603 166.941 30.6895 166.995 30.7461C167.109 30.8605 167.223 30.8624 167.22 30.8892C167.226 30.9035 167.102 30.9588 166.916 30.8437C166.829 30.7859 166.735 30.6746 166.712 30.5141C166.704 30.3648 166.695 30.2149 166.686 30.0619C166.675 29.6862 166.663 29.3018 166.651 28.905C166.648 28.6811 166.645 28.454 166.641 28.2214C166.63 28.1169 166.658 27.8998 166.77 27.7804C166.875 27.6485 167.046 27.5646 167.22 27.5652C167.394 27.5646 167.564 27.6485 167.67 27.7804C167.782 27.8998 167.81 28.1175 167.798 28.222C167.795 28.454 167.792 28.6811 167.788 28.905C167.777 29.3018 167.765 29.6862 167.753 30.0619C167.745 30.2149 167.736 30.3648 167.727 30.5141C167.704 30.6739 167.611 30.7859 167.524 30.8437C167.337 30.9588 167.214 30.9035 167.22 30.8892Z" fill="#1A2E35"/>
<path d="M171.987 35.4891C171.987 35.4891 171.404 28.2801 171.577 27.6475C171.775 26.9235 173.74 24.7888 174.435 24.7117C175.131 24.6346 175.208 25.4071 175.208 25.4071C175.208 25.4071 176.186 24.7353 177.139 24.7067C178.154 24.675 178.285 25.5682 178.285 25.5682C178.285 25.5682 178.851 25.1515 179.823 25.3262C180.232 25.3996 180.702 26.1268 180.702 26.1268C180.702 26.1268 181.72 25.687 182.205 26.1417C182.815 26.7139 182.807 27.7359 182.807 27.7359C181.862 27.6656 181.004 28.3094 181.004 28.3094C181.004 28.3094 180.77 31.433 180.384 32.9787C179.998 34.5238 178.47 35.8001 177.956 36.6L177.55 41.9312L170.989 38.456L171.987 35.4891Z" fill="#FFC19D"/>
<path d="M173.464 28.19C173.38 28.2025 173.354 27.2434 174.007 26.3209C174.65 25.391 175.561 25.0881 175.578 25.1709C175.623 25.2561 174.854 25.6585 174.273 26.5063C173.675 27.3435 173.56 28.2031 173.464 28.19Z" fill="#FF9C6A"/>
<path d="M176.674 28.066C176.599 28.0946 176.41 27.2368 176.946 26.3555C177.207 25.925 177.598 25.6414 177.908 25.5363C178.22 25.4262 178.425 25.4517 178.43 25.489C178.454 25.5786 177.675 25.7384 177.221 26.5259C176.75 27.286 176.773 28.0678 176.674 28.066Z" fill="#FF9C6A"/>
<path d="M179.023 27.8253C178.939 27.8103 179.079 27.1249 179.693 26.5719C180.302 26.0128 180.997 25.9375 181.004 26.0227C181.029 26.1142 180.447 26.3144 179.911 26.8114C179.366 27.2978 179.112 27.8582 179.023 27.8253Z" fill="#FF9C6A"/>
<path d="M195.804 37.2647C196.901 35.9747 196.065 32.5151 196.065 32.5151C196.065 32.5151 197.614 31.9988 198 30.45C198.387 28.9019 197.614 28.6438 197.614 28.6438C197.355 28.7731 194.968 30.3213 193.743 30.9669C192.517 31.6119 192.129 38.1821 192.129 38.1821" fill="#FFC19D"/>
<path d="M192.129 38.1821C192.107 38.1809 192.103 37.8736 192.13 37.3207C192.159 36.7671 192.216 35.9672 192.337 34.9826C192.479 34.0023 192.602 32.8199 193.105 31.5647C193.178 31.411 193.252 31.253 193.369 31.1056C193.467 30.957 193.674 30.8158 193.81 30.7536C194.108 30.5906 194.408 30.4152 194.712 30.2336C195.318 29.8616 195.944 29.4766 196.585 29.0829C196.908 28.8845 197.203 28.6916 197.541 28.5001L197.604 28.464L197.664 28.4907C197.961 28.6214 198.097 28.8583 198.181 29.0966C198.262 29.336 198.273 29.5786 198.26 29.8081C198.227 30.2647 198.125 30.702 197.92 31.0938C197.506 31.8744 196.813 32.3789 196.107 32.6432L196.196 32.4834C196.502 33.9438 196.535 35.1934 196.372 36.0493C196.3 36.4791 196.147 36.7938 196.034 36.9947C195.898 37.1851 195.813 37.2728 195.804 37.2647C195.792 37.2547 195.855 37.149 195.963 36.9555C196.048 36.749 196.171 36.4436 196.219 36.0244C196.332 35.194 196.26 33.9643 195.934 32.5468L195.907 32.4324L196.022 32.387C196.649 32.14 197.295 31.6517 197.648 30.9551C197.826 30.6124 197.918 30.2012 197.945 29.7913C197.981 29.3995 197.855 28.9311 197.562 28.7968L197.685 28.7881C197.394 28.9554 197.07 29.1637 196.756 29.3578C196.116 29.7565 195.489 30.144 194.874 30.5066C194.567 30.6876 194.263 30.8618 193.958 31.026C193.785 31.1112 193.708 31.1672 193.61 31.2922C193.516 31.4061 193.445 31.5497 193.377 31.6891C192.888 32.8603 192.729 34.0514 192.564 35.0143C192.414 35.9883 192.323 36.7826 192.256 37.3312C192.191 37.8798 192.152 38.1834 192.129 38.1821Z" fill="#FF9C6A"/>
<path d="M144.493 94.9123C144.493 94.9123 145.257 126.218 144.493 130.036C143.73 133.854 142.458 149.634 142.458 161.342C142.458 173.049 142.948 175.718 142.948 175.718H154.315C154.315 175.718 155.099 153.457 158.608 140.582C161.866 128.622 165.618 110.438 165.618 102.548V91.8582H145.512L144.493 94.9123Z" fill="#1A2E35"/>
<path d="M171.982 91.8582C171.982 91.8582 183.905 124.946 184.668 134.617C185.432 144.289 185.471 175.718 185.471 175.718H173.703L172.13 137.757L163.073 113.162V91.8582H171.982Z" fill="#1A2E35"/>
<path d="M165.618 109.674C165.64 109.68 165.587 110 165.472 110.576C165.349 111.211 165.191 112.03 165 113.014C164.594 115.132 164.054 117.949 163.458 121.062C162.85 124.206 162.279 127.049 161.823 129.097C161.595 130.123 161.397 130.949 161.249 131.517C161.096 132.084 161.002 132.395 160.98 132.39C160.959 132.385 161.011 132.064 161.126 131.489C161.249 130.854 161.408 130.035 161.599 129.051C162.004 126.932 162.544 124.115 163.141 121.001C163.749 117.859 164.32 115.016 164.776 112.967C165.003 111.942 165.201 111.116 165.349 110.548C165.502 109.98 165.597 109.669 165.618 109.674Z" fill="#375A64"/>
<path d="M176.497 106.469H179.018C179.018 106.469 179.595 97.7402 178.138 91.858C176.68 85.9763 169.246 60.3586 169.246 60.3586L161.009 46.7468L156.595 44.7645L171.102 93.3968L176.497 106.469Z" fill="#375A64"/>
<mask id="mask6_428_11183" style="mask-type:luminance" maskUnits="userSpaceOnUse" x="164" y="64" width="15" height="43">
<path d="M164.549 64.2147H178.131V106.469H164.549V64.2147Z" fill="white"/>
</mask>
<g mask="url(#mask6_428_11183)">
<g opacity="0.300003">
<path d="M167.324 64.2147C167.324 64.2147 174.951 86.8107 176.213 92.7346C177.476 98.6585 178.131 106.469 178.131 106.469H176.497L170.509 90.6951C170.509 90.6951 164.268 65.6117 164.559 65.6739C164.85 65.7361 167.324 64.2147 167.324 64.2147Z" fill="black"/>
</g>
</g>
<path d="M142.751 44.2378L143.436 39.9081L155.598 45.3674V42.7152L160.972 51.6807L172.795 85.2954C173.179 86.331 173.636 89.7825 172.948 90.6459L171.981 91.8581L159.169 93.5151L147.015 49.6418L142.751 44.2378Z" fill="#E1E1E1"/>
<mask id="mask7_428_11183" style="mask-type:luminance" maskUnits="userSpaceOnUse" x="144" y="84" width="26" height="27">
<path d="M144.736 84.3296H169.387V110.657H144.736V84.3296Z" fill="white"/>
</mask>
<g mask="url(#mask7_428_11183)">
<g opacity="0.300003">
<path d="M144.763 109.674C144.763 109.674 161.036 111.501 164.37 110.174C167.705 108.847 167.863 105.444 167.863 105.444C167.863 105.444 169.495 93.8896 169.381 91.3431C169.252 88.4521 168.325 84.3294 168.325 84.3294L144.735 107.635L144.763 109.674Z" fill="black"/>
</g>
</g>
<path d="M157.02 49.2558C157.02 49.2558 162.581 68.1876 162.534 68.3288C162.487 68.47 168.701 87.7178 168.701 87.7178L169.924 81.9313L161.28 53.073L157.803 48.8135L157.02 49.2558Z" fill="#2D9BCC"/>
<path d="M139.138 46.0043C133.432 49.4788 133.136 54.8759 135.675 61.0549C136.095 62.0799 136.904 63.8445 137.466 65.0388C139.921 70.2561 145.016 78.7713 145.015 80.7635C145.014 85.4497 140.817 107.202 140.817 107.202C140.817 107.202 163.566 109.965 165.619 107.816C167.671 105.668 169.252 92.2656 168.592 86.2689C167.863 79.652 164.454 68.4604 163.073 64.3166C162.242 61.8249 159.497 55.6167 156.223 51.5482C153.775 48.5054 150.86 45.8712 147.593 43.7309L142.751 40.5581L141.753 43.9175C141.753 43.9175 140.42 45.2237 139.138 46.0043Z" fill="#375A64"/>
<path d="M161.28 47.5141C161.749 47.4886 182.542 54.3095 181.341 53.8069L181.896 53.2278L189.389 41.9317L196.214 45.979C196.214 45.979 189.442 58.9191 188.324 60.9468C187.322 62.7631 185.386 64.2192 182.807 64.2148C181.282 64.2123 168.26 62.0353 168.26 62.0353L161.28 47.5141Z" fill="#375A64"/>
<path d="M169.645 39.7412L171.254 36.8924L178.496 41.0119L177.367 44.1487L169.645 39.7412Z" fill="#E1E1E1"/>
<mask id="mask8_428_11183" style="mask-type:luminance" maskUnits="userSpaceOnUse" x="137" y="58" width="29" height="15">
<path d="M137.789 58.8041H165.619V72.5447H137.789V58.8041Z" fill="white"/>
</mask>
<g mask="url(#mask8_428_11183)">
<g opacity="0.300003">
<path d="M137.79 61.275C137.79 61.275 151.781 69.0693 156.216 70.0962C160.649 71.1232 165.619 72.5444 165.619 72.5444L163.624 66.1888L151.478 58.8038L137.79 61.275Z" fill="black"/>
</g>
</g>
<path d="M137.789 61.2748C137.616 61.1435 158.761 68.6635 163.069 67.3082C167.376 65.9522 168.776 61.6797 170.316 59.0524C173.135 54.2418 178.131 44.6811 178.131 44.6811L169.162 39.562L160.252 54.4701C160.252 54.4701 144.511 47.9802 143.06 47.5566C141.61 47.133 137.128 46.5527 134.934 51.7911C132.504 57.5963 137.789 61.2748 137.789 61.2748Z" fill="#375A64"/>
<path d="M137.789 61.2749C137.798 61.2786 137.728 61.2469 137.631 61.171C137.53 61.0976 137.381 60.9838 137.196 60.8214C136.827 60.498 136.294 59.9917 135.736 59.2223C135.185 58.4566 134.601 57.406 134.345 56.0507C134.258 55.716 134.262 55.3572 134.228 54.9902C134.207 54.6219 134.262 54.2419 134.278 53.8494C134.365 53.4669 134.412 53.0607 134.538 52.6651C134.687 52.277 134.779 51.8522 134.987 51.4641C135.327 50.6555 135.839 49.8674 136.493 49.1521C137.154 48.4418 138.023 47.8527 139.029 47.5175C140.032 47.1741 141.161 47.0976 142.283 47.2662C142.846 47.3396 143.409 47.5293 143.943 47.7408C144.483 47.9485 145.033 48.16 145.59 48.374C150.03 50.123 154.975 52.1433 160.31 54.3296L160.122 54.3924C162.876 49.7766 165.886 44.7346 169.022 39.4794L169.104 39.3431L169.242 39.4221C170.265 40.0062 171.362 40.6319 172.466 41.262C174.434 42.3853 176.377 43.4944 178.211 44.5412L178.346 44.6183L178.273 44.7558C176.511 48.1127 174.776 51.3627 173.07 54.4714C172.216 56.0252 171.37 57.5435 170.512 59.0126C169.664 60.4694 168.993 62.0032 168.093 63.366C167.218 64.7382 166.092 65.9374 164.742 66.7155C164.056 67.0806 163.372 67.4152 162.604 67.5452C161.848 67.6454 161.113 67.5969 160.396 67.5316C157.537 67.2143 154.958 66.542 152.617 65.9386C147.944 64.6847 144.25 63.4668 141.707 62.6265C139.168 61.7787 137.789 61.2749 137.789 61.2749C137.788 61.2624 137.88 61.2873 138.052 61.3377C138.236 61.3949 138.489 61.4733 138.814 61.5747C139.496 61.7936 140.48 62.109 141.744 62.5145C144.297 63.3194 148 64.5049 152.673 65.729C155.01 66.3168 157.592 66.9755 160.421 67.2765C161.126 67.3387 161.853 67.381 162.565 67.2828C163.259 67.1664 163.955 66.8312 164.606 66.4791C165.907 65.7228 166.995 64.5609 167.852 63.2093C168.733 61.8676 169.396 60.3437 170.253 58.8615C171.105 57.3948 171.947 55.8759 172.799 54.3228C174.498 51.2134 176.229 47.9622 177.988 44.6065L178.051 44.8205C176.217 43.7743 174.274 42.6659 172.306 41.5432C171.201 40.9131 170.105 40.2867 169.082 39.7027L169.301 39.6454C166.158 44.8964 163.142 49.9358 160.382 54.5479L160.314 54.6599L160.194 54.6101C154.865 52.4132 149.925 50.378 145.496 48.6122C144.941 48.3957 144.394 48.183 143.856 47.9734C143.316 47.7582 142.795 47.579 142.245 47.5038C141.16 47.3352 140.067 47.4036 139.099 47.7302C138.128 48.048 137.287 48.6091 136.642 49.2939C136.004 49.9837 135.496 50.7488 135.157 51.5418C134.949 51.9212 134.858 52.3355 134.707 52.7149C134.58 53.1018 134.532 53.498 134.443 53.8718C134.424 54.2543 134.367 54.6263 134.385 54.9858C134.414 55.3447 134.406 55.6968 134.488 56.0252C134.724 57.355 135.285 58.3981 135.817 59.1644C136.356 59.9351 136.874 60.4495 137.23 60.7829C137.409 60.9508 137.551 61.0708 137.647 61.1511C137.712 61.2077 137.751 61.2425 137.789 61.2749Z" fill="#1A2E35"/>
<path d="M147.957 93.1382L149.916 89.1717L163.623 89.4124L162.1 93.5151L147.957 93.1382Z" fill="#375A64"/>
<path d="M147.957 93.138C147.965 93.133 148.067 93.1305 148.255 93.1305C148.474 93.1318 148.742 93.133 149.071 93.1355C149.811 93.1442 150.817 93.1567 152.055 93.1722C154.585 93.2064 158.087 93.2574 162.104 93.3576L161.952 93.4602C162.414 92.2112 162.902 90.8944 163.403 89.5397C163.426 89.4775 163.449 89.4159 163.471 89.3556L163.621 89.5739C158.103 89.4763 153.174 89.3681 149.914 89.276L150.01 89.2175C149.392 90.4099 148.893 91.3715 148.528 92.0738C148.361 92.3904 148.225 92.6479 148.115 92.855C148.019 93.0354 147.966 93.133 147.957 93.138C147.948 93.143 147.985 93.0565 148.064 92.8824C148.158 92.6765 148.276 92.4208 148.42 92.1067C148.765 91.3734 149.237 90.3695 149.822 89.1249L149.85 89.0658L149.918 89.0664C153.179 89.0894 158.108 89.1535 163.626 89.2505L163.855 89.2542L163.776 89.4688C163.753 89.5285 163.729 89.5907 163.706 89.6529C163.203 91.0058 162.713 92.3219 162.248 93.5703L162.208 93.676L162.096 93.6729C157.999 93.5566 154.429 93.4191 151.916 93.319C150.698 93.2686 149.709 93.2282 148.981 93.1977C148.67 93.1828 148.415 93.1703 148.208 93.1604C148.035 93.1504 147.949 93.143 147.957 93.138Z" fill="#1A2E35"/>
<path d="M157.108 52.7213C157.064 52.7991 153.59 50.8908 149.35 48.46C145.109 46.028 141.708 43.9947 141.752 43.9169C141.797 43.8392 145.27 45.7475 149.511 48.1789C153.751 50.6096 157.152 52.6436 157.108 52.7213Z" fill="#1A2E35"/>
<path d="M161.847 82.6523C161.842 82.7419 158.539 82.6025 154.473 82.3425C150.404 82.0819 147.112 81.7983 147.118 81.7087C147.123 81.6198 150.425 81.7585 154.493 82.0191C158.56 82.2797 161.853 82.5633 161.847 82.6523Z" fill="#1A2E35"/>
<path d="M189.817 42.2328L191.194 39.9084L196.671 43.1055L195.606 45.6277L189.817 42.2328Z" fill="#E1E1E1"/>
<path d="M182.767 58.5882C182.711 58.6473 181.892 57.7945 181.431 56.4398C180.96 55.0894 181.081 53.9126 181.161 53.9244C181.26 53.9226 181.286 55.0484 181.738 56.3347C182.174 57.6253 182.846 58.5291 182.767 58.5882Z" fill="#1A2E35"/>
<path d="M169.376 60.8063C169.461 60.7814 170.039 62.5205 170.664 64.6901C171.291 66.8602 171.729 68.6392 171.643 68.664C171.558 68.6889 170.98 66.9504 170.353 64.7803C169.727 62.6101 169.289 60.8312 169.376 60.8063Z" fill="#1A2E35"/>
<path d="M160.981 59.185C160.925 59.2447 160.15 58.3273 159.919 56.911C159.673 55.4965 160.106 54.3763 160.178 54.4143C160.275 54.4354 160.005 55.5283 160.239 56.8568C160.452 58.1885 161.065 59.1334 160.981 59.185Z" fill="#1A2E35"/>
<mask id="mask9_428_11183" style="mask-type:luminance" maskUnits="userSpaceOnUse" x="148" y="89" width="16" height="6">
<path d="M148.813 89.4125H163.623V94.7629H148.813V89.4125Z" fill="white"/>
</mask>
<g mask="url(#mask9_428_11183)">
<g opacity="0.300003">
<path d="M149.056 93.161L148.813 94.3621L163.008 94.7627L163.623 89.4123L162.1 93.515L149.056 93.161Z" fill="black"/>
</g>
</g>
<path d="M155.299 47.9876L155.448 48.1487L157.02 49.2559L157.803 48.8136L157.291 47.0789L155.636 45.838L155.299 47.9876Z" fill="#2D9BCC"/>
<path d="M157.417 45.8379C157.459 45.831 157.588 46.3952 157.767 47.3363L157.818 47.6012L157.591 47.4426C157.043 47.057 156.336 46.5463 155.543 45.9623L155.79 45.8621C155.715 46.3498 155.636 46.8679 155.554 47.4053C155.503 47.7262 155.452 48.041 155.404 48.3439L155.37 48.5579L155.177 48.4627C153.984 47.878 152.941 47.3512 152.201 46.9606C151.461 46.5706 151.023 46.3174 151.041 46.282C151.058 46.2459 151.528 46.4331 152.293 46.7715C153.058 47.1111 154.118 47.6025 155.316 48.1753L155.089 48.2948C155.136 47.9912 155.184 47.6765 155.234 47.3549C155.32 46.8181 155.403 46.3012 155.482 45.8136L155.523 45.5567L155.729 45.7135C156.512 46.3106 157.201 46.8467 157.725 47.2647L157.549 47.3711C157.427 46.4213 157.375 45.8447 157.417 45.8379Z" fill="#1A2E35"/>
</svg>
